<?xml version="1.0" encoding="UTF-8"?>
<svg id="Layer_2" data-name="Layer 2" xmlns="http://www.w3.org/2000/svg" viewBox="0 0 116.14 114.81">
  <defs>
    <style>
      .cls-1 {
        fill: #4d4136;
      }

      .cls-1, .cls-2, .cls-3, .cls-4, .cls-5, .cls-6, .cls-7, .cls-8, .cls-9, .cls-10, .cls-11, .cls-12, .cls-13, .cls-14, .cls-15, .cls-16, .cls-17, .cls-18, .cls-19, .cls-20, .cls-21, .cls-22, .cls-23, .cls-24, .cls-25, .cls-26, .cls-27, .cls-28, .cls-29 {
        stroke-width: 0px;
      }

      .cls-2 {
        fill: #bf844f;
      }

      .cls-3 {
        fill: #51463b;
      }

      .cls-4 {
        fill: #56514c;
      }

      .cls-5 {
        fill: #794c1e;
      }

      .cls-6 {
        fill: #f9dfc1;
      }

      .cls-7 {
        fill: #67615a;
      }

      .cls-8 {
        fill: #524438;
      }

      .cls-9 {
        fill: #eda15b;
      }

      .cls-10 {
        fill: #857f78;
      }

      .cls-11 {
        fill: #7a6552;
      }

      .cls-12 {
        fill: #4a3f35;
      }

      .cls-13 {
        fill: #5a4b3e;
      }

      .cls-14 {
        fill: #543;
      }

      .cls-15 {
        fill: #302924;
      }

      .cls-16 {
        fill: #bf844e;
      }

      .cls-17 {
        fill: #514d48;
      }

      .cls-18 {
        fill: #463a30;
      }

      .cls-19 {
        fill: #fbe0c2;
      }

      .cls-20 {
        fill: #eea25b;
      }

      .cls-21 {
        fill: #44280f;
      }

      .cls-22 {
        fill: #442810;
      }

      .cls-23 {
        fill: #534231;
      }

      .cls-24 {
        fill: #794b1e;
      }

      .cls-25 {
        fill: #493d31;
      }

      .cls-26 {
        fill: #57483a;
      }

      .cls-27 {
        fill: #655343;
      }

      .cls-28 {
        fill: #4e4a45;
      }

      .cls-29 {
        fill: #312a23;
      }
    </style>
  </defs>
  <g id="Layer_3" data-name="Layer 3">
    <g>
      <path class="cls-20" d="M26.41,28.84v-.04s.05,0,.05,0c.25.04.46.02.45-.31,0,0,0,0,0,0,.07-.07.14-.13.21-.2,0,0,0,0,0,0,.08,0,.15.01.23.02l1.47-1c.29.09.58.17.86.26,1.68.55,3.37,1.06,5.04,1.66,1.24.44,2.46.95,3.66,1.49,1.7.77,3.39,1.58,5.06,2.41.48.23.49.46.15.87-2.2,2.72-4.3,5.5-6.16,8.47-1.25,2-2.07,4.16-2.42,6.48-.19,1.22-.19,2.46-.24,3.7-.1,2.34-.19,4.68-.28,7.01-.09,2.49-.79,4.83-1.66,7.14-.05.13-.15.24-.27.43-.31-.49-.61-.9-.86-1.35-.58-1.03-1.46-1.95-1.21-3.28,0-.04-.04-.09-.06-.13-.02-.07-.04-.14-.06-.2-.04-.08-.08-.16-.12-.24-.23-.71-1.02-1.07-1.83-.88-1.46.34-2.57,1.25-3.67,2.17-2.02,1.7-3.67,3.74-5.33,5.78-1.63,2.01-3.21,4.06-4.85,6.06-.56.68-1.16,1.36-2.02,1.69-.66.26-1.35.32-1.95-.14-.59-.46-.74-1.12-.67-1.85,0-.05.02-.1.03-.15.36-1.63,1.32-2.95,2.27-4.26.83-1.15,1.74-2.24,2.58-3.39.27-.37.5-.8.61-1.24.15-.59-.25-.9-.83-.7-.32.12-.67.28-.9.52-1.11,1.17-2.27,2.32-3.24,3.6-.75.99-1.22,2.18-1.85,3.26-.15.25-.38.57-.62.63-.54.12-1.13.08-1.56-.35-.35-.35-.61-.78-.91-1.17.02-.63-.07-1.29.07-1.89.35-1.46,1.12-2.75,1.86-4.04.59-1.03,1.22-2.04,1.76-3.09.23-.45.33-.98.38-1.48.02-.22-.16-.55-.36-.69-.14-.1-.49-.01-.67.11-.3.2-.61.44-.8.74-.73,1.12-1.44,2.25-2.12,3.4-.38.63-.68,1.3-1.03,1.95-.14.27-.3.35-.59.14-.93-.67-1.56-1.54-1.44-2.69.08-.77.36-1.57.72-2.26.58-1.11,1.33-2.12,1.98-3.2.52-.86,1.02-1.73,1.47-2.62.22-.43.32-.94.08-1.4-.11-.21-.34-.45-.55-.49-.18-.04-.46.14-.62.3-.2.21-.33.5-.49.75-1.13,1.84-2.25,3.68-3.38,5.52-.1.16-.25.28-.37.42-.06,0-.12,0-.18,0-.27-.82-.61-1.62-.78-2.45-.35-1.7.3-3.19,1.17-4.59,1.32-2.11,3.04-3.9,4.71-5.72,1.25-1.37,2.59-2.65,3.88-3.99.11-.11.13-.31.19-.46,0,0,0,0,0,0,.36,0,.52-.15.5-.5,0,0,0,0,0,0,.08.01.15.03.23.04.07-.07.14-.14.21-.22l-.04-.13s0,0,0,0c.32.05.44-.09.4-.4,0,0,0,0,0,0,.04,0,.08,0,.12-.01,0-.03-.01-.06-.02-.09,0,0,0,0,0,0,.1-.01.24.01.3-.04.3-.28.59-.57.87-.87.05-.06.03-.19.05-.29,0,0,0,0,0,0,.07-.03.13-.07.2-.1,0,0,0,0,0,0,.03-.07.07-.13.1-.2,0,0,0,0,0,0,.3.12.38-.05.4-.3,0,0,0,0,0,0,.04.01.08.03.12.04.1-.07.2-.15.3-.22.03-.11.05-.21.08-.32,0,0,0,0,0,0,.07-.03.13-.07.2-.1,0,0,0,0,0,0,.07-.07.14-.14.2-.2,0,0,0,0,0,0,.11-.05.22-.1.33-.15.03-.03.06-.06.1-.08.08-.08.16-.16.25-.24.05-.01.11-.01.14-.04,1.78-1.74,3.57-3.48,5.34-5.23.06-.06.05-.18.08-.27,0,0,0,0,0,0,.23.13.32.04.3-.2,0,0,0,0,0,0,.1-.1.2-.2.3-.31,0,0,0,0,0,0,.1-.1.2-.2.31-.3,0,0,0,0,0,0,.13-.1.27-.2.4-.31,0,0,0,0,0,0,.03-.07.07-.13.1-.2,0,0,0,0,0,0,.1-.1.2-.2.3-.3,0,0,0,0,0,0,.07-.07.13-.13.2-.2,0,0,0,0,0,0,.07-.03.13-.07.2-.1,0,0,0,0,0,0,.07-.04.14-.07.21-.11.83-.71,1.66-1.42,2.47-2.14.27-.24.5-.52.74-.78,0,0,0,0,0,0,0-.05,0-.1,0-.15Z"/>
      <path class="cls-24" d="M106.65,52.63c-.05-.03-.1-.05-.15-.08.02-.43-.43-.42-.61-.66,0-.1,0-.19.01-.29.03-.07.06-.15.09-.22,0-.06,0-.12.01-.18.06-.17.12-.34.17-.51.14-.8.28-1.6.42-2.41.03-.03.06-.07.08-.1.07-.41.15-.81.22-1.22.09-.53.18-1.07.28-1.6,0-.07,0-.13,0-.2.03-.27.07-.54.1-.81.1-.69.26-1.37.29-2.06.07-1.56.08-3.13.11-4.69,0-.14.02-.29.03-.47.79.32,1.53.64,2.29.93.8.31,1.6.58,2.41.88.07.1.13.2.2.29.03.17.07.34.1.51.07.23.13.46.2.69v.31s.01.06.02.09c.03.16.05.33.1.49.29,1.03.66,2.05.87,3.1.48,2.36,1.12,4.68,1.36,7.09.18,1.74.52,3.45.48,5.21,0,.32.06.63.11,1.09-.27-.17-.4-.26-.53-.35-.43-.31-.84-.66-1.3-.93-2.26-1.31-4.52-2.61-6.79-3.89-.14-.08-.38,0-.57,0Z"/>
      <path class="cls-2" d="M83.99,102.22c.17-.06.35-.12.52-.18.41.25.79.03,1.17-.09,1.21-.22,2.44-.36,3.63-.67,1.83-.48,3.64-1.07,5.45-1.62.07-.02.15,0,.25,0,.1,1.52-.04,2.99-.33,4.45-.04.21-.19.45-.37.58-1.01.77-2,1.56-3.06,2.26-2.77,1.84-5.7,3.39-8.68,4.85-.27.13-.5.36-.75.54-.38.09-.81.09-.97.56,0,0,0,0,0,0-.14,0-.28,0-.42,0-.55.26-1.09.52-1.64.76-.16.07-.36.03-.54.04.25-1.05.53-2.09.74-3.15.35-1.72.66-3.46.98-5.18.04-.02.12-.04.12-.07.12-.63.26-1.26.33-1.9.04-.33.18-.49.47-.53.59-.08,1.18-.12,1.76-.23.45-.09.87-.26,1.31-.39Z"/>
      <path class="cls-15" d="M28.63,64.65c.7.85,1.41,1.69,2.08,2.56,1.78,2.31,3.51,4.65,5.3,6.94,2.33,2.97,5.34,4.9,9.02,5.8,2.53.62,5.08,1.16,7.45,2.32,1.68.83,3.22,1.85,4.45,3.28.43.5.37.67-.25.87-1.22.4-2.44.8-3.68,1.16-.22.06-.52.02-.73-.08-.38-.18-.83-.53-1.14-.2-.26.27-.35.82-.32,1.23.11,1.7.79,3.24,1.49,4.76,1.36,2.93,3.05,5.65,5.13,8.12.82.97,1.7,1.89,2.54,2.84.86.96,1.5,2.04,1.91,3.27.3.92-.25,2.18-1.16,2.57-1.17.5-2.3.29-3.39-.23-1.57-.75-2.64-2.04-3.54-3.47-.64-1.02-1.18-2.1-1.79-3.14-.24-.4-.51-.79-.83-1.12-.33-.35-.84-.22-.84.25,0,.63.06,1.31.3,1.89.65,1.58,1.75,2.88,2.9,4.12.78.85,1.6,1.67,2.33,2.56.55.67.53,1.33.08,1.99-.49.74-1.08,1-1.94.81-1.05-.24-1.96-.8-2.75-1.49-1.34-1.18-2.61-2.45-3.91-3.67-.6-.56-1.21-1.1-1.82-1.64-.04-.03-.08-.08-.12-.09-.28-.07-.55-.13-.83-.19.06.26.03.59.18.78.94,1.17,1.92,2.31,2.89,3.45.39.46.81.89,1.17,1.38.54.74.45,1.33-.25,1.94-.81.7-1.71.8-2.65.29-1.2-.65-2.01-1.7-2.84-2.72-.98-1.21-1.92-2.45-2.95-3.61-.46-.51-1.09-.88-1.67-1.26-.35-.23-.63-.03-.55.39.06.32.18.66.38.91.93,1.18,1.9,2.33,2.86,3.49.28.34.57.66.8,1.03.33.53.21.95-.36,1.17-2.04.81-3.84.59-5.6-1.05-1.88-1.76-3.38-3.84-4.76-6-2.28-3.56-4.1-7.36-5.89-11.18-1.62-3.47-3.22-6.95-4.72-10.47-1.03-2.43-1.88-4.93-2.81-7.4-.06-.15-.07-.31-.11-.47.13.1.25.19.38.29.14.37.27.75.42,1.12.55,1.44,1.1,2.89,1.66,4.33.47,1.21.94,2.42,1.46,3.61.86,1.95,1.75,3.89,2.65,5.81,1.09,2.32,2.18,4.64,3.32,6.93.91,1.82,1.87,3.61,2.85,5.39.54.98,1.12,1.94,1.78,2.84,1.05,1.42,2.13,2.81,3.28,4.15,1.1,1.29,2.42,2.26,4.24,2.17.46-.02.91-.18,1.36-.29.69-.17.8-.46.34-1.01-.78-.93-1.6-1.83-2.36-2.78-.58-.72-1.23-1.41-1.5-2.33-.12-.4-.12-.8.25-.96.29-.13.75-.12,1.02.03.53.29,1.06.67,1.46,1.12,1.13,1.31,2.17,2.7,3.31,4.01.71.81,1.47,1.59,2.31,2.27.77.63,1.57.55,2.34-.07.29-.24.67-.54.49-.99-.14-.37-.36-.72-.62-1.02-.63-.71-1.31-1.38-1.96-2.08-.47-.51-.96-1.03-1.37-1.59-.31-.43-.65-.88-.61-1.5.02-.43.19-.55.58-.53.7.05,1.22.44,1.68.9,1.19,1.17,2.32,2.43,3.57,3.53,1.03.9,2.17,1.71,3.34,2.42,1.14.69,1.99.34,2.5-.84.05-.13.11-.32.05-.42-.18-.37-.36-.76-.63-1.07-.65-.74-1.36-1.43-2.03-2.15-1.5-1.61-2.87-3.29-3.39-5.5-.12-.5.03-.94.35-1.29.28-.31.7-.25,1.03-.06.24.13.45.36.59.59.37.57.72,1.16,1.04,1.77.87,1.65,1.86,3.2,3.26,4.46.97.87,2.07,1.4,3.42,1.39,1.3-.01,2.44-1.14,1.9-2.52-.27-.69-.59-1.39-1.03-1.98-.71-.96-1.51-1.86-2.32-2.74-1.81-1.95-3.33-4.11-4.64-6.42-1.36-2.39-2.58-4.85-3.07-7.6-.1-.56.01-1.04.26-1.48.31-.56,1.05-.57,1.71-.1.13.09.34.21.46.17,1.21-.37,2.4-.77,3.6-1.15.36-.12.44-.26.15-.55-1.21-1.19-2.57-2.17-4.08-2.94-1.91-.97-3.99-1.43-6.02-2.03-1.29-.37-2.6-.68-3.86-1.12-1.73-.6-3.28-1.53-4.64-2.77-2.11-1.92-3.73-4.26-5.44-6.52-1.19-1.57-2.38-3.13-3.55-4.7-.19-.26-.3-.58-.44-.87.04,0,.07,0,.11,0Z"/>
      <path class="cls-14" d="M43.69,36.52c.2-.42.39-.86.62-1.26.06-.11.31-.17.46-.15.73.13,1.34-.38,1.17-1.1-.1-.44-.33-.9-.64-1.22-.51-.54-1.08-1.08-1.72-1.44-2.03-1.12-4.1-2.17-6.18-3.2-2.11-1.04-4.4-1.57-6.61-2.33-1.16-.4-2.28-.94-3.39-1.49-.72-.35-1.21-.98-1.62-1.67-.88-1.52.02-3.22,1.95-3.42,1.53-.15,2.94.38,4.34.87,1.62.57,3.22,1.21,4.84,1.8.26.1.55.18.83.17.24,0,.48-.15.72-.23-.09-.24-.12-.56-.3-.69-.54-.41-1.09-.86-1.71-1.1-1.61-.64-3.25-1.21-4.91-1.73-.58-.18-1.22-.16-1.84-.19-.72-.04-1.08-.35-1.14-1.07-.02-.28-.04-.57-.05-.85-.03-1.77,1.41-2.54,2.76-2.65,1.69-.14,3.32.24,4.93.74,1.19.37,2.41.66,3.62.97.17.04.38.04.54-.01.17-.06.4-.2.43-.34.04-.17-.05-.48-.18-.56-.48-.3-.97-.64-1.5-.76-1.65-.36-3.31-.63-4.97-.93-.84-.15-1.09-.45-.92-1.27.39-1.88,1.57-2.85,3.67-2.55,2.02.29,3.9,1.03,5.86,1.51.62.15,1.24.29,1.87.35.39.04.8-.05,1.18-.15.15-.04.26-.27.38-.41-.13-.12-.25-.3-.4-.34-.79-.19-1.61-.3-2.4-.51-1.32-.36-2.64-.73-3.93-1.18-1.23-.43-1.21-.56-.45-1.57,1.28-1.7,3.01-2.15,5.02-1.94,3.09.33,5.98,1.31,8.81,2.57,3.04,1.36,6.03,2.81,8.91,4.47,3.11,1.8,6.19,3.64,9.27,5.5,2.36,1.42,4.7,2.89,7.03,4.36.62.39,1.2.85,1.8,1.28.18.13.4.2.57.34.3.26.15.58.13.91-.05.73.01,1.47-.02,2.21-.08,2.21-.12,4.42-.3,6.62-.17,1.95-.51,3.89-.79,5.92-.32-.1-.5-.16-.68-.22.16-.08.33-.16.49-.24.04-.51.07-1.03.13-1.54.15-1.18.35-2.36.46-3.55.11-1.14.16-2.29.21-3.44.08-1.73.17-3.47.17-5.2,0-.5.1-1.12-.48-1.49-.52-.33-.99-.73-1.52-1.06-2.53-1.57-5.08-3.13-7.62-4.69-1.84-1.13-3.66-2.29-5.52-3.37-2.01-1.18-4.05-2.31-6.11-3.42-1.33-.72-2.68-1.38-4.05-2.01-1.64-.76-3.28-1.56-4.99-2.15-1.62-.57-3.32-.92-5-1.31-.87-.2-1.75-.26-2.67-.14-1.6.2-2.56,1.18-3.5,2.5.63.24,1.18.52,1.77.67,1.57.42,3.15.78,4.73,1.18.36.09.73.22,1.06.4.36.2.35.51.1.84-.34.45-.83.62-1.32.55-1.2-.16-2.42-.28-3.56-.65-1.55-.5-3.1-.99-4.72-1.2-.97-.13-1.95-.14-2.59.76-.29.41-.44.92-.59,1.41-.19.6-.07.79.55.9,1.19.22,2.39.38,3.58.61,1.02.2,2.06.39,2.95,1.01.42.29.56.66.45,1.12-.09.38-.38.6-.77.6-.46,0-.93,0-1.37-.11-1.8-.46-3.58-.97-5.38-1.43-1.05-.27-2.1-.28-3.16,0-.74.2-1.55,1-1.56,1.69,0,.4-.01.8,0,1.21.02.53.21.68.73.74.92.11,1.86.2,2.76.42.85.21,1.66.58,2.49.88,1.27.45,2.55.91,3.55,1.86.29.28.55.64.38,1.06-.16.4-.54.54-.96.48-.44-.06-.91-.08-1.32-.23-1.85-.67-3.68-1.42-5.54-2.07-1.09-.38-2.22-.7-3.41-.5-.7.11-1.28.43-1.61,1.11-.46.94,0,1.68.54,2.37.77.97,1.87,1.43,2.98,1.84,1.36.5,2.76.88,4.12,1.37,1.52.55,3.04,1.09,4.5,1.76,2.22,1.01,4.43,2.07,6.43,3.5.74.53,1.36,1.18,1.67,2.07.27.76-.16,1.76-.84,1.73-.65-.03-.92.29-1.18.75-.08.14-.21.25-.31.38-.07,0-.14,0-.2,0Z"/>
      <path class="cls-28" d="M105.3,86.64c-.07.31-.14.61-.2.92-.09,0-.17-.01-.26-.02.01-.06.02-.12.03-.18.31-.27.15-.54,0-.81,0-.11,0-.22-.01-.33-.04-.16-.08-.31-.12-.47l-.03-.21c-.05-.16-.1-.33-.14-.49-.13-.12-.26-.24-.39-.36-.04-.04-.08-.08-.12-.12-.03.04-.05.07-.08.11-.09.03-.17.05-.26.08-.08.04-.16.08-.24.13-.06.02-.12.05-.18.07-.17.08-.35.16-.52.24-.31.13-.63.25-.94.38-.09.04-.18.08-.27.13-.06.02-.13.04-.19.06-.21.09-.41.17-.62.26-.05.02-.1.04-.15.06l-.26.14c-.06.02-.11.04-.17.06-.18.09-.36.17-.53.26-.72.47-1.53.67-2.38.64-.58-.02-.77-.42-.41-.88.2-.26.44-.53.72-.68,1.13-.61,2.28-1.19,3.43-1.74,1.4-.67,2.85-1.24,4.07-2.24,1.15-.95,1.3-1.57.71-2.93-.41-.95-.98-1.27-1.96-.92-1.66.6-3.28,1.31-4.95,1.91-.98.35-2,.62-3.02.85-.39.09-.91.06-1.08-.42-.18-.52.26-.81.64-1,.69-.34,1.4-.63,2.12-.88,1.56-.55,3.15-1.01,4.69-1.6,1.12-.43,2.07-1.16,2.77-2.16.73-1.03.6-2.2-.3-2.97-.74-.64-1.65-.61-2.53-.53-2.02.16-3.88.97-5.81,1.48-1.51.4-3.02.83-4.53,1.25-.08.03-.16.06-.23.09-.08,0-.16.02-.24.03-.09.03-.18.06-.26.09-.21.04-.43.08-.64.12-.09.03-.18.06-.27.09-.35.07-.69.14-1.04.21-.09.03-.18.06-.26.08-.21.04-.43.07-.64.11-.15.03-.31.06-.46.09-.13.02-.27.04-.4.07-.07.01-.14.03-.21.04-.18.03-.36.07-.54.1-.09.03-.18.06-.26.09-.25.04-.5.07-.74.11l-.76.09c-.13.02-.27.04-.4.05,0-.11,0-.21,0-.32.32-.03.64-.05.95-.08.08-.03.17-.06.25-.09.17-.02.33-.04.5-.07.2-.04.4-.08.6-.12.08-.01.16-.02.24-.03.16-.03.31-.06.47-.09,1.01-.22,2.03-.41,3.02-.68,2.67-.74,5.32-1.53,7.99-2.26,1.24-.34,2.48-.71,3.75-.86,1.58-.19,3,.26,3.5,1.88.3.97-.05,1.77-.63,2.51-.89,1.15-2.1,1.86-3.44,2.33-1.53.54-3.09.98-4.62,1.51-.7.24-1.44.45-1.96,1.13.58.43,1.18.22,1.69.04,1.49-.51,2.94-1.12,4.42-1.66.98-.36,1.97-.72,2.98-1,.78-.21,1.39.15,1.74.85.22.44.41.92.52,1.4.2.84-.15,1.55-.8,2.03-.91.67-1.86,1.3-2.86,1.82-1.27.67-2.61,1.19-3.9,1.82-.53.26-1.01.64-1.5.99-.13.1-.21.27-.36.47.6.2,1.08.07,1.53-.12,1.63-.68,3.25-1.39,4.88-2.08.82-.34,1.23-.15,1.49.68.13.41.19.84.28,1.27.02.06.04.13.05.19Z"/>
      <path class="cls-13" d="M10.42,43.85c-.06.16-.08.35-.19.46-1.29,1.33-2.63,2.62-3.88,3.99-1.67,1.82-3.39,3.61-4.71,5.72-.88,1.4-1.53,2.89-1.17,4.59.17.83.52,1.63.78,2.45.06,0,.12,0,.18,0,.13-.14.28-.27.37-.42,1.13-1.84,2.26-3.68,3.38-5.52.16-.26.28-.54.49-.75.16-.16.44-.34.62-.3.21.04.44.28.55.49.24.46.14.97-.08,1.4-.46.89-.95,1.76-1.47,2.62-.65,1.07-1.39,2.09-1.98,3.2-.36.69-.64,1.49-.72,2.26-.12,1.15.52,2.02,1.44,2.69.29.21.45.13.59-.14.34-.65.65-1.32,1.03-1.95.68-1.15,1.38-2.28,2.12-3.4.19-.3.5-.54.8-.74.18-.12.53-.2.67-.11.19.13.38.46.36.69-.05.5-.15,1.04-.38,1.48-.54,1.05-1.17,2.06-1.76,3.09-.74,1.29-1.51,2.58-1.86,4.04-.15.6-.06,1.26-.07,1.89-.05.15-.09.31-.14.46-.53-1.02-.41-2.1.02-3.05.71-1.58,1.59-3.08,2.39-4.62.46-.89.93-1.77,1.34-2.68.11-.25,0-.59,0-.89-.28.14-.63.22-.82.44-1.28,1.44-2.11,3.16-2.96,4.87-.81,1.64-.97,1.55-2.2.37-1.06-1.02-1.33-2.71-.59-4.04.91-1.63,1.94-3.19,2.89-4.8.39-.66.69-1.36,1.03-2.05.05-.1.07-.24.05-.34-.05-.26-.14-.52-.21-.78-.18.16-.42.29-.54.49-1.14,1.83-2.26,3.67-3.38,5.51-.15.24-.31.48-.49.7-.37.48-.68.44-.99-.1-1.42-2.54-1.11-4.96.45-7.31,1.71-2.58,3.85-4.79,5.98-7.01.88-.92,1.79-1.8,2.7-2.69.1-.1.25-.13.38-.2Z"/>
      <path class="cls-26" d="M30.42,62.44s.07.09.06.13c-.25,1.34.63,2.26,1.21,3.28.25.45.55.86.86,1.35.12-.19.22-.3.27-.43.87-2.3,1.57-4.65,1.66-7.14.09-2.34.17-4.68.28-7.01.05-1.23.06-2.48.24-3.7.35-2.32,1.17-4.48,2.42-6.48,1.85-2.97,3.96-5.75,6.16-8.47.33-.41.32-.64-.15-.87-1.68-.82-3.36-1.64-5.06-2.41-1.2-.54-2.42-1.05-3.66-1.49-1.66-.59-3.36-1.11-5.04-1.66-.29-.09-.57-.18-.86-.26.05-.07.1-.14.15-.22,2.76.58,5.39,1.54,7.97,2.64,1.51.64,3.03,1.25,4.51,1.94,1.02.48,1.99,1.07,3.08,1.66-.55.74-1.03,1.35-1.48,1.98-1.82,2.54-3.69,5.05-5.42,7.65-1.28,1.93-2.03,4.11-2.24,6.43-.15,1.68-.2,3.37-.28,5.06-.09,1.99-.09,3.98-.27,5.96-.17,1.91-.58,3.8-1.33,5.59-.17.42-.3.85-.48,1.27-.19.44-.59.51-.84.1-.69-1.11-1.39-2.21-1.94-3.38-.25-.53-.18-1.21-.25-1.82.14.1.28.2.42.3Z"/>
      <path class="cls-29" d="M13.98,37.61c-.26.15-.51.22-.66.38-2.57,2.68-5.13,5.36-7.7,8.05-.23.24-.45.5-.7.72-.33.28-.65.23-.9-.13-.83-1.23-1.59-2.52-2.5-3.68-.58-.74-.4-1.3-.08-2.04.9-2.09,1.68-4.22,2.57-6.31,1.23-2.9,2.67-5.69,4.38-8.34.21-.32.54-.56.82-.83.15.32.33.62.46.95,1.41,3.63,2.81,7.26,4.22,10.89.05.12.08.25.1.34ZM9.14,25.98c-.09.07-.19.11-.24.18-.35.51-.73,1-1.02,1.53-.87,1.61-1.77,3.21-2.54,4.87-1.03,2.22-1.95,4.49-2.93,6.73-.33.76-.73,1.48-1.04,2.25-.09.22-.08.58.05.76.89,1.32,1.83,2.61,2.75,3.91.31.44.43.45.79.04.4-.46.79-.95,1.21-1.4,1.29-1.38,2.59-2.75,3.9-4.1.98-1.01,1.97-2.01,2.99-2.98.37-.35.44-.64.15-1.07-.17-.26-.25-.58-.37-.87-.47-1.17-.96-2.33-1.42-3.51-.52-1.33-1.01-2.67-1.5-4.01-.28-.76-.52-1.53-.79-2.34Z"/>
      <path class="cls-8" d="M30.42,62.44c-.14-.1-.28-.2-.42-.3-.19-.2-.38-.4-.57-.61-.3-.03-.6-.06-.91-.09-.04,0-.09,0-.13,0-.09.03-.18.06-.27.08-.3.13-.6.27-.89.4-.07.04-.14.08-.21.12-2.5,1.67-4.51,3.84-6.38,6.16-.59.73-1.19,1.43-1.79,2.15-.05.07-.11.13-.16.2-.11.13-.22.27-.33.4-.05.07-.11.14-.16.21-.05.06-.1.13-.15.19-.09.1-.17.2-.26.31-.05.07-.1.13-.15.2-.05.07-.11.13-.16.2-.08.1-.17.2-.25.3-.05.07-.1.14-.15.21-.15.2-.31.4-.46.59-.08.11-.16.21-.24.32-.08.09-.15.19-.23.28-.06.07-.12.14-.18.21-.22.26-.43.53-.65.79-.05.06-.11.13-.16.19-.15.17-.29.34-.44.51-.19.2-.38.4-.57.61-.07.07-.14.13-.22.2-.06.05-.13.1-.19.16-.35.22-.7.44-1.05.67-.09.04-.17.08-.26.12-.15.03-.3.05-.44.08-.32-.01-.64-.02-.95-.04-.17-.07-.34-.15-.51-.22-.07-.05-.14-.11-.22-.16-.13-.16-.27-.32-.4-.48-.04-.08-.08-.15-.13-.23-.02-.06-.05-.12-.07-.18-.03-.08-.07-.15-.1-.23,0-.08,0-.15-.01-.23,0-.28,0-.56,0-.84,0-.11.01-.22.02-.33.17-.42.33-.84.5-1.26.02-.05.05-.1.07-.15.08-.14.16-.28.24-.43.26-.43.51-.85.77-1.28.05-.07.09-.15.14-.22.09-.13.18-.25.27-.38.05-.07.09-.14.14-.21.18-.23.35-.47.53-.7.06-.07.11-.14.17-.21.05-.06.1-.13.14-.19.05-.06.11-.13.16-.19.08-.1.17-.21.25-.31.05-.07.1-.13.15-.2.21-.27.42-.54.63-.81.06-.07.12-.14.17-.21.04-.06.09-.13.13-.19.05-.07.11-.15.16-.22.15-.23.31-.46.46-.69.11-.22.22-.44.33-.65,0-.05.01-.1.02-.15-.01-.1-.03-.21-.04-.31-.09-.01-.19-.02-.28-.03-.06.02-.12.05-.19.07-.06.03-.13.05-.19.08-.07.04-.14.09-.21.13-.71.69-1.42,1.38-2.13,2.07-.09.1-.18.21-.27.31-.11.13-.22.26-.33.39-.06.07-.11.14-.17.21-.15.2-.3.4-.46.59-.05.07-.1.14-.14.22-.02.03-.03.06-.05.09-.05.07-.1.15-.15.22-.02.03-.04.05-.06.08-.05.07-.09.15-.14.22-.02.03-.03.05-.05.08-.08.14-.17.28-.25.42-.13.23-.26.46-.39.69-.07.14-.14.28-.21.42-.03.06-.05.12-.08.18-.04.07-.08.15-.12.22-.03.06-.05.12-.08.18-.14.3-.29.6-.43.9-.05.04-.09.09-.14.13-.09.05-.18.09-.26.14-.27.01-.54.02-.8.04-.03,0-.07,0-.1,0-.07-.01-.13-.03-.2-.04-.12-.04-.25-.08-.37-.11-.14-.06-.29-.13-.43-.19-.07-.05-.13-.1-.2-.15-.1-.1-.21-.19-.31-.29-.05-.07-.11-.14-.16-.21-.09-.15-.18-.29-.27-.44.05-.15.09-.31.14-.46.3.39.56.83.91,1.17.42.42,1.02.47,1.56.35.24-.05.47-.38.62-.63.62-1.08,1.1-2.27,1.85-3.26.97-1.28,2.13-2.43,3.24-3.6.23-.24.58-.4.9-.52.58-.21.97.11.83.7-.11.44-.34.87-.61,1.24-.84,1.15-1.74,2.24-2.58,3.39-.95,1.31-1.9,2.63-2.27,4.26-.01.05-.02.1-.03.15-.07.72.08,1.38.67,1.85.6.47,1.28.4,1.95.14.86-.33,1.46-1.01,2.02-1.69,1.64-2,3.22-4.05,4.85-6.06,1.65-2.04,3.31-4.08,5.33-5.78,1.1-.93,2.21-1.83,3.67-2.17.81-.19,1.6.18,1.83.88.04.08.08.16.12.24.02.07.04.14.06.2Z"/>
      <path class="cls-12" d="M83.97,73.98c-.51.11-1.02.21-1.56.32,0-.47-.04-.94,0-1.39.38-4.1.48-8.22.21-12.33-.21-3.15-1.27-6.05-3.13-8.65-1.58-2.2-3.1-4.43-4.62-6.67-.7-1.03-1.14-2.18-1.5-3.37-.02-.25-.04-.5-.07-.74.07.07.14.13.22.2,0,.09.01.18.02.27.03.04.06.09.09.13.29.68.51,1.41.89,2.04,1.05,1.72,2.11,3.43,3.27,5.08,1.35,1.91,2.79,3.74,3.77,5.88.51,1.12.98,2.27,1.03,3.53.05.08.09.17.14.25,0,.13.02.27.03.4.04.34.09.67.13,1.01v.15c.04.45.09.9.14,1.35.01.3.03.6.04.9,0,.1,0,.2,0,.3,0,1.07,0,2.14,0,3.21,0,.2,0,.4,0,.61-.01.57-.03,1.14-.04,1.71-.05.11-.15.21-.15.32,0,.81,0,1.63.01,2.44,0,.18,0,.36,0,.54-.03.35-.07.71-.1,1.06,0,.05,0,.1,0,.15,0,.07-.02.14-.03.21.11.29-.21.69.21.91l.51-.02c.13,0,.26,0,.39-.01.03.07.07.14.1.21Z"/>
      <path class="cls-3" d="M106.32,35.21c-.05.86-.09,1.73-.16,2.59-.1,1.3-.16,2.6-.33,3.9-.27,2.08-.53,4.17-.92,6.24-.43,2.28-1,4.53-1.53,6.78-.82,3.44-1.66,6.87-2.48,10.31-.17.73-.31,1.47-.48,2.2-.03.12-.1.23-.15.35-.07-.04-.14-.07-.21-.11.01-.1.02-.2.03-.3.05-.08.09-.17.14-.25,0-.12,0-.24.01-.35.37-.45.31-.98.32-1.51.01-.1.02-.2.03-.3.05-.08.09-.17.14-.25,0-.08,0-.16,0-.24.04-.14.08-.28.13-.42.01-.1.02-.2.03-.3.05-.08.1-.16.15-.25,0-.12,0-.23,0-.35.03-.08.07-.17.1-.25v-.25c.03-.09.06-.17.1-.26,0-.08,0-.16,0-.24.03-.09.07-.17.1-.26.32-1.44.61-2.89.95-4.33.27-1.15.61-2.28.89-3.42.3-1.19.58-2.39.84-3.6.33-1.54.71-3.08.93-4.64.29-1.99.44-4,.65-6,.07-.66.15-1.32.23-1.98.09-.23.21-.45.25-.69.1-.6.17-1.21.24-1.82Z"/>
      <path class="cls-4" d="M81.39,68.67c0,.06,0,.12.01.19-.08,0-.15,0-.23.01-.03,0-.05-.02-.05-.06-.06-.07-.12-.15-.18-.22-1.15.34-2.08,1.04-2.82,1.93-1.38,1.67-2.73,3.38-3.99,5.14-2.83,3.96-6.29,7.18-10.77,9.2-1.11.5-2.24.94-3.37,1.41-.13.01-.25.03-.42.05.04-.11.07-.18.1-.25,1.13-.5,2.26-.99,3.39-1.49,3.3-1.48,6.19-3.54,8.49-6.33,1.67-2.02,3.17-4.18,4.76-6.27.88-1.15,1.82-2.25,3.05-3.02.49-.31,1.1-.43,1.66-.64.12.12.25.23.37.35Z"/>
      <path class="cls-4" d="M25.17,98.11s.04.09.07.13c.1.29.2.58.3.87.16.35.33.7.49,1.05.07.15.15.3.22.46.06.12.12.23.18.35.1.22.21.44.31.65,1,1.66,1.95,3.35,3.01,4.97.71,1.09,1.57,2.08,2.34,3.14.54.74.44.9-.23,1.48-1.09.93-2.1.96-3.36.22-2.93-1.72-5.62-3.74-8.11-6.03-.07-.05-.13-.11-.2-.16-.32-.31-.63-.61-.95-.92.07-.06.14-.12.21-.18,1.66,1.38,3.3,2.77,4.98,4.12,1.59,1.28,3.32,2.37,5.16,3.25.28.13.7.16.98.05.44-.18.81-.53,1.21-.8.24-.16.28-.36.13-.6-.1-.15-.2-.31-.31-.45-2.15-2.64-4.02-5.46-5.47-8.54-.47-.99-.82-2.04-1.23-3.06.09,0,.18,0,.27,0Z"/>
      <path class="cls-13" d="M81.84,112.33c.25-.18.47-.41.75-.54,2.98-1.46,5.92-3,8.68-4.85,1.05-.7,2.05-1.49,3.06-2.26.17-.13.33-.37.37-.58.28-1.46.42-2.93.33-4.45-.1,0-.18-.02-.25,0-1.82.54-3.62,1.14-5.45,1.62-1.19.31-2.42.45-3.63.67-.07-.07-.14-.15-.2-.22,1.14-.25,2.29-.48,3.42-.76,1.57-.4,3.12-.84,4.68-1.27.4-.11.79-.22,1.19-.34.31-.09.5.01.5.34,0,1.11-.01,2.23-.04,3.34,0,.26-.11.52-.13.78-.06,1.12-.99,1.52-1.71,2.06-2.89,2.18-6.03,3.94-9.28,5.52-.67.33-1.34.66-2.01.99-.08,0-.15-.01-.23-.02-.01-.01-.02-.03-.03-.05Z"/>
      <path class="cls-25" d="M106.65,52.63c.19,0,.43-.08.57,0,2.27,1.28,4.54,2.58,6.79,3.89.46.27.87.62,1.3.93.13.09.27.18.53.35-.05-.46-.12-.78-.11-1.09.04-1.76-.3-3.47-.48-5.21-.25-2.41-.88-4.73-1.36-7.09-.21-1.05-.58-2.07-.87-3.1-.05-.16-.07-.32-.1-.49.01,0,.03-.02.03-.02,0-.02-.02-.04-.03-.06,0-.1,0-.21-.01-.31.07.03.14.07.21.1.44,1.57.95,3.13,1.3,4.73.5,2.24.99,4.5,1.3,6.77.27,1.98.29,4,.42,6,0,.15-.05.31-.06.38-.79-.55-1.54-1.14-2.35-1.63-2.17-1.29-4.36-2.53-6.54-3.8-.19-.11-.36-.24-.54-.36Z"/>
      <path class="cls-18" d="M94.54,26.88c.02.2.04.41.06.61.05.37.09.73.14,1.1.01.03.03.06.04.09,0,.01,0,.03-.01.05.03.19.06.38.09.57.03.15.07.3.1.45.03.09.06.17.09.26.06.13.13.25.19.38.33.34.58.27.79-.2.09-.23.18-.46.27-.69.05-.16.13-.33.13-.49.01-1.01,0-2.02,0-3.04.05,0,.11,0,.16,0,.01.37.03.74.04,1.1.04.24.08.47.13.71,0,.3,0,.6,0,.89-.03.08-.06.16-.09.25,0,.12,0,.24-.01.36,0,.07-.01.13-.02.2-.01.07-.02.13-.04.2-.04.11-.09.22-.13.34-.16.46-.37.87-.95.86-.55-.02-.76-.44-.83-.86-.23-1.4-.48-2.8-.6-4.21-.12-1.5-.05-3.01-.14-4.51-.05-.82-.36-1.56-1.2-1.93-.93-.41-1.83-.27-2.68.21-.16.09-.31.37-.31.56.01.55.14,1.09.15,1.64.05,1.87.15,3.74.06,5.6-.04.81-.47,1.61-.78,2.39-.06.14-.39.24-.59.23-.14,0-.34-.21-.39-.37-.34-1.07-.32-2.16-.11-3.26.09,0,.17,0,.26,0,0,.88.01,1.76.02,2.64.02.09.04.18.06.28.06.12.12.24.18.36.07,0,.14,0,.21,0,.13-.22.27-.45.4-.67.05-.13.09-.26.14-.38.02-.07.03-.14.05-.21.03-.09.05-.17.08-.26.01-.12.03-.24.04-.36.05-.19.09-.38.14-.57.02-.51.03-1.03.05-1.54,0-.27,0-.53,0-.8-.02-.75-.03-1.5-.05-2.24-.02-.13-.04-.25-.06-.38-.01-.07-.03-.14-.04-.21-.01-.09-.02-.19-.03-.28-.01-.26-.02-.51-.03-.77-.03-.25-.06-.5-.09-.75,0-.17,0-.33,0-.5.03-.07.06-.14.1-.21.07-.06.13-.13.2-.19.14-.08.28-.15.42-.23.21-.07.42-.15.63-.22.56,0,1.11-.01,1.67-.02.63.1,1.12.4,1.42.98.14.37.29.74.43,1.11.02.1.03.2.05.31-.02.08-.07.16-.07.23.03,1,.06,2,.09,3,0,.16.06.31.1.47.01.51.03,1.03.04,1.54.02.12.05.25.07.37Z"/>
      <path class="cls-23" d="M43.69,36.52c.07,0,.14,0,.2,0-.46.75-.91,1.5-1.38,2.28.13.01.21.02.29.03,2.25.11,4.45-.23,6.64-.68,1.51-.31,3-.74,4.5-1.12,1.16-.29,2.32-.6,3.49-.86,1.28-.28,2.56-.64,3.86-.74,1.44-.11,2.91-.07,4.35.09,1.97.22,3.93.59,5.89.95,1.04.19,2.06.48,3.09.74.95.24,1.89.51,2.84.75.6.15,1.2.24,1.81.36-.16.08-.33.16-.49.24-.07-.01-.14-.02-.21-.03-.6-.15-1.2-.3-1.8-.45-.07-.01-.14-.03-.21-.04-.08-.04-.16-.07-.24-.11-.12-.03-.24-.05-.36-.08-.12-.04-.25-.07-.37-.11l-.13-.02c-.2-.05-.39-.1-.59-.15-.07-.01-.14-.03-.22-.04-.09-.03-.18-.07-.27-.1-.15-.03-.29-.05-.44-.08-.09-.04-.18-.07-.28-.11-.11-.01-.22-.02-.33-.04-.06-.06-.11-.15-.17-.17-.6-.11-1.21-.2-1.81-.3-.11,0-.21-.01-.32-.02-.2-.05-.4-.09-.6-.14-.07-.01-.14-.03-.21-.04-.49-.1-.99-.2-1.48-.3-.11,0-.21,0-.32-.01-.17-.04-.34-.09-.5-.13-.14-.02-.27-.03-.41-.05-.26-.04-.51-.08-.77-.12-.05,0-.09,0-.14,0-.13-.02-.26-.03-.39-.05-.11,0-.21-.01-.32-.02-.22-.04-.45-.08-.67-.12-.38,0-.75-.01-1.13-.02-.67,0-1.35,0-2.02,0-.34.02-.68.04-1.01.05-.16.03-.33.06-.49.08-.07,0-.14,0-.22.01-.36.06-.73.12-1.09.19-.1.01-.2.02-.31.04-.13.04-.27.09-.4.13-.11,0-.21.02-.32.02-.53.14-1.06.28-1.59.42-.11.03-.22.05-.33.08-.4.09-.81.17-1.21.27-.16.04-.31.14-.47.21-.08.01-.15.02-.23.03-.09.04-.18.08-.28.12-.12.02-.23.04-.35.06-.09.03-.17.07-.26.1-.1.02-.21.04-.31.06-.37.09-.73.18-1.1.27-.07.01-.14.03-.21.04-.06,0-.13.02-.19.03-.17.04-.35.09-.52.13-.38.06-.76.09-1.13.18-.3.07-.58.2-.87.31-.11,0-.21,0-.32.01-.29.06-.59.12-.88.18-.05,0-.09,0-.14.01-.16,0-.33-.04-.49,0-.46.09-.92.2-1.38.3-.24.01-.49.02-.73.03-.16.04-.32.08-.48.13-.07,0-.14.02-.21.02-.33,0-.66.01-1,.02-.43,0-.87.03-1.3.02-.29,0-.5-.19-.3-.47.55-.77,1.13-1.51,1.71-2.26Z"/>
      <path class="cls-17" d="M87.2,100.25c-.22.03-.43.06-.65.08-.09.03-.17.06-.26.09-.14,0-.28.02-.43.02-.13.03-.25.06-.38.1-.14.02-.27.03-.41.05-.06,0-.13.02-.19.03-.05,0-.09,0-.14.01-.22.03-.44.07-.67.1-.2.02-.4.05-.61.07l-.2.03c-.3.05-.61.1-.91.16-.06-.09-.13-.18-.19-.28.1-.02.21-.05.31-.07.13,0,.26-.02.39-.03.05,0,.1-.01.15-.02.25-.03.5-.07.75-.1.74-.14,1.47-.28,2.21-.41,1.43-.25,2.86-.46,4.28-.75,1.84-.38,3.69-.78,5.51-1.24,1.62-.41,3.23-.87,4.67-1.76,1.66-1.02,2.58-2.43,2.27-4.46.08,0,.17,0,.25,0,.45,1.36-.12,3.05-1.33,4.08-1.2,1.02-2.61,1.63-4.1,2.02-2.3.61-4.63,1.13-6.95,1.68-.34.08-.69.12-1.03.17-.12.03-.24.06-.36.1-.11,0-.22.01-.33.01-.16.03-.32.07-.47.1-.1.02-.21.03-.31.05-.06.01-.13.02-.19.04-.11,0-.22.01-.33.02-.12.04-.25.07-.37.11Z"/>
      <path class="cls-1" d="M81.1,37.24c.02-.17.04-.34.07-.52.02-.09.05-.18.07-.27.04-.28.07-.55.11-.83.02-.06.03-.13.05-.19.02-.27.04-.54.06-.81.03-.16.06-.31.09-.47,0-.25.01-.49.02-.74.01-.1.02-.19.03-.29.02-.27.04-.54.06-.81.03-.22.06-.45.09-.67,0-.35.02-.69.03-1.04.02-.15.05-.31.07-.46.04-.51.08-1.03.12-1.54.03-.12.06-.24.08-.36,0-.38.02-.76.03-1.15,0-.1.01-.19.02-.29.02-.14.04-.28.06-.41.04-.08.11-.17.11-.25,0-.71,0-1.42-.02-2.13,0-.18.01-.36.02-.53.03-.49.06-.98.09-1.47,0-.05,0-.09.01-.14,0-.06.02-.13.03-.19.02-.24.04-.47.07-.71.03-.09.06-.18.09-.27.03-.21.07-.42.1-.64.03-.13.06-.25.09-.38.01-.08.03-.15.04-.23.02-.09.05-.17.07-.26.03-.11.07-.23.1-.34.04-.08.07-.16.11-.24.59-1.18,1.68-1.67,3.05-1.38,1.03.22,1.92,1.31,1.99,2.43.07.23.13.46.2.7.01.09.02.19.04.28-.06.42-.12.84-.18,1.27-.05-.22-.13-.44-.13-.66,0-.93-.23-1.79-.67-2.59-.41-.76-1.1-1.12-1.94-1.1-.84.02-1.57.29-1.97,1.13-.57,1.2-.65,2.51-.77,3.8-.15,1.63-.14,3.27-.24,4.91-.06,1.01-.17,2.03-.27,3.04-.09.93-.19,1.85-.28,2.78-.03.12-.07.24-.1.36,0,.25,0,.5,0,.75,0,.1-.02.2-.03.3,0,.14-.02.27-.03.41-.05.25-.1.5-.14.75,0,.15,0,.3,0,.45,0,.07,0,.14-.01.21-.01.07-.03.13-.04.2-.02.07-.04.13-.06.2-.07.33-.13.67-.2,1-.13.45-.25.91-.38,1.36-.29.54-.57,1.08-.86,1.63-.07-.05-.14-.1-.21-.15.08-.11.16-.22.24-.33.07-.11.13-.21.2-.32.13-.33.25-.66.38-.99.03-.09.07-.18.1-.26.03-.11.06-.22.1-.33.03-.1.06-.19.09-.29.01-.07.03-.15.04-.22.04-.23.09-.46.13-.69Z"/>
      <path class="cls-13" d="M68.61,10.9c-.52.51-1.03,1.03-1.57,1.51-.09.08-.36.03-.5-.05-1.51-.89-2.97-1.88-4.52-2.67-1.63-.83-3.34-1.52-5.03-2.2-1.54-.62-3.11-1.15-4.66-1.74-.18-.07-.32-.25-.48-.38.16,0,.33,0,.49,0,.47.2.94.41,1.43.59,1.66.61,3.32,1.18,4.97,1.81,2.74,1.05,5.34,2.36,7.7,4.12.35.26.58.2.86-.08.38-.39.8-.75,1.2-1.13.04.07.09.15.13.22Z"/>
      <path class="cls-28" d="M102.97,91.88c-.08,0-.17,0-.25,0-.17-.56-.41-.76-.95-.59-.58.18-1.15.44-1.69.72-1.32.67-2.49,1.64-3.98,1.94-.29.06-.72,0-.89-.17-.14-.14-.04-.59.07-.85.11-.26.34-.5.58-.67.46-.33.96-.59,1.45-.88.08-.05.16-.09.24-.14.05-.02.1-.04.15-.06.15-.07.3-.15.45-.22.05-.03.1-.05.16-.08.08-.04.16-.08.24-.13.18-.06.36-.12.54-.18.26-.1.51-.19.77-.29.18-.07.36-.14.54-.21.26-.11.51-.21.77-.32.28-.13.56-.25.85-.38l.35-.16c.22-.11.44-.23.66-.34l.25-.13c.12-.06.24-.12.36-.17.08-.05.16-.1.25-.15.02-.03.05-.04.09-.04l.22.22c-.3.16-.6.33-.91.49-.07.04-.14.08-.21.12-.15.06-.3.13-.44.19-.12.06-.24.11-.36.17-.08.05-.16.09-.24.14-.22.1-.44.19-.66.29-.32.14-.65.27-.97.41-.08.03-.15.06-.23.1-.07.02-.14.04-.21.07-.23.09-.46.18-.69.27-.32.12-.64.25-.96.37-.12.06-.23.12-.35.18-.54.33-1.09.65-1.6,1.01-.29.21-.53.5-.76.77-.07.08-.05.24-.08.37.14.02.3.11.41.06.73-.27,1.47-.52,2.17-.87.95-.48,1.86-1.04,2.79-1.56.06-.03.12-.06.19-.09.14-.04.28-.08.42-.12.1-.02.19-.04.29-.07.21,0,.41,0,.62,0,.06.03.12.06.19.08.35.21.46.53.41.92Z"/>
      <path class="cls-29" d="M18.07,77.61c-.13-.1-.25-.19-.38-.29-.11-.28-.23-.55-.33-.83-.17-.45-.11-.82.23-1.22,2.69-3.13,5.34-6.29,8.04-9.42.54-.63,1.21-1.15,1.84-1.69.51-.43.75-.35,1.06.26.04.07.07.15.1.23-.04,0-.07,0-.11,0-.08-.03-.18-.04-.22-.09-.28-.37-.55-.34-.86-.02-.75.78-1.55,1.52-2.26,2.33-1.18,1.35-2.3,2.76-3.46,4.13-1.27,1.5-2.57,2.97-3.84,4.47-.17.2-.33.52-.29.75.08.48.3.94.47,1.4Z"/>
      <path class="cls-4" d="M61.06,102.92c-1.21-1.49-2.45-2.95-3.61-4.47-.83-1.1-1.55-2.29-2.31-3.44-.09-.14-.17-.28-.26-.42-.08-.13-.16-.26-.24-.39-.1-.17-.2-.34-.31-.52-.13-.22-.27-.45-.4-.67-.04-.08-.09-.16-.13-.23-.19-.35-.37-.69-.56-1.04.09-.02.18-.04.27-.06.05.08.1.17.16.25.06.12.13.23.19.35.23.4.47.79.7,1.19l.13.22c.14.19.28.37.41.57.72,1.08,1.4,2.2,2.17,3.25,1.31,1.79,2.67,3.55,4.02,5.32-.07.03-.14.06-.22.1Z"/>
      <path class="cls-1" d="M112.71,39.75c-.03-.17-.07-.34-.1-.51-.07-.1-.13-.2-.2-.29-.8-.29-1.61-.57-2.41-.88-.75-.29-1.49-.6-2.29-.93-.01.18-.03.33-.03.47-.04,1.56-.04,3.13-.11,4.69-.03.69-.19,1.37-.29,2.06-.1.1-.2.2-.3.3.08-.96.15-1.93.23-2.89.02-.3.07-.6.08-.9.06-1.35.12-2.7.19-4.18,1.73.71,3.39,1.37,5.03,2.08.17.08.19.5.28.77-.03.07-.06.13-.08.2Z"/>
      <path class="cls-18" d="M99.9,69.43c-.19.23-.33.54-.58.67-.54.29-1.11.54-1.7.72-2.42.74-4.86,1.44-7.29,2.16-.14.04-.3.04-.45.06-.06.03-.12.05-.18.08-.18.03-.36.06-.55.1-.15.03-.31.06-.46.09-.04,0-.09.01-.13.02-.22-.05-.45-.1-.67-.15.15,0,.3-.01.45-.02.12-.05.23-.11.35-.16,1.16-.3,2.33-.56,3.47-.91,2.17-.66,4.31-1.4,6.48-2.06.55-.17.9-.46,1.1-.97l.15.37Z"/>
      <path class="cls-8" d="M100.76,32.91c0,.12.02.24.03.35.03.08.06.17.1.25.09.23.16.48.27.7.04.09.17.2.25.19.08,0,.21-.13.23-.22.06-.29.13-.59.12-.89-.04-1.86-.11-3.71-.16-5.57-.01-.45,0-.9-.01-1.35.05.23.1.46.16.7.04-.24.02-.49.05-.73.02-.12.15-.23.22-.34-.02.21-.06.43-.05.64.03,1.47.07,2.94.11,4.41.02.57.09,1.13.07,1.7-.02.55-.08,1.1-.2,1.63-.04.18-.34.38-.54.4-.16.02-.41-.18-.52-.34-.15-.25-.21-.55-.31-.83,0-.07-.02-.14-.03-.21,0-.04,0-.09-.01-.13.01-.32.03-.64.04-.96.04,0,.09,0,.13.01.02.13.04.26.06.39,0,.07,0,.13.01.2Z"/>
      <path class="cls-7" d="M53.51,91.68c-.09.02-.18.04-.27.06,0,0,0,0,0,0,.03-.05.06-.1.09-.15l-.06-.02c-.01.06-.03.12-.04.17-.25-.52-.49-1.05-.74-1.57-.02-.34-.04-.67-.06-1.01,1.27-.59,2.53-1.2,3.81-1.75,1.13-.48,2.29-.89,3.43-1.33-.03.07-.06.14-.1.25.17-.02.3-.03.42-.05-.08.05-.15.13-.24.16-2.17.86-4.34,1.72-6.5,2.59-.61.24-.69.36-.48.97.2.58.48,1.13.73,1.69Z"/>
      <path class="cls-27" d="M52.33,5.38c-.16,0-.33,0-.49,0,.93-1.09,1.87-2.19,2.79-3.29.51-.61,1.01-1.24,1.52-1.85.09-.1.23-.25.34-.24.87.09,1.74.21,2.61.32-.31.02-.62.03-1.02.06.24.07.41.12.57.17-.6-.05-1.19-.11-1.79-.13-.17,0-.4.06-.5.18-.9,1-1.78,2.02-2.66,3.04-.48.56-.92,1.16-1.39,1.74Z"/>
      <path class="cls-12" d="M75.55,5.2c-.18.15-.37.29-.55.44-.05-.08-.09-.16-.14-.24.48-.39.96-.78,1.48-1.21-.15-.09-.2-.12-.26-.15-1.81-.94-3.76-1.41-5.72-1.88-.84-.2-1.68-.37-2.52-.56.06-.02.11-.03.17-.05.29,0,.58-.02.87-.03.08,0,.15.01.23.02.15.03.3.06.45.09.19.03.37.06.56.08.09.04.18.07.27.11.08,0,.16.01.23.02.23.06.45.12.68.17.04,0,.08.01.13.02.12.03.24.06.36.09.15.04.3.07.45.11.09.03.17.06.26.09.08.02.16.04.24.06.06.03.13.06.19.09.07.02.14.03.21.05.12.04.23.08.35.11.12.03.24.06.35.09.09.03.18.07.27.1.21.07.42.14.63.21.08.03.16.07.24.1.09.03.17.06.26.08.09.04.17.07.26.11.22.12.43.24.65.35.08.05.17.1.25.15.12.05.24.1.35.15-.04.11-.07.22-.11.33-.06.05-.13.1-.19.15-.07.06-.14.12-.21.17-.13.11-.26.22-.39.33-.1.07-.2.15-.3.22Z"/>
      <path class="cls-27" d="M80,105.35c-.32,1.73-.63,3.46-.98,5.18-.21,1.06-.49,2.1-.74,3.15-.09,0-.17,0-.26,0,.01-.1.03-.21.04-.31.01-.06.02-.12.03-.19.02-.17.05-.34.07-.52.02-.08.05-.16.07-.24.24-1.04.48-2.08.72-3.12.16-.73.3-1.47.46-2.2.07-.36.15-.71.23-1.07.03-.09.06-.17.1-.26.01-.12.03-.23.04-.35.07-.03.15-.06.22-.09Z"/>
      <path class="cls-14" d="M96.6,25.98c-.05,0-.11,0-.16,0-.05-.03-.1-.07-.15-.1,0-.2-.02-.4-.03-.61-.04-.3-.09-.6-.13-.9,0-.13-.01-.26-.02-.39,0-.21,0-.42,0-.63,0-.23-.04-.46.01-.68.03-.12.22-.21.33-.31.07-.02.14-.03.2-.05.1-.02.19-.04.29-.06.17-.07.34-.13.51-.2.04.02.08.04.12.06.33.02.65.03.98.05.06.02.13.04.19.06.08.04.16.08.23.12.55.26.94.67,1.11,1.26.04.12.08.24.13.36.01.1.03.2.04.29.04.14.08.27.12.41,0,.06,0,.12.01.18-.05.18-.12.36-.13.55-.03.84-.03,1.69-.05,2.53-.04-.19-.12-.37-.13-.56-.07-1.01-.1-2.03-.18-3.04-.1-1.31-1.45-2.28-2.91-1.88-.7.19-.72.23-.62.95.11.85.15,1.72.22,2.58Z"/>
      <path class="cls-27" d="M15.07,39.69s-.06.06-.1.08c-.04-.08-.08-.16-.12-.24,1.43-1.37,2.86-2.74,4.28-4.11.41-.39.81-.8,1.22-1.18.15-.14.34-.23.51-.34-.02.09-.02.21-.08.27-1.78,1.75-3.56,3.49-5.34,5.23-.03.03-.09.03-.14.04-.08.08-.16.16-.25.24Z"/>
      <path class="cls-7" d="M61.06,102.92c.07-.03.14-.06.22-.1.19.04.38.12.57.11.55-.01,1.1-.05,1.64-.09,1.57-.12,3.15-.25,4.72-.37,0,.11,0,.22,0,.33-.59.08-1.18.21-1.77.24-1.65.09-3.3.15-4.95.21-.23,0-.51.05-.42-.34Z"/>
      <path class="cls-7" d="M84.49,74.85c0,.11,0,.21,0,.32-1.01.18-2.02.16-3-.15-.67-.21-1.02-.62-1-1.16.03-.61.37-1.02.94-1.22.08.05.16.09.24.14-.03.04-.06.08-.1.11-.41.27-.77.57-.64,1.13.13.56.63.69,1.08.74.82.09,1.66.07,2.49.1Z"/>
      <path class="cls-29" d="M106.32,35.21c-.08.61-.14,1.22-.24,1.82-.04.24-.17.46-.25.69.02-.2.04-.4.06-.6.02-.34.05-.69.07-1.03,0-1.89,0-3.78,0-5.67-.02-.18-.05-.35-.07-.53-.05-.27-.09-.54-.14-.82.08.04.15.08.23.12.11.54.23,1.07.34,1.61.01.54.02,1.07.03,1.61,0,.23,0,.45,0,.68,0,.71-.02,1.41-.03,2.12Z"/>
      <path class="cls-11" d="M80,105.35c-.07.03-.15.06-.22.09.12-.63.25-1.27.37-1.9.02-.08.08-.16.07-.24-.14-.72.33-.7.83-.75.71-.07,1.41-.25,2.11-.36.27-.04.56.01.83.02-.44.13-.86.31-1.31.39-.58.11-1.17.15-1.76.23-.29.04-.43.2-.47.53-.07.64-.21,1.27-.33,1.9,0,.03-.08.05-.12.07Z"/>
      <path class="cls-28" d="M68.2,102.81c0-.11,0-.22,0-.33.45-.03.9-.06,1.35-.08.29-.03.58-.06.87-.09.71-.08,1.43-.15,2.14-.23.09-.03.18-.06.27-.08.31-.03.63-.06.94-.09.15-.03.31-.06.46-.1.19-.01.39-.03.58-.04,0,.1.01.21.02.31-.1.02-.2.04-.29.06-.1.03-.2.05-.31.08-.86.11-1.72.23-2.59.31-1.15.11-2.3.19-3.44.29Z"/>
      <path class="cls-18" d="M105.97,29.19c-.08-.04-.15-.08-.23-.12-.51-1.47-1.27-2.68-2.98-2.93l-.25-.13c-.17,0-.34,0-.52,0-.08.11-.21.22-.23.34-.04.24-.01.49-.05.73-.05-.23-.1-.46-.16-.7-.04-.19-.08-.38-.14-.66.63.06,1.19.12,1.75.17.08.02.17.04.25.06.22.08.43.17.65.25.09.05.17.1.26.15.08.05.16.1.24.16.09.09.19.18.28.27.11.12.22.25.34.37.05.08.1.16.15.23.04.02.05.04.04.08.04.07.08.15.12.22.06.12.12.25.18.37.04.08.07.16.11.23.02.07.04.14.06.21.04.23.07.47.11.7Z"/>
      <path class="cls-8" d="M87.9,73.17c.22.05.45.1.67.15-1.07.2-2.14.41-3.21.59-.45.07-.92.05-1.38.07-.03-.07-.07-.14-.1-.21.1-.05.21-.12.32-.14.85-.12,1.7-.23,2.55-.34.39-.05.77-.08,1.16-.13Z"/>
      <path class="cls-4" d="M20.39,98.18c.2-.02.4-.04.6-.06.1,0,.2-.01.3-.02.25,0,.5-.01.74-.02.31,0,.62.05.92.02.19-.02.36-.15.55-.23.47-.02.93-.04,1.4-.07,0,.09-.02.18-.02.26-1.81.16-3.63.31-5.44.47l-.26.07c-.07,0-.13,0-.2,0,0-.1,0-.2,0-.3.08,0,.16-.02.25-.03.39-.03.78-.07,1.17-.1Z"/>
      <path class="cls-11" d="M26.41,28.97c-.25.26-.48.54-.74.78-.82.72-1.65,1.43-2.47,2.14-.07-.03-.13-.06-.2-.09,1.02-.93,2.05-1.86,3.08-2.77.07-.06.22-.03.34-.05Z"/>
      <path class="cls-17" d="M82.17,101.05c-.17.02-.33.04-.5.06-.33.05-.67.09-1,.14-.07.01-.14.03-.21.04-.26.04-.53.09-.79.13-.18.01-.35.02-.53.03-.09.03-.18.06-.27.09l-.5.07c-.07,0-.13,0-.2.01-.05,0-.09,0-.14.01-.19.03-.38.07-.57.1-.14.01-.27.03-.41.04-.2.02-.4.04-.6.07-.07,0-.15,0-.22,0-.09.02-.18.05-.27.08-.24.02-.48.03-.72.05-.03-.08-.06-.17-.08-.25.18,0,.36-.01.54-.02l.26-.07c.25-.01.49-.02.74-.04.09-.03.18-.07.27-.1.28-.03.57-.06.85-.08.09-.03.17-.06.26-.09.21-.01.42-.02.63-.03l.27-.08c.14-.02.28-.03.41-.05.1-.01.2-.03.29-.04.05,0,.09,0,.14,0,.22-.04.44-.08.66-.12.37-.06.73-.13,1.1-.19.2.08.4.17.6.25Z"/>
      <path class="cls-18" d="M58.66.55c-.17-.05-.33-.1-.57-.17.39-.02.71-.04,1.02-.06.05,0,.11.01.16.02.1.01.2.02.29.03.3.02.6.04.91.06.16.03.31.05.47.08.31.01.63.02.94.04.17.04.33.08.5.12.6.06,1.21.13,1.81.19,0,.03,0,.06,0,.09h0c-.2.03-.4.06-.6.09-.13-.02-.27-.03-.4-.05-.32-.04-.64-.08-.96-.12-.08,0-.16,0-.24,0-.1,0-.2-.02-.3-.03-.27-.02-.54-.03-.81-.05-.1-.01-.2-.02-.3-.03-.64-.07-1.27-.15-1.91-.22Z"/>
      <path class="cls-18" d="M107.18,45.36c-.09.53-.18,1.07-.28,1.6-.07.41-.15.81-.22,1.22-.03.03-.06.07-.08.1-.14.8-.28,1.6-.42,2.41-.05-.2-.11-.4-.16-.6.01-.1.03-.21.04-.31.04-.12.07-.24.11-.36.03-.15.06-.3.09-.45.02-.06.04-.13.06-.19l.05-.41.1-.37c0-.08,0-.16.01-.24.02-.1.04-.19.05-.29.01-.07.02-.14.03-.22.03-.16.07-.31.1-.47.01-.15.02-.29.03-.44.02-.09.05-.17.07-.26.04-.25.07-.49.11-.74.1,0,.2,0,.3,0Z"/>
      <path class="cls-11" d="M78.02,113.69c.09,0,.17,0,.26,0,.18-.01.38.02.54-.04.56-.23,1.1-.5,1.64-.76.11.04.23.08.34.12-.83.4-1.67.81-2.51,1.2-.08.04-.2-.01-.31-.03.05-.05.1-.09.15-.14-.06-.05-.12-.11-.18-.16.02-.06.04-.13.05-.19Z"/>
      <path class="cls-1" d="M78.42,41.22c.16,0,.31,0,.47,0,.12-.04.24-.08.37-.13.19-.14.38-.29.57-.43.07.05.14.1.21.15-.28.19-.55.37-.82.56-.46-.04-.92-.08-1.38-.12-.07-.06-.13-.12-.2-.18-.07-.11-.13-.22-.2-.32h0c-.05-.07-.1-.14-.15-.21-.1-.35-.21-.71-.64-.8v-.21s0,0,0,0c.08,0,.15,0,.23-.01.2.22.39.44.59.66.05.12.1.24.15.35.14.17.29.35.43.52.12.05.24.11.36.16Z"/>
      <path class="cls-8" d="M73.73,39.04c.87.12,1.73.23,2.6.35-.23.06-.46.11-.69.17-.64-.11-1.28-.21-1.92-.32,0-.07,0-.14,0-.2Z"/>
      <path class="cls-18" d="M68.01,1.56c-.06.02-.11.03-.17.05-.08,0-.15-.01-.23-.02-.1-.01-.2-.02-.3-.03-.1-.02-.21-.03-.31-.05-.22-.04-.44-.08-.66-.12-.28-.02-.56-.04-.85-.07-.12-.04-.24-.09-.36-.13-.21,0-.43,0-.64,0,.1-.07.2-.15.3-.22.2.01.41.02.61.03.09.01.17.03.26.04.18.01.36.02.54.03.17.04.33.08.5.12.2.02.4.05.61.07.12.03.24.06.36.09.11,0,.23.02.34.03,0,.06,0,.13,0,.19Z"/>
      <path class="cls-10" d="M14.73,99.52c-.22-.17-.43-.34-.65-.51.03-.07.06-.14.09-.21.37-.05.74-.09,1.11-.14.31.07.63.13.94.2-.48.06-.95.12-1.48.19.1.16.18.3.26.44-.09.01-.18.02-.26.03Z"/>
      <path class="cls-27" d="M94.43,24.97c-.03-.16-.09-.31-.1-.47-.04-1-.07-2-.09-3,0-.08.04-.15.07-.23.04,1.24.08,2.47.12,3.71Z"/>
      <path class="cls-14" d="M100.56,32.3c-.01.32-.03.64-.04.96-.05-.1-.12-.2-.13-.31-.08-.86-.15-1.72-.21-2.58,0-.13.03-.26.05-.39.07,0,.15,0,.22,0,0,.1,0,.2,0,.3-.03.06-.06.12-.09.19.03,0,.07,0,.1,0,.04,0,.07,0,.11,0,0,.08.01.16.02.24-.01.52-.02,1.04-.03,1.57Z"/>
      <path class="cls-27" d="M96.28,25.87c.05.03.1.07.15.1,0,1.01.01,2.02,0,3.04,0,.16-.09.33-.13.49,0-1.21-.01-2.42-.02-3.63Z"/>
      <path class="cls-7" d="M16.21,98.86c-.31-.07-.63-.13-.94-.2.57-.06,1.13-.12,1.7-.18.14.05.27.13.42.14.24.03.48.02.72.02-.63.07-1.27.14-1.9.21Z"/>
      <path class="cls-2" d="M28.96,27.07c-.05.07-.1.14-.15.22-.49.33-.98.67-1.47,1-.05-.05-.1-.1-.14-.14.42-.37.82-.75,1.26-1.09.1-.08.33,0,.5.01Z"/>
      <path class="cls-15" d="M88.34,26.38c-.09,0-.17,0-.26,0,0-.4,0-.8.01-1.21.02-.68.05-1.37.07-2.05,0-.19,0-.37,0-.56.08,0,.15,0,.23,0,.02.23.04.46.06.68-.02.27-.04.55-.05.82-.01.62-.03,1.24-.04,1.87,0,.15-.01.3-.02.45Z"/>
      <path class="cls-10" d="M81.67,72.79c-.08-.05-.16-.09-.24-.14.03-.15.08-.3.07-.45,0-.28-.05-.55-.08-.83.05-.16.09-.31.14-.47.02-.05.04-.1.06-.15.18.67.4,1.35.06,2.04Z"/>
      <path class="cls-13" d="M73.73,39.04c0,.07,0,.14,0,.2-.29-.05-.43.06-.39.38.07.57.13,1.15.2,1.72-.07-.07-.14-.13-.22-.2-.04,0-.08-.02-.12-.02-.02-.16-.04-.32-.06-.48.03-.57.06-1.14.09-1.72.17.04.34.08.51.11Z"/>
      <path class="cls-15" d="M100.45,29.99c-.07,0-.15,0-.22,0,0-.69-.02-1.38-.03-2.07.01-.84.02-1.69.05-2.53,0-.18.09-.36.13-.55.01.59.03,1.18.04,1.77-.01.59-.02,1.17-.03,1.76.02.27.04.54.06.81,0,.27,0,.54,0,.81Z"/>
      <path class="cls-4" d="M17.5,102.55c-.48-.48-.95-.96-1.43-1.44.02-.11.04-.23.07-.34.51.53,1.02,1.05,1.53,1.58-.06.07-.11.13-.17.2Z"/>
      <path class="cls-8" d="M82.25,24c0,.71.02,1.42.02,2.13,0,.08-.07.17-.11.25.03-.79.06-1.59.1-2.38Z"/>
      <path class="cls-3" d="M105.97,29.19c-.04-.23-.07-.47-.11-.7.15.77.3,1.54.46,2.31-.11-.54-.23-1.07-.34-1.61Z"/>
      <path class="cls-13" d="M13.04,41.33c-.01.1,0,.23-.05.29-.28.3-.56.6-.87.87-.06.06-.2.03-.3.04.03-.09.02-.22.08-.27.37-.32.75-.63,1.13-.94Z"/>
      <path class="cls-14" d="M62.07,35.73c.67,0,1.35,0,2.02,0-.67,0-1.35,0-2.02,0Z"/>
      <path class="cls-11" d="M85.48,101.72c.07.07.14.15.2.22-.38.12-.76.34-1.17.09.32-.1.65-.21.97-.31Z"/>
      <path class="cls-15" d="M18.11,98.65c-.24,0-.48,0-.72-.02-.14-.02-.28-.09-.42-.14.4-.04.81-.08,1.21-.13.1,0,.19-.02.29-.03.17,0,.34,0,.5-.01,0,.1,0,.2,0,.3-.29.01-.58.02-.87.04Z"/>
      <path class="cls-17" d="M104.18,88.58c-.07-.07-.15-.15-.22-.22.29-.27.59-.54.88-.81.09,0,.17.01.26.02-.08.12-.17.24-.25.35-.12.15-.24.29-.36.44-.1.07-.2.15-.31.22Z"/>
      <path class="cls-14" d="M71.35,36.76c.6.1,1.21.19,1.81.3.07.01.12.11.17.17-.66-.15-1.32-.31-1.99-.46Z"/>
      <path class="cls-27" d="M88.36,25.93c.01-.62.03-1.24.04-1.87-.01.62-.03,1.24-.04,1.87Z"/>
      <path class="cls-14" d="M46,39.03c.46-.1.92-.21,1.38-.3.16-.03.33,0,.49,0-.62.1-1.24.19-1.87.29Z"/>
      <path class="cls-14" d="M49.21,38.55c.29-.1.57-.24.87-.31.37-.09.75-.12,1.13-.18-.66.16-1.33.32-2,.48Z"/>
      <path class="cls-7" d="M100.39,28.38c.01-.59.02-1.17.03-1.76.03.62.06,1.24.09,1.87-.04-.04-.08-.07-.13-.11Z"/>
      <path class="cls-14" d="M76.76,38.1c.6.15,1.2.3,1.8.45-.6-.15-1.2-.3-1.8-.45Z"/>
      <path class="cls-28" d="M52.43,89.15c.02.34.04.67.06,1.01-.05-.07-.1-.13-.15-.2-.02-.03-.05-.06-.07-.09-.15-.29-.31-.57.17-.72Z"/>
      <path class="cls-10" d="M73.23,38.93c-.03.57-.06,1.14-.09,1.72-.03-.51-.07-1.02-.08-1.53,0-.06.11-.12.17-.19Z"/>
      <path class="cls-12" d="M74.13,6.34c-.27.22-.53.43-.8.65-.06,0-.13,0-.19,0-.04-.04-.07-.07-.11-.11.33-.27.67-.54,1-.81l.11.11v.15Z"/>
      <path class="cls-27" d="M88.45,23.25c-.02-.23-.04-.46-.06-.68,0-.07,0-.14,0-.21l.04-.63c0,.51.02,1.02.02,1.53Z"/>
      <path class="cls-14" d="M54.64,37.23c.16-.07.31-.16.47-.21.4-.1.81-.18,1.21-.27-.56.16-1.12.32-1.68.48Z"/>
      <path class="cls-27" d="M92.41,18.87c-.56,0-1.11.01-1.67.02.55-.24,1.11-.26,1.67-.02Z"/>
      <path class="cls-7" d="M100.56,32.3c.01-.52.02-1.04.03-1.57.03.53.06,1.05.1,1.58-.04,0-.09,0-.13-.01Z"/>
      <path class="cls-29" d="M81.17,68.87c.08,0,.15,0,.23-.01.02.02.03.04.03.07,0,.09,0,.19,0,.28,0,.07,0,.15,0,.22.04.25.09.5.13.74,0,.13,0,.27,0,.4-.09,0-.19,0-.28,0-.02-.36-.04-.71-.06-1.07l-.04-.33c0-.1,0-.2,0-.3Z"/>
      <path class="cls-12" d="M64.79.95c-.1.07-.2.15-.3.22-.3-.04-.6-.08-.91-.13.2-.03.4-.06.6-.09.01,0,.03.01.04.02-.01,0-.03-.02-.04-.02,0-.03,0-.06,0-.09.2.03.4.06.61.09Z"/>
      <path class="cls-26" d="M112.71,39.75c.03-.07.06-.13.08-.2.11.33.21.66.32,1-.07-.03-.14-.07-.21-.1-.07-.23-.13-.46-.2-.69Z"/>
      <path class="cls-13" d="M100.06,67.47c.07.04.14.07.21.11-.03.2-.07.39-.1.59-.03.12-.05.25-.08.37-.01.08-.03.16-.04.24-.07-.03-.13-.07-.2-.1,0-.07,0-.14,0-.21,0-.06.01-.13.02-.19.06-.27.12-.54.18-.8Z"/>
      <path class="cls-14" d="M56.65,36.67c.53-.14,1.06-.28,1.59-.42-.53.14-1.06.28-1.59.42Z"/>
      <path class="cls-8" d="M82.36,21.99c-.03.49-.06.98-.09,1.47.03-.49.06-.98.09-1.47Z"/>
      <path class="cls-7" d="M23.5,97.87c-.18.08-.36.21-.55.23-.3.03-.62,0-.92-.02.49-.07.98-.14,1.47-.21Z"/>
      <path class="cls-26" d="M68.61,10.9c-.04-.07-.09-.15-.13-.22,0,0,.01.01.01.01.03-.04.07-.08.1-.13.2-.17.4-.34.61-.51.04.08.07.16.11.24-.23.2-.47.4-.7.6Z"/>
      <path class="cls-14" d="M68.74,36.25c.49.1.99.2,1.48.3-.49-.1-.99-.2-1.48-.3Z"/>
      <path class="cls-1" d="M105.89,51.89c.18.24.63.23.61.66-.27-.22-.54-.44-.81-.66h.05s.05,0,.05,0c.03,0,.07,0,.1,0Z"/>
      <path class="cls-7" d="M100.45,29.99c0-.27,0-.54,0-.81,0,0,.05,0,.05,0h.05c.01.44.02.88.03,1.31-.04,0-.07,0-.11,0,0-.07,0-.13-.01-.2,0-.1,0-.2,0-.3Z"/>
      <path class="cls-15" d="M88.43,21.72c-.01.21-.02.42-.04.63-.08,0-.15,0-.23,0,0-.15,0-.31,0-.46.06-.42.12-.84.18-1.27,0,.05.01.11.02.16.01.25.03.51.04.76.01.06.02.11.03.17Z"/>
      <path class="cls-12" d="M73.13,7.16c-.25.21-.49.41-.74.62-.06-.07-.12-.13-.18-.2.27-.23.54-.46.82-.69.04.04.07.07.11.11,0,.05,0,.11-.01.16Z"/>
      <path class="cls-13" d="M80.87,112.89c.16-.47.59-.47.97-.56,0,.02.02.03.03.05,0,.04,0,.08-.01.12-.08.03-.16.07-.25.1-.05.03-.1.05-.14.08-.2.07-.4.14-.6.21Z"/>
      <path class="cls-1" d="M106.02,50.1c.05.2.11.4.16.6-.06.17-.12.34-.17.51-.05-.11-.09-.21-.14-.32.05-.26.1-.53.15-.79Z"/>
      <path class="cls-12" d="M75,5.64c-.22.18-.44.36-.66.55-.06,0-.13,0-.19,0-.04-.04-.07-.07-.11-.11.28-.23.55-.45.83-.68.05.08.09.16.14.24Z"/>
      <path class="cls-7" d="M14.73,99.52c.09-.01.18-.02.26-.03.2.24.4.48.6.72-.09,0-.19.02-.28.02l-.58-.71Z"/>
      <path class="cls-7" d="M20.39,98.18c-.39.03-.78.07-1.17.1.39-.04.78-.07,1.17-.1Z"/>
      <path class="cls-13" d="M10.12,73.14c-.17.42-.33.84-.5,1.26.17-.42.33-.84.5-1.26Z"/>
      <path class="cls-27" d="M94.74,28.59c-.05-.37-.09-.73-.14-1.1.05.37.09.73.14,1.1Z"/>
      <path class="cls-27" d="M94.26,20.96c-.14-.37-.29-.74-.43-1.11.14.37.29.74.43,1.11Z"/>
      <path class="cls-14" d="M59.27,36.07c.36-.06.73-.12,1.09-.19-.36.06-.73.12-1.09.19Z"/>
      <path class="cls-14" d="M52.13,37.87c.37-.09.73-.18,1.1-.27-.37.09-.73.18-1.1.27Z"/>
      <path class="cls-14" d="M43.59,39.23c.33,0,.66-.01,1-.02-.33,0-.66.01-1,.02Z"/>
      <path class="cls-4" d="M80.67,101.25c.33-.05.67-.09,1-.14-.33.05-.67.09-1,.14Z"/>
      <path class="cls-4" d="M18.24,103.35c-.21-.22-.42-.44-.63-.67.06-.06.12-.12.18-.18.26.26.53.52.79.78-.12.02-.23.04-.35.06Z"/>
      <path class="cls-27" d="M96.12,24.36c.04.3.09.6.13.9-.04-.3-.09-.6-.13-.9Z"/>
      <path class="cls-7" d="M98.55,22.17c-.33-.02-.65-.03-.98-.05.33.02.65.03.98.05Z"/>
      <path class="cls-11" d="M99.85,68.68c.07.03.13.07.2.1-.05.22-.1.44-.15.65-.05-.12-.1-.24-.15-.37.03-.13.06-.26.1-.39Z"/>
      <path class="cls-12" d="M71.27,8.68c-.19.16-.38.32-.57.48-.07-.07-.13-.13-.2-.2.18-.15.37-.29.55-.44.07.05.15.11.22.16Z"/>
      <path class="cls-12" d="M72.39,7.78c-.2.17-.41.33-.61.5l-.16-.19c.2-.17.4-.34.59-.51.06.07.12.13.18.2Z"/>
      <path class="cls-26" d="M68.01,1.56c0-.06,0-.13,0-.19.29.06.58.11.87.17-.29,0-.58.02-.87.03Z"/>
      <path class="cls-13" d="M11.05,77.29c.32.01.64.02.95.04-.32-.01-.64-.02-.95-.04Z"/>
      <path class="cls-26" d="M28.52,61.45c.3.03.6.06.91.09-.3-.03-.6-.06-.91-.09Z"/>
      <path class="cls-13" d="M8.63,73.19c.14-.3.29-.6.43-.9-.14.3-.29.6-.43.9Z"/>
      <path class="cls-4" d="M82.17,101.05c-.2-.08-.4-.17-.6-.25.2-.03.4-.05.61-.08.06.09.13.18.19.28l-.2.06Z"/>
      <path class="cls-4" d="M75.14,101.72c.03.08.06.17.08.25-.13.04-.26.07-.39.11,0-.1-.01-.21-.02-.31.11-.02.21-.03.32-.05Z"/>
      <path class="cls-4" d="M79.66,101.43c.26-.04.53-.09.79-.13-.26.04-.53.09-.79.13Z"/>
      <path class="cls-13" d="M14.16,76.11c.19-.2.38-.4.57-.61-.19.2-.38.4-.57.61Z"/>
      <path class="cls-27" d="M89.71,24.87c0,.27,0,.53,0,.8,0-.27,0-.53,0-.8Z"/>
      <path class="cls-27" d="M96.03,30.18c-.21.47-.46.53-.79.2.33.21.56.01.79-.2Z"/>
      <path class="cls-18" d="M106.99,44.66c.1-.1.2-.2.3-.3-.03.27-.07.54-.1.81-.08,0-.16-.01-.23-.02.01-.16.02-.33.04-.49Z"/>
      <path class="cls-14" d="M48.01,38.74c.29-.06.59-.12.88-.18-.29.06-.59.12-.88.18Z"/>
      <path class="cls-14" d="M100.54,29.19h-.05s-.05,0-.05,0c-.02-.27-.04-.54-.06-.81.04.04.08.07.13.11,0,.23.02.47.02.7Z"/>
      <path class="cls-10" d="M81.56,70.18c-.04-.25-.09-.5-.13-.74.04.25.09.5.13.74Z"/>
      <path class="cls-7" d="M25.54,99.12c-.1-.29-.2-.58-.3-.87.1.29.2.58.3.87Z"/>
      <path class="cls-27" d="M89.4,20.24c.03.25.06.5.09.75-.03-.25-.06-.5-.09-.75Z"/>
      <path class="cls-27" d="M88.4,21.55c-.01-.25-.03-.51-.04-.76.01.25.03.51.04.76Z"/>
      <path class="cls-13" d="M9.6,74.73c0,.28,0,.56,0,.84,0-.28,0-.56,0-.84Z"/>
      <path class="cls-1" d="M105.99,51.38c-.03.07-.06.15-.09.22-.04,0-.08,0-.12,0-.03,0-.05,0-.08,0,.05-.2.09-.39.14-.59.05.13.1.25.15.37Z"/>
      <path class="cls-3" d="M106.35,33.1c0-.23,0-.45,0-.68,0,.23,0,.45,0,.68Z"/>
      <path class="cls-14" d="M66.74,35.94c.26.04.51.08.77.12-.26-.04-.51-.08-.77-.12Z"/>
      <path class="cls-7" d="M16.13,100.77c-.02.11-.04.23-.07.34-.14-.17-.28-.34-.42-.51.07-.05.13-.1.2-.15.1.1.19.21.29.31Z"/>
      <path class="cls-8" d="M81.1,37.24c-.04.23-.09.46-.13.69.04-.23.09-.46.13-.69Z"/>
      <path class="cls-17" d="M99.25,90.82l.69-.27-.69.27Z"/>
      <path class="cls-10" d="M73.2,41.12s.08.02.12.02c.02.25.04.5.07.74-.06-.26-.13-.51-.19-.77Z"/>
      <path class="cls-10" d="M81.39,68.67c-.12-.12-.25-.23-.37-.35.11-.03.23-.06.34-.1,0,.15.02.3.03.45Z"/>
      <path class="cls-27" d="M88.3,20.34c-.07-.23-.13-.46-.2-.7.07.23.13.46.2.7Z"/>
      <path class="cls-17" d="M101.36,89.98c.22-.1.44-.19.66-.29-.22.1-.44.19-.66.29Z"/>
      <path class="cls-14" d="M70.43,36.6c.2.05.4.09.6.14-.2-.05-.4-.09-.6-.14Z"/>
      <path class="cls-4" d="M84.08,100.74c.22-.03.44-.07.67-.1-.22.03-.44.07-.67.1Z"/>
      <path class="cls-7" d="M26.75,101.63c-.1-.22-.21-.44-.31-.65.1.22.21.44.31.65Z"/>
      <path class="cls-4" d="M76.44,101.85c.2-.02.4-.04.6-.07-.2.02-.4.04-.6.07Z"/>
      <path class="cls-26" d="M76.65,4.33c.04-.11.07-.22.11-.33.06.03.11.06.17.09-.09.08-.18.16-.28.23Z"/>
      <path class="cls-14" d="M65.22,35.75c.22.04.45.08.67.12-.22-.04-.45-.08-.67-.12Z"/>
      <path class="cls-27" d="M96.1,23.35c0,.21,0,.42,0,.63,0-.21,0-.42,0-.63Z"/>
      <path class="cls-13" d="M10.93,43.35c.02.34-.14.5-.5.5.17-.17.33-.33.5-.5Z"/>
      <path class="cls-14" d="M74.85,37.59c.2.05.39.1.59.15l-.59-.15Z"/>
      <path class="cls-8" d="M81.75,31.63c-.03.22-.06.45-.09.67.03-.22.06-.45.09-.67Z"/>
      <path class="cls-26" d="M71.29,2.03c-.23-.06-.45-.12-.68-.17.23.06.45.12.68.17Z"/>
      <path class="cls-13" d="M15.04,65.91c-.11.22-.22.44-.33.65.11-.22.22-.44.33-.65Z"/>
      <path class="cls-7" d="M24.88,98.07c0-.09.02-.18.02-.26.09.1.18.21.26.31-.09,0-.18,0-.27,0,0,0-.02-.01-.02-.01v-.03Z"/>
      <path class="cls-13" d="M11.73,42.64c.04.31-.09.45-.4.4.13-.13.27-.27.4-.4Z"/>
      <path class="cls-7" d="M86.79,74.5c-.2.04-.4.08-.6.12.2-.04.4-.08.6-.12Z"/>
      <path class="cls-12" d="M71.67,8.36c-.13.11-.26.21-.39.32-.07-.05-.15-.1-.22-.16.14-.1.27-.21.4-.31.07.05.14.1.21.15Z"/>
      <path class="cls-27" d="M62.38.67c-.17-.04-.33-.08-.5-.12.17.04.33.08.5.12Z"/>
      <path class="cls-27" d="M94.86,29.29c-.03-.19-.06-.38-.09-.57.03.19.06.38.09.57Z"/>
      <path class="cls-6" d="M104.49,88.36c.12-.15.24-.29.36-.44-.12.15-.24.29-.36.44Z"/>
      <path class="cls-12" d="M70.2,9.56c-.1.08-.2.16-.29.23-.06,0-.13,0-.19,0-.03-.03-.06-.06-.09-.09.13-.11.25-.22.38-.33.07.06.13.12.2.18Z"/>
      <path class="cls-14" d="M67.91,36.1c.17.04.34.09.5.13-.17-.04-.34-.09-.5-.13Z"/>
      <path class="cls-4" d="M77.44,101.75c.19-.03.38-.07.57-.1-.19.03-.38.07-.57.1Z"/>
      <path class="cls-1" d="M75.65,39.56c.23-.06.46-.11.69-.17.11.02.21.04.32.05,0,.03,0,.06,0,.09,0,0,0,0,0,0-.25,0-.5.02-.75.02-.08,0-.16,0-.24,0Z"/>
      <path class="cls-14" d="M60.57,35.87c.16-.03.33-.06.49-.08-.16.03-.33.06-.49.08Z"/>
      <path class="cls-26" d="M66.69,1.17c-.17-.04-.33-.08-.5-.12.17.04.33.08.5.12Z"/>
      <path class="cls-7" d="M54.33,93.69c.1.17.2.34.31.52l-.31-.52Z"/>
      <path class="cls-27" d="M89.66,27.21c-.05.19-.09.38-.14.57.05-.19.09-.38.14-.57Z"/>
      <path class="cls-4" d="M15.31,100.23c.09,0,.19-.02.28-.02.08.08.17.17.25.25-.07.05-.13.1-.2.15-.11-.12-.22-.25-.34-.38Z"/>
      <path class="cls-13" d="M14.24,40.23c-.03.11-.05.21-.08.32-.1,0-.21,0-.31,0-.01-.01-.03-.03-.04-.04.14-.09.28-.19.43-.28Z"/>
      <path class="cls-7" d="M97.45,22.06c-.17.07-.34.13-.51.2.17-.07.34-.13.51-.2Z"/>
      <path class="cls-13" d="M70.5,8.96c.07.07.13.13.2.2-.06.05-.11.09-.17.14-.07,0-.14,0-.2,0-.06-.01-.11-.03-.17-.04.11-.1.23-.2.34-.29Z"/>
      <path class="cls-4" d="M18.87,103.93c-.15-.13-.29-.26-.44-.38.1-.04.19-.09.29-.13.1.1.2.2.3.3-.05.07-.1.14-.16.21Z"/>
      <path class="cls-4" d="M19.24,104.32c-.12-.13-.24-.25-.37-.38.07-.05.14-.1.21-.15.12.12.24.24.36.36-.07.06-.14.12-.21.18Z"/>
      <path class="cls-14" d="M44.8,39.19c.16-.04.32-.09.48-.13-.16.04-.32.08-.48.13Z"/>
      <path class="cls-11" d="M26.91,28.47c0,.33-.2.35-.45.31.15-.1.3-.21.45-.31Z"/>
      <path class="cls-7" d="M100.37,24.67c-.04-.14-.08-.27-.12-.41.04.14.08.27.12.41Z"/>
      <path class="cls-13" d="M14.86,39.53c.04.08.08.16.12.24-.11.05-.22.1-.33.15.07-.13.14-.26.22-.39Z"/>
      <path class="cls-7" d="M54.88,94.59c.09.14.17.28.26.42-.09-.14-.17-.28-.26-.42Z"/>
      <path class="cls-13" d="M10.43,72.57c-.08.14-.16.28-.24.43.08-.14.16-.28.24-.43Z"/>
      <path class="cls-4" d="M88.4,100.04c.16-.03.32-.07.47-.1-.16.03-.32.07-.47.1Z"/>
      <path class="cls-7" d="M26.25,100.63c-.07-.15-.15-.3-.22-.46.07.15.15.3.22.46Z"/>
      <path class="cls-13" d="M13.74,40.73c-.02.25-.1.43-.4.3.13-.1.27-.2.4-.3Z"/>
      <path class="cls-27" d="M89.35,28.6c-.05.13-.09.26-.14.38.05-.13.09-.26.14-.38Z"/>
      <path class="cls-1" d="M106.66,46.8c-.03.16-.07.31-.1.47.03-.16.07-.31.1-.47Z"/>
      <path class="cls-8" d="M88.7,73.3c.15-.03.31-.06.46-.09-.15.03-.31.06-.46.09Z"/>
      <path class="cls-26" d="M69.56,1.64c-.15-.03-.3-.06-.45-.09.15.03.3.06.45.09Z"/>
      <path class="cls-13" d="M9.94,70.6c.08-.14.17-.28.25-.42-.08.14-.17.28-.25.42Z"/>
      <path class="cls-27" d="M60.94.51c-.16-.03-.31-.05-.47-.08.16.03.31.05.47.08Z"/>
      <path class="cls-14" d="M58.56,36.23c.13-.04.27-.09.4-.13-.13.04-.27.09-.4.13Z"/>
      <path class="cls-1" d="M106.95,45.15c.08,0,.16.01.23.02,0,.07,0,.13,0,.2-.1,0-.2,0-.3,0,.03-.07.05-.15.08-.22Z"/>
      <path class="cls-14" d="M66.21,35.88c.13.02.26.03.39.05-.13-.02-.26-.03-.39-.05Z"/>
      <path class="cls-27" d="M90.12,19.11c-.14.08-.28.15-.42.23.14-.08.28-.15.42-.23Z"/>
      <path class="cls-27" d="M21.78,33.09c-.1.1-.2.2-.31.3.1-.1.2-.2.31-.3Z"/>
      <path class="cls-8" d="M81.85,30.13c-.02.15-.05.31-.07.46.02-.15.05-.31.07-.46Z"/>
      <path class="cls-13" d="M9.34,71.7c.07-.14.14-.28.21-.42-.07.14-.14.28-.21.42Z"/>
      <path class="cls-7" d="M87.5,74.38c-.16.03-.31.06-.47.09.16-.03.31-.06.47-.09Z"/>
      <path class="cls-8" d="M81.55,34.15c-.03.16-.06.31-.09.47.03-.16.06-.31.09-.47Z"/>
      <path class="cls-13" d="M17.77,71.69c.09-.1.17-.2.26-.31-.09.1-.17.2-.26.31Z"/>
      <path class="cls-4" d="M81.28,70.58c.09,0,.19,0,.28,0,.02.06.03.11.05.17-.02.05-.04.1-.06.15-.05,0-.1,0-.16,0l-.12-.31Z"/>
      <path class="cls-27" d="M21.48,33.39c-.1.1-.2.2-.3.31.1-.1.2-.2.3-.31Z"/>
      <path class="cls-27" d="M22.18,32.79c-.13.1-.27.2-.4.31.02-.25.1-.43.4-.31Z"/>
      <path class="cls-13" d="M16.37,73.51c.08-.11.16-.21.24-.32-.08.11-.16.21-.24.32Z"/>
      <path class="cls-13" d="M11.75,68.08c.09-.1.18-.21.27-.31-.09.1-.18.21-.27.31Z"/>
      <path class="cls-3" d="M104.86,26.78c-.09-.09-.19-.18-.28-.27.09.09.19.18.28.27Z"/>
      <path class="cls-11" d="M100.09,68.53c.03-.12.05-.25.08-.37-.03.12-.05.25-.08.37Z"/>
      <path class="cls-8" d="M79.26,41.1c-.12.04-.24.08-.37.13.12-.04.24-.08.37-.13Z"/>
      <path class="cls-8" d="M82.05,28.22c-.03.12-.06.24-.08.36.03-.12.06-.24.08-.36Z"/>
      <path class="cls-27" d="M59.56.38c-.1-.01-.2-.02-.29-.03.1.01.2.02.29.03Z"/>
      <path class="cls-7" d="M21.29,98.11c-.1,0-.2.01-.3.02.1,0,.2-.01.3-.02Z"/>
      <path class="cls-14" d="M75.57,37.75c.12.04.25.07.37.11-.12-.04-.25-.07-.37-.11Z"/>
      <path class="cls-13" d="M6.75,73.33c.12.04.25.08.37.11-.12-.04-.25-.08-.37-.11Z"/>
      <path class="cls-7" d="M18.47,98.33c-.1,0-.19.02-.29.03.1,0,.19-.02.29-.03Z"/>
      <path class="cls-27" d="M22.59,32.29c-.1.1-.2.2-.3.3.1-.1.2-.2.3-.3Z"/>
      <path class="cls-4" d="M89.2,99.93c.12-.03.24-.06.36-.1-.12.03-.24.06-.36.1Z"/>
      <path class="cls-4" d="M87.2,100.25c.12-.04.25-.07.37-.11-.12.04-.25.07-.37.11Z"/>
      <path class="cls-13" d="M15.02,65.45c.01.1.03.21.04.31-.01-.1-.03-.21-.04-.31Z"/>
      <path class="cls-26" d="M67.66,1.33c-.12-.03-.24-.06-.36-.09.12.03.24.06.36.09Z"/>
      <path class="cls-4" d="M85.49,100.55c.13-.03.25-.07.38-.1-.13.03-.25.07-.38.1Z"/>
      <path class="cls-8" d="M81.6,33.12c-.01.1-.02.19-.03.29.01-.1.02-.19.03-.29Z"/>
      <path class="cls-1" d="M106.53,47.49c-.02.1-.04.19-.05.29.02-.1.04-.19.05-.29Z"/>
      <path class="cls-27" d="M94.54,26.88c-.02-.12-.05-.25-.07-.37.02.12.05.25.07.37Z"/>
      <path class="cls-26" d="M71.78,2.14c-.12-.03-.24-.06-.36-.09.12.03.24.06.36.09Z"/>
      <path class="cls-1" d="M106.47,48.01c-.03.12-.07.25-.1.37.03-.12.07-.25.1-.37Z"/>
      <path class="cls-26" d="M73.48,2.65c-.12-.04-.23-.08-.35-.11.12.04.23.08.35.11Z"/>
      <path class="cls-27" d="M11.37,43.17c-.07.07-.14.14-.21.22-.07-.05-.14-.11-.21-.16.09-.08.19-.16.28-.24.05.06.1.12.14.18Z"/>
      <path class="cls-1" d="M106.17,49.43c-.04.12-.07.24-.11.36.04-.12.07-.24.11-.36Z"/>
      <path class="cls-4" d="M74.24,102.22c.1-.03.2-.05.31-.08-.1.03-.2.05-.31.08Z"/>
      <path class="cls-27" d="M77.96,113.88c.06.05.12.11.18.16-.05.05-.1.09-.15.14,0-.1-.02-.2-.03-.3Z"/>
      <path class="cls-8" d="M82.74,19.67c-.03.13-.06.25-.09.38.03-.13.06-.25.09-.38Z"/>
      <path class="cls-27" d="M89.52,21.76c.01.09.02.19.03.28-.01-.09-.02-.19-.03-.28Z"/>
      <path class="cls-27" d="M89.59,22.25c.02.13.04.25.06.38-.02-.13-.04-.25-.06-.38Z"/>
      <path class="cls-7" d="M18.72,103.42c-.1.04-.19.09-.29.13-.06-.07-.13-.13-.19-.2.12-.02.23-.04.35-.06.04.05.09.09.13.14Z"/>
      <path class="cls-6" d="M101.76,90.88c-.1.02-.19.04-.29.07.1-.02.19-.04.29-.07Z"/>
      <path class="cls-7" d="M100.21,23.97c-.04-.12-.08-.24-.13-.36.04.12.08.24.13.36Z"/>
      <path class="cls-8" d="M82.1,26.79c0,.1-.01.19-.02.29,0-.1.01-.19.02-.29Z"/>
      <path class="cls-17" d="M102.27,89.55c.12-.06.24-.11.36-.17-.12.06-.24.11-.36.17Z"/>
      <path class="cls-27" d="M21.18,33.69c.02.25-.07.33-.3.2.1-.07.2-.14.3-.2Z"/>
      <path class="cls-8" d="M80.26,40.02c-.07.11-.13.21-.2.32.07-.11.13-.21.2-.32Z"/>
      <path class="cls-26" d="M75.55,5.2c.1-.07.2-.15.3-.22-.1.07-.2.15-.3.22Z"/>
      <path class="cls-25" d="M105.99,51.38c-.05-.12-.1-.25-.15-.37,0-.04.02-.08.02-.12.05.11.09.21.14.32,0,.06,0,.12-.01.18Z"/>
      <path class="cls-8" d="M78.42,41.22c-.12-.05-.24-.11-.36-.16.12.05.24.11.36.16Z"/>
      <path class="cls-17" d="M97.94,91.37c.12-.06.23-.12.35-.18-.12.06-.23.12-.35.18Z"/>
      <path class="cls-8" d="M77.62,40.54c-.05-.12-.1-.24-.15-.35.05.12.1.24.15.35Z"/>
      <path class="cls-13" d="M10.25,70.1c.05-.07.09-.15.14-.22-.05.07-.09.15-.14.22Z"/>
      <path class="cls-27" d="M89.5,19.53c-.03.07-.06.14-.1.21.03-.07.06-.14.1-.21Z"/>
      <path class="cls-13" d="M11.74,70.48c-.05.07-.09.14-.14.21.05-.07.09-.14.14-.21Z"/>
      <path class="cls-13" d="M18.18,71.19c.05-.07.11-.14.16-.21-.05.07-.11.14-.16.21Z"/>
      <path class="cls-13" d="M11.33,71.06c-.05.07-.09.15-.14.22.05-.07.09-.15.14-.22Z"/>
      <path class="cls-13" d="M9.14,72.11c.04-.07.08-.15.12-.22-.04.07-.08.15-.12.22Z"/>
      <path class="cls-13" d="M17.47,72.08c.05-.07.11-.13.16-.2-.05.07-.11.13-.16.2Z"/>
      <path class="cls-13" d="M17.07,72.6c.05-.07.1-.14.15-.21-.05.07-.1.14-.15.21Z"/>
      <path class="cls-13" d="M5.65,72.49c.05.07.11.14.16.21-.05-.07-.11-.14-.16-.21Z"/>
      <path class="cls-13" d="M6.12,72.99c.07.05.13.1.2.15-.07-.05-.13-.1-.2-.15Z"/>
      <path class="cls-8" d="M89.71,73.12c.06-.03.12-.05.18-.08-.06.03-.12.05-.18.08Z"/>
      <path class="cls-13" d="M14.64,39.92c-.07.07-.14.14-.2.2,0-.06-.02-.13-.02-.19.08,0,.15,0,.23-.01Z"/>
      <path class="cls-13" d="M8.23,73.45c.09-.05.18-.09.26-.14-.09.05-.18.09-.26.14Z"/>
      <path class="cls-13" d="M15.97,74.01c.06-.07.12-.14.18-.21-.06.07-.12.14-.18.21Z"/>
      <path class="cls-7" d="M85.7,74.69c-.08.03-.17.06-.25.09.08-.03.17-.06.25-.09Z"/>
      <path class="cls-13" d="M15.16,74.99c.05-.06.11-.13.16-.19-.05.06-.11.13-.16.19Z"/>
      <path class="cls-13" d="M9.62,75.8c.03.08.07.15.1.23-.03-.08-.07-.15-.1-.23Z"/>
      <path class="cls-13" d="M9.8,76.21c.04.08.08.15.13.23-.04-.08-.08-.15-.13-.23Z"/>
      <path class="cls-13" d="M13.75,76.46c.06-.05.13-.1.19-.16-.06.05-.13.1-.19.16Z"/>
      <path class="cls-13" d="M10.32,76.92c.07.05.14.11.22.16-.07-.05-.14-.11-.22-.16Z"/>
      <path class="cls-13" d="M12.45,77.25c.09-.04.17-.08.26-.12-.09.04-.17.08-.26.12Z"/>
      <path class="cls-26" d="M65.66,1.02c-.09-.01-.17-.03-.26-.04.09.01.17.03.26.04Z"/>
      <path class="cls-26" d="M70.38,1.83c-.09-.04-.18-.07-.27-.11.09.04.18.07.27.11Z"/>
      <path class="cls-26" d="M72.49,2.34c-.09-.03-.17-.06-.26-.09.09.03.17.06.26.09Z"/>
      <path class="cls-26" d="M72.92,2.48c-.06-.03-.13-.06-.19-.09.06.03.13.06.19.09Z"/>
      <path class="cls-6" d="M105.3,86.64c-.02-.06-.04-.13-.05-.19.02.06.04.13.05.19Z"/>
      <path class="cls-26" d="M74.1,2.83c-.09-.03-.18-.07-.27-.1.09.03.18.07.27.1Z"/>
      <path class="cls-8" d="M76.65,39.53s0-.06,0-.09c.08.03.15.05.23.08-.08,0-.15,0-.23.01Z"/>
      <path class="cls-26" d="M74.98,3.15c-.08-.03-.16-.07-.24-.1.08.03.16.07.24.1Z"/>
      <path class="cls-17" d="M103.07,89.19c.07-.04.14-.08.21-.12-.07.04-.14.08-.21.12Z"/>
      <path class="cls-26" d="M75.5,3.35c-.09-.04-.17-.07-.26-.11.09.04.17.07.26.11Z"/>
      <path class="cls-26" d="M76.4,3.85c-.08-.05-.17-.1-.25-.15.08.05.17.1.25.15Z"/>
      <path class="cls-26" d="M76.25,4.65c.07-.06.14-.12.21-.17-.07.06-.14.12-.21.17Z"/>
      <path class="cls-26" d="M74.14,6.19c.06,0,.13,0,.19,0-.07.05-.14.1-.21.16,0-.05,0-.1.01-.15Z"/>
      <path class="cls-26" d="M73.13,7.16c0-.05,0-.11.01-.16.06,0,.13,0,.19,0-.07.06-.13.11-.2.17Z"/>
      <path class="cls-12" d="M70.16,9.26c.06.01.11.03.17.04,0,.06,0,.11,0,.17-.04.03-.07.06-.11.1-.07-.06-.13-.12-.2-.18.05-.04.1-.09.15-.13Z"/>
      <path class="cls-17" d="M100.16,90.48c.08-.03.15-.06.23-.1-.08.03-.15.06-.23.1Z"/>
      <path class="cls-26" d="M70.32,9.47c0-.06,0-.11,0-.17.07,0,.14,0,.2,0-.07.06-.14.11-.21.17Z"/>
      <path class="cls-12" d="M69.71,9.96s-.09.08-.14.12c-.05-.06-.11-.12-.16-.18.07-.06.14-.12.22-.19.03.03.06.06.09.09,0,.05,0,.11,0,.16Z"/>
      <path class="cls-6" d="M102.56,90.96c-.06-.03-.12-.06-.19-.08.06.03.12.06.19.08Z"/>
      <path class="cls-26" d="M69.71,9.96c0-.05,0-.11,0-.16.06,0,.13,0,.19,0-.07.05-.13.11-.2.16Z"/>
      <path class="cls-8" d="M83.06,18.6c-.04.08-.07.16-.11.24.04-.08.07-.16.11-.24Z"/>
      <path class="cls-6" d="M101.05,91.07c-.06.03-.12.06-.19.09.06-.03.12-.06.19-.09Z"/>
      <path class="cls-8" d="M82.86,19.18c-.02.09-.05.17-.07.26.02-.09.05-.17.07-.26Z"/>
      <path class="cls-8" d="M82.55,20.68c-.03.09-.06.18-.09.27.03-.09.06-.18.09-.27Z"/>
      <path class="cls-8" d="M80.75,38.77c-.03.09-.07.18-.1.26.03-.09.07-.18.1-.26Z"/>
      <path class="cls-8" d="M82.4,21.66c0,.06-.02.13-.03.19,0-.06.02-.13.03-.19Z"/>
      <path class="cls-8" d="M80.93,38.15c-.03.1-.06.19-.09.29.03-.1.06-.19.09-.29Z"/>
      <path class="cls-7" d="M98.97,22.35c-.08-.04-.16-.08-.23-.12.08.04.16.08.23.12Z"/>
      <path class="cls-7" d="M53.8,92.78c.04.08.09.16.13.23-.04-.08-.09-.16-.13-.23Z"/>
      <path class="cls-27" d="M96.65,22.32c-.07.02-.14.03-.2.05.07-.02.14-.03.2-.05Z"/>
      <path class="cls-3" d="M103.43,25.95c-.08-.02-.17-.04-.25-.06.08.02.17.04.25.06Z"/>
      <path class="cls-14" d="M76.31,37.94c.08.04.16.07.24.11-.08-.04-.16-.07-.24-.11Z"/>
      <path class="cls-14" d="M51.73,37.94c.06,0,.13-.02.19-.03-.06,0-.13.02-.19.03Z"/>
      <path class="cls-3" d="M104.33,26.35c-.09-.05-.17-.1-.26-.15.09.05.17.1.26.15Z"/>
      <path class="cls-3" d="M105.35,27.38c-.05-.08-.1-.16-.15-.23.05.08.1.16.15.23Z"/>
      <path class="cls-3" d="M105.51,27.68c-.04-.07-.08-.15-.12-.22.04.07.08.15.12.22Z"/>
      <path class="cls-14" d="M74.37,37.45c.09.03.18.07.27.1-.09-.03-.18-.07-.27-.1Z"/>
      <path class="cls-3" d="M105.8,28.29c-.04-.08-.07-.16-.11-.23.04.08.07.16.11.23Z"/>
      <path class="cls-14" d="M53.54,37.54c.09-.03.17-.07.26-.1-.09.03-.17.07-.26.1Z"/>
      <path class="cls-27" d="M89.48,28.13c-.03.09-.05.17-.08.26.03-.09.05-.17.08-.26Z"/>
      <path class="cls-14" d="M73.66,37.26c.09.04.18.07.28.11-.09-.04-.18-.07-.28-.11Z"/>
      <path class="cls-14" d="M54.14,37.38c.09-.04.18-.08.28-.12-.09.04-.18.08-.28.12Z"/>
      <path class="cls-8" d="M81.24,36.45c-.02.09-.05.18-.07.27.02-.09.05-.18.07-.27Z"/>
      <path class="cls-27" d="M88.42,29.29c-.02-.09-.04-.18-.06-.28.02.09.04.18.06.28Z"/>
      <path class="cls-4" d="M87.9,100.13c.06-.01.13-.02.19-.04l-.19.04Z"/>
      <path class="cls-27" d="M88.81,29.66c-.07,0-.14,0-.21,0,.07,0,.14,0,.21,0Z"/>
      <path class="cls-27" d="M95.05,30c-.03-.09-.06-.17-.09-.26.03.09.06.17.09.26Z"/>
      <path class="cls-7" d="M100.76,32.91c0-.07,0-.13-.01-.2,0,.07,0,.13.01.2Z"/>
      <path class="cls-4" d="M86.29,100.43c.08-.03.17-.06.26-.09-.08.03-.17.06-.26.09Z"/>
      <path class="cls-7" d="M100.88,33.51c-.03-.08-.06-.17-.1-.25.03.08.06.17.1.25Z"/>
      <path class="cls-1" d="M106.77,46.11c-.02.09-.05.17-.07.26.02-.09.05-.17.07-.26Z"/>
      <path class="cls-1" d="M106.32,48.79c-.02.06-.04.13-.06.19.02-.06.04-.13.06-.19Z"/>
      <path class="cls-4" d="M84.88,100.63c.06,0,.13-.02.19-.03l-.19.03Z"/>
      <path class="cls-26" d="M28.12,61.54c.09-.03.18-.06.27-.08-.09.03-.18.06-.27.08Z"/>
      <path class="cls-4" d="M83.28,100.84l.2-.03c-.07,0-.13.02-.2.03Z"/>
      <path class="cls-13" d="M18.68,70.58c.05-.07.11-.13.16-.2-.05.07-.11.13-.16.2Z"/>
      <path class="cls-26" d="M27.01,62.06c.07-.04.14-.08.21-.12-.07.04-.14.08-.21.12Z"/>
      <path class="cls-4" d="M78.86,101.55c.09-.03.18-.06.27-.09-.09.03-.18.06-.27.09Z"/>
      <path class="cls-4" d="M78.15,101.63c.07,0,.13,0,.2-.01-.07,0-.13,0-.2.01Z"/>
      <path class="cls-13" d="M14.56,65.49c.06-.02.12-.05.19-.07-.06.02-.12.05-.19.07Z"/>
      <path class="cls-13" d="M14.15,65.69c.07-.04.14-.09.21-.13-.07.04-.14.09-.21.13Z"/>
      <path class="cls-4" d="M75.94,101.93c.09-.03.18-.05.27-.08-.09.03-.18.05-.27.08Z"/>
      <path class="cls-13" d="M14.25,67.25c-.05.07-.11.15-.16.22.05-.07.11-.15.16-.22Z"/>
      <path class="cls-13" d="M13.95,67.66c-.06.07-.12.14-.17.21.06-.07.12-.14.17-.21Z"/>
      <path class="cls-13" d="M11.25,68.68c.06-.07.11-.14.17-.21-.06.07-.11.14-.17.21Z"/>
      <path class="cls-13" d="M13.15,68.68c-.05.07-.1.13-.15.2.05-.07.1-.13.15-.2Z"/>
      <path class="cls-10" d="M81.43,69.21c0-.09,0-.19,0-.28,0,.09,0,.19,0,.28Z"/>
      <path class="cls-7" d="M19.09,103.79c-.07.05-.14.1-.21.15,0,0,0,0,0,0,.05-.07.1-.14.16-.21.02.02.04.04.07.07Z"/>
      <path class="cls-13" d="M12.75,69.19c-.05.06-.11.13-.16.19.05-.06.11-.13.16-.19Z"/>
      <path class="cls-7" d="M20.19,105.24c.07.05.13.11.2.16-.07-.05-.13-.11-.2-.16Z"/>
      <path class="cls-8" d="M81.39,35.43c-.02.06-.03.13-.05.19.02-.06.03-.13.05-.19Z"/>
      <path class="cls-11" d="M79.73,105.79c-.03.09-.06.17-.1.26.03-.09.06-.17.1-.26Z"/>
      <path class="cls-13" d="M10.65,69.49c.05-.07.1-.14.14-.22-.05.07-.1.14-.14.22Z"/>
      <path class="cls-13" d="M10.45,69.8c.05-.07.1-.15.15-.22-.05.07-.1.15-.15.22Z"/>
      <path class="cls-11" d="M81.86,112.5s0-.08.01-.12c.08,0,.15.01.23.02-.08.04-.16.07-.24.11Z"/>
      <path class="cls-11" d="M78.23,112.43c-.02.08-.05.16-.07.24.02-.08.05-.16.07-.24Z"/>
      <path class="cls-13" d="M12.44,69.57c-.06.07-.11.14-.17.21.06-.07.11-.14.17-.21Z"/>
      <path class="cls-13" d="M80.8,113c-.11-.04-.23-.08-.34-.12.14,0,.28,0,.42,0-.03.04-.05.08-.08.12Z"/>
      <path class="cls-11" d="M78.09,113.19c-.01.06-.02.12-.03.19.01-.06.02-.12.03-.19Z"/>
      <path class="cls-27" d="M22.99,31.8c.07.03.13.06.2.09-.07.03-.14.07-.21.1,0-.07,0-.13.01-.2Z"/>
      <path class="cls-11" d="M27.11,28.28c-.07.07-.14.13-.21.2.07-.07.14-.13.21-.2Z"/>
      <path class="cls-25" d="M105.71,51.59s.05,0,.08,0c0,.1,0,.2,0,.29h-.05s-.05,0-.05,0c0-.1.01-.2.02-.3Z"/>
      <path class="cls-27" d="M22.79,32.09c-.07.07-.13.13-.2.2.07-.07.13-.13.2-.2Z"/>
      <path class="cls-13" d="M13.86,40.77s-.08-.03-.12-.04c.03-.07.05-.15.08-.22.01.01.03.03.04.04,0,.08,0,.15,0,.23Z"/>
      <path class="cls-13" d="M14.45,40.12c-.07.03-.13.07-.2.1.07-.03.13-.07.2-.1Z"/>
      <path class="cls-4" d="M53.23,91.74c.01-.06.03-.12.04-.17l.06.02s-.06.1-.09.15c0,0-.01,0-.01,0Z"/>
      <path class="cls-13" d="M13.34,41.04c-.03.07-.07.13-.1.2.03-.07.07-.13.1-.2Z"/>
      <path class="cls-13" d="M13.24,41.23c-.07.03-.13.07-.2.1.07-.03.13-.07.2-.1Z"/>
      <path class="cls-4" d="M17.61,102.68s-.08-.09-.12-.13c.06-.07.11-.13.17-.2.04.05.09.1.13.15-.06.06-.12.12-.18.18Z"/>
      <path class="cls-11" d="M27.2,28.15s.1.1.14.14c-.08,0-.15-.01-.23-.02.03-.04.06-.09.09-.13Z"/>
      <path class="cls-12" d="M69.31,10.3c-.04-.08-.07-.16-.11-.24.01-.01.03-.02.04-.04.07.05.13.1.2.15-.04.04-.09.09-.13.13Z"/>
      <path class="cls-13" d="M10.95,43.23c.07.05.14.11.21.16-.08-.01-.15-.03-.23-.04,0-.03-.02-.06-.02-.08,0,0,.02-.02.04-.03Z"/>
      <path class="cls-27" d="M22.28,32.6c-.03.07-.07.13-.1.2.03-.07.07-.13.1-.2Z"/>
      <path class="cls-12" d="M69.57,10.08s-.08.06-.13.09c-.07-.05-.13-.1-.2-.15.06-.04.11-.08.16-.13.05.06.11.12.16.18Z"/>
      <path class="cls-12" d="M71.78,8.28s-.08.05-.11.08c-.07-.05-.14-.1-.21-.15.05-.04.11-.08.16-.12.05.06.11.13.16.19Z"/>
      <path class="cls-27" d="M22.99,31.99c-.07.03-.13.07-.2.1.07-.03.13-.07.2-.1Z"/>
      <path class="cls-13" d="M11.37,43.17c-.05-.06-.1-.12-.14-.18.03.02.07.03.1.05.01.04.03.09.04.13Z"/>
      <path class="cls-13" d="M11.83,42.54s.01.06.02.09c-.04,0-.08,0-.12.01.03-.03.07-.06.1-.1Z"/>
      <path class="cls-11" d="M26.41,28.84s0,.1,0,.15c0-.05,0-.1,0-.15Z"/>
      <path class="cls-7" d="M52.26,89.87s.05.06.07.09c-.02-.03-.05-.06-.07-.09Z"/>
      <path class="cls-11" d="M81.47,112.68s.1-.05.14-.08c-.05.03-.1.05-.14.08Z"/>
      <path class="cls-13" d="M7.32,73.48s.07,0,.1,0c-.03,0-.07,0-.1,0Z"/>
      <path class="cls-27" d="M13.86,40.77c0-.08,0-.15,0-.23.1,0,.21,0,.31,0-.1.07-.2.15-.3.22Z"/>
      <path class="cls-13" d="M15.07,39.69c.08-.08.16-.16.25-.24-.08.08-.16.16-.25.24Z"/>
      <path class="cls-26" d="M30.36,62.24c-.04-.08-.08-.16-.12-.24.04.08.08.16.12.24Z"/>
      <path class="cls-26" d="M112.41,38.94c.07.1.13.2.2.29-.07-.1-.13-.2-.2-.29Z"/>
      <path class="cls-18" d="M105.78,51.89c0-.1,0-.2,0-.29.04,0,.08,0,.12,0,0,.1,0,.19-.01.29-.03,0-.07,0-.1,0Z"/>
      <path class="cls-26" d="M112.92,40.75s.03.04.03.06c0,0-.02.02-.03.02,0-.03,0-.06,0-.09Z"/>
      <path class="cls-1" d="M106.6,48.29s.06-.07.08-.1c-.03.03-.06.07-.08.1Z"/>
      <path class="cls-21" d="M18.07,77.61c-.16-.47-.38-.92-.47-1.4-.04-.23.12-.55.29-.75,1.27-1.5,2.57-2.97,3.84-4.47,1.16-1.37,2.28-2.78,3.46-4.13.71-.81,1.51-1.55,2.26-2.33.31-.32.58-.35.86.02.04.06.15.06.22.09.15.29.25.62.44.87,1.17,1.58,2.37,3.14,3.55,4.7,1.71,2.26,3.33,4.6,5.44,6.52,1.36,1.24,2.91,2.17,4.64,2.77,1.26.44,2.57.74,3.86,1.12,2.03.59,4.11,1.06,6.02,2.03,1.51.77,2.87,1.75,4.08,2.94.29.28.22.43-.15.55-1.2.38-2.4.78-3.6,1.15-.13.04-.33-.08-.46-.17-.66-.46-1.4-.46-1.71.1-.24.44-.36.92-.26,1.48.5,2.75,1.71,5.21,3.07,7.6,1.31,2.31,2.83,4.47,4.64,6.42.82.88,1.61,1.78,2.32,2.74.44.59.77,1.29,1.03,1.98.54,1.38-.61,2.51-1.9,2.52-1.34.01-2.45-.52-3.42-1.39-1.4-1.26-2.39-2.82-3.26-4.46-.32-.6-.67-1.19-1.04-1.77-.15-.23-.36-.46-.59-.59-.33-.19-.74-.25-1.03.06-.32.35-.46.79-.35,1.29.52,2.21,1.89,3.9,3.39,5.5.67.72,1.38,1.41,2.03,2.15.27.31.45.7.63,1.07.05.11,0,.29-.05.42-.5,1.18-1.36,1.53-2.5.84-1.17-.71-2.31-1.52-3.34-2.42-1.26-1.1-2.38-2.36-3.57-3.53-.47-.46-.98-.85-1.68-.9-.39-.03-.56.09-.58.53-.03.62.3,1.06.61,1.5.41.57.89,1.08,1.37,1.59.64.7,1.33,1.37,1.96,2.08.26.29.48.65.62,1.02.18.46-.19.76-.49.99-.77.62-1.57.69-2.34.07-.84-.68-1.6-1.45-2.31-2.27-1.14-1.31-2.17-2.7-3.31-4.01-.4-.46-.93-.83-1.46-1.12-.27-.15-.73-.15-1.02-.03-.37.16-.37.56-.25.96.28.93.92,1.61,1.5,2.33.76.95,1.58,1.85,2.36,2.78.46.55.35.84-.34,1.01-.45.11-.9.27-1.36.29-1.82.09-3.14-.89-4.24-2.17-1.15-1.34-2.24-2.73-3.28-4.15-.66-.9-1.24-1.86-1.78-2.84-.98-1.78-1.94-3.57-2.85-5.39-1.14-2.29-2.24-4.61-3.32-6.93-.91-1.93-1.79-3.87-2.65-5.81-.52-1.19-.99-2.4-1.46-3.61-.56-1.44-1.11-2.88-1.66-4.33-.14-.37-.28-.75-.42-1.12Z"/>
      <path class="cls-5" d="M79.26,38.33c-.6-.12-1.21-.22-1.81-.36-.95-.23-1.89-.51-2.84-.75-1.03-.26-2.05-.55-3.09-.74-1.96-.36-3.92-.73-5.89-.95-1.44-.16-2.91-.2-4.35-.09-1.3.1-2.58.45-3.86.74-1.17.26-2.33.57-3.49.86-1.5.37-2.99.8-4.5,1.12-2.19.45-4.39.79-6.64.68-.08,0-.16-.02-.29-.03.47-.78.93-1.53,1.38-2.28.11-.13.24-.24.31-.38.26-.47.54-.79,1.18-.75.68.03,1.11-.97.84-1.73-.31-.89-.94-1.54-1.67-2.07-1.99-1.43-4.2-2.49-6.43-3.5-1.46-.67-2.99-1.21-4.5-1.76-1.36-.49-2.76-.87-4.12-1.37-1.11-.41-2.21-.87-2.98-1.84-.55-.7-1-1.43-.54-2.37.33-.68.91-.99,1.61-1.11,1.19-.19,2.32.12,3.41.5,1.86.65,3.69,1.4,5.54,2.07.41.15.88.17,1.32.23.42.05.8-.08.96-.48.16-.42-.09-.79-.38-1.06-1-.95-2.28-1.41-3.55-1.86-.83-.29-1.64-.67-2.49-.88-.9-.22-1.83-.31-2.76-.42-.52-.06-.72-.21-.73-.74-.01-.4-.01-.8,0-1.21.02-.69.82-1.49,1.56-1.69,1.06-.28,2.12-.27,3.16,0,1.8.46,3.58.98,5.38,1.43.44.11.91.12,1.37.11.38,0,.68-.23.77-.6.11-.46-.04-.84-.45-1.12-.89-.61-1.92-.81-2.95-1.01-1.19-.23-2.39-.39-3.58-.61-.63-.12-.74-.3-.55-.9.15-.49.3-1.01.59-1.41.64-.9,1.63-.88,2.59-.76,1.62.21,3.16.7,4.72,1.2,1.14.37,2.37.49,3.56.65.5.07.98-.1,1.32-.55.25-.33.26-.65-.1-.84-.33-.18-.7-.3-1.06-.4-1.57-.4-3.16-.76-4.73-1.18-.58-.15-1.13-.43-1.77-.67.94-1.31,1.9-2.3,3.5-2.5.92-.12,1.8-.06,2.67.14,1.68.39,3.38.75,5,1.31,1.71.59,3.34,1.39,4.99,2.15,1.37.63,2.73,1.3,4.05,2.01,2.05,1.11,4.09,2.24,6.11,3.42,1.86,1.09,3.68,2.25,5.52,3.37,2.54,1.56,5.09,3.11,7.62,4.69.52.32,1,.72,1.52,1.06.58.37.48.99.48,1.49,0,1.73-.1,3.47-.17,5.2-.05,1.15-.1,2.3-.21,3.44-.12,1.19-.32,2.36-.46,3.55-.06.51-.09,1.03-.13,1.54Z"/>
      <path class="cls-19" d="M81.28,70.58c.04.1.08.21.12.31,0,.16.01.31.02.47.03.28.07.55.08.83,0,.15-.05.3-.07.45-.58.21-.91.61-.94,1.22-.02.54.33.94,1,1.16.98.31,1.99.33,3,.15.13-.02.27-.04.4-.05.25-.03.51-.06.76-.09.25-.04.5-.07.74-.11.09-.03.18-.06.26-.09.18-.03.36-.07.54-.1.07-.01.14-.03.21-.04.13-.02.27-.04.4-.07.15-.03.31-.06.46-.09.21-.04.43-.07.64-.11.09-.03.18-.06.26-.08.35-.07.69-.14,1.04-.21.09-.03.18-.06.27-.09.21-.04.43-.08.64-.12.09-.03.18-.06.26-.09.08,0,.16-.02.24-.03.08-.03.16-.06.23-.09,1.51-.42,3.02-.85,4.53-1.25,1.93-.51,3.79-1.32,5.81-1.48.88-.07,1.78-.11,2.53.53.9.78,1.02,1.94.3,2.97-.7,1-1.65,1.73-2.77,2.16-1.54.59-3.13,1.05-4.69,1.6-.72.25-1.43.55-2.12.88-.38.19-.83.48-.64,1,.17.47.69.5,1.08.42,1.02-.23,2.04-.49,3.02-.85,1.66-.6,3.28-1.31,4.95-1.91.98-.35,1.54-.04,1.96.92.59,1.35.44,1.98-.71,2.93-1.22,1-2.67,1.57-4.07,2.24-1.16.55-2.3,1.13-3.43,1.74-.28.15-.52.42-.72.68-.36.46-.17.86.41.88.85.03,1.66-.17,2.38-.64.18-.09.36-.17.53-.26.06-.02.11-.04.17-.06.09-.05.17-.09.26-.14.05-.02.1-.04.15-.06.21-.09.41-.17.62-.26.06-.02.13-.04.19-.06.09-.04.18-.08.27-.13.31-.13.63-.25.94-.38.17-.08.35-.16.52-.24.06-.02.12-.05.18-.07.08-.04.16-.08.24-.13.09-.03.17-.05.26-.08.07,0,.13,0,.2,0,.13.12.26.24.39.36.05.16.1.33.14.49.01.07.02.14.03.21.04.16.08.31.12.47,0,.11,0,.22.01.33,0,.27,0,.54,0,.81-.01.06-.02.12-.03.18-.29.27-.59.54-.88.81-.04,0-.07,0-.09.04-.08.05-.16.1-.25.15-.12.06-.24.12-.36.17-.08.04-.17.09-.25.13-.22.11-.44.23-.66.34-.12.05-.24.11-.35.16-.28.13-.56.25-.85.38-.26.11-.51.21-.77.32-.18.07-.36.14-.54.21-.26.1-.51.19-.77.29-.18.06-.36.12-.54.18-.08.04-.16.08-.24.13-.05.03-.1.05-.16.08-.15.07-.3.15-.45.22-.05.02-.1.04-.15.06-.08.05-.16.09-.24.14-.48.29-.99.56-1.45.88-.24.17-.47.41-.58.67-.11.26-.21.72-.07.85.18.18.6.23.89.17,1.49-.29,2.66-1.27,3.98-1.94.55-.28,1.11-.54,1.69-.72.54-.17.78.03.95.59.3,2.03-.61,3.44-2.27,4.46-1.44.89-3.05,1.35-4.67,1.76-1.83.46-3.67.86-5.51,1.24-1.42.29-2.86.5-4.28.75-.74.13-1.47.27-2.21.41-.25.03-.5.07-.75.1-.05,0-.1.01-.15.02-.13,0-.26.02-.39.03-.1.02-.21.05-.31.07-.2.03-.4.05-.61.08-.37.06-.73.13-1.1.19-.22.04-.44.08-.66.12-.05,0-.09,0-.14,0-.1.01-.2.03-.29.04-.14.02-.28.03-.41.05-.09.03-.18.06-.27.08-.21.01-.42.02-.63.03-.09.03-.17.06-.26.09-.28.03-.57.06-.85.08-.09.03-.18.07-.27.1-.25.01-.49.02-.74.04-.09.02-.17.05-.26.07-.18,0-.36.01-.54.02-.11.02-.21.03-.32.05-.19.01-.39.03-.58.04-.15.03-.31.06-.46.1-.31.03-.63.06-.94.09-.09.03-.18.06-.27.08-.71.08-1.43.15-2.14.23-.29.03-.58.06-.87.09-.45.03-.9.06-1.35.08-1.57.12-3.14.25-4.72.37-.55.04-1.1.08-1.64.09-.19,0-.38-.07-.57-.11-1.34-1.77-2.71-3.52-4.02-5.32-.77-1.05-1.45-2.16-2.17-3.25-.13-.19-.27-.38-.41-.57-.04-.07-.09-.15-.13-.22-.23-.4-.47-.79-.7-1.19-.06-.12-.13-.23-.19-.35-.05-.08-.1-.17-.16-.25-.25-.56-.53-1.11-.73-1.69-.21-.62-.13-.73.48-.97,2.17-.86,4.34-1.72,6.5-2.59.09-.03.16-.11.24-.16,1.12-.47,2.26-.91,3.37-1.41,4.48-2.02,7.93-5.24,10.77-9.2,1.26-1.76,2.61-3.47,3.99-5.14.74-.89,1.68-1.59,2.82-1.93.06.07.12.15.18.22,0,.04.02.05.05.06,0,.1,0,.2,0,.3.01.11.03.22.04.33.02.36.04.71.06,1.07Z"/>
      <path class="cls-17" d="M104.87,87.36c0-.27,0-.54,0-.81.16.27.31.54,0,.81Z"/>
      <path class="cls-7" d="M85.64,75.03c-.25.03-.51.06-.76.09.25-.03.51-.06.76-.09Z"/>
      <path class="cls-17" d="M101.37,85.76c-.21.09-.41.17-.62.26.21-.09.41-.17.62-.26Z"/>
      <path class="cls-17" d="M103.29,84.96c-.17.08-.35.16-.52.24.17-.08.35-.16.52-.24Z"/>
      <path class="cls-17" d="M104.71,85.54c-.05-.16-.1-.33-.14-.49.05.16.1.33.14.49Z"/>
      <path class="cls-17" d="M100.19,86.27c-.18.09-.36.17-.53.26.18-.09.36-.17.53-.26Z"/>
      <path class="cls-7" d="M88.25,74.53c-.15.03-.31.06-.46.09.15-.03.31-.06.46-.09Z"/>
      <path class="cls-17" d="M104.86,86.22c-.04-.16-.08-.31-.12-.47.04.16.08.31.12.47Z"/>
      <path class="cls-7" d="M91.85,73.71c-.08.03-.16.06-.23.09.08-.03.16-.06.23-.09Z"/>
      <path class="cls-7" d="M91.37,73.83c-.09.03-.18.06-.26.09.09-.03.18-.06.26-.09Z"/>
      <path class="cls-7" d="M90.47,74.03c-.09.03-.18.06-.27.09.09-.03.18-.06.27-.09Z"/>
      <path class="cls-7" d="M89.16,74.33c-.09.03-.18.06-.26.08.09-.03.18-.06.26-.08Z"/>
      <path class="cls-7" d="M87.39,74.69c-.07.01-.14.03-.21.04.07-.01.14-.03.21-.04Z"/>
      <path class="cls-7" d="M86.65,74.84c-.09.03-.18.06-.26.09.09-.03.18-.06.26-.09Z"/>
      <path class="cls-17" d="M104.18,84.69c-.07,0-.13,0-.2,0,.03-.04.05-.07.08-.11.04.04.08.08.12.12Z"/>
      <path class="cls-17" d="M103.71,84.76c-.08.04-.16.08-.24.13.08-.04.16-.08.24-.13Z"/>
      <path class="cls-17" d="M101.83,85.57c-.09.04-.18.08-.27.13.09-.04.18-.08.27-.13Z"/>
      <path class="cls-17" d="M100.61,86.07c-.09.05-.17.09-.26.14.09-.05.17-.09.26-.14Z"/>
      <path class="cls-22" d="M9.14,25.98c.27.81.51,1.58.79,2.34.49,1.34.98,2.68,1.5,4.01.46,1.18.95,2.34,1.42,3.51.12.29.19.61.37.87.29.43.22.72-.15,1.07-1.02.97-2.01,1.97-2.99,2.98-1.31,1.36-2.61,2.73-3.9,4.1-.42.45-.8.93-1.21,1.4-.36.41-.48.4-.79-.04-.92-1.3-1.86-2.59-2.75-3.91-.13-.19-.14-.54-.05-.76.31-.76.71-1.49,1.04-2.25.98-2.24,1.9-4.51,2.93-6.73.77-1.66,1.67-3.26,2.54-4.87.29-.54.67-1.03,1.02-1.53.05-.07.15-.12.24-.18Z"/>
      <path class="cls-16" d="M75.65,39.56c.08,0,.16,0,.24,0,.25.06.5.12.75.18.43.09.54.44.64.8.05.07.1.14.15.21,0,0,0,0,0,0,.07.11.13.22.2.32.07.06.13.12.2.18.4.37.93.41,1.38.12.27-.19.55-.37.82-.56.29-.54.57-1.08.86-1.63.13-.45.25-.91.38-1.36.07-.33.13-.67.2-1,.02-.07.04-.13.06-.2.01-.07.03-.13.04-.2,0-.07,0-.14.01-.21,0-.15,0-.3,0-.45.05-.25.1-.5.14-.75,0-.14.02-.27.03-.41,0-.1.02-.2.03-.3,0-.25,0-.5,0-.75.03-.12.07-.24.1-.36.09-.93.19-1.85.28-2.78.1-1.01.21-2.02.27-3.04.09-1.63.09-3.28.24-4.91.12-1.28.19-2.59.77-3.8.4-.84,1.13-1.11,1.97-1.13.84-.02,1.53.34,1.94,1.1.44.8.67,1.67.67,2.59,0,.22.09.44.13.66,0,.15,0,.31,0,.46,0,.07,0,.14,0,.2,0,.19,0,.37,0,.56-.02.68-.05,1.37-.07,2.05,0,.4,0,.8-.01,1.21-.21,1.09-.23,2.19.11,3.26.05.16.25.36.39.37.2.01.53-.09.59-.23.31-.78.74-1.58.78-2.39.09-1.86-.01-3.73-.06-5.6-.01-.55-.14-1.09-.15-1.64,0-.19.14-.47.31-.56.85-.48,1.75-.62,2.68-.21.84.37,1.15,1.11,1.2,1.93.09,1.5.02,3.01.14,4.51.11,1.41.36,2.81.6,4.21.07.43.28.85.83.86.58.02.79-.4.95-.86.04-.11.09-.22.13-.34.01-.07.02-.13.04-.2,0-.07.01-.13.02-.2,0-.12,0-.24.01-.36.03-.08.06-.16.09-.25,0-.3,0-.6,0-.89-.04-.24-.08-.47-.13-.71-.01-.37-.03-.74-.04-1.1-.07-.86-.11-1.73-.22-2.58-.1-.72-.08-.76.62-.95,1.46-.4,2.81.56,2.91,1.88.07,1.01.11,2.03.18,3.04.01.19.08.37.13.56,0,.69.02,1.38.03,2.07-.02.13-.06.26-.05.39.06.86.13,1.72.21,2.58,0,.11.09.2.13.31,0,.04,0,.09.01.13,0,.07.02.14.03.21.1.28.15.59.31.83.1.17.36.36.52.34.2-.02.5-.23.54-.4.13-.53.19-1.08.2-1.63.02-.57-.06-1.13-.07-1.7-.04-1.47-.08-2.94-.11-4.41,0-.21.04-.43.05-.64.17,0,.34,0,.52,0,.08.04.17.09.25.13,1.71.25,2.47,1.47,2.98,2.93.05.27.09.54.14.82.02.18.05.35.07.53,0,1.89,0,3.78,0,5.67-.02.34-.05.69-.07,1.03-.02.2-.04.4-.06.6-.08.66-.15,1.32-.23,1.98-.21,2-.37,4.01-.65,6-.22,1.56-.6,3.1-.93,4.64-.26,1.2-.54,2.4-.84,3.6-.28,1.14-.62,2.27-.89,3.42-.34,1.44-.64,2.89-.95,4.33-.03.09-.07.17-.1.26,0,.08,0,.16,0,.24-.03.09-.07.17-.1.26,0,.08,0,.17,0,.25-.03.08-.07.17-.1.25,0,.12,0,.23,0,.35-.05.08-.1.16-.15.25-.01.1-.02.2-.03.3-.04.14-.08.28-.13.42,0,.08,0,.16,0,.24-.05.08-.09.17-.14.25-.01.1-.02.2-.03.3-.11.5-.21,1-.32,1.51,0,.12,0,.24-.01.35-.05.08-.09.17-.14.25-.01.1-.02.2-.03.3-.06.27-.12.54-.18.8,0,.06-.01.13-.02.19,0,.07,0,.14,0,.21-.03.13-.06.26-.1.39-.21.51-.55.8-1.1.97-2.17.66-4.31,1.39-6.48,2.06-1.14.35-2.31.61-3.47.91-.12.05-.23.11-.35.16-.15,0-.3.01-.45.02-.39.04-.77.08-1.16.13-.85.11-1.7.22-2.55.34-.11.02-.21.09-.32.14-.13,0-.26,0-.39.01-.17,0-.34.01-.51.02-.42-.22-.1-.62-.21-.91,0-.07.02-.14.03-.21,0-.05,0-.1,0-.15.03-.35.07-.71.1-1.06,0-.18,0-.36,0-.54.05-.11.15-.23.15-.34,0-.81,0-1.61,0-2.42.01-.57.03-1.14.04-1.71,0-.2,0-.4,0-.61,0-1.07,0-2.14,0-3.21,0-.1,0-.2,0-.3-.01-.3-.03-.6-.04-.9-.05-.45-.09-.9-.14-1.35,0-.05,0-.1,0-.15-.04-.34-.09-.67-.13-1.01,0-.13-.02-.27-.03-.4-.05-.08-.09-.17-.14-.25-.05-1.26-.51-2.41-1.03-3.53-.98-2.14-2.42-3.98-3.77-5.88-1.16-1.64-2.22-3.36-3.27-5.08-.38-.63-.6-1.36-.89-2.04-.03-.04-.06-.09-.09-.13,0-.09-.01-.18-.02-.27-.07-.57-.13-1.15-.2-1.72-.04-.31.1-.42.39-.38.64.11,1.28.21,1.92.32Z"/>
      <path class="cls-8" d="M83.04,68.17c0,.81.02,1.61,0,2.42,0,.11-.1.23-.15.34,0-.81-.02-1.63-.01-2.44,0-.11.1-.21.15-.32Z"/>
      <path class="cls-8" d="M82.9,60.09c.05.45.09.9.14,1.35-.05-.45-.09-.9-.14-1.35Z"/>
      <path class="cls-8" d="M82.9,71.48c-.03.35-.07.71-.1,1.06.03-.35.07-.71.1-1.06Z"/>
      <path class="cls-8" d="M82.77,58.93c.04.34.09.67.13,1.01-.04-.34-.09-.67-.13-1.01Z"/>
      <path class="cls-8" d="M82.98,73.8c.17,0,.34-.01.51-.02-.17,0-.34.01-.51.02Z"/>
      <path class="cls-8" d="M83.08,65.86c0,.2,0,.4,0,.61,0-.2,0-.4,0-.61Z"/>
      <path class="cls-8" d="M83.08,62.34c0,.1,0,.2,0,.3,0-.1,0-.2,0-.3Z"/>
      <path class="cls-8" d="M82.8,72.68c0,.07-.02.14-.03.21,0-.07.02-.14.03-.21Z"/>
      <path class="cls-8" d="M82.6,58.28c.05.08.09.17.14.25-.05-.08-.09-.17-.14-.25Z"/>
      <path class="cls-13" d="M73.55,41.61s.06.09.09.13c-.03-.04-.06-.09-.09-.13Z"/>
      <path class="cls-13" d="M100.24,66.56c.11-.5.21-1,.32-1.51,0,.52.05,1.06-.32,1.51Z"/>
      <path class="cls-13" d="M100.73,64.26c.04-.14.08-.28.13-.42-.04.14-.08.28-.13.42Z"/>
      <path class="cls-13" d="M101.24,61.95c.03-.09.07-.17.1-.26-.03.09-.07.17-.1.26Z"/>
      <path class="cls-13" d="M101.14,62.45c.03-.09.07-.17.1-.26-.03.09-.07.17-.1.26Z"/>
      <path class="cls-13" d="M101.04,62.95c.03-.08.07-.17.1-.25-.03.08-.07.17-.1.25Z"/>
      <path class="cls-13" d="M100.89,63.55c.05-.08.1-.16.15-.25-.05.08-.1.16-.15.25Z"/>
      <path class="cls-13" d="M100.59,64.76c.05-.08.09-.17.14-.25-.05.08-.09.17-.14.25Z"/>
      <path class="cls-13" d="M100.09,67.17c.05-.08.09-.17.14-.25-.05.08-.09.17-.14.25Z"/>
      <path class="cls-10" d="M81.12,68.82c-.06-.07-.12-.15-.18-.22.06.07.12.15.18.22Z"/>
      <path class="cls-6" d="M17.79,102.51c-.04-.05-.09-.1-.13-.15-.51-.53-1.02-1.05-1.53-1.58-.1-.1-.19-.21-.29-.31-.08-.08-.17-.17-.25-.25-.2-.24-.4-.48-.6-.72-.08-.14-.16-.27-.26-.44.52-.07,1-.13,1.48-.19.63-.07,1.27-.14,1.9-.21.29-.01.58-.02.87-.04.07,0,.13,0,.2,0,.09-.02.17-.05.26-.07,1.81-.16,3.63-.31,5.44-.47,0,0,0,.03,0,.03,0,0,.02.01.02.01.41,1.02.76,2.07,1.23,3.06,1.45,3.08,3.32,5.91,5.47,8.54.12.14.21.3.31.45.15.24.11.44-.13.6-.4.27-.77.62-1.21.8-.28.12-.7.09-.98-.05-1.84-.88-3.57-1.97-5.16-3.25-1.68-1.35-3.32-2.74-4.98-4.12-.12-.12-.24-.24-.36-.36-.02-.02-.04-.04-.07-.07-.1-.1-.2-.2-.3-.3-.04-.05-.09-.09-.13-.14-.26-.26-.53-.52-.79-.78Z"/>
      <path class="cls-14" d="M96.64,27.08c.04.24.08.47.13.71-.04-.24-.08-.47-.13-.71Z"/>
      <path class="cls-14" d="M96.59,29.69c-.04.11-.09.22-.13.34.04-.11.09-.22.13-.34Z"/>
      <path class="cls-14" d="M96.75,28.68c-.03.08-.06.16-.09.25.03-.08.06-.16.09-.25Z"/>
      <path class="cls-14" d="M96.65,29.29c0,.07-.01.13-.02.2,0-.07.01-.13.02-.2Z"/>
      <path class="cls-4" d="M83.03,100.61c.25-.03.5-.07.75-.1-.25.03-.5.07-.75.1Z"/>
      <path class="cls-4" d="M82.48,100.65c.13,0,.26-.02.39-.03-.13,0-.26.02-.39.03Z"/>
      <path class="cls-8" d="M81.27,37.83c-.13.45-.25.91-.38,1.36.13-.45.25-.91.38-1.36Z"/>
      <path class="cls-8" d="M81.73,35.02c-.05.25-.1.5-.14.75.05-.25.1-.5.14-.75Z"/>
      <path class="cls-8" d="M81.89,33.2c-.03.12-.07.24-.1.36.03-.12.07-.24.1-.36Z"/>
      <path class="cls-8" d="M81.79,34.3c0,.1-.02.2-.03.3,0-.1.02-.2.03-.3Z"/>
      <path class="cls-8" d="M81.53,36.62c-.02.07-.04.13-.06.2.02-.07.04-.13.06-.2Z"/>
      <path class="cls-8" d="M81.58,36.21c0,.07,0,.14-.01.21,0-.07,0-.14.01-.21Z"/>
      <path class="cls-9" d="M71.62,8.08c-.05.04-.11.08-.16.12-.14.1-.27.21-.41.31-.18.15-.37.29-.55.44-.11.1-.23.2-.34.29-.05.04-.1.09-.15.13-.13.11-.25.22-.38.33-.07.06-.14.12-.22.19-.06.04-.11.08-.17.13-.01.01-.03.02-.04.04-.2.17-.4.34-.61.51-.03.04-.07.08-.1.13,0,0-.01-.01-.01-.01-.4.37-.81.74-1.2,1.13-.28.28-.51.34-.86.08-2.36-1.76-4.96-3.07-7.7-4.12-1.65-.63-3.32-1.2-4.97-1.81-.48-.18-.95-.39-1.43-.59.46-.58.91-1.18,1.39-1.74.87-1.03,1.76-2.04,2.66-3.04.11-.12.34-.19.5-.18.6.02,1.19.09,1.79.13.64.07,1.27.15,1.91.22.1.01.2.02.3.03.27.02.54.03.81.05.1,0,.2.02.3.03.08,0,.16,0,.24,0,.32.04.64.08.96.12.13.02.27.03.4.05.3.04.6.08.91.13.21,0,.43,0,.64,0,.12.04.24.09.36.13.28.02.56.04.85.07.22.04.44.08.66.12.1.02.21.03.31.05.1.01.2.02.3.03.08,0,.15.01.23.02.84.19,1.68.36,2.52.56,1.96.47,3.92.94,5.72,1.88.06.03.11.07.26.15-.52.42-1,.82-1.48,1.21-.28.23-.55.45-.83.68-.33.27-.67.54-1,.81-.27.23-.54.46-.82.69-.2.17-.4.34-.6.51Z"/>
      <path class="cls-17" d="M99.09,90.55c.26-.1.51-.19.77-.29-.26.1-.51.19-.77.29Z"/>
      <path class="cls-17" d="M100.39,90.05c.26-.11.51-.21.77-.32-.26.11-.51.21-.77.32Z"/>
      <path class="cls-17" d="M97.7,91.16c.15-.07.3-.15.45-.22-.15.07-.3.15-.45.22Z"/>
      <path class="cls-17" d="M102.01,89.35c.12-.05.24-.11.35-.16-.12.05-.24.11-.35.16Z"/>
      <path class="cls-17" d="M103.63,88.55c.08-.05.16-.1.25-.15-.08.05-.16.1-.25.15Z"/>
      <path class="cls-17" d="M103.02,88.85c.08-.04.17-.09.25-.13-.08.04-.17.09-.25.13Z"/>
      <path class="cls-17" d="M98.31,90.86c.08-.04.16-.08.24-.13-.08.04-.16.08-.24.13Z"/>
      <path class="cls-17" d="M97.3,91.36c.08-.05.16-.09.24-.14-.08.05-.16.09-.24.14Z"/>
      <path class="cls-7" d="M53.66,91.93c.06.12.13.23.19.35-.06-.12-.13-.23-.19-.35Z"/>
      <path class="cls-7" d="M54.55,93.47c.04.07.09.15.13.22-.04-.07-.09-.15-.13-.22Z"/>
      <path class="cls-8" d="M88.35,73.16c.12-.05.23-.11.35-.16-.12.05-.23.11-.35.16Z"/>
      <path class="cls-14" d="M100.56,33.61c0-.07-.02-.14-.03-.21,0,.07.02.14.03.21Z"/>
      <path class="cls-3" d="M105.89,37.12c.02-.34.05-.69.07-1.03-.02.34-.05.69-.07,1.03Z"/>
      <path class="cls-3" d="M105.95,30.42c-.02-.18-.05-.35-.07-.53.02.18.05.35.07.53Z"/>
      <path class="cls-7" d="M69.56,102.4c.29-.03.58-.06.87-.09-.29.03-.58.06-.87.09Z"/>
      <path class="cls-4" d="M73.78,101.91c.15-.03.31-.06.46-.1-.15.03-.31.06-.46.1Z"/>
      <path class="cls-7" d="M72.57,102.09c.09-.03.18-.06.27-.08-.09.03-.18.06-.27.08Z"/>
      <path class="cls-8" d="M102.77,26.14c-.08-.04-.17-.09-.25-.13.08.04.17.09.25.13Z"/>
      <path class="cls-7" d="M19.44,98.54c-.09.02-.17.05-.26.07l.26-.07Z"/>
      <path class="cls-4" d="M79.8,101.11c.22-.04.44-.08.66-.12-.22.04-.44.08-.66.12Z"/>
      <path class="cls-4" d="M79.37,101.16c.1-.01.2-.03.29-.04-.1.01-.2.03-.29.04Z"/>
      <path class="cls-4" d="M78.69,101.29c.09-.03.18-.06.27-.08-.09.03-.18.06-.27.08Z"/>
      <path class="cls-4" d="M77.8,101.41c.09-.03.17-.06.26-.09-.09.03-.17.06-.26.09Z"/>
      <path class="cls-4" d="M76.68,101.6c.09-.03.18-.07.27-.1-.09.03-.18.07-.27.1Z"/>
      <path class="cls-4" d="M75.68,101.71c.09-.02.17-.05.26-.07-.09.02-.17.05-.26.07Z"/>
      <path class="cls-12" d="M63.18,1c-.32-.04-.64-.08-.96-.12.32.04.64.08.96.12Z"/>
      <path class="cls-12" d="M60.87.8c-.1-.01-.2-.02-.3-.03.1.01.2.02.3.03Z"/>
      <path class="cls-12" d="M61.99.87c-.1,0-.2-.02-.3-.03.1,0,.2.02.3.03Z"/>
      <path class="cls-8" d="M79.21,41.37c-.44.29-.97.25-1.38-.12.46.04.92.08,1.38.12Z"/>
      <path class="cls-8" d="M76.65,39.75c-.25-.06-.5-.12-.75-.18.25,0,.5-.02.75-.02,0,.07,0,.14,0,.21Z"/>
      <path class="cls-8" d="M77.64,41.07c-.07-.11-.13-.22-.2-.32.07.11.13.22.2.32Z"/>
      <path class="cls-8" d="M77.44,40.75c-.05-.07-.1-.14-.15-.21.05.07.1.14.15.21Z"/>
      <path class="cls-12" d="M67,1.5c-.22-.04-.44-.08-.66-.12.22.04.44.08.66.12Z"/>
      <path class="cls-12" d="M65.49,1.31c-.12-.04-.24-.09-.36-.13.12.04.24.09.36.13Z"/>
      <path class="cls-12" d="M67.61,1.58c-.1-.01-.2-.02-.3-.03.1.01.2.02.3.03Z"/>
      <path class="cls-29" d="M100.46,30.29c0,.07,0,.13.01.2-.03,0-.07,0-.1,0,.03-.06.06-.12.09-.19Z"/>
      <path class="cls-1" d="M88.1,25.17c.02-.68.05-1.37.07-2.05-.02.68-.05,1.37-.07,2.05Z"/>
      <path class="cls-1" d="M88.16,22.56c0-.07,0-.14,0-.2.08,0,.15,0,.23,0,0,.07,0,.14,0,.21-.08,0-.15,0-.23,0Z"/>
      <path class="cls-29" d="M81.42,71.36c0-.16-.01-.31-.02-.47.05,0,.1,0,.16,0-.05.16-.09.31-.14.47Z"/>
      <path class="cls-10" d="M81.22,69.51c-.01-.11-.03-.22-.04-.33.01.11.03.22.04.33Z"/>
      <path class="cls-18" d="M64.19.95s.03.02.04.02c-.01,0-.03-.01-.04-.02,0,0,0,0,0,0Z"/>
      <path class="cls-11" d="M99.86,68.47c0-.06.01-.13.02-.19,0,.06-.01.13-.02.19Z"/>
      <path class="cls-13" d="M68.5,10.69s.07-.08.1-.13c-.03.04-.07.08-.1.13Z"/>
    </g>
  </g>
</svg>