<?xml version="1.0" encoding="UTF-8"?>
<svg id="Layer_1" xmlns="http://www.w3.org/2000/svg" viewBox="0 0 137.21 29.59">
  <defs>
    <style>
      .cls-1 {
        fill: #ffe2c2;
      }

      .cls-2 {
        fill: #7c4b16;
      }

      .cls-3 {
        fill: #fff;
      }

      .cls-4 {
        fill: #45270b;
      }

      .cls-5 {
        fill: #f4a153;
      }

      .cls-6 {
        fill: #c48448;
      }
    </style>
  </defs>
  <path class="cls-3" d="M92.5,16.56c.37,0,.67-.09.9-.26.23-.18.42-.4.54-.66.13-.26.21-.52.26-.8.04-.28.06-.52.06-.72,0-.46-.11-.81-.32-1.04-.2-.25-.58-.37-1.12-.37-.14,0-.29.01-.46.03-.17.01-.35.03-.54.05-.02.45-.05.99-.08,1.63-.03.64-.08,1.31-.13,2.02.16.04.32.07.46.1.16.01.3.02.43.02Z"/>
  <path class="cls-3" d="M107.46,15.84c0-.21-.07-.41-.21-.58-.13-.17-.33-.26-.61-.26-.23,0-.44.07-.61.21-.16.13-.3.29-.42.5-.11.2-.19.43-.26.67-.05.25-.1.48-.13.7.66-.01,1.2-.12,1.6-.34.42-.21.62-.52.62-.91Z"/>
  <path class="cls-3" d="M114.17,19.87c.17,0,.34-.04.51-.11.17-.07.32-.19.45-.34.14-.16.26-.35.35-.58s.15-.49.18-.8c-.28,0-.55.02-.82.06-.27.04-.51.11-.72.21-.2.09-.37.2-.5.35-.13.15-.19.33-.19.54,0,.25.07.42.22.51.16.1.33.14.51.14Z"/>
  <path class="cls-3" d="M67.88,19.87c.17,0,.34-.04.51-.11.17-.07.32-.19.45-.34.14-.16.26-.35.35-.58.1-.22.15-.49.18-.8-.28,0-.55.02-.82.06-.27.04-.51.11-.72.21-.2.09-.37.2-.5.35-.13.15-.19.33-.19.54,0,.25.07.42.22.51.16.1.33.14.51.14Z"/>
  <path class="cls-3" d="M0,15.29c.14-.93,2.26-3.23,2.26-3.23.43-.57,4.68-4.32,5-4.61.01-.01.03-.01.05-.01,1.38.14,3.61,1.28,4.04,1.51h-.03s.05.07.03.11l-1.43,1.99c-1.35,1.67-1.06,3.37-1.06,3.37.14,2.37-.37,3-.49,3.12-.01.01-.05,0-.05,0l-.66-.67s-.02-.04-.02-.06c.03-1.96-3.05,1.85-3.05,1.85-.28.39-.8,1.05-1.08,1.39-.16.21-.4.35-.66.37-.72.07-.54-.83-.54-.83.17-.44,1.27-1.91,1.49-2.21.03-.03.03-.06,0-.09-.29-.28-1.4,1.58-1.58,1.87-.02.03-.05.03-.07.03-1.46-.18-.52-1.37-.52-1.37.42-.63.78-1.28.78-1.28.21-.38.06-.44.06-.44-.16-.12-.29.1-.29.1l-.96,1.44s-.05.04-.08.03c-.79-.23-.59-.82-.59-.82.05-.17.93-1.41,1.07-1.6,0,0,.02-.03.03-.05.23-.4.14-.51.14-.51-.08-.12-.19.06-.19.06l-1,1.43s-.08.04-.11.02C-.01,15.85,0,15.47,0,15.47v14.12h9.94c-.79-.14-2.57-3.15-2.57-3.15-.42-.57-2.75-5.73-2.93-6.12,0-.02,0-.04,0-.05.55-1.26,2.31-3.03,2.67-3.38h0s.09-.03.12,0l1.49,1.95c1.21,1.78,2.93,2.01,2.93,2.01,2.32.58,2.77,1.26,2.85,1.4,0,.02-.01.04-.01.04l-.84.42s-.04,0-.06,0c-1.88-.62.86,3.44.86,3.44.29.38.76,1.07,1.01,1.44.15.22.21.48.16.74-.14.71-.96.26-.96.26-.37-.29-1.46-1.78-1.67-2.06-.02-.03-.06-.04-.09-.03-.36.2,1.1,1.81,1.32,2.06.02.02.03.05.01.08-.61,1.33-1.47.08-1.47.08-.48-.58-1-1.12-1-1.12-.31-.31-.41-.19-.41-.19-.16.12,0,.31,0,.31l1.09,1.34s.02.06,0,.09c-.46.69-.97.32-.97.32-.15-.1-1.08-1.3-1.22-1.49,0,.01-.03-.03-.04-.04-.32-.34-.45-.28-.45-.28-.14.04,0,.2,0,.2l1.08,1.37s.02.08-.01.11c-.2.15-.36.21-.5.24h9.68c.17-.69.53-2.72.54-2.82h.01c1.21-.13,3.9-.85,4.03-.88.03.14-.06,1.29-.06,1.33-.77.79-3.07,1.9-4.09,2.38h116.77V0H0v15.29ZM6.29,25.47c.52,1.09,2.09,3.37,2.17,3.49h0c-.12.08-1.25.37-1.29.38-1.25-.57-3.78-3.23-3.98-3.44,0,0,0,0,0,0,.25.03,2.98-.41,3.1-.43ZM20.14,13.48c-1.48-1.89-1.42-2.71-1.39-2.87,0-.02.04-.03.04-.03l.94.18s.04.01.05.03c1.11,1.64,1.47-3.28,1.47-3.28.01-.49.06-1.32.1-1.77.01-.26.13-.51.33-.69.56-.47.93.38.93.38.11.46.05,2.31.04,2.68,0,.03.03.07.06.07.41.06.26-2.12.23-2.46,0-.03.01-.05.04-.06,1.32-.69,1.22.84,1.22.84.02.76.09,1.51.09,1.51.05.44.2.4.2.4.2,0,.19-.25.19-.25l-.03-1.74s.02-.06.05-.08c.79-.26.97.35.97.35.05.17.04,1.7.04,1.94,0,0,0,.04,0,.06.05.47.19.51.19.51.14.05.12-.16.12-.16v-1.76s.03-.08.08-.08c.64,0,.84.33.84.33.59.53.1,4.12.1,4.12-.02.72-1.39,6.26-1.49,6.68,0,.02-.02.03-.03.04-1.22.66-3.73.98-4.24,1.04h-.01s-.08-.03-.08-.08l.04-2.47c.16-2.16-1.07-3.4-1.07-3.4ZM17.28,3.62h-.03c-1.02-.6-3.44-1.55-3.73-1.67-.01,0-.03-.03-.01-.04.12-.19.76-.92.83-1,0,0,.01,0,.01,0,1.31-.21,4.65.51,5.18.62.02,0,.03.04,0,.05-.36.26-2.09,1.87-2.26,2.03h0ZM3.77,9.7c-.9.81-2.66,2.95-2.75,3.06h0c-.11-.1-.72-1.08-.74-1.12.2-1.35,2.04-4.52,2.18-4.77h0c.05.25,1.25,2.71,1.3,2.82h0ZM14.33,9.99c-2.22.89-2.99.62-3.13.54-.01-.01-.01-.04-.01-.04l.43-.84s.03-.04.05-.04c1.88-.6-2.75-2.27-2.75-2.27-.46-.14-1.25-.42-1.67-.56-.25-.09-.46-.26-.57-.5-.3-.66.62-.78.62-.78.47.01,2.24.57,2.58.68.03.01.07,0,.08-.03.17-.37-1.96-.81-2.29-.88-.03,0-.05-.03-.05-.05-.3-1.43,1.14-.93,1.14-.93.74.19,1.47.32,1.47.32.44.07.44-.08.44-.08.06-.19-.19-.24-.19-.24l-1.68-.44s-.06-.04-.06-.07c-.03-.83.59-.83.59-.83.18,0,1.65.42,1.87.48-.01,0,.04.01.06.01.46.09.54-.04.54-.04.08-.11-.12-.15-.12-.15l-1.69-.47s-.06-.06-.05-.1c.17-.6.54-.71.54-.71.66-.41,3.99,1.02,3.99,1.02.68.21,5.64,2.99,6.02,3.21.01,0,.03.02.03.04.31,1.33-.06,3.8-.14,4.29h0c0,.06-.05.08-.1.07l-2.36-.7c-2.04-.72-3.56.1-3.56.1ZM26.45,21.62c-.7.28-1.38.61-1.38.61-.39.2-.3.33-.3.33.06.19.3.08.3.08l1.62-.64s.07,0,.09.03c.52.64.02,1.01.02,1.01-.14.11-1.58.64-1.8.72,0,0-.04.02-.06.03-.42.2-.41.35-.41.35,0,.13.19.05.19.05l1.64-.62s.08,0,.1.04c.21.59-.01.88-.01.88-.28.72-3.82,1.53-3.82,1.53-.68.23-6.33.91-6.76.96-.01,0-.03,0-.05-.01-1.05-.89-2.22-3.09-2.46-3.53h0s0-.09.05-.1l2.32-.83c2.07-.62,2.8-2.17,2.8-2.17,1.25-2.02,2.04-2.26,2.2-2.28.02,0,.04.03.04.03l.16.92s0,.04-.01.06c-1.15,1.59,3.57.21,3.57.21.45-.16,1.25-.4,1.68-.53.25-.08.52-.06.76.06.63.35-.03.99-.03.99-.39.26-2.15.86-2.49.97-.03.01-.06.04-.05.08.08.39,2.06-.51,2.37-.65.03-.01.06,0,.08.01,1.1.97-.36,1.42-.36,1.42ZM29.92,15.6c-.18-.17-2.61-1.48-2.71-1.54.26-1.18.43-3.94.43-4.08.15.01,1.21.46,1.25.48.64,1.21,1.01,4.85,1.03,5.14h0ZM127.54,17.3c.04-.37.12-.76.24-1.15.13-.39.3-.78.51-1.17.22-.39.51-.75.86-1.06.35-.31.78-.56,1.28-.75.5-.19,1.1-.29,1.79-.29.55,0,1.02.06,1.41.19.38.13.69.3.93.53.23.21.4.46.51.75.11.29.16.6.16.93,0,.49-.1.91-.3,1.25-.19.34-.45.63-.77.86-.31.22-.66.4-1.04.53-.38.13-.76.23-1.14.3-.37.06-.72.11-1.04.13-.31.01-.55.02-.72.02,0,.2.03.41.08.61.06.19.15.36.27.51s.27.27.46.37.43.14.7.14.49-.04.64-.13c.16-.1.29-.2.38-.3.1-.12.18-.22.24-.3.08-.1.17-.14.29-.14.05,0,.14.02.27.05.14.02.28.07.42.16.14.09.26.2.37.35.11.15.16.34.16.58,0,.31-.1.58-.29.8s-.44.41-.75.54c-.3.14-.64.24-1.01.3-.37.06-.74.1-1.09.1-.47,0-.94-.06-1.41-.18-.46-.12-.88-.32-1.25-.61-.36-.29-.66-.67-.9-1.15-.23-.48-.35-1.08-.35-1.81,0-.27.02-.59.06-.96ZM119.73,20.31c.04-.14.1-.27.18-.4.08-.13.18-.23.29-.32.12-.1.26-.14.42-.14.13,0,.24.03.35.1.11.06.23.13.37.21.15.06.33.13.54.19.21.06.5.1.85.1.27,0,.5-.03.7-.1.21-.06.32-.21.32-.43,0-.2-.09-.36-.26-.48-.17-.13-.39-.25-.66-.35-.26-.11-.54-.22-.85-.34-.3-.13-.58-.29-.85-.5-.26-.2-.47-.46-.64-.77-.17-.32-.26-.73-.26-1.23,0-.54.11-1,.32-1.38.22-.38.51-.69.85-.93.35-.23.75-.4,1.18-.5.44-.11.87-.16,1.31-.16.91,0,1.57.18,2,.54.43.35.64.81.64,1.36,0,.47-.15.83-.45,1.07-.29.25-.71.37-1.26.37-.15,0-.25-.02-.3-.05-.05-.03-.08-.09-.08-.18,0-.1-.01-.2-.03-.32-.01-.13-.05-.25-.11-.35-.05-.12-.14-.21-.27-.29-.12-.07-.29-.11-.51-.11-.3,0-.54.07-.72.22-.18.14-.27.31-.27.53,0,.22.09.41.27.54.19.13.43.25.7.37.29.12.6.24.93.37.33.12.63.28.91.48.29.2.52.46.7.77.19.3.29.69.29,1.17,0,.77-.27,1.4-.82,1.89-.54.49-1.36.74-2.45.74-.3,0-.65-.03-1.04-.08-.38-.04-.75-.11-1.1-.21-.35-.11-.65-.25-.9-.42-.23-.17-.35-.38-.35-.64,0-.1.02-.21.05-.35ZM111.97,17.62c.86-.54,2.14-.84,3.82-.88.01-.12.02-.21.02-.29.01-.09.02-.19.02-.3,0-.34-.06-.61-.19-.82-.13-.2-.39-.3-.8-.3-.22,0-.4.03-.54.1-.14.06-.25.15-.34.27-.08.11-.15.24-.21.4-.05.16-.1.34-.14.53-.02.1-.07.16-.14.19-.08.02-.19.03-.35.03-1.09,0-1.63-.41-1.63-1.23,0-.33.08-.65.22-.94.16-.3.39-.55.69-.77.31-.22.69-.4,1.15-.53.46-.13.99-.19,1.6-.19,1.18,0,2.04.25,2.58.74s.8,1.18.8,2.08c0,.12-.02.33-.05.64-.02.3-.05.62-.1.96-.03.33-.06.65-.1.94-.02.3-.03.51-.03.62,0,.27.05.46.14.58.1.11.2.18.32.22.13.04.24.07.34.1s.14.07.14.16c0,.23-.03.47-.1.72-.06.25-.17.47-.32.67-.14.2-.34.37-.59.5-.24.13-.55.19-.91.19-.51,0-.9-.12-1.15-.37-.26-.25-.43-.59-.51-1.02-.26.37-.59.7-1.01.98-.4.28-.94.42-1.6.42-.32,0-.62-.04-.91-.11-.28-.07-.52-.2-.74-.37-.2-.17-.37-.39-.5-.66-.12-.28-.18-.61-.18-.99,0-.96.43-1.71,1.3-2.26ZM102.5,17.3c.04-.37.12-.76.24-1.15.13-.39.3-.78.51-1.17.22-.39.51-.75.86-1.06.35-.31.78-.56,1.28-.75.5-.19,1.1-.29,1.79-.29.55,0,1.02.06,1.41.19.38.13.69.3.93.53.23.21.41.46.51.75.11.29.16.6.16.93,0,.49-.1.91-.3,1.25-.19.34-.45.63-.77.86-.31.22-.66.4-1.04.53-.38.13-.76.23-1.14.3-.37.06-.72.11-1.04.13-.31.01-.55.02-.72.02,0,.2.03.41.08.61.06.19.16.36.27.51.12.15.27.27.46.37s.43.14.7.14.49-.04.64-.13c.16-.1.29-.2.38-.3.1-.12.18-.22.24-.3.08-.1.17-.14.29-.14.05,0,.14.02.27.05.14.02.28.07.42.16.14.09.26.2.37.35.11.15.16.34.16.58,0,.31-.1.58-.29.8-.19.22-.44.41-.75.54-.3.14-.63.24-1.01.3-.37.06-.74.1-1.09.1-.47,0-.94-.06-1.41-.18-.46-.12-.87-.32-1.25-.61-.36-.29-.66-.67-.9-1.15-.23-.48-.35-1.08-.35-1.81,0-.27.02-.59.06-.96ZM97.83,19.23c.02-.19.04-.44.06-.74.03-.31.07-.69.11-1.14.04-.45.08-.99.13-1.63.05-.64.11-1.39.16-2.26.06-.86.13-1.87.19-3.01.01-.23.04-.37.08-.42.03-.03.12-.05.26-.05h.62c.32,0,.59.04.8.11.21.07.38.18.51.3.13.13.22.28.27.45.05.16.08.33.08.51,0,.21-.02.52-.05.93-.02.39-.05.84-.1,1.34-.04.5-.08,1.02-.13,1.57-.04.54-.09,1.07-.13,1.57-.04.49-.08.93-.11,1.33-.02.39-.03.69-.03.9,0,.28.05.47.14.59.11.12.22.2.34.26.12.04.22.07.32.1.11.01.16.04.16.1,0,.23-.03.47-.08.7-.05.22-.15.43-.29.62-.14.18-.33.33-.58.45-.23.11-.54.16-.91.16-.66,0-1.14-.18-1.42-.53-.29-.35-.43-.93-.43-1.74,0-.13,0-.29.02-.48ZM88.58,19.76c.02-.31.05-.67.08-1.09.03-.42.06-.87.1-1.36.04-.49.09-.99.13-1.5.05-.63.1-1.17.13-1.62.04-.46.08-.85.1-1.17.02-.33.04-.6.05-.82.02-.22.03-.42.03-.58.01-.17.02-.33.02-.46.01-.14.02-.29.02-.45,0-.09.03-.14.08-.18.05-.04.11-.06.16-.06.28,0,.58,0,.91-.02.33-.02.66-.04.99-.06s.65-.04.96-.05c.31-.02.58-.03.82-.03.68,0,1.27.09,1.76.26.49.16.89.4,1.18.72.31.31.53.69.67,1.14.15.45.22.96.22,1.54,0,.63-.08,1.24-.26,1.82-.16.58-.42,1.09-.77,1.54s-.8.81-1.36,1.07-1.22.4-1.98.4c-.46,0-.85-.05-1.17-.14l-.22,2.94c-.01.09-.03.15-.06.19-.03.03-.1.05-.19.05h-.74c-.61,0-1.04-.12-1.3-.35-.24-.25-.37-.6-.37-1.07,0-.14,0-.36.02-.66ZM81.82,14.16c.01-.14.03-.27.05-.4.03-.14.09-.26.16-.37.09-.11.2-.19.35-.26.15-.06.35-.1.59-.1.07-.19.16-.42.26-.69.1-.27.19-.52.29-.77.1-.26.19-.47.27-.64.1-.17.18-.26.26-.26h.46c.45,0,.76.14.93.42.17.28.26.61.26.99,0,.21-.02.53-.05.94h1.68c.17,0,.26.07.26.22l-.06.86c-.02.32-.11.58-.27.78-.15.19-.46.29-.94.29h-.85c-.03.41-.07.81-.11,1.2-.03.39-.06.77-.1,1.12s-.06.67-.08.94c-.01.28-.02.49-.02.64,0,.28.03.46.1.56.06.09.17.13.32.13.12,0,.22-.02.3-.06.09-.04.17-.09.24-.14.08-.05.14-.1.19-.14.06-.04.13-.06.21-.06s.14.04.21.13c.06.09.1.28.1.59,0,.59-.16,1.05-.48,1.39s-.87.51-1.65.51-1.34-.18-1.71-.53c-.36-.36-.54-.91-.54-1.65,0-.16,0-.35.02-.56.02-.22.05-.51.08-.86.03-.35.07-.78.11-1.3.05-.51.11-1.15.16-1.9h-.85c-.09,0-.14-.02-.16-.05-.01-.04-.02-.1-.02-.18l.05-.82ZM73.75,17.06c.04-.36.12-.73.24-1.1.12-.38.27-.76.46-1.12.2-.37.47-.7.8-.99.33-.29.73-.52,1.18-.69.47-.18,1.02-.27,1.66-.27.52,0,.97.06,1.34.19.38.12.7.28.94.5.25.2.43.44.54.72.13.28.19.58.19.9,0,.58-.18,1-.54,1.28-.36.27-.87.4-1.54.4-.16,0-.27-.01-.34-.03-.05-.03-.08-.1-.08-.19,0-.26,0-.49-.02-.69-.01-.2-.04-.37-.1-.51-.04-.14-.11-.25-.21-.32-.1-.07-.23-.11-.42-.11-.33,0-.6.11-.8.32-.19.21-.34.47-.45.78-.1.3-.16.61-.19.93-.02.32-.03.59-.03.8,0,.76.12,1.29.35,1.58.25.3.63.45,1.15.45.31,0,.58-.04.8-.13.23-.09.44-.18.61-.29.17-.11.31-.2.43-.29.12-.09.22-.13.32-.13.25,0,.37.16.37.48,0,.07-.02.18-.05.32-.03.13-.07.27-.13.42-.05.14-.11.27-.18.4-.05.13-.11.22-.16.29-.05.05-.15.14-.29.26-.13.12-.3.23-.53.35-.22.12-.49.22-.78.3-.3.1-.63.14-.99.14-.41,0-.83-.06-1.26-.18-.43-.13-.82-.34-1.17-.64-.35-.31-.65-.72-.88-1.23-.22-.52-.34-1.17-.34-1.95,0-.28.02-.59.05-.94ZM65.69,17.62c.86-.54,2.14-.84,3.82-.88.01-.12.02-.21.02-.29.01-.09.02-.19.02-.3,0-.34-.06-.61-.19-.82s-.39-.3-.8-.3c-.22,0-.41.03-.54.1-.14.06-.25.15-.34.27-.09.11-.15.24-.21.4-.05.16-.1.34-.14.53-.02.1-.07.16-.14.19-.07.02-.19.03-.35.03-1.09,0-1.63-.41-1.63-1.23,0-.33.07-.65.22-.94.16-.3.39-.55.69-.77.31-.22.69-.4,1.15-.53.46-.13.99-.19,1.6-.19,1.18,0,2.04.25,2.58.74.53.49.8,1.18.8,2.08,0,.12-.02.33-.05.64-.02.3-.05.62-.1.96-.03.33-.06.65-.1.94-.02.3-.03.51-.03.62,0,.27.05.46.14.58.1.11.2.18.32.22.13.04.24.07.34.1.1.02.14.07.14.16,0,.23-.03.47-.1.72s-.17.47-.32.67c-.14.2-.34.37-.59.5-.25.13-.55.19-.91.19-.51,0-.9-.12-1.15-.37-.26-.25-.43-.59-.51-1.02-.26.37-.59.7-1.01.98-.41.28-.94.42-1.6.42-.32,0-.62-.04-.91-.11-.28-.07-.52-.2-.74-.37-.2-.17-.37-.39-.5-.66-.12-.28-.18-.61-.18-.99,0-.96.43-1.71,1.3-2.26ZM54.94,22.42c.03-.47.07-1.03.11-1.68.05-.66.11-1.37.16-2.13.06-.76.12-1.48.18-2.16.05-.69.1-1.31.13-1.84.04-.53.07-.9.1-1.1.01-.23.04-.37.08-.42.03-.03.12-.05.26-.05h.62c.58,0,.99.12,1.25.37.27.23.4.52.4.85.25-.49.56-.84.94-1.06.39-.21.88-.32,1.46-.32,1,0,1.75.31,2.26.93.51.62.77,1.59.77,2.93,0,.83-.1,1.57-.29,2.22-.19.65-.46,1.21-.8,1.66-.34.45-.74.79-1.2,1.02-.46.23-.95.35-1.49.35-.57,0-1.01-.12-1.33-.37-.32-.25-.57-.59-.75-1.04-.03.38-.06.68-.08.88-.02.2-.04.36-.05.48-.01.13-.02.24-.03.34,0,.1-.01.22-.03.38-.01.16-.03.38-.05.66-.02.28-.05.66-.1,1.15-.01.13-.04.21-.08.26-.04.04-.13.06-.27.06h-.58c-.33,0-.6-.04-.82-.11-.2-.06-.37-.16-.5-.29-.12-.13-.2-.29-.26-.48-.04-.18-.06-.39-.06-.64,0-.11.02-.39.05-.86ZM40.66,19.65c.02-.3.05-.7.1-1.22.04-.52.09-1.18.14-1.97.06-.8.14-1.79.22-2.96.01-.23.04-.37.08-.42.03-.03.12-.05.26-.05h.62c.32,0,.58.04.78.11.2.07.37.17.5.29.13.12.22.26.27.42.05.16.09.33.1.5.31-.58.66-.97,1.06-1.17.39-.2.86-.3,1.39-.3.29,0,.57.03.83.08.27.05.51.14.72.27.21.13.39.3.54.51.15.2.26.46.32.78.33-.62.69-1.05,1.09-1.28.39-.25.89-.37,1.49-.37.33,0,.65.04.94.11.31.06.58.18.8.35.22.17.4.41.53.7.14.29.21.65.21,1.09,0,.33-.02.74-.05,1.22-.03.48-.07,1-.11,1.57-.04.55-.09,1.13-.14,1.73-.05.59-.1,1.15-.13,1.7-.01.12-.02.21-.03.27-.01.06-.03.11-.06.14-.02.03-.06.05-.11.06-.05.01-.13.02-.22.02h-.51c-.34,0-.62-.03-.83-.1-.21-.06-.38-.15-.5-.27-.12-.12-.2-.26-.26-.43-.04-.18-.06-.38-.06-.61,0-.14,0-.34.02-.59.02-.26.04-.53.06-.83.03-.3.06-.61.08-.93.03-.32.06-.61.08-.88.03-.28.05-.52.06-.72.02-.2.03-.34.03-.4,0-.28-.06-.52-.18-.74-.11-.21-.32-.32-.64-.32-.28,0-.52.09-.72.27-.2.18-.37.43-.51.75-.14.32-.25.7-.34,1.14-.09.44-.14.91-.18,1.42-.02.33-.05.71-.08,1.14s-.07.96-.11,1.6c-.01.12-.02.21-.03.27-.01.06-.03.11-.06.14-.02.03-.06.05-.11.06-.05.01-.13.02-.22.02h-.51c-.34,0-.62-.03-.83-.1-.21-.06-.38-.15-.5-.27-.12-.12-.2-.26-.26-.43-.04-.18-.06-.38-.06-.61s.02-.52.05-.93c.04-.42.08-.84.11-1.28.04-.45.08-.87.11-1.26.04-.41.06-.7.06-.88,0-.28-.06-.52-.18-.74-.11-.21-.32-.32-.64-.32-.29,0-.53.11-.74.32-.2.21-.37.5-.51.86-.13.35-.23.77-.32,1.25-.07.48-.13.98-.16,1.5-.03.49-.07.96-.11,1.41-.04.44-.07.82-.1,1.15-.01.13-.04.21-.08.26-.04.04-.13.06-.27.06h-.58c-.33,0-.6-.03-.82-.1-.2-.07-.37-.18-.5-.3-.12-.13-.2-.28-.26-.46-.04-.19-.06-.41-.06-.66,0-.16,0-.38.02-.67ZM35.82,19.39c.03-.52.07-1.11.13-1.78s.11-1.36.16-2.1c.05-.74.11-1.43.16-2.08s.1-1.22.13-1.71.05-.83.05-1.01c0-.16.09-.24.26-.24h.88c.65,0,1.09.14,1.31.42.22.28.34.69.34,1.23,0,.05-.01.22-.03.51-.01.29-.03.65-.06,1.09-.03.44-.07.93-.11,1.47-.03.53-.07,1.08-.11,1.65-.03.57-.07,1.12-.11,1.66-.03.53-.06,1.02-.1,1.46-.03.44-.06.81-.08,1.1-.02.29-.04.46-.05.53-.01.09-.03.15-.06.19-.03.03-.1.05-.19.05h-.88c-.6,0-1.02-.12-1.28-.35-.26-.23-.38-.57-.38-1.01,0-.21.02-.58.05-1.09Z"/>
  <path class="cls-3" d="M58.12,19.17c.1.21.22.38.38.51.17.13.38.19.64.19.46,0,.84-.22,1.15-.67.31-.45.46-1.15.46-2.11,0-.27-.02-.52-.06-.77-.03-.26-.1-.48-.19-.67-.1-.19-.23-.35-.4-.46-.17-.12-.39-.18-.66-.18-.54,0-.94.23-1.2.7-.26.47-.38,1.11-.38,1.92,0,.28.02.55.05.82.04.27.11.51.21.72Z"/>
  <path class="cls-3" d="M132.5,15.84c0-.21-.07-.41-.21-.58-.13-.17-.33-.26-.61-.26-.23,0-.44.07-.61.21-.16.13-.3.29-.42.5-.11.2-.19.43-.26.67-.05.25-.1.48-.13.7.66-.01,1.2-.12,1.6-.34.42-.21.62-.52.62-.91Z"/>
  <path class="cls-6" d="M21.25,19.43h.01c.5-.06,3.02-.38,4.24-1.04.01,0,.03-.02.03-.04.1-.42,1.47-5.96,1.49-6.68,0,0,.49-3.6-.1-4.12,0,0-.2-.32-.84-.33-.05,0-.08.03-.08.08v1.76s.01.21-.12.16c0,0-.14-.04-.19-.51,0-.02,0-.07,0-.06,0-.24.01-1.77-.04-1.94,0,0-.17-.61-.97-.35-.03.01-.05.04-.05.08l.03,1.74s.01.25-.19.25c0,0-.15.04-.2-.4,0,0-.07-.75-.09-1.51,0,0,.1-1.53-1.22-.84-.03.01-.04.04-.04.06.03.34.17,2.51-.23,2.46-.03,0-.06-.04-.06-.07.01-.37.07-2.22-.04-2.68,0,0-.37-.85-.93-.38-.2.17-.32.42-.33.69-.03.45-.08,1.28-.1,1.77,0,0-.36,4.92-1.47,3.28-.01-.02-.03-.03-.05-.03l-.94-.18s-.03,0-.04.03c-.03.16-.09.98,1.39,2.87,0,0,1.22,1.24,1.07,3.4l-.04,2.47s.04.08.08.08Z"/>
  <path class="cls-6" d="M24.6,25.89c-.14.04-2.82.76-4.03.89h-.01c-.02.09-.38,2.12-.54,2.82h.43c1.03-.48,3.33-1.59,4.09-2.38,0-.04.1-1.19.06-1.33Z"/>
  <path class="cls-2" d="M17.89,9.9l2.36.7s.09-.01.1-.06h0c.08-.49.45-2.96.14-4.3,0-.02-.01-.03-.03-.04-.37-.21-5.34-2.99-6.02-3.21,0,0-3.33-1.43-3.99-1.02,0,0-.36.1-.54.71-.01.04.01.08.05.1l1.69.47s.21.04.12.15c0,0-.08.13-.54.04-.02,0-.07-.02-.06-.01-.23-.06-1.69-.49-1.87-.48,0,0-.63,0-.59.83,0,.03.03.06.06.07l1.68.44s.25.06.19.24c0,0,0,.15-.44.08,0,0-.74-.13-1.47-.32,0,0-1.44-.5-1.14.93,0,.03.03.05.05.05.34.07,2.46.51,2.29.88-.01.03-.05.04-.08.03-.35-.11-2.11-.67-2.58-.68,0,0-.92.12-.62.78.11.24.32.41.57.5.42.15,1.21.42,1.67.56,0,0,4.63,1.67,2.75,2.27-.02,0-.04.02-.05.04l-.43.84s0,.03.01.04c.15.08.92.35,3.13-.54,0,0,1.52-.82,3.56-.1Z"/>
  <path class="cls-2" d="M27.64,9.99c0,.13-.17,2.9-.43,4.08.1.06,2.53,1.37,2.71,1.54h0c-.03-.29-.39-3.92-1.03-5.14-.04-.02-1.1-.47-1.25-.48Z"/>
  <path class="cls-5" d="M.5,16.2s.08.01.11-.02l1-1.43s.11-.18.19-.06c0,0,.1.12-.14.51-.01.02-.04.06-.03.05-.14.19-1.01,1.44-1.07,1.6,0,0-.2.59.59.82.03,0,.07,0,.08-.03l.96-1.44s.14-.21.29-.1c0,0,.14.06-.06.44,0,0-.36.65-.78,1.28,0,0-.94,1.19.52,1.37.03,0,.05,0,.07-.03.17-.3,1.29-2.15,1.58-1.87.03.03.03.06,0,.09-.21.3-1.32,1.77-1.49,2.21,0,0-.18.9.54.83.26-.03.5-.17.66-.37.28-.35.79-1,1.08-1.39,0,0,3.08-3.81,3.05-1.85,0,.02,0,.04.02.06l.66.67s.03.01.05,0c.12-.12.63-.75.49-3.12,0,0-.29-1.7,1.06-3.37l1.43-1.99s.01-.09-.03-.11h.03c-.44-.23-2.67-1.37-4.04-1.51-.02,0-.03,0-.05.01-.32.29-4.57,4.04-5,4.61C2.26,12.06.14,14.36,0,15.29v.19s-.01.37.5.73Z"/>
  <path class="cls-5" d="M19.53,1.53c-.53-.12-3.87-.83-5.18-.62,0,0-.01,0-.01,0-.07.08-.72.81-.83,1-.01.01,0,.03.01.04.29.12,2.71,1.07,3.73,1.67h.03,0c.17-.17,1.91-1.78,2.26-2.04.02-.01.01-.04,0-.05Z"/>
  <path class="cls-4" d="M10.85,29.25l-1.08-1.37s-.14-.16,0-.2c0,0,.14-.06.45.28.01.01.05.06.04.04.14.19,1.07,1.38,1.22,1.49,0,0,.51.37.97-.32.02-.03.02-.06,0-.09l-1.09-1.34s-.17-.19,0-.31c0,0,.1-.12.41.19,0,0,.52.54,1,1.12,0,0,.86,1.25,1.47-.08.01-.03,0-.06-.01-.08-.23-.25-1.68-1.86-1.32-2.06.03-.02.07,0,.09.03.21.29,1.31,1.78,1.67,2.06,0,0,.82.44.96-.26.05-.26-.01-.52-.16-.74-.25-.37-.72-1.05-1.01-1.44,0,0-2.74-4.06-.86-3.44.02,0,.04,0,.06,0l.84-.42s.02-.03.01-.04c-.08-.15-.53-.82-2.85-1.4,0,0-1.72-.24-2.93-2.01l-1.49-1.95s-.08-.04-.12,0h0c-.36.35-2.12,2.12-2.67,3.38,0,.01,0,.03,0,.05.18.39,2.51,5.55,2.93,6.12,0,0,1.77,3.01,2.57,3.15h.39c.14-.03.31-.09.5-.24.03-.03.04-.08.01-.11Z"/>
  <path class="cls-4" d="M2.47,6.87c-.15.25-1.98,3.42-2.18,4.77.02.04.63,1.02.74,1.12h0c.08-.11,1.84-2.25,2.75-3.06h0c-.05-.12-1.25-2.58-1.3-2.83h0Z"/>
  <path class="cls-1" d="M26.8,20.2s-.05-.03-.08-.01c-.31.14-2.29,1.04-2.37.65,0-.03.02-.06.05-.08.34-.12,2.1-.71,2.49-.97,0,0,.67-.64.03-.99-.23-.13-.5-.14-.76-.06-.43.13-1.23.37-1.68.53,0,0-4.72,1.38-3.57-.21.01-.02.02-.04.01-.06l-.16-.92s-.02-.03-.04-.03c-.16.03-.95.26-2.2,2.28,0,0-.74,1.56-2.8,2.17l-2.32.83s-.06.06-.05.11h0c.23.44,1.41,2.64,2.46,3.53.01.01.03.02.05.01.43-.05,6.08-.73,6.76-.96,0,0,3.53-.81,3.82-1.53,0,0,.23-.29.01-.88-.01-.04-.06-.06-.1-.04l-1.64.62s-.19.08-.19-.05c0,0-.01-.15.41-.35.02,0,.06-.03.06-.03.22-.08,1.65-.61,1.8-.72,0,0,.5-.37-.02-1.01-.02-.03-.06-.04-.09-.03l-1.62.64s-.23.1-.3-.08c0,0-.08-.13.3-.33,0,0,.67-.33,1.38-.61,0,0,1.46-.44.36-1.42Z"/>
  <path class="cls-1" d="M3.2,25.91c.2.21,2.73,2.87,3.98,3.44.04-.01,1.16-.3,1.29-.38h0c-.08-.12-1.65-2.4-2.17-3.49-.12.02-2.84.46-3.1.43,0,0,0,0,0,0Z"/>
  <path d="M65.07,21.52c.21.17.46.29.74.37.29.07.59.11.91.11.66,0,1.19-.14,1.6-.42.42-.28.75-.6,1.01-.98.09.44.26.78.51,1.02.26.25.64.37,1.15.37.36,0,.67-.06.91-.19.26-.13.45-.29.59-.5.15-.2.26-.43.32-.67s.1-.49.1-.72c0-.09-.05-.14-.14-.16-.1-.02-.21-.05-.34-.1-.12-.04-.22-.12-.32-.22-.1-.12-.14-.31-.14-.58,0-.12.01-.33.03-.62.03-.3.06-.61.1-.94.04-.34.07-.66.1-.96.03-.31.05-.52.05-.64,0-.9-.27-1.59-.8-2.08-.53-.49-1.39-.74-2.58-.74-.61,0-1.14.06-1.6.19-.46.13-.84.3-1.15.53-.3.21-.53.47-.69.77-.15.3-.22.61-.22.94,0,.82.54,1.23,1.63,1.23.16,0,.28-.01.35-.03.07-.03.12-.1.14-.19.04-.19.09-.37.14-.53.05-.16.12-.29.21-.4.09-.12.2-.21.34-.27.14-.06.32-.1.54-.1.41,0,.67.1.8.3s.19.47.19.82c0,.12,0,.22-.02.3,0,.07,0,.17-.02.29-1.69.04-2.96.34-3.82.88s-1.3,1.3-1.3,2.26c0,.38.06.71.18.99.13.27.29.49.5.66ZM67.34,18.67c.13-.15.29-.27.5-.35.21-.1.45-.17.72-.21.27-.04.54-.06.82-.06-.02.31-.08.58-.18.8-.1.22-.21.42-.35.58-.13.15-.28.26-.45.34-.17.07-.34.11-.51.11-.18,0-.35-.05-.51-.14-.15-.1-.22-.27-.22-.51,0-.21.06-.39.19-.54Z"/>
  <path d="M55.21,24.4c.13.13.29.22.5.29.21.07.49.11.82.11h.58c.14,0,.23-.02.27-.06.04-.04.07-.13.08-.26.04-.49.07-.87.1-1.15.02-.28.04-.5.05-.66.02-.16.03-.29.03-.38.01-.1.02-.21.03-.34.01-.12.03-.28.05-.48.02-.2.05-.5.08-.88.18.45.43.79.75,1.04.32.25.76.37,1.33.37.53,0,1.03-.12,1.49-.35.46-.23.86-.58,1.2-1.02.34-.46.61-1.01.8-1.66.19-.65.29-1.39.29-2.22,0-1.33-.26-2.31-.77-2.93-.5-.62-1.25-.93-2.26-.93-.58,0-1.06.11-1.46.32-.38.21-.7.57-.94,1.06,0-.33-.13-.61-.4-.85-.26-.25-.67-.37-1.25-.37h-.62c-.14,0-.22.02-.26.05-.04.04-.07.18-.08.42-.02.2-.05.57-.1,1.1-.03.53-.07,1.15-.13,1.84-.05.68-.11,1.4-.18,2.16-.05.76-.11,1.47-.16,2.13-.04.65-.08,1.21-.11,1.68-.03.47-.05.76-.05.86,0,.25.02.46.06.64.05.19.14.35.26.48ZM58.25,15.71c.26-.47.66-.7,1.2-.7.27,0,.49.06.66.18.17.12.3.27.4.46.1.19.16.42.19.67.04.25.06.5.06.77,0,.96-.15,1.66-.46,2.11-.31.45-.69.67-1.15.67-.26,0-.47-.06-.64-.19-.16-.13-.29-.3-.38-.51s-.17-.45-.21-.72c-.03-.27-.05-.54-.05-.82,0-.81.13-1.45.38-1.92Z"/>
  <path d="M74.92,21.19c.35.3.74.51,1.17.64.44.12.86.18,1.26.18.36,0,.69-.05.99-.14.3-.09.56-.19.78-.3.22-.12.4-.23.53-.35.14-.12.23-.2.29-.26.05-.06.11-.16.16-.29.06-.13.12-.26.18-.4.05-.15.1-.29.13-.42.03-.14.05-.25.05-.32,0-.32-.12-.48-.37-.48-.1,0-.2.04-.32.13-.12.09-.26.18-.43.29-.17.11-.37.2-.61.29-.22.09-.49.13-.8.13-.52,0-.91-.15-1.15-.45-.23-.3-.35-.83-.35-1.58,0-.21.01-.48.03-.8.03-.32.1-.63.19-.93.11-.31.26-.57.45-.78.2-.21.47-.32.8-.32.18,0,.32.04.42.11.1.07.17.18.21.32.05.14.09.31.1.51.01.2.02.43.02.69,0,.1.03.16.08.19.06.02.18.03.34.03.66,0,1.17-.13,1.54-.4.36-.28.54-.7.54-1.28,0-.32-.06-.62-.19-.9-.12-.28-.3-.52-.54-.72-.25-.21-.56-.38-.94-.5-.37-.13-.82-.19-1.34-.19-.64,0-1.19.09-1.66.27-.46.17-.85.4-1.18.69-.33.29-.6.62-.8.99-.19.36-.35.74-.46,1.12-.12.37-.2.74-.24,1.1-.03.35-.05.67-.05.94,0,.78.11,1.43.34,1.95.23.51.53.92.88,1.23Z"/>
  <path d="M37.43,21.84h.88c.1,0,.16-.02.19-.05.03-.04.05-.11.06-.19.01-.06.03-.24.05-.53.02-.3.05-.67.08-1.1.03-.44.06-.92.1-1.46.04-.54.08-1.1.11-1.66.04-.57.08-1.11.11-1.65.04-.54.08-1.03.11-1.47.03-.44.05-.8.06-1.09.02-.29.03-.46.03-.51,0-.54-.11-.95-.34-1.23-.22-.28-.66-.42-1.31-.42h-.88c-.17,0-.26.08-.26.24,0,.18-.02.52-.05,1.01s-.07,1.06-.13,1.71-.11,1.34-.16,2.08c-.05.74-.11,1.43-.16,2.1s-.1,1.25-.13,1.78c-.03.51-.05.87-.05,1.09,0,.44.13.77.38,1.01.26.23.68.35,1.28.35Z"/>
  <path d="M81.95,15.2h.85c-.05.76-.11,1.39-.16,1.9-.04.51-.08.94-.11,1.3-.03.35-.06.64-.08.86-.01.21-.02.4-.02.56,0,.74.18,1.29.54,1.65.37.35.94.53,1.71.53s1.33-.17,1.65-.51.48-.81.48-1.39c0-.31-.03-.51-.1-.59-.06-.09-.13-.13-.21-.13s-.14.02-.21.06c-.05.04-.12.09-.19.14-.07.05-.15.1-.24.14-.09.04-.19.06-.3.06-.15,0-.26-.04-.32-.13-.06-.1-.1-.28-.1-.56,0-.15,0-.36.02-.64.02-.28.05-.59.08-.94s.06-.73.1-1.12c.04-.39.08-.79.11-1.2h.85c.48,0,.8-.1.94-.29.16-.2.25-.46.27-.78l.06-.86c0-.15-.09-.22-.26-.22h-1.68c.03-.42.05-.73.05-.94,0-.38-.09-.71-.26-.99-.17-.28-.48-.42-.93-.42h-.46c-.07,0-.16.09-.26.26-.09.17-.18.38-.27.64-.1.25-.19.5-.29.77-.1.27-.18.5-.26.69-.25,0-.44.03-.59.1-.15.06-.27.15-.35.26-.07.11-.13.23-.16.37-.02.13-.04.26-.05.4l-.05.82c0,.07,0,.13.02.18.02.03.07.05.16.05Z"/>
  <path d="M40.96,21.44c.13.13.29.23.5.3.21.06.49.1.82.1h.58c.14,0,.23-.02.27-.06.04-.04.07-.13.08-.26.02-.33.05-.71.1-1.15.04-.45.08-.92.11-1.41.03-.52.09-1.02.16-1.5.09-.48.19-.9.32-1.25.14-.36.31-.65.51-.86.2-.21.45-.32.74-.32.32,0,.53.11.64.32.12.21.18.46.18.74,0,.18-.02.47-.06.88-.03.39-.07.82-.11,1.26-.03.44-.07.86-.11,1.28-.03.41-.05.71-.05.93,0,.22.02.43.06.61.05.17.14.31.26.43.12.12.28.21.5.27.21.06.49.1.83.1h.51c.1,0,.17,0,.22-.02.05-.01.09-.03.11-.06.03-.03.05-.08.06-.14.01-.06.02-.15.03-.27.04-.64.08-1.17.11-1.6s.06-.81.08-1.14c.03-.51.09-.99.18-1.42.09-.44.2-.82.34-1.14.14-.32.31-.57.51-.75.2-.18.44-.27.72-.27.32,0,.53.11.64.32.12.21.18.46.18.74,0,.06-.01.2-.03.4-.01.2-.03.44-.06.72-.02.27-.05.56-.08.88-.02.32-.05.63-.08.93-.02.3-.04.58-.06.83-.01.26-.02.45-.02.59,0,.22.02.43.06.61.05.17.14.31.26.43.12.12.28.21.5.27.21.06.49.1.83.1h.51c.1,0,.17,0,.22-.02.05-.01.09-.03.11-.06.03-.03.05-.08.06-.14.01-.06.02-.15.03-.27.03-.54.07-1.11.13-1.7.05-.6.1-1.17.14-1.73.04-.57.08-1.09.11-1.57.03-.48.05-.89.05-1.22,0-.44-.07-.8-.21-1.09-.13-.3-.3-.53-.53-.7-.22-.17-.49-.29-.8-.35-.3-.07-.61-.11-.94-.11-.6,0-1.09.12-1.49.37-.39.23-.76.66-1.09,1.28-.06-.32-.17-.58-.32-.78-.15-.21-.33-.38-.54-.51-.21-.13-.45-.22-.72-.27-.27-.05-.54-.08-.83-.08-.53,0-1,.1-1.39.3-.39.2-.75.59-1.06,1.17-.01-.17-.04-.34-.1-.5-.05-.16-.14-.3-.27-.42-.13-.12-.29-.21-.5-.29-.2-.07-.46-.11-.78-.11h-.62c-.14,0-.22.02-.26.05-.04.04-.07.18-.08.42-.09,1.17-.16,2.16-.22,2.96-.05.79-.1,1.45-.14,1.97-.04.51-.07.92-.1,1.22-.01.29-.02.51-.02.67,0,.25.02.46.06.66.05.18.14.34.26.46Z"/>
  <path d="M128.73,21.22c.37.29.79.49,1.25.61.47.12.94.18,1.41.18.35,0,.72-.03,1.09-.1.37-.06.71-.17,1.01-.3.31-.14.56-.32.75-.54s.29-.49.29-.8c0-.23-.05-.43-.16-.58-.11-.15-.23-.27-.37-.35-.14-.09-.28-.14-.42-.16-.13-.03-.22-.05-.27-.05-.12,0-.21.05-.29.14-.06.09-.14.19-.24.3-.1.11-.22.21-.38.3-.15.09-.36.13-.64.13s-.51-.05-.7-.14-.35-.22-.46-.37-.21-.32-.27-.51c-.05-.2-.08-.41-.08-.61.17,0,.41,0,.72-.02.32-.02.67-.06,1.04-.13.37-.07.75-.18,1.14-.3.38-.13.73-.3,1.04-.53.32-.23.58-.52.77-.86.2-.34.3-.76.3-1.25,0-.33-.05-.64-.16-.93-.11-.29-.28-.54-.51-.75-.23-.22-.54-.4-.93-.53-.38-.13-.85-.19-1.41-.19-.69,0-1.29.1-1.79.29-.5.19-.93.44-1.28.75-.35.31-.64.66-.86,1.06-.21.38-.38.77-.51,1.17-.12.39-.2.78-.24,1.15-.04.37-.06.69-.06.96,0,.73.12,1.33.35,1.81.24.48.53.86.9,1.15ZM130.41,16.39c.06-.25.15-.47.26-.67.12-.2.26-.37.42-.5.17-.14.37-.21.61-.21.28,0,.48.09.61.26.14.17.21.36.21.58,0,.39-.21.7-.62.91-.41.21-.94.33-1.6.34.03-.22.08-.46.13-.7Z"/>
  <path d="M111.35,21.52c.21.17.46.29.74.37.29.07.59.11.91.11.66,0,1.2-.14,1.6-.42.42-.28.75-.6,1.01-.98.09.44.26.78.51,1.02.26.25.64.37,1.15.37.36,0,.67-.06.91-.19.26-.13.45-.29.59-.5.15-.2.26-.43.32-.67.06-.25.1-.49.1-.72,0-.09-.05-.14-.14-.16s-.21-.05-.34-.1c-.12-.04-.22-.12-.32-.22-.1-.12-.14-.31-.14-.58,0-.12.01-.33.03-.62.03-.3.06-.61.1-.94.04-.34.08-.66.1-.96.03-.31.05-.52.05-.64,0-.9-.27-1.59-.8-2.08s-1.39-.74-2.58-.74c-.61,0-1.14.06-1.6.19-.46.13-.84.3-1.15.53-.3.21-.53.47-.69.77-.15.3-.22.61-.22.94,0,.82.54,1.23,1.63,1.23.16,0,.28-.01.35-.03.08-.03.12-.1.14-.19.04-.19.09-.37.14-.53.05-.16.12-.29.21-.4.09-.12.2-.21.34-.27.14-.06.32-.1.54-.1.41,0,.67.1.8.3.13.2.19.47.19.82,0,.12,0,.22-.02.3,0,.07,0,.17-.02.29-1.68.04-2.96.34-3.82.88-.86.54-1.3,1.3-1.3,2.26,0,.38.06.71.18.99.13.27.29.49.5.66ZM113.62,18.67c.13-.15.29-.27.5-.35.21-.1.45-.17.72-.21.27-.04.54-.06.82-.06-.02.31-.08.58-.18.8s-.21.42-.35.58c-.13.15-.28.26-.45.34-.17.07-.34.11-.51.11-.18,0-.35-.05-.51-.14-.15-.1-.22-.27-.22-.51,0-.21.06-.39.19-.54Z"/>
  <path d="M120.93,21.71c.35.1.72.17,1.1.21.39.05.74.08,1.04.08,1.09,0,1.9-.25,2.45-.74.54-.49.82-1.12.82-1.89,0-.48-.1-.87-.29-1.17-.18-.31-.42-.57-.7-.77-.28-.2-.58-.36-.91-.48-.33-.13-.64-.25-.93-.37-.28-.12-.51-.24-.7-.37-.18-.14-.27-.32-.27-.54s.09-.39.27-.53c.18-.15.42-.22.72-.22.22,0,.4.04.51.11.13.07.22.17.27.29.06.11.1.22.11.35.02.12.03.22.03.32,0,.09.03.14.08.18.05.03.15.05.3.05.55,0,.98-.12,1.26-.37.3-.25.45-.6.45-1.07,0-.55-.21-1.01-.64-1.36-.43-.36-1.09-.54-2-.54-.44,0-.88.05-1.31.16-.44.1-.83.26-1.18.5-.34.23-.62.54-.85.93-.21.37-.32.83-.32,1.38,0,.5.08.91.26,1.23.17.31.38.57.64.77.27.2.55.37.85.5.31.12.59.23.85.34.27.11.48.22.66.35.17.12.26.28.26.48,0,.22-.11.37-.32.43-.2.06-.44.1-.7.1-.35,0-.64-.03-.85-.1-.21-.06-.39-.13-.54-.19-.14-.07-.26-.14-.37-.21-.11-.06-.22-.1-.35-.1-.16,0-.3.05-.42.14-.11.09-.2.19-.29.32-.08.13-.13.26-.18.4-.03.14-.05.26-.05.35,0,.26.12.47.35.64.24.17.54.31.9.42Z"/>
  <path d="M90.23,21.84h.74c.1,0,.16-.02.19-.05.03-.04.05-.11.06-.19l.22-2.94c.32.1.71.14,1.17.14.77,0,1.43-.13,1.98-.4s1.01-.62,1.36-1.07.61-.96.77-1.54c.17-.59.26-1.19.26-1.82,0-.58-.08-1.09-.22-1.54-.14-.45-.36-.83-.67-1.14-.3-.32-.69-.56-1.18-.72-.49-.17-1.08-.26-1.76-.26-.24,0-.51.01-.82.03-.31.01-.63.03-.96.05s-.66.04-.99.06c-.33.01-.64.02-.91.02-.05,0-.11.02-.16.06-.05.03-.08.09-.08.18,0,.16,0,.31-.02.45,0,.14,0,.29-.02.46,0,.16-.01.35-.03.58-.01.21-.03.49-.05.82-.02.32-.05.71-.1,1.17-.03.45-.07.99-.13,1.62-.04.51-.08,1.01-.13,1.5-.03.49-.06.94-.1,1.36-.03.42-.06.78-.08,1.09-.01.3-.02.52-.02.66,0,.47.12.83.37,1.07.26.23.69.35,1.3.35ZM91.74,14.43c.03-.64.06-1.18.08-1.63.19-.02.37-.04.54-.05.17-.02.32-.03.46-.03.54,0,.92.12,1.12.37.21.23.32.58.32,1.04,0,.2-.02.44-.06.72-.04.28-.13.54-.26.8-.13.26-.31.47-.54.66-.22.17-.52.26-.9.26-.13,0-.27,0-.43-.02-.15-.02-.3-.05-.46-.1.05-.7.1-1.38.13-2.02Z"/>
  <path d="M103.68,21.22c.37.29.79.49,1.25.61.47.12.94.18,1.41.18.35,0,.72-.03,1.09-.1.37-.06.71-.17,1.01-.3.31-.14.56-.32.75-.54.19-.22.29-.49.29-.8,0-.23-.05-.43-.16-.58-.11-.15-.23-.27-.37-.35-.14-.09-.28-.14-.42-.16-.13-.03-.22-.05-.27-.05-.12,0-.21.05-.29.14-.06.09-.14.19-.24.3-.1.11-.22.21-.38.3-.15.09-.36.13-.64.13s-.51-.05-.7-.14-.35-.22-.46-.37c-.12-.15-.21-.32-.27-.51-.05-.2-.08-.41-.08-.61.17,0,.41,0,.72-.02.32-.02.67-.06,1.04-.13.37-.07.75-.18,1.14-.3.38-.13.73-.3,1.04-.53.32-.23.58-.52.77-.86.2-.34.3-.76.3-1.25,0-.33-.05-.64-.16-.93-.11-.29-.28-.54-.51-.75-.23-.22-.54-.4-.93-.53-.38-.13-.85-.19-1.41-.19-.69,0-1.29.1-1.79.29-.5.19-.93.44-1.28.75-.35.31-.64.66-.86,1.06-.21.38-.38.77-.51,1.17-.12.39-.2.78-.24,1.15-.04.37-.06.69-.06.96,0,.73.12,1.33.35,1.81.23.48.53.86.9,1.15ZM105.36,16.39c.06-.25.15-.47.26-.67.12-.2.26-.37.42-.5.17-.14.37-.21.61-.21.28,0,.48.09.61.26.14.17.21.36.21.58,0,.39-.21.7-.62.91-.41.21-.94.33-1.6.34.03-.22.08-.46.13-.7Z"/>
  <path d="M99.67,21.99c.37,0,.68-.05.91-.16.24-.12.44-.27.58-.45.14-.19.23-.4.29-.62.05-.23.08-.47.08-.7,0-.05-.05-.09-.16-.1-.1-.02-.2-.05-.32-.1-.12-.05-.23-.14-.34-.26-.1-.12-.14-.31-.14-.59,0-.2.01-.5.03-.9.03-.39.07-.84.11-1.33.04-.5.09-1.02.13-1.57.04-.54.09-1.07.13-1.57.04-.5.08-.95.1-1.34.03-.41.05-.71.05-.93,0-.18-.03-.35-.08-.51-.05-.17-.14-.32-.27-.45-.13-.13-.3-.23-.51-.3-.21-.07-.48-.11-.8-.11h-.62c-.14,0-.22.02-.26.05-.04.04-.07.18-.08.42-.06,1.14-.13,2.14-.19,3.01-.05.86-.11,1.62-.16,2.26-.04.64-.09,1.18-.13,1.63-.04.45-.08.83-.11,1.14-.02.3-.04.54-.06.74-.01.19-.02.35-.02.48,0,.81.14,1.39.43,1.74.29.35.76.53,1.42.53Z"/>
</svg>