<svg xmlns="http://www.w3.org/2000/svg" fill="none" viewBox="0 0 197 55">
<g clip-path="url(#clip0_186_169)">
<rect width="55" height="197" transform="translate(197) rotate(90)" fill="white"/>
<g clip-path="url(#clip1_186_169)">
<path d="M37.3097 30.5875C37.8137 30.5298 40.3272 30.2092 41.5483 29.5488C41.5613 29.5424 41.5742 29.5296 41.5807 29.5103C41.684 29.0872 43.0538 23.5475 43.0732 22.8294C43.0732 22.8294 43.5643 19.2324 42.9763 18.7067C42.9763 18.7067 42.776 18.3861 42.1363 18.3797C42.0911 18.3797 42.0588 18.4117 42.0588 18.4566V20.2134C42.0588 20.2134 42.0717 20.425 41.936 20.3737C41.936 20.3737 41.7939 20.3352 41.7486 19.8672C41.7486 19.848 41.7486 19.7967 41.7486 19.8031C41.7486 19.5658 41.7616 18.0334 41.7099 17.8667C41.7099 17.8667 41.5354 17.2576 40.7407 17.5205C40.7084 17.5333 40.689 17.5654 40.689 17.5975L40.7213 19.335C40.7213 19.335 40.7342 19.5851 40.5339 19.5851C40.5339 19.5851 40.3853 19.6235 40.3336 19.1811C40.3336 19.1811 40.2625 18.431 40.2432 17.6744C40.2432 17.6744 40.3401 16.1484 39.022 16.8345C38.9961 16.8473 38.9832 16.8729 38.9832 16.8986C39.009 17.2384 39.1576 19.412 38.7506 19.3543C38.7183 19.3543 38.6924 19.3158 38.6924 19.2837C38.7054 18.9183 38.7635 17.0653 38.6537 16.6036C38.6537 16.6036 38.2789 15.7509 37.7232 16.2189C37.5229 16.3921 37.4066 16.6421 37.3937 16.905C37.3614 17.3538 37.3097 18.1873 37.2968 18.6746C37.2968 18.6746 36.9349 23.5924 35.8236 21.951C35.8107 21.9317 35.7913 21.9189 35.7719 21.9189L34.835 21.7394C34.835 21.7394 34.8027 21.7458 34.7962 21.765C34.7639 21.9253 34.7058 22.746 36.1854 24.6375C36.1854 24.6375 37.4066 25.8813 37.2516 28.0421L37.2128 30.5106C37.2128 30.5554 37.2516 30.5939 37.2968 30.5875H37.3097Z" fill="#C48448" stroke="#231F20" stroke-width="0.09" stroke-miterlimit="10"/>
<path d="M36.5986 37.929C36.5792 38.0444 36.1011 40.7437 35.9912 40.9681C35.9912 40.9681 35.9912 40.9745 35.9977 40.9745C36.269 40.8527 39.6225 39.3524 40.5788 38.3714C40.5788 38.3329 40.6757 37.1852 40.6434 37.0442C40.5077 37.0827 37.8198 37.8008 36.6115 37.9354L36.5986 37.929Z" fill="#C48448" stroke="#231F20" stroke-width="0.09" stroke-miterlimit="10"/>
<path d="M36.399 21.6816C36.4765 21.1943 36.8448 18.7258 36.5346 17.3922C36.5346 17.373 36.5217 17.3602 36.5088 17.3537C36.134 17.1422 31.1717 14.3595 30.4933 14.1479C30.4933 14.1479 27.1657 12.7181 26.5066 13.1285C26.5066 13.1285 26.1448 13.231 25.9704 13.8337C25.9574 13.8722 25.9833 13.9171 26.022 13.9299L27.7085 14.4044C27.7085 14.4044 27.9152 14.4493 27.8312 14.5583C27.8312 14.5583 27.7537 14.6865 27.2949 14.5967C27.2755 14.5967 27.2239 14.5775 27.2368 14.5839C27.0106 14.5198 25.5439 14.0966 25.363 14.103C25.363 14.103 24.7362 14.103 24.7685 14.9301C24.7685 14.9622 24.7944 14.9943 24.8267 15.0007L26.5066 15.4367C26.5066 15.4367 26.7522 15.4944 26.694 15.6803C26.694 15.6803 26.694 15.8342 26.2547 15.7637C26.2547 15.7637 25.5181 15.629 24.7815 15.4431C24.7815 15.4431 23.3406 14.943 23.6443 16.3728C23.6443 16.3984 23.6701 16.4241 23.696 16.4241C24.032 16.4946 26.1577 16.937 25.9897 17.3025C25.9768 17.3345 25.938 17.3473 25.9057 17.3345C25.5568 17.2255 23.7929 16.6677 23.3212 16.6549C23.3212 16.6549 22.3972 16.7767 22.7009 17.4371C22.8108 17.6743 23.024 17.8474 23.2695 17.9372C23.6895 18.0847 24.4842 18.3604 24.943 18.5014C24.943 18.5014 29.5758 20.1685 27.6955 20.7712C27.6761 20.7712 27.6568 20.7904 27.6503 20.8096L27.2239 21.6496C27.2239 21.6496 27.2239 21.6816 27.2368 21.6944C27.3854 21.7714 28.1543 22.0407 30.3705 21.1495C30.3705 21.1495 31.8954 20.3288 33.9307 21.0533L36.2956 21.7522C36.3408 21.765 36.386 21.7393 36.3925 21.688L36.399 21.6816Z" fill="#7C4B16" stroke="#231F20" stroke-width="0.09" stroke-miterlimit="10"/>
<path d="M43.2539 25.2209C43.3573 25.2786 45.7868 26.5866 45.9677 26.7597H45.9741C45.9483 26.4712 45.58 22.8357 44.9403 21.6239C44.9015 21.6047 43.8354 21.1559 43.6868 21.1431C43.6804 21.2777 43.5124 24.0411 43.2539 25.2209Z" fill="#7C4B16" stroke="#231F20" stroke-width="0.09" stroke-miterlimit="10"/>
<path d="M27.3915 20.1045C26.9522 19.8736 24.723 18.7324 23.3467 18.5913C23.3273 18.5913 23.3144 18.5913 23.3015 18.6041C22.9784 18.8927 18.7269 22.6435 18.3004 23.2141C18.3004 23.2141 15.858 25.875 16.0454 26.6315C16.0454 26.6315 16.0325 27.0034 16.5429 27.3625C16.5752 27.3881 16.6269 27.3753 16.6528 27.3432L17.6478 25.9134C17.6478 25.9134 17.7577 25.7339 17.8352 25.8493C17.8352 25.8493 17.9321 25.9647 17.6995 26.3623C17.6866 26.3815 17.6607 26.42 17.6672 26.4136C17.5315 26.6059 16.6528 27.8498 16.6011 28.0165C16.6011 28.0165 16.4008 28.6063 17.1955 28.8372C17.2278 28.8436 17.2666 28.8372 17.2795 28.8051L18.2358 27.3689C18.2358 27.3689 18.3715 27.1573 18.5266 27.2727C18.5266 27.2727 18.6687 27.3304 18.462 27.7151C18.462 27.7151 18.1001 28.3691 17.6801 28.9975C17.6801 28.9975 16.7368 30.1836 18.197 30.3631C18.2229 30.3631 18.2487 30.3567 18.2681 30.3311C18.4426 30.0361 19.5539 28.1832 19.8447 28.4589C19.8705 28.4845 19.8705 28.523 19.8447 28.5486C19.6315 28.8436 18.5266 30.3183 18.3586 30.7543C18.3586 30.7543 18.1777 31.6583 18.9013 31.5878C19.1598 31.5621 19.3988 31.4211 19.5604 31.2159C19.8382 30.8697 20.3551 30.2157 20.6394 29.8246C20.6394 29.8246 23.7215 26.016 23.6892 27.9716C23.6892 27.9908 23.6956 28.0101 23.7086 28.0293L24.3676 28.6961C24.3676 28.6961 24.3999 28.7089 24.4128 28.6961C24.5292 28.5807 25.0396 27.9459 24.9039 25.58C24.9039 25.58 24.6131 23.8809 25.9636 22.2075L27.3915 20.2135C27.4174 20.175 27.4044 20.1237 27.3657 20.1045H27.3915Z" fill="#F4A153" stroke="#231F20" stroke-width="0.09" stroke-miterlimit="10"/>
<path d="M33.3231 14.7763C33.4976 14.616 35.2292 13.0003 35.5846 12.7438C35.6039 12.731 35.5975 12.699 35.5781 12.6925C35.0483 12.5771 31.7078 11.8654 30.4026 12.0706C30.4026 12.0706 30.3896 12.0706 30.3896 12.077C30.3186 12.154 29.6724 12.8913 29.5561 13.0772C29.5432 13.0901 29.5561 13.1093 29.5691 13.1157C29.8598 13.2311 32.2764 14.1865 33.2973 14.7827C33.3102 14.7827 33.3231 14.7827 33.3296 14.7827L33.3231 14.7763Z" fill="#F4A153" stroke="#231F20" stroke-width="0.09" stroke-miterlimit="10"/>
<path d="M23.1597 28.0548C22.8043 28.401 21.0404 30.1706 20.4912 31.4337C20.4847 31.4466 20.4847 31.4658 20.4912 31.485C20.6721 31.8761 23.0046 37.0311 23.4246 37.6018C23.4246 37.6018 25.2532 40.7114 26.0285 40.7627C26.0285 40.7627 26.3839 40.891 26.8814 40.5127C26.9137 40.487 26.9202 40.4357 26.8944 40.4037L25.8153 39.0316C25.8153 39.0316 25.6796 38.8713 25.8153 38.8328C25.8153 38.8328 25.951 38.7751 26.2676 39.1149C26.2805 39.1278 26.3128 39.1726 26.3064 39.1598C26.4485 39.3457 27.379 40.5447 27.5276 40.6473C27.5276 40.6473 28.038 41.0192 28.4968 40.3267C28.5162 40.3011 28.5162 40.2626 28.4968 40.237L27.4048 38.8969C27.4048 38.8969 27.2368 38.7046 27.3983 38.5892C27.3983 38.5892 27.4953 38.4738 27.8054 38.7815C27.8054 38.7815 28.3223 39.3201 28.8005 39.9036C28.8005 39.9036 29.6598 41.1538 30.2672 39.8202C30.2801 39.7946 30.2736 39.7625 30.2543 39.7433C30.0281 39.4932 28.5743 37.8839 28.9297 37.6851C28.962 37.6659 29.0008 37.6851 29.0201 37.7108C29.2334 37.9993 30.3253 39.4868 30.6936 39.7753C30.6936 39.7753 31.5142 40.2177 31.6564 39.5125C31.7081 39.256 31.6434 38.9931 31.4948 38.7751C31.2428 38.4096 30.7712 37.7236 30.4804 37.3389C30.4804 37.3389 27.7408 33.2803 29.621 33.8958C29.6404 33.9022 29.6598 33.8958 29.6792 33.8958L30.5192 33.4727C30.5192 33.4727 30.5386 33.447 30.5321 33.4278C30.4546 33.2803 30.0023 32.6071 27.6826 32.0236C27.6826 32.0236 25.9639 31.7864 24.7557 30.0104L23.2696 28.0612C23.2437 28.0227 23.1856 28.0227 23.1532 28.0548H23.1597Z" fill="#45270B" stroke="#231F20" stroke-width="0.09" stroke-miterlimit="10"/>
<path d="M19.8192 20.8482C19.7675 20.7392 18.5657 18.2772 18.5205 18.0271H18.514C18.3654 18.2772 16.5304 21.4445 16.3301 22.7974C16.3495 22.8359 16.9568 23.8168 17.0667 23.913C17.0667 23.913 17.0667 23.913 17.0731 23.913C17.1571 23.804 18.9146 21.6625 19.8192 20.8546V20.8482Z" fill="#45270B" stroke="#231F20" stroke-width="0.09" stroke-miterlimit="10"/>
<path d="M29.4143 34.5883C29.6469 35.0307 30.8229 37.2299 31.8696 38.1211C31.8826 38.134 31.902 38.1404 31.9149 38.134C32.3478 38.0827 37.995 37.403 38.6734 37.1722C38.6734 37.1722 42.2078 36.3643 42.4921 35.6462C42.4921 35.6462 42.7182 35.3513 42.505 34.7614C42.4921 34.723 42.4469 34.7037 42.4081 34.7165L40.7669 35.3321C40.7669 35.3321 40.5731 35.4154 40.5731 35.2808C40.5731 35.2808 40.5601 35.1333 40.9801 34.9345C40.9995 34.9281 41.0447 34.9089 41.0383 34.9089C41.258 34.832 42.6924 34.2998 42.8345 34.1908C42.8345 34.1908 43.3385 33.8189 42.8152 33.1777C42.7958 33.1521 42.757 33.1393 42.7247 33.1521L41.1094 33.7933C41.1094 33.7933 40.8768 33.8959 40.8121 33.7099C40.8121 33.7099 40.7281 33.5817 41.1158 33.3829C41.1158 33.3829 41.7878 33.0559 42.4921 32.7738C42.4921 32.7738 43.9523 32.3314 42.8475 31.3568C42.8281 31.3376 42.7958 31.3312 42.7699 31.344C42.4598 31.4851 40.4826 32.3827 40.3986 31.9916C40.3922 31.9595 40.418 31.9275 40.4503 31.9146C40.7928 31.7992 42.5502 31.203 42.9379 30.9401C42.9379 30.9401 43.6034 30.2989 42.9702 29.9463C42.7376 29.818 42.4662 29.8052 42.2142 29.8821C41.7878 30.0104 40.9866 30.254 40.5343 30.4143C40.5343 30.4143 35.8111 31.7992 36.9612 30.2091C36.9741 30.1899 36.9806 30.1707 36.9741 30.1514L36.8126 29.2282C36.8126 29.2282 36.7932 29.1961 36.7738 29.2025C36.6123 29.2282 35.824 29.4654 34.5769 31.4851C34.5769 31.4851 33.8404 33.0431 31.7727 33.6586L29.4531 34.4857C29.4079 34.4986 29.3885 34.5498 29.4079 34.5947L29.4143 34.5883Z" fill="#FFE2C2" stroke="#231F20" stroke-width="0.09" stroke-miterlimit="10"/>
<path d="M22.3391 36.6274C22.2228 36.6467 19.4961 37.0827 19.2441 37.057C19.2441 37.057 19.2376 37.057 19.2441 37.0634C19.4444 37.275 21.9772 39.9295 23.2243 40.5001C23.263 40.4873 24.3873 40.1987 24.5101 40.1218C24.5101 40.1218 24.5101 40.1218 24.5101 40.1154C24.4325 40 22.8624 37.7174 22.3391 36.6274Z" fill="#FFE2C2" stroke="#231F20" stroke-width="0.09" stroke-miterlimit="10"/>
</g>
<path d="M53.48 33C52.8827 33 52.456 32.8827 52.2 32.648C51.944 32.4133 51.816 32.0773 51.816 31.64C51.816 31.4267 51.832 31.064 51.864 30.552C51.896 30.0293 51.9387 29.4373 51.992 28.776C52.0453 28.1147 52.0987 27.416 52.152 26.68C52.2053 25.944 52.2587 25.2507 52.312 24.6C52.3653 23.9493 52.408 23.3787 52.44 22.888C52.472 22.3973 52.488 22.0613 52.488 21.88C52.488 21.72 52.5733 21.64 52.744 21.64H53.624C54.2747 21.64 54.712 21.7787 54.936 22.056C55.16 22.3333 55.272 22.744 55.272 23.288C55.272 23.3413 55.2613 23.512 55.24 23.8C55.2293 24.088 55.208 24.4507 55.176 24.888C55.144 25.3253 55.1067 25.816 55.064 26.36C55.032 26.8933 54.9947 27.4427 54.952 28.008C54.92 28.5733 54.8827 29.128 54.84 29.672C54.808 30.2053 54.776 30.6907 54.744 31.128C54.712 31.5653 54.6853 31.9333 54.664 32.232C54.6427 32.52 54.6267 32.696 54.616 32.76C54.6053 32.8453 54.584 32.9093 54.552 32.952C54.52 32.984 54.456 33 54.36 33H53.48ZM59.4553 30.12C59.4233 30.6107 59.3859 31.08 59.3433 31.528C59.3006 31.9653 59.2686 32.3493 59.2473 32.68C59.2366 32.808 59.2099 32.8933 59.1673 32.936C59.1246 32.9787 59.0339 33 58.8953 33H58.3193C57.9886 33 57.7166 32.968 57.5033 32.904C57.3006 32.8293 57.1353 32.728 57.0073 32.6C56.8899 32.472 56.8046 32.3173 56.7513 32.136C56.7086 31.944 56.6873 31.7253 56.6873 31.48C56.6873 31.32 56.6926 31.096 56.7033 30.808C56.7246 30.5093 56.7566 30.104 56.7993 29.592C56.8419 29.0693 56.8899 28.4133 56.9433 27.624C57.0073 26.824 57.0819 25.8373 57.1673 24.664C57.1779 24.4293 57.2046 24.2907 57.2473 24.248C57.2793 24.216 57.3646 24.2 57.5033 24.2H58.1273C58.4473 24.2 58.7086 24.2373 58.9113 24.312C59.1139 24.3867 59.2793 24.4827 59.4073 24.6C59.5353 24.7173 59.6259 24.856 59.6793 25.016C59.7326 25.176 59.7646 25.3413 59.7753 25.512C60.0846 24.936 60.4366 24.5467 60.8313 24.344C61.2259 24.1413 61.6899 24.04 62.2233 24.04C62.5113 24.04 62.7886 24.0667 63.0553 24.12C63.3219 24.1733 63.5619 24.264 63.7753 24.392C63.9886 24.52 64.1699 24.6907 64.3193 24.904C64.4686 25.1067 64.5753 25.368 64.6393 25.688C64.9699 25.0693 65.3326 24.6427 65.7273 24.408C66.1219 24.1627 66.6179 24.04 67.2153 24.04C67.5459 24.04 67.8606 24.0773 68.1593 24.152C68.4686 24.216 68.7353 24.3333 68.9593 24.504C69.1833 24.6747 69.3593 24.9093 69.4873 25.208C69.6259 25.496 69.6953 25.8587 69.6953 26.296C69.6953 26.6267 69.6793 27.032 69.6473 27.512C69.6153 27.992 69.5779 28.5147 69.5353 29.08C69.4926 29.6347 69.4446 30.2107 69.3913 30.808C69.3379 31.3947 69.2953 31.96 69.2633 32.504C69.2526 32.6213 69.2419 32.712 69.2313 32.776C69.2206 32.84 69.1993 32.888 69.1673 32.92C69.1459 32.952 69.1086 32.9733 69.0553 32.984C69.0019 32.9947 68.9273 33 68.8313 33H68.3193C67.9779 33 67.7006 32.968 67.4873 32.904C67.2739 32.84 67.1086 32.7493 66.9913 32.632C66.8739 32.5147 66.7886 32.3707 66.7353 32.2C66.6926 32.0187 66.6713 31.816 66.6713 31.592C66.6713 31.4533 66.6766 31.256 66.6873 31C66.7086 30.744 66.7299 30.4667 66.7513 30.168C66.7833 29.8693 66.8099 29.56 66.8313 29.24C66.8633 28.92 66.8899 28.6267 66.9113 28.36C66.9433 28.0827 66.9646 27.8427 66.9753 27.64C66.9966 27.4373 67.0073 27.304 67.0073 27.24C67.0073 26.9627 66.9486 26.7173 66.8313 26.504C66.7246 26.2907 66.5113 26.184 66.1913 26.184C65.9139 26.184 65.6739 26.2747 65.4713 26.456C65.2686 26.6373 65.0979 26.888 64.9593 27.208C64.8206 27.528 64.7086 27.9067 64.6233 28.344C64.5379 28.7813 64.4793 29.256 64.4473 29.768C64.4259 30.0987 64.3993 30.4773 64.3673 30.904C64.3353 31.3307 64.2979 31.864 64.2552 32.504C64.2446 32.6213 64.2339 32.712 64.2233 32.776C64.2126 32.84 64.1913 32.888 64.1593 32.92C64.1379 32.952 64.1006 32.9733 64.0473 32.984C63.9939 32.9947 63.9193 33 63.8233 33H63.3113C62.9699 33 62.6926 32.968 62.4793 32.904C62.2659 32.84 62.1006 32.7493 61.9833 32.632C61.8659 32.5147 61.7806 32.3707 61.7273 32.2C61.6846 32.0187 61.6633 31.816 61.6633 31.592C61.6633 31.3787 61.6793 31.0693 61.7113 30.664C61.7539 30.248 61.7913 29.8213 61.8233 29.384C61.8659 28.936 61.9033 28.5147 61.9353 28.12C61.9779 27.7147 61.9993 27.4213 61.9993 27.24C61.9993 26.9627 61.9406 26.7173 61.8233 26.504C61.7166 26.2907 61.5033 26.184 61.1833 26.184C60.8953 26.184 60.6499 26.2907 60.4473 26.504C60.2446 26.7173 60.0739 27.0053 59.9353 27.368C59.8073 27.72 59.7006 28.136 59.6153 28.616C59.5406 29.096 59.4873 29.5973 59.4553 30.12ZM76.6608 24.04C77.6634 24.04 78.4154 24.3493 78.9167 24.968C79.4288 25.5867 79.6848 26.5627 79.6848 27.896C79.6848 28.728 79.5888 29.4693 79.3968 30.12C79.2048 30.7707 78.9381 31.3253 78.5968 31.784C78.2554 32.232 77.8554 32.5733 77.3968 32.808C76.9381 33.0427 76.4421 33.16 75.9088 33.16C75.3434 33.16 74.9008 33.0373 74.5807 32.792C74.2608 32.5467 74.0101 32.2 73.8288 31.752C73.7968 32.136 73.7701 32.4293 73.7488 32.632C73.7274 32.8347 73.7114 32.9947 73.7008 33.112C73.6901 33.24 73.6794 33.352 73.6688 33.448C73.6688 33.544 73.6581 33.672 73.6368 33.832C73.6261 33.992 73.6101 34.2107 73.5888 34.488C73.5674 34.7653 73.5354 35.1493 73.4928 35.64C73.4821 35.768 73.4554 35.8533 73.4128 35.896C73.3701 35.9387 73.2794 35.96 73.1408 35.96H72.5648C72.2341 35.96 71.9621 35.9227 71.7488 35.848C71.5461 35.784 71.3808 35.688 71.2528 35.56C71.1354 35.432 71.0501 35.272 70.9967 35.08C70.9541 34.8987 70.9328 34.6853 70.9328 34.44C70.9328 34.3333 70.9488 34.0453 70.9808 33.576C71.0128 33.1067 71.0501 32.5467 71.0928 31.896C71.1461 31.2347 71.1994 30.5253 71.2528 29.768C71.3168 29.0107 71.3754 28.2907 71.4288 27.608C71.4821 26.9147 71.5248 26.3013 71.5568 25.768C71.5994 25.2347 71.6314 24.8667 71.6528 24.664C71.6634 24.4293 71.6901 24.2907 71.7328 24.248C71.7648 24.216 71.8501 24.2 71.9888 24.2H72.6128C73.1888 24.2 73.6048 24.3227 73.8608 24.568C74.1274 24.8027 74.2608 25.0853 74.2608 25.416C74.5061 24.9253 74.8208 24.5733 75.2048 24.36C75.5994 24.1467 76.0848 24.04 76.6608 24.04ZM75.4928 26.168C74.9488 26.168 74.5488 26.4027 74.2928 26.872C74.0368 27.3413 73.9088 27.9813 73.9088 28.792C73.9088 29.0693 73.9248 29.3413 73.9568 29.608C73.9994 29.8747 74.0688 30.1147 74.1648 30.328C74.2608 30.5413 74.3888 30.712 74.5488 30.84C74.7194 30.968 74.9328 31.032 75.1888 31.032C75.6474 31.032 76.0314 30.808 76.3408 30.36C76.6501 29.912 76.8048 29.208 76.8048 28.248C76.8048 27.9813 76.7834 27.7253 76.7408 27.48C76.7088 27.224 76.6448 27 76.5488 26.808C76.4528 26.616 76.3194 26.4613 76.1488 26.344C75.9781 26.2267 75.7594 26.168 75.4928 26.168ZM80.4416 31.032C80.4416 30.072 80.8736 29.32 81.7376 28.776C82.6016 28.232 83.8763 27.9387 85.5616 27.896C85.5723 27.7787 85.5776 27.6827 85.5776 27.608C85.5883 27.5227 85.5936 27.4213 85.5936 27.304C85.5936 26.9627 85.5296 26.6907 85.4016 26.488C85.2736 26.2853 85.007 26.184 84.6016 26.184C84.3776 26.184 84.1963 26.216 84.0576 26.28C83.919 26.344 83.807 26.4347 83.7216 26.552C83.6363 26.6587 83.567 26.792 83.5136 26.952C83.4603 27.112 83.4123 27.288 83.3696 27.48C83.3483 27.576 83.3003 27.64 83.2256 27.672C83.151 27.6933 83.0336 27.704 82.8736 27.704C81.7856 27.704 81.2416 27.2933 81.2416 26.472C81.2416 26.1413 81.3163 25.8267 81.4656 25.528C81.6256 25.2293 81.855 24.9733 82.1536 24.76C82.463 24.536 82.847 24.36 83.3056 24.232C83.7643 24.104 84.2976 24.04 84.9056 24.04C86.0896 24.04 86.9483 24.2853 87.4816 24.776C88.015 25.2667 88.2816 25.96 88.2816 26.856C88.2816 26.9733 88.2656 27.1867 88.2336 27.496C88.2123 27.7947 88.1803 28.1147 88.1376 28.456C88.1056 28.7867 88.0736 29.1013 88.0416 29.4C88.0203 29.6987 88.0096 29.9067 88.0096 30.024C88.0096 30.2907 88.0576 30.4827 88.1536 30.6C88.2496 30.7067 88.3563 30.7813 88.4736 30.824C88.6016 30.8667 88.7136 30.8987 88.8096 30.92C88.9056 30.9413 88.9536 30.9947 88.9536 31.08C88.9536 31.3147 88.9216 31.5547 88.8576 31.8C88.7936 32.0453 88.687 32.2693 88.5376 32.472C88.399 32.6747 88.2016 32.84 87.9456 32.968C87.7003 33.096 87.3963 33.16 87.0336 33.16C86.5216 33.16 86.1376 33.0373 85.8816 32.792C85.6256 32.5467 85.455 32.2053 85.3696 31.768C85.1136 32.1413 84.7776 32.4667 84.3616 32.744C83.9563 33.0213 83.423 33.16 82.7616 33.16C82.4416 33.16 82.1376 33.1227 81.8496 33.048C81.5723 32.9733 81.327 32.8507 81.1136 32.68C80.911 32.5093 80.7456 32.2907 80.6176 32.024C80.5003 31.7467 80.4416 31.416 80.4416 31.032ZM85.4176 29.208C85.1403 29.208 84.8683 29.2293 84.6016 29.272C84.335 29.3147 84.095 29.384 83.8816 29.48C83.679 29.5653 83.5136 29.6827 83.3856 29.832C83.2576 29.9813 83.1936 30.1627 83.1936 30.376C83.1936 30.6213 83.2683 30.792 83.4176 30.888C83.5776 30.984 83.7483 31.032 83.9296 31.032C84.1003 31.032 84.271 30.9947 84.4416 30.92C84.6123 30.8453 84.7616 30.7333 84.8896 30.584C85.0283 30.424 85.1456 30.232 85.2416 30.008C85.3376 29.784 85.3963 29.5173 85.4176 29.208ZM93.9693 31.032C94.2786 31.032 94.5453 30.9893 94.7693 30.904C95.0039 30.8187 95.2066 30.7227 95.3773 30.616C95.5479 30.5093 95.6919 30.4133 95.8093 30.328C95.9266 30.2427 96.0333 30.2 96.1293 30.2C96.3746 30.2 96.4973 30.36 96.4973 30.68C96.4973 30.7547 96.4813 30.8613 96.4493 31C96.4173 31.128 96.3746 31.2667 96.3213 31.416C96.2679 31.5547 96.2093 31.688 96.1453 31.816C96.0919 31.944 96.0386 32.04 95.9853 32.104C95.9319 32.1573 95.8359 32.2427 95.6973 32.36C95.5693 32.4773 95.3933 32.5947 95.1693 32.712C94.9453 32.8293 94.6839 32.9307 94.3853 33.016C94.0866 33.112 93.7559 33.16 93.3932 33.16C92.9879 33.16 92.5666 33.1013 92.1293 32.984C91.7026 32.856 91.3133 32.6427 90.9613 32.344C90.6093 32.0347 90.3159 31.624 90.0813 31.112C89.8573 30.5893 89.7453 29.9387 89.7453 29.16C89.7453 28.8827 89.7613 28.568 89.7933 28.216C89.8359 27.8533 89.9159 27.4853 90.0333 27.112C90.1506 26.728 90.3053 26.3547 90.4973 25.992C90.6999 25.6187 90.9666 25.288 91.2973 25C91.6279 24.712 92.0226 24.4827 92.4813 24.312C92.9506 24.1307 93.5053 24.04 94.1453 24.04C94.6679 24.04 95.1159 24.104 95.4893 24.232C95.8733 24.3493 96.1879 24.5147 96.4333 24.728C96.6786 24.9307 96.8599 25.1707 96.9773 25.448C97.1053 25.7253 97.1693 26.024 97.1693 26.344C97.1693 26.92 96.9879 27.3467 96.6253 27.624C96.2626 27.8907 95.7506 28.024 95.0893 28.024C94.9293 28.024 94.8173 28.0133 94.7533 27.992C94.6999 27.96 94.6733 27.896 94.6733 27.8C94.6733 27.544 94.6679 27.3147 94.6573 27.112C94.6466 26.9093 94.6146 26.7387 94.5613 26.6C94.5186 26.4613 94.4493 26.3547 94.3533 26.28C94.2573 26.2053 94.1186 26.168 93.9373 26.168C93.6066 26.168 93.3399 26.2747 93.1373 26.488C92.9453 26.7013 92.7959 26.9627 92.6893 27.272C92.5933 27.5707 92.5293 27.88 92.4973 28.2C92.4759 28.52 92.4653 28.7867 92.4653 29C92.4653 29.7573 92.5826 30.2853 92.8173 30.584C93.0626 30.8827 93.4466 31.032 93.9693 31.032ZM101.502 26.36C101.47 26.7653 101.433 27.1653 101.39 27.56C101.358 27.9547 101.326 28.328 101.294 28.68C101.262 29.032 101.236 29.3467 101.214 29.624C101.204 29.9013 101.198 30.1147 101.198 30.264C101.198 30.5413 101.23 30.728 101.294 30.824C101.358 30.9093 101.465 30.952 101.614 30.952C101.732 30.952 101.833 30.9307 101.918 30.888C102.004 30.8453 102.084 30.7973 102.158 30.744C102.233 30.6907 102.297 30.6427 102.35 30.6C102.414 30.5573 102.484 30.536 102.558 30.536C102.633 30.536 102.702 30.5787 102.766 30.664C102.83 30.7493 102.862 30.9467 102.862 31.256C102.862 31.8427 102.702 32.3067 102.382 32.648C102.062 32.9893 101.513 33.16 100.734 33.16C99.9663 33.16 99.3956 32.984 99.0223 32.632C98.6596 32.2693 98.4783 31.72 98.4783 30.984C98.4783 30.824 98.4836 30.6373 98.4943 30.424C98.5156 30.2 98.5423 29.912 98.5743 29.56C98.6063 29.208 98.6436 28.776 98.6863 28.264C98.7396 27.752 98.7929 27.1173 98.8463 26.36H97.9983C97.9129 26.36 97.8596 26.344 97.8383 26.312C97.8276 26.2693 97.8223 26.2107 97.8223 26.136L97.8703 25.32C97.8809 25.1813 97.8969 25.048 97.9183 24.92C97.9503 24.7813 98.0036 24.6587 98.0783 24.552C98.1636 24.4453 98.2809 24.36 98.4303 24.296C98.5796 24.232 98.7769 24.2 99.0223 24.2C99.0969 24.008 99.1823 23.7787 99.2783 23.512C99.3743 23.2453 99.4703 22.9893 99.5663 22.744C99.6623 22.488 99.7529 22.2747 99.8383 22.104C99.9343 21.9333 100.02 21.848 100.094 21.848H100.558C101.006 21.848 101.316 21.9867 101.486 22.264C101.657 22.5413 101.742 22.872 101.742 23.256C101.742 23.4693 101.726 23.784 101.694 24.2H103.374C103.545 24.2 103.63 24.2747 103.63 24.424L103.566 25.288C103.545 25.608 103.454 25.8693 103.294 26.072C103.145 26.264 102.83 26.36 102.35 26.36H101.502ZM106.277 33C105.669 33 105.237 32.8827 104.981 32.648C104.736 32.4027 104.613 32.0453 104.613 31.576C104.613 31.4373 104.618 31.2187 104.629 30.92C104.65 30.6107 104.677 30.248 104.709 29.832C104.741 29.416 104.773 28.9627 104.805 28.472C104.848 27.9813 104.89 27.48 104.933 26.968C104.986 26.3387 105.029 25.8 105.061 25.352C105.104 24.8933 105.136 24.504 105.157 24.184C105.178 23.8533 105.194 23.5813 105.205 23.368C105.226 23.144 105.237 22.952 105.237 22.792C105.248 22.6213 105.253 22.4667 105.253 22.328C105.264 22.1893 105.269 22.04 105.269 21.88C105.269 21.7947 105.296 21.736 105.349 21.704C105.402 21.6613 105.456 21.64 105.509 21.64C105.786 21.64 106.09 21.6347 106.421 21.624C106.752 21.6027 107.082 21.5813 107.413 21.56C107.744 21.5387 108.064 21.5227 108.373 21.512C108.682 21.4907 108.954 21.48 109.189 21.48C109.872 21.48 110.458 21.5653 110.949 21.736C111.44 21.896 111.834 22.136 112.133 22.456C112.442 22.7653 112.666 23.144 112.805 23.592C112.954 24.04 113.029 24.552 113.029 25.128C113.029 25.7573 112.944 26.3653 112.773 26.952C112.613 27.528 112.357 28.04 112.005 28.488C111.653 28.936 111.2 29.2933 110.645 29.56C110.09 29.8267 109.429 29.96 108.661 29.96C108.202 29.96 107.813 29.912 107.493 29.816L107.269 32.76C107.258 32.8453 107.237 32.9093 107.205 32.952C107.173 32.984 107.109 33 107.013 33H106.277ZM108.869 23.88C108.73 23.88 108.576 23.8907 108.405 23.912C108.234 23.9227 108.053 23.9387 107.861 23.96C107.84 24.408 107.813 24.952 107.781 25.592C107.749 26.232 107.706 26.904 107.653 27.608C107.813 27.6507 107.968 27.6827 108.117 27.704C108.277 27.7147 108.421 27.72 108.549 27.72C108.922 27.72 109.221 27.6347 109.445 27.464C109.68 27.2827 109.861 27.064 109.989 26.808C110.117 26.552 110.202 26.2853 110.245 26.008C110.288 25.7307 110.309 25.4907 110.309 25.288C110.309 24.8293 110.202 24.4827 109.989 24.248C109.786 24.0027 109.413 23.88 108.869 23.88ZM115.715 33.144C115.054 33.144 114.579 32.968 114.291 32.616C114.003 32.264 113.859 31.6827 113.859 30.872C113.859 30.744 113.864 30.584 113.875 30.392C113.896 30.2 113.918 29.9547 113.939 29.656C113.971 29.3467 114.008 28.968 114.051 28.52C114.094 28.072 114.136 27.528 114.179 26.888C114.232 26.248 114.286 25.496 114.339 24.632C114.403 23.768 114.467 22.7653 114.531 21.624C114.542 21.3893 114.568 21.2507 114.611 21.208C114.643 21.176 114.728 21.16 114.867 21.16H115.491C115.811 21.16 116.078 21.1973 116.291 21.272C116.504 21.3467 116.675 21.448 116.803 21.576C116.931 21.704 117.022 21.8533 117.075 22.024C117.128 22.184 117.155 22.3547 117.155 22.536C117.155 22.7493 117.139 23.0587 117.107 23.464C117.086 23.8587 117.054 24.3067 117.011 24.808C116.968 25.3093 116.926 25.832 116.883 26.376C116.84 26.92 116.798 27.4427 116.755 27.944C116.712 28.4347 116.675 28.8773 116.643 29.272C116.622 29.6667 116.611 29.9653 116.611 30.168C116.611 30.4453 116.659 30.6427 116.755 30.76C116.862 30.8773 116.974 30.9627 117.091 31.016C117.208 31.0587 117.315 31.0907 117.411 31.112C117.518 31.1227 117.571 31.1547 117.571 31.208C117.571 31.4427 117.544 31.6773 117.491 31.912C117.438 32.136 117.342 32.344 117.203 32.536C117.064 32.7173 116.872 32.8667 116.627 32.984C116.392 33.0907 116.088 33.144 115.715 33.144ZM122.383 33.16C121.914 33.16 121.445 33.1013 120.975 32.984C120.517 32.8667 120.101 32.664 119.727 32.376C119.365 32.088 119.066 31.704 118.831 31.224C118.597 30.744 118.479 30.1413 118.479 29.416C118.479 29.1493 118.501 28.8293 118.543 28.456C118.586 28.0827 118.666 27.6987 118.783 27.304C118.911 26.9093 119.082 26.52 119.295 26.136C119.519 25.7413 119.807 25.3893 120.159 25.08C120.511 24.7707 120.938 24.52 121.439 24.328C121.941 24.136 122.538 24.04 123.231 24.04C123.786 24.04 124.255 24.104 124.639 24.232C125.023 24.36 125.333 24.536 125.567 24.76C125.802 24.9733 125.973 25.224 126.079 25.512C126.186 25.8 126.239 26.1093 126.239 26.44C126.239 26.9307 126.138 27.3467 125.935 27.688C125.743 28.0293 125.487 28.3173 125.167 28.552C124.858 28.776 124.511 28.952 124.127 29.08C123.743 29.208 123.365 29.3093 122.991 29.384C122.618 29.448 122.271 29.4907 121.951 29.512C121.642 29.5227 121.402 29.528 121.231 29.528C121.231 29.7307 121.258 29.9333 121.311 30.136C121.375 30.328 121.466 30.4987 121.583 30.648C121.701 30.7973 121.855 30.92 122.047 31.016C122.239 31.112 122.474 31.16 122.751 31.16C123.029 31.16 123.242 31.1173 123.391 31.032C123.551 30.936 123.679 30.8347 123.775 30.728C123.871 30.6107 123.951 30.5093 124.015 30.424C124.09 30.328 124.186 30.28 124.303 30.28C124.357 30.28 124.447 30.296 124.575 30.328C124.714 30.3493 124.853 30.4027 124.991 30.488C125.13 30.5733 125.253 30.6907 125.359 30.84C125.466 30.9893 125.519 31.1813 125.519 31.416C125.519 31.7253 125.423 31.992 125.231 32.216C125.039 32.44 124.789 32.6213 124.479 32.76C124.181 32.8987 123.845 33 123.471 33.064C123.098 33.128 122.735 33.16 122.383 33.16ZM122.687 26.168C122.453 26.168 122.25 26.2373 122.079 26.376C121.919 26.504 121.781 26.6693 121.663 26.872C121.557 27.0747 121.471 27.2987 121.407 27.544C121.354 27.7893 121.311 28.024 121.279 28.248C121.941 28.2373 122.474 28.1253 122.879 27.912C123.295 27.6987 123.503 27.3947 123.503 27C123.503 26.7867 123.434 26.5947 123.295 26.424C123.167 26.2533 122.965 26.168 122.687 26.168ZM126.723 31.032C126.723 30.072 127.155 29.32 128.019 28.776C128.883 28.232 130.158 27.9387 131.843 27.896C131.854 27.7787 131.859 27.6827 131.859 27.608C131.87 27.5227 131.875 27.4213 131.875 27.304C131.875 26.9627 131.811 26.6907 131.683 26.488C131.555 26.2853 131.288 26.184 130.883 26.184C130.659 26.184 130.478 26.216 130.339 26.28C130.2 26.344 130.088 26.4347 130.003 26.552C129.918 26.6587 129.848 26.792 129.795 26.952C129.742 27.112 129.694 27.288 129.651 27.48C129.63 27.576 129.582 27.64 129.507 27.672C129.432 27.6933 129.315 27.704 129.155 27.704C128.067 27.704 127.523 27.2933 127.523 26.472C127.523 26.1413 127.598 25.8267 127.747 25.528C127.907 25.2293 128.136 24.9733 128.435 24.76C128.744 24.536 129.128 24.36 129.587 24.232C130.046 24.104 130.579 24.04 131.187 24.04C132.371 24.04 133.23 24.2853 133.763 24.776C134.296 25.2667 134.563 25.96 134.563 26.856C134.563 26.9733 134.547 27.1867 134.515 27.496C134.494 27.7947 134.462 28.1147 134.419 28.456C134.387 28.7867 134.355 29.1013 134.323 29.4C134.302 29.6987 134.291 29.9067 134.291 30.024C134.291 30.2907 134.339 30.4827 134.435 30.6C134.531 30.7067 134.638 30.7813 134.755 30.824C134.883 30.8667 134.995 30.8987 135.091 30.92C135.187 30.9413 135.235 30.9947 135.235 31.08C135.235 31.3147 135.203 31.5547 135.139 31.8C135.075 32.0453 134.968 32.2693 134.819 32.472C134.68 32.6747 134.483 32.84 134.227 32.968C133.982 33.096 133.678 33.16 133.315 33.16C132.803 33.16 132.419 33.0373 132.163 32.792C131.907 32.5467 131.736 32.2053 131.651 31.768C131.395 32.1413 131.059 32.4667 130.643 32.744C130.238 33.0213 129.704 33.16 129.043 33.16C128.723 33.16 128.419 33.1227 128.131 33.048C127.854 32.9733 127.608 32.8507 127.395 32.68C127.192 32.5093 127.027 32.2907 126.899 32.024C126.782 31.7467 126.723 31.416 126.723 31.032ZM131.699 29.208C131.422 29.208 131.15 29.2293 130.883 29.272C130.616 29.3147 130.376 29.384 130.163 29.48C129.96 29.5653 129.795 29.6827 129.667 29.832C129.539 29.9813 129.475 30.1627 129.475 30.376C129.475 30.6213 129.55 30.792 129.699 30.888C129.859 30.984 130.03 31.032 130.211 31.032C130.382 31.032 130.552 30.9947 130.723 30.92C130.894 30.8453 131.043 30.7333 131.171 30.584C131.31 30.424 131.427 30.232 131.523 30.008C131.619 29.784 131.678 29.5173 131.699 29.208ZM139.947 24.04C140.853 24.04 141.52 24.2213 141.947 24.584C142.373 24.936 142.587 25.3893 142.587 25.944C142.587 26.4133 142.437 26.7707 142.139 27.016C141.851 27.2613 141.429 27.384 140.875 27.384C140.725 27.384 140.624 27.368 140.571 27.336C140.517 27.304 140.491 27.2453 140.491 27.16C140.491 27.064 140.48 26.9573 140.459 26.84C140.448 26.712 140.411 26.5947 140.347 26.488C140.293 26.3707 140.203 26.2747 140.075 26.2C139.957 26.1253 139.787 26.088 139.562 26.088C139.264 26.088 139.024 26.1627 138.843 26.312C138.661 26.4507 138.571 26.6267 138.571 26.84C138.571 27.064 138.661 27.2453 138.843 27.384C139.035 27.512 139.269 27.6347 139.547 27.752C139.835 27.8693 140.144 27.992 140.475 28.12C140.805 28.2373 141.109 28.3973 141.387 28.6C141.675 28.8027 141.909 29.0587 142.091 29.368C142.283 29.6667 142.379 30.056 142.379 30.536C142.379 31.304 142.107 31.9333 141.563 32.424C141.019 32.9147 140.203 33.16 139.115 33.16C138.816 33.16 138.469 33.1333 138.075 33.08C137.691 33.0373 137.323 32.968 136.971 32.872C136.619 32.7653 136.32 32.6267 136.075 32.456C135.84 32.2853 135.723 32.072 135.723 31.816C135.723 31.72 135.739 31.6027 135.771 31.464C135.813 31.3253 135.872 31.192 135.947 31.064C136.032 30.936 136.128 30.8293 136.235 30.744C136.352 30.648 136.491 30.6 136.651 30.6C136.779 30.6 136.896 30.632 137.003 30.696C137.109 30.76 137.232 30.8293 137.371 30.904C137.52 30.968 137.701 31.032 137.914 31.096C138.128 31.16 138.411 31.192 138.763 31.192C139.029 31.192 139.264 31.16 139.467 31.096C139.68 31.032 139.786 30.888 139.786 30.664C139.786 30.4613 139.701 30.3013 139.531 30.184C139.36 30.056 139.141 29.9387 138.875 29.832C138.619 29.7253 138.336 29.6133 138.027 29.496C137.728 29.368 137.445 29.2027 137.179 29C136.923 28.7973 136.709 28.5413 136.539 28.232C136.368 27.912 136.283 27.5013 136.283 27C136.283 26.456 136.389 25.9973 136.603 25.624C136.827 25.24 137.109 24.9307 137.451 24.696C137.803 24.4613 138.197 24.296 138.635 24.2C139.072 24.0933 139.509 24.04 139.947 24.04ZM147.43 33.16C146.961 33.16 146.491 33.1013 146.022 32.984C145.563 32.8667 145.147 32.664 144.774 32.376C144.411 32.088 144.113 31.704 143.878 31.224C143.643 30.744 143.526 30.1413 143.526 29.416C143.526 29.1493 143.547 28.8293 143.59 28.456C143.633 28.0827 143.713 27.6987 143.83 27.304C143.958 26.9093 144.129 26.52 144.342 26.136C144.566 25.7413 144.854 25.3893 145.206 25.08C145.558 24.7707 145.985 24.52 146.486 24.328C146.987 24.136 147.585 24.04 148.278 24.04C148.833 24.04 149.302 24.104 149.686 24.232C150.07 24.36 150.379 24.536 150.614 24.76C150.849 24.9733 151.019 25.224 151.126 25.512C151.233 25.8 151.286 26.1093 151.286 26.44C151.286 26.9307 151.185 27.3467 150.982 27.688C150.79 28.0293 150.534 28.3173 150.214 28.552C149.905 28.776 149.558 28.952 149.174 29.08C148.79 29.208 148.411 29.3093 148.038 29.384C147.665 29.448 147.318 29.4907 146.998 29.512C146.689 29.5227 146.449 29.528 146.278 29.528C146.278 29.7307 146.305 29.9333 146.358 30.136C146.422 30.328 146.513 30.4987 146.63 30.648C146.747 30.7973 146.902 30.92 147.094 31.016C147.286 31.112 147.521 31.16 147.798 31.16C148.075 31.16 148.289 31.1173 148.438 31.032C148.598 30.936 148.726 30.8347 148.822 30.728C148.918 30.6107 148.998 30.5093 149.062 30.424C149.137 30.328 149.233 30.28 149.35 30.28C149.403 30.28 149.494 30.296 149.622 30.328C149.761 30.3493 149.899 30.4027 150.038 30.488C150.177 30.5733 150.299 30.6907 150.406 30.84C150.513 30.9893 150.566 31.1813 150.566 31.416C150.566 31.7253 150.47 31.992 150.278 32.216C150.086 32.44 149.835 32.6213 149.526 32.76C149.227 32.8987 148.891 33 148.518 33.064C148.145 33.128 147.782 33.16 147.43 33.16ZM147.734 26.168C147.499 26.168 147.297 26.2373 147.126 26.376C146.966 26.504 146.827 26.6693 146.71 26.872C146.603 27.0747 146.518 27.2987 146.454 27.544C146.401 27.7893 146.358 28.024 146.326 28.248C146.987 28.2373 147.521 28.1253 147.926 27.912C148.342 27.6987 148.55 27.3947 148.55 27C148.55 26.7867 148.481 26.5947 148.342 26.424C148.214 26.2533 148.011 26.168 147.734 26.168Z" fill="black"/>
</g>
<defs>
<clipPath id="clip0_186_169">
<rect width="55" height="197" fill="white" transform="translate(197) rotate(90)"/>
</clipPath>
<clipPath id="clip1_186_169">
<rect width="30" height="29" fill="white" transform="translate(16 12)"/>
</clipPath>
</defs>
</svg>