<?xml version="1.0" encoding="UTF-8"?>
<svg id="Layer_1" data-name="Layer 1" xmlns="http://www.w3.org/2000/svg" version="1.1" viewBox="0 0 146 42">
  <defs>
    <style>
      .cls-1 {
        fill: #4d4136;
      }

      .cls-1, .cls-2, .cls-3, .cls-4, .cls-5, .cls-6, .cls-7, .cls-8, .cls-9, .cls-10, .cls-11, .cls-12, .cls-13, .cls-14, .cls-15, .cls-16, .cls-17, .cls-18, .cls-19, .cls-20, .cls-21, .cls-22, .cls-23, .cls-24, .cls-25, .cls-26, .cls-27, .cls-28, .cls-29, .cls-30, .cls-31 {
        stroke-width: 0px;
      }

      .cls-2 {
        fill: #bf844f;
      }

      .cls-3 {
        fill: #51463b;
      }

      .cls-4 {
        fill: #56514c;
      }

      .cls-5 {
        fill: #794c1e;
      }

      .cls-6 {
        fill: #000;
      }

      .cls-7 {
        fill: #f9dfc1;
      }

      .cls-8 {
        fill: #67615a;
      }

      .cls-9 {
        fill: #524438;
      }

      .cls-10 {
        fill: #eda15b;
      }

      .cls-11 {
        fill: #857f78;
      }

      .cls-12 {
        fill: #7a6552;
      }

      .cls-13 {
        fill: none;
      }

      .cls-14 {
        fill: #4a3f35;
      }

      .cls-15 {
        fill: #5a4b3e;
      }

      .cls-16 {
        fill: #543;
      }

      .cls-17 {
        fill: #302924;
      }

      .cls-18 {
        fill: #bf844e;
      }

      .cls-19 {
        fill: #514d48;
      }

      .cls-20 {
        fill: #463a30;
      }

      .cls-21 {
        fill: #fbe0c2;
      }

      .cls-22 {
        fill: #eea25b;
      }

      .cls-23 {
        fill: #44280f;
      }

      .cls-24 {
        fill: #442810;
      }

      .cls-25 {
        fill: #534231;
      }

      .cls-26 {
        fill: #794b1e;
      }

      .cls-27 {
        fill: #493d31;
      }

      .cls-28 {
        fill: #57483a;
      }

      .cls-29 {
        fill: #655343;
      }

      .cls-30 {
        fill: #4e4a45;
      }

      .cls-31 {
        fill: #312a23;
      }
    </style>
  </defs>
  <path class="cls-13" d="M21,0h1c11.6,0,21,9.4,21,21h0c0,11.6-9.4,21-21,21h-1C9.4,42,0,32.6,0,21h0C0,9.4,9.4,0,21,0Z"/>
  <path class="cls-6" d="M47.5,27.5c-.6,0-1-.1-1.3-.4-.3-.2-.4-.6-.4-1s0-.6,0-1.1c0-.5,0-1.1.1-1.8,0-.7.1-1.4.2-2.1s.1-1.4.2-2.1,0-1.2.1-1.7c0-.5,0-.8,0-1s0-.2.3-.2h.9c.7,0,1.1.1,1.3.4s.3.7.3,1.2,0,.2,0,.5c0,.3,0,.7,0,1.1,0,.4,0,.9-.1,1.5,0,.5,0,1.1-.1,1.6,0,.6,0,1.1-.1,1.7,0,.5,0,1,0,1.5,0,.4,0,.8,0,1.1,0,.3,0,.5,0,.5,0,0,0,.1,0,.2,0,0,0,0-.2,0h-.9ZM53.5,24.6c0,.5,0,1-.1,1.4,0,.4,0,.8,0,1.2,0,.1,0,.2,0,.3,0,0-.1,0-.3,0h-.6c-.3,0-.6,0-.8,0-.2,0-.4-.2-.5-.3-.1-.1-.2-.3-.3-.5,0-.2,0-.4,0-.7s0-.4,0-.7c0-.3,0-.7,0-1.2,0-.5,0-1.2.1-2,0-.8.1-1.8.2-3,0-.2,0-.4,0-.4,0,0,.1,0,.3,0h.6c.3,0,.6,0,.8.1.2,0,.4.2.5.3.1.1.2.3.3.4,0,.2,0,.3,0,.5.3-.6.7-1,1.1-1.2.4-.2.9-.3,1.4-.3s.6,0,.8,0c.3,0,.5.1.7.3.2.1.4.3.5.5.1.2.3.5.3.8.3-.6.7-1,1.1-1.3.4-.2.9-.4,1.5-.4s.6,0,.9.1c.3,0,.6.2.8.4.2.2.4.4.5.7.1.3.2.7.2,1.1s0,.7,0,1.2c0,.5,0,1-.1,1.6,0,.6,0,1.1-.1,1.7,0,.6,0,1.2-.1,1.7,0,.1,0,.2,0,.3,0,0,0,.1,0,.1,0,0,0,0-.1,0,0,0-.1,0-.2,0h-.5c-.3,0-.6,0-.8,0-.2,0-.4-.2-.5-.3-.1-.1-.2-.3-.3-.4,0-.2,0-.4,0-.6s0-.3,0-.6c0-.3,0-.5,0-.8,0-.3,0-.6,0-.9,0-.3,0-.6,0-.9,0-.3,0-.5,0-.7,0-.2,0-.3,0-.4,0-.3,0-.5-.2-.7-.1-.2-.3-.3-.6-.3s-.5,0-.7.3c-.2.2-.4.4-.5.8-.1.3-.3.7-.3,1.1,0,.4-.1.9-.2,1.4,0,.3,0,.7,0,1.1,0,.4,0,1-.1,1.6,0,.1,0,.2,0,.3,0,0,0,.1,0,.1,0,0,0,0-.1,0,0,0-.1,0-.2,0h-.5c-.3,0-.6,0-.8,0-.2,0-.4-.2-.5-.3-.1-.1-.2-.3-.3-.4,0-.2,0-.4,0-.6s0-.5,0-.9c0-.4,0-.8.1-1.3,0-.4,0-.9.1-1.3,0-.4,0-.7,0-.9,0-.3,0-.5-.2-.7-.1-.2-.3-.3-.6-.3s-.5.1-.7.3c-.2.2-.4.5-.5.9-.1.4-.2.8-.3,1.2,0,.5-.1,1-.2,1.5ZM70.7,18.5c1,0,1.8.3,2.3.9.5.6.8,1.6.8,2.9s0,1.6-.3,2.2c-.2.7-.5,1.2-.8,1.7-.3.4-.7.8-1.2,1-.5.2-1,.4-1.5.4s-1-.1-1.3-.4c-.3-.2-.6-.6-.8-1,0,.4,0,.7,0,.9,0,.2,0,.4,0,.5,0,.1,0,.2,0,.3,0,0,0,.2,0,.4,0,.2,0,.4,0,.7,0,.3,0,.7,0,1.2,0,.1,0,.2,0,.3,0,0-.1,0-.3,0h-.6c-.3,0-.6,0-.8-.1-.2,0-.4-.2-.5-.3-.1-.1-.2-.3-.3-.5,0-.2,0-.4,0-.6s0-.4,0-.9c0-.5,0-1,.1-1.7,0-.7.1-1.4.2-2.1,0-.8.1-1.5.2-2.2,0-.7,0-1.3.1-1.8,0-.5,0-.9,0-1.1,0-.2,0-.4,0-.4,0,0,.1,0,.3,0h.6c.6,0,1,.1,1.2.4.3.2.4.5.4.8.2-.5.6-.8.9-1.1.4-.2.9-.3,1.5-.3ZM69.5,20.7c-.5,0-.9.2-1.2.7-.3.5-.4,1.1-.4,1.9s0,.5,0,.8c0,.3.1.5.2.7,0,.2.2.4.4.5.2.1.4.2.6.2.5,0,.8-.2,1.2-.7.3-.4.5-1.2.5-2.1s0-.5,0-.8c0-.3,0-.5-.2-.7,0-.2-.2-.3-.4-.5-.2-.1-.4-.2-.7-.2ZM74.4,25.5c0-1,.4-1.7,1.3-2.3.9-.5,2.1-.8,3.8-.9,0-.1,0-.2,0-.3,0,0,0-.2,0-.3,0-.3,0-.6-.2-.8-.1-.2-.4-.3-.8-.3s-.4,0-.5,0c-.1,0-.3.2-.3.3,0,.1-.2.2-.2.4,0,.2-.1.3-.1.5,0,0,0,.2-.1.2,0,0-.2,0-.4,0-1.1,0-1.6-.4-1.6-1.2s0-.6.2-.9c.2-.3.4-.6.7-.8.3-.2.7-.4,1.2-.5.5-.1,1-.2,1.6-.2,1.2,0,2,.2,2.6.7.5.5.8,1.2.8,2.1s0,.3,0,.6c0,.3,0,.6,0,1,0,.3,0,.6,0,.9,0,.3,0,.5,0,.6,0,.3,0,.5.1.6,0,.1.2.2.3.2.1,0,.2,0,.3,0s.1,0,.1.2c0,.2,0,.5,0,.7,0,.2-.2.5-.3.7-.1.2-.3.4-.6.5-.2.1-.5.2-.9.2s-.9-.1-1.2-.4c-.3-.2-.4-.6-.5-1-.3.4-.6.7-1,1-.4.3-.9.4-1.6.4s-.6,0-.9-.1c-.3,0-.5-.2-.7-.4-.2-.2-.4-.4-.5-.7-.1-.3-.2-.6-.2-1ZM79.4,23.7c-.3,0-.5,0-.8,0-.3,0-.5.1-.7.2-.2,0-.4.2-.5.4-.1.1-.2.3-.2.5s0,.4.2.5c.2,0,.3.1.5.1s.3,0,.5-.1c.2,0,.3-.2.4-.3.1-.2.3-.4.4-.6,0-.2.2-.5.2-.8ZM88,25.5c.3,0,.6,0,.8-.1.2,0,.4-.2.6-.3.2-.1.3-.2.4-.3.1,0,.2-.1.3-.1.2,0,.4.2.4.5s0,.2,0,.3c0,.1,0,.3-.1.4,0,.1-.1.3-.2.4,0,.1-.1.2-.2.3,0,0-.1.1-.3.3-.1.1-.3.2-.5.4-.2.1-.5.2-.8.3-.3,0-.6.1-1,.1s-.8,0-1.3-.2c-.4-.1-.8-.3-1.2-.6-.4-.3-.6-.7-.9-1.2-.2-.5-.3-1.2-.3-2s0-.6,0-.9c0-.4.1-.7.2-1.1.1-.4.3-.8.5-1.1.2-.4.5-.7.8-1,.3-.3.7-.5,1.2-.7.5-.2,1-.3,1.7-.3s1,0,1.3.2c.4.1.7.3.9.5.2.2.4.4.5.7.1.3.2.6.2.9,0,.6-.2,1-.5,1.3-.4.3-.9.4-1.5.4s-.3,0-.3,0c0,0,0,0,0-.2,0-.3,0-.5,0-.7,0-.2,0-.4,0-.5,0-.1-.1-.2-.2-.3,0,0-.2-.1-.4-.1-.3,0-.6.1-.8.3-.2.2-.3.5-.4.8,0,.3-.2.6-.2.9,0,.3,0,.6,0,.8,0,.8.1,1.3.4,1.6.2.3.6.4,1.2.4ZM95.5,20.9c0,.4,0,.8-.1,1.2,0,.4,0,.8,0,1.1,0,.4,0,.7,0,.9,0,.3,0,.5,0,.6,0,.3,0,.5,0,.6,0,0,.2.1.3.1s.2,0,.3,0c0,0,.2,0,.2-.1,0,0,.1-.1.2-.1,0,0,.1,0,.2,0s.1,0,.2.1c0,0,0,.3,0,.6,0,.6-.2,1.1-.5,1.4-.3.3-.9.5-1.6.5s-1.3-.2-1.7-.5c-.4-.4-.5-.9-.5-1.6s0-.3,0-.6c0-.2,0-.5,0-.9,0-.4,0-.8.1-1.3,0-.5.1-1.1.2-1.9h-.8c0,0-.1,0-.2,0,0,0,0-.1,0-.2v-.8c0-.1,0-.3,0-.4,0-.1,0-.3.2-.4,0-.1.2-.2.4-.3.1,0,.3,0,.6,0,0-.2.2-.4.3-.7,0-.3.2-.5.3-.8,0-.3.2-.5.3-.6,0-.2.2-.3.3-.3h.5c.4,0,.8.1.9.4.2.3.3.6.3,1s0,.5,0,.9h1.7c.2,0,.3,0,.3.2v.9c0,.3-.2.6-.3.8-.1.2-.5.3-.9.3h-.8ZM100.3,27.5c-.6,0-1-.1-1.3-.4-.2-.2-.4-.6-.4-1.1s0-.4,0-.7c0-.3,0-.7,0-1.1,0-.4,0-.9,0-1.4,0-.5,0-1,.1-1.5,0-.6,0-1.2.1-1.6,0-.5,0-.8,0-1.2,0-.3,0-.6,0-.8,0-.2,0-.4,0-.6,0-.2,0-.3,0-.5,0-.1,0-.3,0-.4s0-.1,0-.2c0,0,.1,0,.2,0,.3,0,.6,0,.9,0,.3,0,.7,0,1,0,.3,0,.7,0,1,0,.3,0,.6,0,.8,0,.7,0,1.3,0,1.8.3.5.2.9.4,1.2.7.3.3.5.7.7,1.1.1.4.2,1,.2,1.5s0,1.2-.3,1.8c-.2.6-.4,1.1-.8,1.5-.4.4-.8.8-1.4,1.1-.6.3-1.2.4-2,.4s-.8,0-1.2-.1l-.2,2.9c0,0,0,.1,0,.2,0,0,0,0-.2,0h-.7ZM102.9,18.4c-.1,0-.3,0-.5,0-.2,0-.4,0-.5,0,0,.4,0,1,0,1.6,0,.6,0,1.3-.1,2,.2,0,.3,0,.5,0,.2,0,.3,0,.4,0,.4,0,.7,0,.9-.3.2-.2.4-.4.5-.7.1-.3.2-.5.3-.8s0-.5,0-.7c0-.5-.1-.8-.3-1-.2-.2-.6-.4-1.1-.4ZM109.7,27.6c-.7,0-1.1-.2-1.4-.5-.3-.4-.4-.9-.4-1.7s0-.3,0-.5c0-.2,0-.4,0-.7,0-.3,0-.7.1-1.1s0-1,.1-1.6c0-.6.1-1.4.2-2.3,0-.9.1-1.9.2-3,0-.2,0-.4,0-.4,0,0,.1,0,.3,0h.6c.3,0,.6,0,.8.1.2,0,.4.2.5.3s.2.3.3.4c0,.2,0,.3,0,.5s0,.5,0,.9c0,.4,0,.8,0,1.3,0,.5,0,1-.1,1.6,0,.5,0,1.1-.1,1.6,0,.5,0,.9-.1,1.3,0,.4,0,.7,0,.9s0,.5.1.6c.1.1.2.2.3.3.1,0,.2,0,.3,0,.1,0,.2,0,.2,0,0,.2,0,.5,0,.7,0,.2-.1.4-.3.6-.1.2-.3.3-.6.4-.2.1-.5.2-.9.2ZM116.4,27.7c-.5,0-.9,0-1.4-.2-.5-.1-.9-.3-1.2-.6-.4-.3-.7-.7-.9-1.2-.2-.5-.4-1.1-.4-1.8s0-.6,0-1c0-.4.1-.8.2-1.2.1-.4.3-.8.5-1.2.2-.4.5-.7.9-1.1.4-.3.8-.6,1.3-.8.5-.2,1.1-.3,1.8-.3s1,0,1.4.2.7.3.9.5c.2.2.4.5.5.8.1.3.2.6.2.9,0,.5-.1.9-.3,1.2-.2.3-.4.6-.8.9-.3.2-.7.4-1,.5s-.8.2-1.1.3c-.4,0-.7.1-1,.1-.3,0-.5,0-.7,0,0,.2,0,.4,0,.6,0,.2.2.4.3.5.1.1.3.3.5.4.2,0,.4.1.7.1s.5,0,.6-.1c.2,0,.3-.2.4-.3,0-.1.2-.2.2-.3,0,0,.2-.1.3-.1s.1,0,.3,0c.1,0,.3,0,.4.2.1,0,.3.2.4.4.1.1.2.3.2.6s0,.6-.3.8c-.2.2-.4.4-.8.5-.3.1-.6.2-1,.3-.4,0-.7,0-1.1,0ZM116.7,20.7c-.2,0-.4,0-.6.2-.2.1-.3.3-.4.5-.1.2-.2.4-.3.7,0,.2,0,.5-.1.7.7,0,1.2-.1,1.6-.3.4-.2.6-.5.6-.9s0-.4-.2-.6c-.1-.2-.3-.3-.6-.3ZM120.7,25.5c0-1,.4-1.7,1.3-2.3.9-.5,2.1-.8,3.8-.9,0-.1,0-.2,0-.3,0,0,0-.2,0-.3,0-.3,0-.6-.2-.8-.1-.2-.4-.3-.8-.3s-.4,0-.5,0c-.1,0-.3.2-.3.3,0,.1-.2.2-.2.4s-.1.3-.1.5c0,0,0,.2-.1.2,0,0-.2,0-.4,0-1.1,0-1.6-.4-1.6-1.2s0-.6.2-.9c.2-.3.4-.6.7-.8.3-.2.7-.4,1.2-.5s1-.2,1.6-.2c1.2,0,2,.2,2.6.7.5.5.8,1.2.8,2.1s0,.3,0,.6c0,.3,0,.6,0,1,0,.3,0,.6,0,.9,0,.3,0,.5,0,.6,0,.3,0,.5.1.6,0,.1.2.2.3.2.1,0,.2,0,.3,0,0,0,.1,0,.1.2,0,.2,0,.5,0,.7,0,.2-.2.5-.3.7-.1.2-.3.4-.6.5-.2.1-.5.2-.9.2s-.9-.1-1.2-.4c-.3-.2-.4-.6-.5-1-.3.4-.6.7-1,1-.4.3-.9.4-1.6.4s-.6,0-.9-.1c-.3,0-.5-.2-.7-.4-.2-.2-.4-.4-.5-.7-.1-.3-.2-.6-.2-1ZM125.7,23.7c-.3,0-.5,0-.8,0-.3,0-.5.1-.7.2-.2,0-.4.2-.5.4-.1.1-.2.3-.2.5s0,.4.2.5c.2,0,.3.1.5.1s.3,0,.5-.1.3-.2.4-.3c.1-.2.3-.4.4-.6,0-.2.2-.5.2-.8ZM133.9,18.5c.9,0,1.6.2,2,.5.4.4.6.8.6,1.4s-.2.8-.4,1.1c-.3.2-.7.4-1.3.4s-.3,0-.3,0c0,0,0,0,0-.2s0-.2,0-.3c0-.1,0-.2-.1-.4,0-.1-.1-.2-.3-.3-.1,0-.3-.1-.5-.1s-.5,0-.7.2c-.2.1-.3.3-.3.5s0,.4.3.5c.2.1.4.3.7.4.3.1.6.2.9.4.3.1.6.3.9.5.3.2.5.5.7.8.2.3.3.7.3,1.2,0,.8-.3,1.4-.8,1.9-.5.5-1.4.7-2.4.7s-.6,0-1,0c-.4,0-.8-.1-1.1-.2-.4-.1-.7-.2-.9-.4-.2-.2-.4-.4-.4-.6s0-.2,0-.4c0-.1.1-.3.2-.4,0-.1.2-.2.3-.3.1,0,.3-.1.4-.1s.2,0,.4,0c.1,0,.2.1.4.2.1,0,.3.1.5.2.2,0,.5,0,.8,0s.5,0,.7,0c.2,0,.3-.2.3-.4s0-.4-.3-.5c-.2-.1-.4-.2-.7-.4-.3-.1-.5-.2-.8-.3-.3-.1-.6-.3-.8-.5-.3-.2-.5-.5-.6-.8-.2-.3-.3-.7-.3-1.2s.1-1,.3-1.4c.2-.4.5-.7.8-.9.4-.2.7-.4,1.2-.5.4-.1.9-.2,1.3-.2ZM141.4,27.7c-.5,0-.9,0-1.4-.2-.5-.1-.9-.3-1.2-.6-.4-.3-.7-.7-.9-1.2-.2-.5-.4-1.1-.4-1.8s0-.6,0-1c0-.4.1-.8.2-1.2.1-.4.3-.8.5-1.2.2-.4.5-.7.9-1.1.4-.3.8-.6,1.3-.8.5-.2,1.1-.3,1.8-.3s1,0,1.4.2.7.3.9.5c.2.2.4.5.5.8.1.3.2.6.2.9,0,.5-.1.9-.3,1.2-.2.3-.4.6-.8.9-.3.2-.7.4-1,.5s-.8.2-1.1.3c-.4,0-.7.1-1,.1-.3,0-.5,0-.7,0,0,.2,0,.4,0,.6,0,.2.2.4.3.5.1.1.3.3.5.4.2,0,.4.1.7.1s.5,0,.6-.1c.2,0,.3-.2.4-.3,0-.1.2-.2.2-.3,0,0,.2-.1.3-.1s.1,0,.3,0c.1,0,.3,0,.4.2.1,0,.3.2.4.4.1.1.2.3.2.6s0,.6-.3.8c-.2.2-.4.4-.8.5-.3.1-.6.2-1,.3-.4,0-.7,0-1.1,0ZM141.7,20.7c-.2,0-.4,0-.6.2-.2.1-.3.3-.4.5-.1.2-.2.4-.3.7,0,.2,0,.5-.1.7.7,0,1.2-.1,1.6-.3.4-.2.6-.5.6-.9s0-.4-.2-.6c-.1-.2-.3-.3-.6-.3Z"/>
  <g>
    <path class="cls-22" d="M9.6,11.4h0s0,0,0,0c0,0,.2,0,.2-.1,0,0,0,0,0,0,0,0,0,0,0,0,0,0,0,0,0,0,0,0,0,0,0,0l.5-.3c0,0,.2,0,.3,0,.6.2,1.2.4,1.7.6.4.2.8.3,1.3.5.6.3,1.2.5,1.7.8.2,0,.2.2,0,.3-.8.9-1.5,1.9-2.1,2.9-.4.7-.7,1.4-.8,2.2,0,.4,0,.8,0,1.3,0,.8,0,1.6,0,2.4,0,.9-.3,1.7-.6,2.5,0,0,0,0,0,.1-.1-.2-.2-.3-.3-.5-.2-.4-.5-.7-.4-1.1,0,0,0,0,0,0,0,0,0,0,0,0,0,0,0,0,0,0,0-.2-.4-.4-.6-.3-.5.1-.9.4-1.3.7-.7.6-1.3,1.3-1.8,2-.6.7-1.1,1.4-1.7,2.1-.2.2-.4.5-.7.6-.2,0-.5.1-.7,0-.2-.2-.3-.4-.2-.6,0,0,0,0,0,0,.1-.6.5-1,.8-1.5.3-.4.6-.8.9-1.2,0-.1.2-.3.2-.4,0-.2,0-.3-.3-.2-.1,0-.2,0-.3.2-.4.4-.8.8-1.1,1.2-.3.3-.4.7-.6,1.1,0,0-.1.2-.2.2-.2,0-.4,0-.5-.1-.1-.1-.2-.3-.3-.4,0-.2,0-.4,0-.7.1-.5.4-.9.6-1.4.2-.4.4-.7.6-1.1,0-.2.1-.3.1-.5,0,0,0-.2-.1-.2,0,0-.2,0-.2,0-.1,0-.2.2-.3.3-.3.4-.5.8-.7,1.2-.1.2-.2.4-.4.7,0,0-.1.1-.2,0-.3-.2-.5-.5-.5-.9,0-.3.1-.5.2-.8.2-.4.5-.7.7-1.1.2-.3.3-.6.5-.9,0-.1.1-.3,0-.5,0,0-.1-.2-.2-.2,0,0-.2,0-.2.1,0,0-.1.2-.2.3-.4.6-.8,1.3-1.2,1.9,0,0,0,0-.1.1,0,0,0,0,0,0,0-.3-.2-.6-.3-.8-.1-.6.1-1.1.4-1.6.5-.7,1-1.3,1.6-2,.4-.5.9-.9,1.3-1.4,0,0,0-.1,0-.2,0,0,0,0,0,0,.1,0,.2,0,.2-.2,0,0,0,0,0,0,0,0,0,0,0,0,0,0,0,0,0,0h0s0,0,0,0c.1,0,.2,0,.1-.1,0,0,0,0,0,0,0,0,0,0,0,0,0,0,0,0,0,0,0,0,0,0,0,0,0,0,0,0,.1,0,.1,0,.2-.2.3-.3,0,0,0,0,0,0,0,0,0,0,0,0,0,0,0,0,0,0,0,0,0,0,0,0,0,0,0,0,0,0,0,0,0,0,0,0,.1,0,.1,0,.1-.1,0,0,0,0,0,0,0,0,0,0,0,0,0,0,0,0,.1,0,0,0,0,0,0-.1,0,0,0,0,0,0,0,0,0,0,0,0,0,0,0,0,0,0,0,0,0,0,0,0,0,0,0,0,0,0,0,0,0,0,.1,0,0,0,0,0,0,0,0,0,0,0,0,0,0,0,0,0,0,0,.6-.6,1.2-1.2,1.8-1.8,0,0,0,0,0,0,0,0,0,0,0,0,0,0,.1,0,.1,0,0,0,0,0,0,0,0,0,0,0,.1-.1,0,0,0,0,0,0,0,0,0,0,.1-.1,0,0,0,0,0,0,0,0,0,0,.1-.1,0,0,0,0,0,0,0,0,0,0,0,0,0,0,0,0,0,0,0,0,0,0,.1-.1,0,0,0,0,0,0,0,0,0,0,0,0,0,0,0,0,0,0,0,0,0,0,0,0,0,0,0,0,0,0,0,0,0,0,0,0,.3-.2.6-.5.9-.7,0,0,.2-.2.3-.3,0,0,0,0,0,0,0,0,0,0,0,0Z"/>
    <path class="cls-26" d="M37.2,19.5s0,0,0,0c0-.1-.1-.1-.2-.2,0,0,0,0,0-.1,0,0,0,0,0,0,0,0,0,0,0,0,0,0,0-.1,0-.2,0-.3,0-.6.1-.8,0,0,0,0,0,0,0-.1,0-.3,0-.4,0-.2,0-.4,0-.6,0,0,0,0,0,0,0,0,0-.2,0-.3,0-.2,0-.5,0-.7,0-.5,0-1.1,0-1.6,0,0,0,0,0-.2.3.1.5.2.8.3.3.1.6.2.8.3,0,0,0,0,0,.1,0,0,0,.1,0,.2,0,0,0,.2,0,.2h0c0,.1,0,.1,0,.1,0,0,0,.1,0,.2.1.4.2.7.3,1.1.2.8.4,1.6.5,2.4,0,.6.2,1.2.2,1.8,0,.1,0,.2,0,.4,0,0-.1,0-.2-.1-.1-.1-.3-.2-.4-.3-.8-.5-1.6-.9-2.3-1.3,0,0-.1,0-.2,0Z"/>
    <path class="cls-2" d="M29.4,36.6c0,0,.1,0,.2,0,.1,0,.3,0,.4,0,.4,0,.8-.1,1.2-.2.6-.2,1.3-.4,1.9-.6,0,0,0,0,0,0,0,.5,0,1-.1,1.5,0,0,0,.2-.1.2-.3.3-.7.5-1.1.8-1,.6-2,1.2-3,1.7,0,0-.2.1-.3.2-.1,0-.3,0-.3.2,0,0,0,0,0,0,0,0,0,0-.1,0-.2,0-.4.2-.6.3,0,0-.1,0-.2,0,0-.4.2-.7.3-1.1.1-.6.2-1.2.3-1.8,0,0,0,0,0,0,0-.2,0-.4.1-.7,0-.1,0-.2.2-.2.2,0,.4,0,.6,0,.2,0,.3,0,.5-.1Z"/>
    <path class="cls-17" d="M10.4,23.7c.2.3.5.6.7.9.6.8,1.2,1.6,1.8,2.4.8,1,1.8,1.7,3.1,2,.9.2,1.8.4,2.6.8.6.3,1.1.6,1.5,1.1.1.2.1.2,0,.3-.4.1-.8.3-1.3.4,0,0-.2,0-.3,0-.1,0-.3-.2-.4,0,0,0-.1.3-.1.4,0,.6.3,1.1.5,1.6.5,1,1.1,1.9,1.8,2.8.3.3.6.7.9,1,.3.3.5.7.7,1.1.1.3,0,.8-.4.9-.4.2-.8,0-1.2,0-.5-.3-.9-.7-1.2-1.2-.2-.3-.4-.7-.6-1.1,0-.1-.2-.3-.3-.4-.1-.1-.3,0-.3,0,0,.2,0,.5.1.6.2.5.6,1,1,1.4.3.3.5.6.8.9.2.2.2.5,0,.7-.2.3-.4.3-.7.3-.4,0-.7-.3-.9-.5-.5-.4-.9-.8-1.3-1.3-.2-.2-.4-.4-.6-.6,0,0,0,0,0,0,0,0-.2,0-.3,0,0,0,0,.2,0,.3.3.4.7.8,1,1.2.1.2.3.3.4.5.2.3.2.5,0,.7-.3.2-.6.3-.9,0-.4-.2-.7-.6-1-.9-.3-.4-.7-.8-1-1.2-.2-.2-.4-.3-.6-.4-.1,0-.2,0-.2.1,0,.1,0,.2.1.3.3.4.7.8,1,1.2,0,.1.2.2.3.4.1.2,0,.3-.1.4-.7.3-1.3.2-1.9-.4-.6-.6-1.2-1.3-1.6-2.1-.8-1.2-1.4-2.5-2-3.8-.6-1.2-1.1-2.4-1.6-3.6-.4-.8-.6-1.7-1-2.5,0,0,0-.1,0-.2,0,0,0,0,.1.1,0,.1,0,.3.1.4.2.5.4,1,.6,1.5.2.4.3.8.5,1.2.3.7.6,1.3.9,2,.4.8.8,1.6,1.1,2.4.3.6.6,1.2,1,1.9.2.3.4.7.6,1,.4.5.7,1,1.1,1.4.4.4.8.8,1.5.7.2,0,.3,0,.5-.1.2,0,.3-.2.1-.3-.3-.3-.5-.6-.8-1-.2-.2-.4-.5-.5-.8,0-.1,0-.3,0-.3.1,0,.3,0,.4,0,.2.1.4.2.5.4.4.4.7.9,1.1,1.4.2.3.5.5.8.8.3.2.5.2.8,0,.1,0,.2-.2.2-.3,0-.1-.1-.2-.2-.4-.2-.2-.5-.5-.7-.7-.2-.2-.3-.4-.5-.5-.1-.1-.2-.3-.2-.5,0-.1,0-.2.2-.2.2,0,.4.2.6.3.4.4.8.8,1.2,1.2.4.3.7.6,1.2.8.4.2.7.1.9-.3,0,0,0-.1,0-.1,0-.1-.1-.3-.2-.4-.2-.3-.5-.5-.7-.7-.5-.6-1-1.1-1.2-1.9,0-.2,0-.3.1-.4,0-.1.2,0,.4,0,0,0,.2.1.2.2.1.2.2.4.4.6.3.6.6,1.1,1.1,1.5.3.3.7.5,1.2.5.4,0,.8-.4.7-.9,0-.2-.2-.5-.4-.7-.2-.3-.5-.6-.8-.9-.6-.7-1.1-1.4-1.6-2.2-.5-.8-.9-1.7-1.1-2.6,0-.2,0-.4,0-.5.1-.2.4-.2.6,0,0,0,.1,0,.2,0,.4-.1.8-.3,1.2-.4.1,0,.2,0,0-.2-.4-.4-.9-.7-1.4-1-.7-.3-1.4-.5-2.1-.7-.4-.1-.9-.2-1.3-.4-.6-.2-1.1-.5-1.6-1-.7-.7-1.3-1.5-1.9-2.2-.4-.5-.8-1.1-1.2-1.6,0,0-.1-.2-.2-.3,0,0,0,0,0,0Z"/>
    <path class="cls-16" d="M15.6,14c0-.1.1-.3.2-.4,0,0,.1,0,.2,0,.3,0,.5-.1.4-.4,0-.2-.1-.3-.2-.4-.2-.2-.4-.4-.6-.5-.7-.4-1.4-.7-2.1-1.1-.7-.4-1.5-.5-2.3-.8-.4-.1-.8-.3-1.2-.5-.2-.1-.4-.3-.6-.6-.3-.5,0-1.1.7-1.2.5,0,1,.1,1.5.3.6.2,1.1.4,1.7.6,0,0,.2,0,.3,0,0,0,.2,0,.2,0,0,0,0-.2-.1-.2-.2-.1-.4-.3-.6-.4-.6-.2-1.1-.4-1.7-.6-.2,0-.4,0-.6,0-.2,0-.4-.1-.4-.4,0,0,0-.2,0-.3,0-.6.5-.9,1-.9.6,0,1.1,0,1.7.3.4.1.8.2,1.2.3,0,0,.1,0,.2,0,0,0,.1,0,.1-.1,0,0,0-.2,0-.2-.2-.1-.3-.2-.5-.3-.6-.1-1.1-.2-1.7-.3-.3,0-.4-.2-.3-.4.1-.6.5-1,1.3-.9.7,0,1.3.4,2,.5.2,0,.4,0,.6.1.1,0,.3,0,.4,0,0,0,0,0,.1-.1,0,0,0-.1-.1-.1-.3,0-.6-.1-.8-.2-.5-.1-.9-.3-1.4-.4-.4-.1-.4-.2-.2-.5.4-.6,1-.7,1.7-.7,1.1.1,2.1.5,3,.9,1,.5,2.1,1,3.1,1.5,1.1.6,2.1,1.3,3.2,1.9.8.5,1.6,1,2.4,1.5.2.1.4.3.6.4,0,0,.1,0,.2.1.1,0,0,.2,0,.3,0,.3,0,.5,0,.8,0,.8,0,1.5-.1,2.3,0,.7-.2,1.3-.3,2-.1,0-.2,0-.2,0,0,0,.1,0,.2,0,0-.2,0-.4,0-.5,0-.4.1-.8.2-1.2,0-.4,0-.8,0-1.2,0-.6,0-1.2,0-1.8,0-.2,0-.4-.2-.5-.2-.1-.3-.3-.5-.4-.9-.5-1.7-1.1-2.6-1.6-.6-.4-1.3-.8-1.9-1.2-.7-.4-1.4-.8-2.1-1.2-.5-.2-.9-.5-1.4-.7-.6-.3-1.1-.5-1.7-.7-.6-.2-1.1-.3-1.7-.5-.3,0-.6,0-.9,0-.6,0-.9.4-1.2.9.2,0,.4.2.6.2.5.1,1.1.3,1.6.4.1,0,.3,0,.4.1.1,0,.1.2,0,.3-.1.2-.3.2-.5.2-.4,0-.8,0-1.2-.2-.5-.2-1.1-.3-1.6-.4-.3,0-.7,0-.9.3,0,.1-.2.3-.2.5,0,.2,0,.3.2.3.4,0,.8.1,1.2.2.4,0,.7.1,1,.3.1,0,.2.2.2.4,0,.1-.1.2-.3.2-.2,0-.3,0-.5,0-.6-.2-1.2-.3-1.9-.5-.4,0-.7,0-1.1,0-.3,0-.5.3-.5.6,0,.1,0,.3,0,.4,0,.2,0,.2.3.3.3,0,.6,0,.9.1.3,0,.6.2.9.3.4.2.9.3,1.2.6,0,0,.2.2.1.4,0,.1-.2.2-.3.2-.2,0-.3,0-.5,0-.6-.2-1.3-.5-1.9-.7-.4-.1-.8-.2-1.2-.2-.2,0-.4.1-.6.4-.2.3,0,.6.2.8.3.3.6.5,1,.6.5.2.9.3,1.4.5.5.2,1,.4,1.5.6.8.3,1.5.7,2.2,1.2.3.2.5.4.6.7,0,.3,0,.6-.3.6-.2,0-.3,0-.4.3,0,0,0,0-.1.1,0,0,0,0,0,0Z"/>
    <path class="cls-30" d="M36.8,31.3c0,.1,0,.2,0,.3,0,0,0,0,0,0,0,0,0,0,0,0,.1,0,0-.2,0-.3,0,0,0,0,0-.1,0,0,0-.1,0-.2h0c0-.1,0-.2,0-.2,0,0,0,0-.1-.1,0,0,0,0,0,0,0,0,0,0,0,0,0,0,0,0,0,0,0,0,0,0,0,0,0,0,0,0,0,0,0,0-.1,0-.2,0-.1,0-.2,0-.3.1,0,0,0,0,0,0,0,0,0,0,0,0,0,0-.1,0-.2,0,0,0,0,0,0,0h0c0,0,0,0,0,0,0,0-.1,0-.2,0-.2.2-.5.2-.8.2-.2,0-.3-.1-.1-.3,0,0,.2-.2.2-.2.4-.2.8-.4,1.2-.6.5-.2,1-.4,1.4-.8.4-.3.4-.5.2-1-.1-.3-.3-.4-.7-.3-.6.2-1.1.5-1.7.7-.3.1-.7.2-1,.3-.1,0-.3,0-.4-.1,0-.2,0-.3.2-.3.2-.1.5-.2.7-.3.5-.2,1.1-.3,1.6-.6.4-.1.7-.4,1-.7.3-.4.2-.8-.1-1-.3-.2-.6-.2-.9-.2-.7,0-1.3.3-2,.5-.5.1-1,.3-1.6.4,0,0,0,0,0,0,0,0,0,0,0,0,0,0,0,0,0,0,0,0-.1,0-.2,0,0,0,0,0,0,0-.1,0-.2,0-.4,0,0,0,0,0,0,0,0,0-.1,0-.2,0,0,0-.1,0-.2,0,0,0,0,0-.1,0,0,0,0,0,0,0,0,0-.1,0-.2,0,0,0,0,0,0,0,0,0-.2,0-.3,0h-.3s0,0-.1,0c0,0,0,0,0-.1.1,0,.2,0,.3,0,0,0,0,0,0,0,0,0,.1,0,.2,0,0,0,.1,0,.2,0,0,0,0,0,0,0,0,0,.1,0,.2,0,.3,0,.7-.1,1-.2.9-.3,1.8-.5,2.8-.8.4-.1.9-.2,1.3-.3.5,0,1,0,1.2.6.1.3,0,.6-.2.9-.3.4-.7.6-1.2.8-.5.2-1.1.3-1.6.5-.2,0-.5.2-.7.4.2.1.4,0,.6,0,.5-.2,1-.4,1.5-.6.3-.1.7-.2,1-.3.3,0,.5,0,.6.3,0,.2.1.3.2.5,0,.3,0,.5-.3.7-.3.2-.6.4-1,.6-.4.2-.9.4-1.3.6-.2,0-.3.2-.5.3,0,0,0,0-.1.2.2,0,.4,0,.5,0,.6-.2,1.1-.5,1.7-.7.3-.1.4,0,.5.2,0,.1,0,.3,0,.4,0,0,0,0,0,0Z"/>
    <path class="cls-15" d="M4.1,16.5c0,0,0,.1,0,.2-.4.5-.9.9-1.3,1.4-.6.6-1.2,1.2-1.6,2-.3.5-.5,1-.4,1.6,0,.3.2.6.3.8,0,0,0,0,0,0,0,0,0,0,.1-.1.4-.6.8-1.3,1.2-1.9,0,0,0-.2.2-.3,0,0,.2-.1.2-.1,0,0,.2,0,.2.2,0,.2,0,.3,0,.5-.2.3-.3.6-.5.9-.2.4-.5.7-.7,1.1-.1.2-.2.5-.2.8,0,.4.2.7.5.9.1,0,.2,0,.2,0,.1-.2.2-.5.4-.7.2-.4.5-.8.7-1.2,0-.1.2-.2.3-.3,0,0,.2,0,.2,0,0,0,.1.2.1.2,0,.2,0,.4-.1.5-.2.4-.4.7-.6,1.1-.3.4-.5.9-.6,1.4,0,.2,0,.4,0,.7,0,0,0,.1,0,.2-.2-.4-.1-.7,0-1.1.2-.5.5-1.1.8-1.6.2-.3.3-.6.5-.9,0,0,0-.2,0-.3,0,0-.2,0-.3.2-.4.5-.7,1.1-1,1.7-.3.6-.3.5-.8.1-.4-.3-.5-.9-.2-1.4.3-.6.7-1.1,1-1.7.1-.2.2-.5.4-.7,0,0,0,0,0-.1,0,0,0-.2,0-.3,0,0-.1.1-.2.2-.4.6-.8,1.3-1.2,1.9,0,0-.1.2-.2.2-.1.2-.2.2-.3,0-.5-.9-.4-1.7.2-2.5.6-.9,1.3-1.6,2.1-2.4.3-.3.6-.6.9-.9,0,0,0,0,.1,0Z"/>
    <path class="cls-28" d="M11,22.9s0,0,0,0c0,.5.2.8.4,1.1,0,.2.2.3.3.5,0,0,0-.1,0-.1.3-.8.5-1.6.6-2.5,0-.8,0-1.6,0-2.4,0-.4,0-.9,0-1.3.1-.8.4-1.5.8-2.2.6-1,1.4-2,2.1-2.9.1-.1.1-.2,0-.3-.6-.3-1.2-.6-1.7-.8-.4-.2-.8-.4-1.3-.5-.6-.2-1.2-.4-1.7-.6,0,0-.2,0-.3,0,0,0,0,0,0,0,.9.2,1.9.5,2.7.9.5.2,1,.4,1.6.7.4.2.7.4,1.1.6-.2.3-.4.5-.5.7-.6.9-1.3,1.7-1.9,2.6-.4.7-.7,1.4-.8,2.2,0,.6,0,1.2,0,1.7,0,.7,0,1.4,0,2.1,0,.7-.2,1.3-.5,1.9,0,.1-.1.3-.2.4,0,.2-.2.2-.3,0-.2-.4-.5-.8-.7-1.2,0-.2,0-.4,0-.6,0,0,0,0,.1.1Z"/>
    <path class="cls-31" d="M5.3,14.4c0,0-.2,0-.2.1-.9.9-1.8,1.8-2.7,2.8,0,0-.2.2-.2.2-.1,0-.2,0-.3,0-.3-.4-.5-.9-.9-1.3-.2-.3-.1-.4,0-.7.3-.7.6-1.5.9-2.2.4-1,.9-2,1.5-2.9,0-.1.2-.2.3-.3,0,.1.1.2.2.3.5,1.2,1,2.5,1.5,3.7,0,0,0,0,0,.1ZM3.7,10.4s0,0,0,0c-.1.2-.3.3-.4.5-.3.6-.6,1.1-.9,1.7-.4.8-.7,1.5-1,2.3-.1.3-.3.5-.4.8,0,0,0,.2,0,.3.3.5.6.9.9,1.3.1.2.1.2.3,0,.1-.2.3-.3.4-.5.4-.5.9-.9,1.3-1.4.3-.3.7-.7,1-1,.1-.1.1-.2,0-.4,0,0,0-.2-.1-.3-.2-.4-.3-.8-.5-1.2-.2-.5-.3-.9-.5-1.4,0-.3-.2-.5-.3-.8Z"/>
    <path class="cls-9" d="M11,22.9s0,0-.1-.1c0,0-.1-.1-.2-.2-.1,0-.2,0-.3,0,0,0,0,0,0,0,0,0,0,0,0,0-.1,0-.2,0-.3.1,0,0,0,0,0,0-.9.6-1.6,1.3-2.2,2.1-.2.3-.4.5-.6.7,0,0,0,0,0,0,0,0,0,0-.1.1,0,0,0,0,0,0,0,0,0,0,0,0,0,0,0,0,0,.1,0,0,0,0,0,0,0,0,0,0,0,0,0,0,0,0,0,.1,0,0,0,0,0,0,0,0-.1.1-.2.2,0,0,0,0,0,.1,0,0,0,0,0,0,0,0,0,0,0,0,0,0-.1.2-.2.3,0,0,0,0,0,0,0,0-.1.1-.2.2,0,0-.1.1-.2.2,0,0,0,0,0,0,0,0,0,0,0,0-.1,0-.2.2-.4.2,0,0,0,0,0,0,0,0-.1,0-.2,0-.1,0-.2,0-.3,0,0,0-.1,0-.2,0,0,0,0,0,0,0,0,0,0-.1-.1-.2,0,0,0,0,0,0,0,0,0,0,0,0,0,0,0,0,0,0,0,0,0,0,0,0,0,0,0-.2,0-.3,0,0,0,0,0-.1,0-.1.1-.3.2-.4,0,0,0,0,0,0,0,0,0,0,0-.1,0-.1.2-.3.3-.4,0,0,0,0,0,0,0,0,0,0,0-.1,0,0,0,0,0,0,0,0,.1-.2.2-.2,0,0,0,0,0,0,0,0,0,0,0,0,0,0,0,0,0,0,0,0,0,0,0-.1,0,0,0,0,0,0,0,0,.1-.2.2-.3,0,0,0,0,0,0,0,0,0,0,0,0,0,0,0,0,0,0,0,0,.1-.2.2-.2,0,0,0-.2.1-.2,0,0,0,0,0,0,0,0,0,0,0-.1,0,0,0,0,0,0,0,0,0,0,0,0,0,0,0,0,0,0,0,0,0,0,0,0-.2.2-.5.5-.7.7,0,0,0,0,0,.1,0,0,0,0-.1.1,0,0,0,0,0,0,0,0-.1.1-.2.2,0,0,0,0,0,0,0,0,0,0,0,0,0,0,0,0,0,0,0,0,0,0,0,0,0,0,0,0,0,0,0,0,0,0,0,0,0,0,0,0,0,.1,0,0,0,.2-.1.2,0,0,0,0,0,.1,0,0,0,0,0,0,0,0,0,0,0,0,0,0,0,0,0,0,0,.1,0,.2-.1.3,0,0,0,0,0,0,0,0,0,0,0,0,0,0-.2,0-.3,0,0,0,0,0,0,0,0,0,0,0,0,0,0,0,0,0-.1,0,0,0,0,0-.1,0,0,0,0,0,0,0,0,0,0,0-.1-.1,0,0,0,0,0,0,0,0,0-.1,0-.2,0,0,0-.1,0-.2.1.1.2.3.3.4.1.1.3.2.5.1,0,0,.2-.1.2-.2.2-.4.4-.8.6-1.1.3-.4.7-.8,1.1-1.2,0,0,.2-.1.3-.2.2,0,.3,0,.3.2,0,.2-.1.3-.2.4-.3.4-.6.8-.9,1.2-.3.5-.7.9-.8,1.5,0,0,0,0,0,0,0,.2,0,.5.2.6.2.2.4.1.7,0,.3-.1.5-.3.7-.6.6-.7,1.1-1.4,1.7-2.1.6-.7,1.1-1.4,1.8-2,.4-.3.8-.6,1.3-.7.3,0,.5,0,.6.3,0,0,0,0,0,0,0,0,0,0,0,0Z"/>
    <path class="cls-14" d="M29.4,26.9c-.2,0-.4,0-.5.1,0-.2,0-.3,0-.5.1-1.4.2-2.8,0-4.2,0-1.1-.4-2.1-1.1-3-.5-.8-1.1-1.5-1.6-2.3-.2-.4-.4-.8-.5-1.2,0,0,0-.2,0-.3,0,0,0,0,0,0,0,0,0,0,0,0,0,0,0,0,0,0,.1.2.2.5.3.7.4.6.7,1.2,1.1,1.7.5.7,1,1.3,1.3,2,.2.4.3.8.4,1.2,0,0,0,0,0,0,0,0,0,0,0,.1,0,.1,0,.2,0,.3h0c0,.2,0,.4,0,.5,0,.1,0,.2,0,.3,0,0,0,0,0,.1,0,.4,0,.7,0,1.1,0,0,0,.1,0,.2,0,.2,0,.4,0,.6,0,0,0,0,0,.1,0,.3,0,.6,0,.8,0,0,0,.1,0,.2,0,.1,0,.2,0,.4,0,0,0,0,0,0,0,0,0,0,0,0,0,.1,0,.2,0,.3h.2s0,0,.1,0c0,0,0,0,0,0Z"/>
    <path class="cls-3" d="M37.1,13.5c0,.3,0,.6,0,.9,0,.4,0,.9-.1,1.3,0,.7-.2,1.4-.3,2.1-.1.8-.3,1.6-.5,2.3-.3,1.2-.6,2.4-.9,3.5,0,.3-.1.5-.2.8,0,0,0,0,0,.1,0,0,0,0,0,0,0,0,0,0,0-.1,0,0,0,0,0,0,0,0,0,0,0-.1.1-.2.1-.3.1-.5,0,0,0,0,0-.1,0,0,0,0,0,0,0,0,0,0,0,0,0,0,0,0,0-.1,0,0,0,0,0-.1,0,0,0,0,0,0,0,0,0,0,0-.1,0,0,0,0,0,0h0c0-.1,0-.1,0-.2,0,0,0,0,0,0,0,0,0,0,0,0,.1-.5.2-1,.3-1.5,0-.4.2-.8.3-1.2.1-.4.2-.8.3-1.2.1-.5.2-1.1.3-1.6,0-.7.2-1.4.2-2.1,0-.2,0-.5,0-.7,0,0,0-.2,0-.2,0-.2,0-.4,0-.6Z"/>
    <path class="cls-4" d="M28.5,25.1s0,0,0,0c0,0,0,0,0,0,0,0,0,0,0,0,0,0,0,0,0,0-.4.1-.7.4-1,.7-.5.6-.9,1.2-1.4,1.8-1,1.4-2.2,2.5-3.7,3.2-.4.2-.8.3-1.2.5,0,0,0,0-.1,0,0,0,0,0,0,0,.4-.2.8-.3,1.2-.5,1.1-.5,2.1-1.2,2.9-2.2.6-.7,1.1-1.4,1.6-2.2.3-.4.6-.8,1.1-1,.2-.1.4-.1.6-.2,0,0,0,0,.1.1Z"/>
    <path class="cls-4" d="M9.2,35.2s0,0,0,0c0,0,0,.2.1.3,0,.1.1.2.2.4,0,0,0,.1,0,.2,0,0,0,0,0,.1,0,0,0,.2.1.2.3.6.7,1.2,1,1.7.2.4.5.7.8,1.1.2.3.2.3,0,.5-.4.3-.7.3-1.2,0-1-.6-1.9-1.3-2.8-2.1,0,0,0,0,0,0-.1-.1-.2-.2-.3-.3,0,0,0,0,0,0,.6.5,1.1,1,1.7,1.4.5.4,1.1.8,1.8,1.1,0,0,.2,0,.3,0,.2,0,.3-.2.4-.3,0,0,0-.1,0-.2,0,0,0-.1-.1-.2-.7-.9-1.4-1.9-1.9-2.9-.2-.3-.3-.7-.4-1.1,0,0,0,0,0,0Z"/>
    <path class="cls-15" d="M28.7,40.1c0,0,.2-.1.3-.2,1-.5,2-1,3-1.7.4-.2.7-.5,1.1-.8,0,0,.1-.1.1-.2,0-.5.1-1,.1-1.5,0,0,0,0,0,0-.6.2-1.2.4-1.9.6-.4.1-.8.2-1.2.2,0,0,0,0,0,0,.4,0,.8-.2,1.2-.3.5-.1,1.1-.3,1.6-.4.1,0,.3,0,.4-.1.1,0,.2,0,.2.1,0,.4,0,.8,0,1.2,0,0,0,.2,0,.3,0,.4-.3.5-.6.7-1,.8-2.1,1.4-3.2,1.9-.2.1-.5.2-.7.3,0,0,0,0,0,0,0,0,0,0,0,0Z"/>
    <path class="cls-27" d="M37.2,19.5c0,0,.1,0,.2,0,.8.4,1.6.9,2.3,1.3.2,0,.3.2.4.3,0,0,0,0,.2.1,0-.2,0-.3,0-.4,0-.6-.1-1.2-.2-1.8,0-.8-.3-1.6-.5-2.4,0-.4-.2-.7-.3-1.1,0,0,0-.1,0-.2,0,0,0,0,0,0,0,0,0,0,0,0,0,0,0,0,0-.1,0,0,0,0,0,0,.2.5.3,1.1.4,1.6.2.8.3,1.5.4,2.3,0,.7.1,1.4.1,2.1,0,0,0,.1,0,.1-.3-.2-.5-.4-.8-.6-.7-.4-1.5-.9-2.3-1.3,0,0-.1,0-.2-.1Z"/>
    <path class="cls-20" d="M33.1,10.7c0,0,0,.1,0,.2,0,.1,0,.3,0,.4,0,0,0,0,0,0,0,0,0,0,0,0,0,0,0,.1,0,.2,0,0,0,.1,0,.2,0,0,0,0,0,0,0,0,0,0,0,.1.1.1.2,0,.3,0,0,0,0-.2,0-.2,0,0,0-.1,0-.2,0-.3,0-.7,0-1,0,0,0,0,0,0,0,.1,0,.3,0,.4,0,0,0,.2,0,.2,0,.1,0,.2,0,.3,0,0,0,0,0,0,0,0,0,0,0,.1,0,0,0,0,0,0,0,0,0,0,0,0,0,0,0,0,0,.1,0,.2-.1.3-.3.3-.2,0-.3-.2-.3-.3,0-.5-.2-1-.2-1.4,0-.5,0-1,0-1.6,0-.3-.1-.5-.4-.7-.3-.1-.6,0-.9,0,0,0-.1.1-.1.2,0,.2,0,.4,0,.6,0,.6,0,1.3,0,1.9,0,.3-.2.6-.3.8,0,0-.1,0-.2,0,0,0-.1,0-.1-.1-.1-.4-.1-.7,0-1.1,0,0,0,0,0,0,0,.3,0,.6,0,.9,0,0,0,0,0,0,0,0,0,0,0,.1,0,0,0,0,0,0,0,0,0-.2.1-.2,0,0,0,0,0-.1,0,0,0,0,0,0,0,0,0,0,0,0,0,0,0,0,0-.1,0,0,0-.1,0-.2,0-.2,0-.4,0-.5,0,0,0-.2,0-.3,0-.3,0-.5,0-.8,0,0,0,0,0-.1,0,0,0,0,0,0,0,0,0,0,0,0,0,0,0-.2,0-.3,0,0,0-.2,0-.3,0,0,0-.1,0-.2,0,0,0,0,0,0,0,0,0,0,0,0,0,0,0,0,.1,0,0,0,.1,0,.2,0,.2,0,.4,0,.6,0,.2,0,.4.1.5.3,0,.1,0,.3.1.4,0,0,0,0,0,.1,0,0,0,0,0,0,0,.3,0,.7,0,1,0,0,0,.1,0,.2,0,.2,0,.4,0,.5,0,0,0,0,0,.1Z"/>
    <path class="cls-25" d="M15.6,14s0,0,0,0c-.2.3-.3.5-.5.8,0,0,0,0,.1,0,.8,0,1.5,0,2.3-.2.5-.1,1-.3,1.5-.4.4,0,.8-.2,1.2-.3.4,0,.9-.2,1.3-.3.5,0,1,0,1.5,0,.7,0,1.4.2,2,.3.4,0,.7.2,1.1.3.3,0,.6.2,1,.3.2,0,.4,0,.6.1,0,0-.1,0-.2,0,0,0,0,0,0,0-.2,0-.4-.1-.6-.2,0,0,0,0,0,0,0,0,0,0,0,0,0,0,0,0-.1,0,0,0,0,0-.1,0h0c0,0-.1,0-.2,0,0,0,0,0,0,0,0,0,0,0,0,0,0,0-.1,0-.2,0,0,0,0,0,0,0,0,0,0,0-.1,0,0,0,0,0,0,0-.2,0-.4,0-.6-.1,0,0,0,0-.1,0,0,0-.1,0-.2,0,0,0,0,0,0,0-.2,0-.3,0-.5-.1,0,0,0,0-.1,0,0,0-.1,0-.2,0,0,0,0,0-.1,0,0,0-.2,0-.3,0,0,0,0,0,0,0,0,0,0,0-.1,0,0,0,0,0-.1,0,0,0-.2,0-.2,0-.1,0-.3,0-.4,0-.2,0-.5,0-.7,0-.1,0-.2,0-.3,0,0,0-.1,0-.2,0,0,0,0,0,0,0-.1,0-.3,0-.4,0,0,0,0,0-.1,0,0,0,0,0-.1,0,0,0,0,0-.1,0-.2,0-.4,0-.5.1,0,0,0,0-.1,0-.1,0-.3,0-.4,0,0,0-.1,0-.2,0,0,0,0,0,0,0,0,0,0,0,0,0,0,0,0,0-.1,0,0,0,0,0,0,0,0,0,0,0-.1,0-.1,0-.3,0-.4,0,0,0,0,0,0,0,0,0,0,0,0,0,0,0-.1,0-.2,0-.1,0-.3,0-.4,0-.1,0-.2,0-.3.1,0,0,0,0-.1,0-.1,0-.2,0-.3,0,0,0,0,0,0,0,0,0-.1,0-.2,0-.2,0-.3,0-.5.1,0,0-.2,0-.3,0,0,0-.1,0-.2,0,0,0,0,0,0,0-.1,0-.2,0-.3,0-.1,0-.3,0-.4,0-.1,0-.2,0-.1-.2.2-.3.4-.5.6-.8Z"/>
    <path class="cls-19" d="M30.5,35.9c0,0-.1,0-.2,0,0,0,0,0,0,0,0,0,0,0-.1,0,0,0,0,0-.1,0,0,0,0,0-.1,0,0,0,0,0,0,0,0,0,0,0,0,0,0,0-.2,0-.2,0,0,0-.1,0-.2,0h0c-.1,0-.2,0-.3,0,0,0,0,0,0,0,0,0,0,0,.1,0,0,0,0,0,.1,0,0,0,0,0,0,0,0,0,.2,0,.3,0,.3,0,.5,0,.8-.1.5,0,1-.2,1.5-.3.6-.1,1.3-.3,1.9-.4.6-.1,1.1-.3,1.6-.6.6-.4.9-.8.8-1.5,0,0,0,0,0,0,.2.5,0,1-.5,1.4-.4.4-.9.6-1.4.7-.8.2-1.6.4-2.4.6-.1,0-.2,0-.4,0,0,0,0,0-.1,0,0,0,0,0-.1,0,0,0-.1,0-.2,0,0,0,0,0-.1,0,0,0,0,0,0,0,0,0,0,0-.1,0,0,0,0,0-.1,0Z"/>
    <path class="cls-1" d="M28.4,14.2c0,0,0-.1,0-.2,0,0,0,0,0,0,0,0,0-.2,0-.3,0,0,0,0,0,0,0,0,0-.2,0-.3,0,0,0-.1,0-.2,0,0,0-.2,0-.3,0,0,0,0,0,0,0,0,0-.2,0-.3,0,0,0-.2,0-.2,0-.1,0-.2,0-.4,0,0,0-.1,0-.2,0-.2,0-.4,0-.5,0,0,0,0,0-.1,0-.1,0-.3,0-.4,0,0,0,0,0,0,0,0,0,0,0-.1,0,0,0,0,0,0,0-.2,0-.5,0-.7,0,0,0-.1,0-.2,0-.2,0-.3,0-.5,0,0,0,0,0,0,0,0,0,0,0,0,0,0,0-.2,0-.2,0,0,0,0,0,0,0,0,0-.1,0-.2,0,0,0,0,0-.1,0,0,0,0,0,0,0,0,0,0,0,0,0,0,0,0,0-.1,0,0,0,0,0,0,.2-.4.6-.6,1-.5.4,0,.7.5.7.8,0,0,0,.2,0,.2,0,0,0,0,0,0,0,.1,0,.3,0,.4,0,0,0-.2,0-.2,0-.3,0-.6-.2-.9-.1-.3-.4-.4-.7-.4-.3,0-.5,0-.7.4-.2.4-.2.9-.3,1.3,0,.6,0,1.1,0,1.7,0,.3,0,.7,0,1,0,.3,0,.6,0,1,0,0,0,0,0,.1,0,0,0,.2,0,.3,0,0,0,0,0,.1,0,0,0,0,0,.1,0,0,0,.2,0,.3,0,0,0,.1,0,.2,0,0,0,0,0,0,0,0,0,0,0,0,0,0,0,0,0,0,0,.1,0,.2,0,.3,0,.2,0,.3-.1.5,0,.2-.2.4-.3.6,0,0,0,0,0,0,0,0,0,0,0-.1,0,0,0,0,0-.1,0-.1,0-.2.1-.3,0,0,0,0,0,0,0,0,0,0,0-.1,0,0,0,0,0,0,0,0,0,0,0,0,0,0,0-.2,0-.2Z"/>
    <path class="cls-15" d="M24.1,5.2c-.2.2-.4.4-.5.5,0,0-.1,0-.2,0-.5-.3-1-.6-1.6-.9-.6-.3-1.1-.5-1.7-.8-.5-.2-1.1-.4-1.6-.6,0,0-.1,0-.2-.1,0,0,.1,0,.2,0,.2,0,.3.1.5.2.6.2,1.1.4,1.7.6.9.4,1.8.8,2.6,1.4.1,0,.2,0,.3,0,.1-.1.3-.3.4-.4,0,0,0,0,0,0Z"/>
    <path class="cls-30" d="M36,33.1s0,0,0,0c0-.2-.1-.3-.3-.2-.2,0-.4.2-.6.2-.5.2-.9.6-1.4.7,0,0-.2,0-.3,0,0,0,0-.2,0-.3,0,0,.1-.2.2-.2.2-.1.3-.2.5-.3,0,0,0,0,0,0,0,0,0,0,0,0,0,0,.1,0,.2,0,0,0,0,0,0,0,0,0,0,0,0,0,0,0,.1,0,.2,0,0,0,.2,0,.3-.1,0,0,.1,0,.2,0,0,0,.2,0,.3-.1,0,0,.2,0,.3-.1h.1c0,0,.2-.1.2-.2h0c0,0,0,0,.1-.1,0,0,0,0,0,0,0,0,0,0,0,0h0c-.1.1-.2.2-.3.2,0,0,0,0,0,0,0,0-.1,0-.2,0,0,0,0,0-.1,0,0,0,0,0,0,0,0,0-.2,0-.2.1-.1,0-.2,0-.3.1,0,0,0,0,0,0,0,0,0,0,0,0,0,0-.2,0-.2,0-.1,0-.2,0-.3.1,0,0,0,0-.1,0-.2.1-.4.2-.6.3-.1,0-.2.2-.3.3,0,0,0,0,0,.1,0,0,.1,0,.1,0,.3,0,.5-.2.7-.3.3-.2.6-.4,1-.5,0,0,0,0,0,0,0,0,0,0,.1,0,0,0,0,0,0,0,0,0,.1,0,.2,0,0,0,0,0,0,0,.1,0,.2.2.1.3Z"/>
    <path class="cls-31" d="M6.7,28.1s0,0-.1-.1c0,0,0-.2-.1-.3,0-.2,0-.3,0-.4.9-1.1,1.8-2.2,2.8-3.2.2-.2.4-.4.6-.6.2-.1.3-.1.4,0,0,0,0,0,0,0,0,0,0,0,0,0,0,0,0,0,0,0,0-.1-.2-.1-.3,0-.3.3-.5.5-.8.8-.4.5-.8,1-1.2,1.4-.4.5-.9,1-1.3,1.5,0,0-.1.2,0,.3,0,.2.1.3.2.5Z"/>
    <path class="cls-4" d="M21.5,36.9c-.4-.5-.8-1-1.2-1.5-.3-.4-.5-.8-.8-1.2,0,0,0,0,0-.1,0,0,0,0,0-.1,0,0,0-.1-.1-.2,0,0,0-.2-.1-.2,0,0,0,0,0,0,0-.1-.1-.2-.2-.4,0,0,0,0,0,0,0,0,0,0,0,0,0,0,0,0,0,.1,0,.1.2.3.2.4h0c0,.1,0,.2.1.3.2.4.5.8.7,1.1.5.6.9,1.2,1.4,1.8,0,0,0,0,0,0Z"/>
    <path class="cls-1" d="M39.3,15.1c0,0,0-.1,0-.2,0,0,0,0,0-.1-.3-.1-.6-.2-.8-.3-.3,0-.5-.2-.8-.3,0,0,0,.1,0,.2,0,.5,0,1.1,0,1.6,0,.2,0,.5,0,.7,0,0,0,0-.1.1,0-.3,0-.7,0-1,0-.1,0-.2,0-.3,0-.5,0-.9,0-1.4.6.2,1.2.5,1.7.7,0,0,0,.2,0,.3,0,0,0,0,0,0Z"/>
    <path class="cls-20" d="M34.9,25.3c0,0-.1.2-.2.2-.2.1-.4.2-.6.2-.8.3-1.7.5-2.5.7,0,0-.1,0-.2,0,0,0,0,0,0,0,0,0-.1,0-.2,0,0,0-.1,0-.2,0,0,0,0,0,0,0,0,0-.2,0-.2,0,0,0,.1,0,.2,0,0,0,0,0,.1,0,.4-.1.8-.2,1.2-.3.7-.2,1.5-.5,2.2-.7.2,0,.3-.2.4-.3h0Z"/>
    <path class="cls-9" d="M35.2,12.8s0,0,0,.1c0,0,0,0,0,0,0,0,0,.2,0,.2,0,0,0,0,0,0,0,0,0,0,0,0,0-.1,0-.2,0-.3,0-.6,0-1.3,0-1.9,0-.2,0-.3,0-.5,0,0,0,.2,0,.2,0,0,0-.2,0-.3,0,0,0,0,0-.1,0,0,0,.1,0,.2,0,.5,0,1,0,1.5,0,.2,0,.4,0,.6,0,.2,0,.4,0,.6,0,0-.1.1-.2.1,0,0-.1,0-.2-.1,0,0,0-.2-.1-.3,0,0,0,0,0,0,0,0,0,0,0,0,0-.1,0-.2,0-.3,0,0,0,0,0,0,0,0,0,0,0,.1,0,0,0,0,0,0Z"/>
    <path class="cls-8" d="M18.9,33s0,0,0,0c0,0,0,0,0,0,0,0,0,0,0,0h0s0,0,0,0c0-.2-.2-.4-.3-.5,0-.1,0-.2,0-.3.4-.2.9-.4,1.3-.6.4-.2.8-.3,1.2-.5,0,0,0,0,0,0,0,0,.1,0,.1,0,0,0,0,0,0,0-.7.3-1.5.6-2.2.9-.2,0-.2.1-.2.3,0,.2.2.4.3.6Z"/>
    <path class="cls-29" d="M18.5,3.3c0,0-.1,0-.2,0,.3-.4.6-.8,1-1.1.2-.2.3-.4.5-.6,0,0,0,0,.1,0,.3,0,.6,0,.9.1-.1,0-.2,0-.3,0,0,0,.1,0,.2,0-.2,0-.4,0-.6,0,0,0-.1,0-.2,0-.3.3-.6.7-.9,1-.2.2-.3.4-.5.6Z"/>
    <path class="cls-14" d="M26.5,3.2c0,0-.1.1-.2.2,0,0,0,0,0,0,.2-.1.3-.3.5-.4,0,0,0,0,0,0-.6-.3-1.3-.5-2-.6-.3,0-.6-.1-.9-.2,0,0,0,0,0,0,0,0,.2,0,.3,0,0,0,0,0,0,0,0,0,.1,0,.2,0,0,0,.1,0,.2,0,0,0,0,0,0,0,0,0,0,0,0,0,0,0,.2,0,.2,0,0,0,0,0,0,0,0,0,0,0,.1,0,0,0,.1,0,.2,0,0,0,0,0,0,0,0,0,0,0,0,0,0,0,0,0,0,0,0,0,0,0,0,0,0,0,0,0,.1,0,0,0,0,0,.1,0,0,0,0,0,0,0,0,0,.1,0,.2,0,0,0,0,0,0,0,0,0,0,0,0,0,0,0,0,0,0,0,0,0,.1,0,.2.1,0,0,0,0,0,0,0,0,0,0,.1,0,0,0,0,0,0,.1,0,0,0,0,0,0,0,0,0,0,0,0,0,0,0,0-.1.1,0,0,0,0-.1,0Z"/>
    <path class="cls-29" d="M28.1,37.7c-.1.6-.2,1.2-.3,1.8,0,.4-.2.7-.3,1.1,0,0,0,0,0,0,0,0,0,0,0-.1,0,0,0,0,0,0,0,0,0-.1,0-.2,0,0,0,0,0,0,0-.4.2-.7.2-1.1,0-.3.1-.5.2-.8,0-.1,0-.2,0-.4,0,0,0,0,0,0,0,0,0,0,0-.1,0,0,0,0,0,0Z"/>
    <path class="cls-16" d="M33.8,10.4s0,0,0,0c0,0,0,0,0,0,0,0,0-.1,0-.2,0-.1,0-.2,0-.3,0,0,0,0,0-.1,0,0,0-.1,0-.2,0,0,0-.2,0-.2,0,0,0,0,.1-.1,0,0,0,0,0,0,0,0,0,0,0,0,0,0,.1,0,.2,0,0,0,0,0,0,0,.1,0,.2,0,.3,0,0,0,0,0,0,0,0,0,0,0,0,0,.2,0,.3.2.4.4,0,0,0,0,0,.1,0,0,0,0,0,.1,0,0,0,0,0,.1,0,0,0,0,0,0,0,0,0,.1,0,.2,0,.3,0,.6,0,.9,0,0,0-.1,0-.2,0-.3,0-.7,0-1,0-.5-.5-.8-1-.6-.2,0-.2,0-.2.3,0,.3,0,.6,0,.9Z"/>
    <path class="cls-29" d="M5.7,15.1s0,0,0,0c0,0,0,0,0,0,.5-.5,1-.9,1.5-1.4.1-.1.3-.3.4-.4,0,0,.1,0,.2-.1,0,0,0,0,0,0-.6.6-1.2,1.2-1.8,1.8,0,0,0,0,0,0,0,0,0,0,0,0Z"/>
    <path class="cls-8" d="M21.5,36.9s0,0,0,0c0,0,.1,0,.2,0,.2,0,.4,0,.6,0,.5,0,1.1,0,1.6-.1,0,0,0,0,0,.1-.2,0-.4,0-.6,0-.6,0-1.1,0-1.7,0,0,0-.2,0-.1-.1Z"/>
    <path class="cls-8" d="M29.6,27.2s0,0,0,.1c-.3,0-.7,0-1,0-.2,0-.4-.2-.3-.4,0-.2.1-.4.3-.4,0,0,0,0,0,0,0,0,0,0,0,0-.1,0-.3.2-.2.4,0,.2.2.2.4.3.3,0,.6,0,.9,0Z"/>
    <path class="cls-31" d="M37.1,13.5c0,.2,0,.4,0,.6,0,0,0,.2,0,.2,0,0,0-.1,0-.2,0-.1,0-.2,0-.4,0-.7,0-1.3,0-2,0,0,0-.1,0-.2,0,0,0-.2,0-.3,0,0,0,0,0,0,0,.2,0,.4.1.6,0,.2,0,.4,0,.6,0,0,0,.2,0,.2,0,.2,0,.5,0,.7Z"/>
    <path class="cls-12" d="M28.1,37.7s0,0,0,0c0-.2,0-.4.1-.7,0,0,0,0,0,0,0-.2.1-.2.3-.3.2,0,.5,0,.7-.1,0,0,.2,0,.3,0-.2,0-.3.1-.5.1-.2,0-.4,0-.6,0-.1,0-.1,0-.2.2,0,.2,0,.4-.1.7,0,0,0,0,0,0Z"/>
    <path class="cls-30" d="M24,36.8s0,0,0-.1c.2,0,.3,0,.5,0,0,0,.2,0,.3,0,.2,0,.5,0,.7,0,0,0,0,0,0,0,.1,0,.2,0,.3,0,0,0,.1,0,.2,0,0,0,.1,0,.2,0,0,0,0,0,0,.1,0,0,0,0-.1,0,0,0,0,0-.1,0-.3,0-.6,0-.9.1-.4,0-.8,0-1.2,0Z"/>
    <path class="cls-20" d="M37,11.5s0,0,0,0c-.2-.5-.4-.9-1-1h0c0,0-.1,0-.2,0,0,0,0,0,0,.1,0,0,0,.2,0,.3,0,0,0-.2,0-.2,0,0,0-.1,0-.2.2,0,.4,0,.6,0,0,0,0,0,0,0,0,0,.1,0,.2,0,0,0,0,0,0,0,0,0,0,0,0,0,0,0,0,0,0,0,0,0,0,0,.1.1,0,0,0,0,0,0,0,0,0,0,0,0,0,0,0,0,0,0,0,0,0,0,0,.1,0,0,0,0,0,0,0,0,0,0,0,0,0,0,0,.2,0,.2Z"/>
    <path class="cls-9" d="M30.8,26.6c0,0,.2,0,.2,0-.4,0-.7.1-1.1.2-.2,0-.3,0-.5,0,0,0,0,0,0,0,0,0,0,0,.1,0,.3,0,.6,0,.9-.1.1,0,.3,0,.4,0Z"/>
    <path class="cls-4" d="M7.5,35.2c0,0,.1,0,.2,0,0,0,0,0,.1,0,0,0,.2,0,.3,0,.1,0,.2,0,.3,0,0,0,.1,0,.2,0,.2,0,.3,0,.5,0,0,0,0,0,0,0-.6,0-1.2.1-1.9.2h0s0,0,0,0c0,0,0,0,0-.1,0,0,0,0,0,0,.1,0,.3,0,.4,0Z"/>
    <path class="cls-12" d="M9.6,11.4c0,0-.2.2-.3.3-.3.2-.6.5-.9.7,0,0,0,0,0,0,.4-.3.7-.6,1.1-1,0,0,0,0,.1,0Z"/>
    <path class="cls-19" d="M28.8,36.2c0,0-.1,0-.2,0-.1,0-.2,0-.3,0,0,0,0,0,0,0,0,0-.2,0-.3,0,0,0-.1,0-.2,0,0,0,0,0,0,0h-.2s0,0,0,0c0,0,0,0,0,0,0,0-.1,0-.2,0,0,0,0,0-.1,0,0,0-.1,0-.2,0,0,0,0,0,0,0,0,0,0,0,0,0,0,0-.2,0-.2,0,0,0,0,0,0,0,0,0,.1,0,.2,0h0c0,0,.2,0,.3,0,0,0,0,0,0,0,0,0,.2,0,.3,0,0,0,0,0,0,0,0,0,.1,0,.2,0h0s0,0,.1,0c0,0,0,0,.1,0,0,0,0,0,0,0,0,0,.2,0,.2,0,.1,0,.3,0,.4,0,0,0,.1,0,.2,0Z"/>
    <path class="cls-20" d="M20.7,1.6c0,0-.1,0-.2,0,.1,0,.2,0,.3,0,0,0,0,0,0,0,0,0,0,0,.1,0,.1,0,.2,0,.3,0,0,0,.1,0,.2,0,.1,0,.2,0,.3,0,0,0,.1,0,.2,0,.2,0,.4,0,.6,0,0,0,0,0,0,0h0c0,0-.1,0-.2,0,0,0,0,0-.1,0-.1,0-.2,0-.3,0,0,0,0,0,0,0,0,0,0,0-.1,0,0,0-.2,0-.3,0,0,0,0,0-.1,0-.2,0-.4,0-.7,0Z"/>
    <path class="cls-20" d="M37.4,17c0,.2,0,.4,0,.6,0,.1,0,.3,0,.4,0,0,0,0,0,0,0,.3,0,.6-.1.8,0,0,0-.1,0-.2,0,0,0,0,0-.1,0,0,0,0,0-.1,0,0,0-.1,0-.2,0,0,0,0,0,0h0c0-.2,0-.2,0-.3,0,0,0,0,0,0,0,0,0,0,0,0,0,0,0,0,0,0,0,0,0-.1,0-.2,0,0,0-.1,0-.2,0,0,0,0,0,0,0,0,0-.2,0-.3,0,0,0,0,.1,0Z"/>
    <path class="cls-12" d="M27.4,40.6s0,0,0,0c0,0,.1,0,.2,0,.2,0,.4-.2.6-.3,0,0,0,0,.1,0-.3.1-.6.3-.9.4,0,0,0,0-.1,0,0,0,0,0,0,0,0,0,0,0,0,0,0,0,0,0,0,0Z"/>
    <path class="cls-1" d="M27.5,15.6c0,0,.1,0,.2,0,0,0,0,0,.1,0,0,0,.1,0,.2-.1,0,0,0,0,0,0,0,0-.2.1-.3.2-.2,0-.3,0-.5,0,0,0,0,0,0,0,0,0,0,0,0-.1h0s0,0,0,0c0-.1,0-.2-.2-.3h0c0,0,0,0,0,0,0,0,0,0,0,0,0,0,.1.2.2.2,0,0,0,0,0,.1,0,0,0,.1.1.2,0,0,0,0,.1,0Z"/>
    <path class="cls-9" d="M25.9,14.9c.3,0,.6,0,.9.1,0,0-.2,0-.2,0-.2,0-.4,0-.7-.1,0,0,0,0,0,0Z"/>
    <path class="cls-20" d="M23.9,2s0,0,0,0c0,0,0,0,0,0,0,0,0,0-.1,0,0,0,0,0-.1,0,0,0-.2,0-.2,0,0,0-.2,0-.3,0,0,0,0,0-.1,0,0,0-.1,0-.2,0,0,0,0,0,.1,0,0,0,.1,0,.2,0,0,0,0,0,0,0,0,0,.1,0,.2,0,0,0,.1,0,.2,0,0,0,.1,0,.2,0,0,0,0,0,.1,0,0,0,0,0,.1,0,0,0,0,0,0,0Z"/>
    <path class="cls-11" d="M5.6,35.7c0,0-.1-.1-.2-.2,0,0,0,0,0,0,.1,0,.3,0,.4,0,.1,0,.2,0,.3,0-.2,0-.3,0-.5,0,0,0,0,.1,0,.2,0,0,0,0,0,0Z"/>
    <path class="cls-29" d="M33,10c0,0,0-.1,0-.2,0-.3,0-.7,0-1,0,0,0,0,0,0,0,.4,0,.9,0,1.3Z"/>
    <path class="cls-16" d="M35.1,12.5c0,.1,0,.2,0,.3,0,0,0,0,0-.1,0-.3,0-.6,0-.9,0,0,0,0,0-.1,0,0,0,0,0,0,0,0,0,0,0,.1,0,0,0,0,0,0,0,0,0,0,0,0,0,0,0,0,0,0,0,0,0,0,0,0,0,.2,0,.4,0,.5Z"/>
    <path class="cls-29" d="M33.7,10.3s0,0,0,0c0,.3,0,.7,0,1,0,0,0,.1,0,.2,0-.4,0-.8,0-1.2Z"/>
    <path class="cls-8" d="M6.1,35.5c-.1,0-.2,0-.3,0,.2,0,.4,0,.6,0,0,0,0,0,.1,0,0,0,.2,0,.2,0-.2,0-.4,0-.7,0Z"/>
    <path class="cls-2" d="M10.5,10.7s0,0,0,0c-.2.1-.3.2-.5.3,0,0,0,0,0,0,.1-.1.3-.3.4-.4,0,0,.1,0,.2,0Z"/>
    <path class="cls-17" d="M30.9,10.5s0,0,0,0c0-.1,0-.3,0-.4,0-.2,0-.5,0-.7,0,0,0-.1,0-.2,0,0,0,0,0,0,0,0,0,.2,0,.2,0,0,0,.2,0,.3,0,.2,0,.4,0,.6,0,0,0,.1,0,.2Z"/>
    <path class="cls-11" d="M28.6,26.5s0,0,0,0c0,0,0-.1,0-.2,0,0,0-.2,0-.3,0,0,0-.1,0-.2,0,0,0,0,0,0,0,.2.1.5,0,.7Z"/>
    <path class="cls-15" d="M25.9,14.9s0,0,0,0c-.1,0-.1,0-.1.1,0,.2,0,.4,0,.6,0,0,0,0,0,0,0,0,0,0,0,0,0,0,0-.1,0-.2,0-.2,0-.4,0-.6,0,0,.1,0,.2,0Z"/>
    <path class="cls-17" d="M35.1,11.7s0,0,0,0c0-.2,0-.5,0-.7,0-.3,0-.6,0-.9,0,0,0-.1,0-.2,0,.2,0,.4,0,.6,0,.2,0,.4,0,.6,0,0,0,.2,0,.3,0,0,0,.2,0,.3Z"/>
    <path class="cls-4" d="M6.5,36.7c-.2-.2-.3-.3-.5-.5,0,0,0,0,0-.1.2.2.4.4.5.5,0,0,0,0,0,0Z"/>
    <path class="cls-9" d="M28.8,9.7c0,.2,0,.5,0,.7,0,0,0,0,0,0,0-.3,0-.5,0-.8Z"/>
    <path class="cls-3" d="M37,11.5c0,0,0-.2,0-.2,0,.3.1.5.2.8,0-.2,0-.4-.1-.6Z"/>
    <path class="cls-15" d="M5,15.7s0,0,0,0c0,.1-.2.2-.3.3,0,0,0,0-.1,0,0,0,0,0,0,0,.1-.1.3-.2.4-.3Z"/>
    <path class="cls-16" d="M21.9,13.7c.2,0,.5,0,.7,0-.2,0-.5,0-.7,0Z"/>
    <path class="cls-12" d="M29.9,36.4s0,0,0,0c-.1,0-.3.1-.4,0,.1,0,.2,0,.3-.1Z"/>
    <path class="cls-17" d="M6.8,35.4c0,0-.2,0-.2,0,0,0,0,0-.1,0,.1,0,.3,0,.4,0,0,0,0,0,0,0,0,0,.1,0,.2,0,0,0,0,0,0,.1,0,0-.2,0-.3,0Z"/>
    <path class="cls-19" d="M36.4,31.9s0,0,0,0c.1,0,.2-.2.3-.3,0,0,0,0,0,0,0,0,0,0,0,.1,0,0,0,.1-.1.2,0,0,0,0-.1,0Z"/>
    <path class="cls-16" d="M25.1,14.1c.2,0,.4,0,.6.1,0,0,0,0,0,0-.2,0-.5-.1-.7-.2Z"/>
    <path class="cls-29" d="M30.9,10.4c0-.2,0-.4,0-.6,0,.2,0,.4,0,.6Z"/>
    <path class="cls-16" d="M16.4,14.9c.2,0,.3,0,.5-.1,0,0,.1,0,.2,0-.2,0-.4,0-.6,0Z"/>
    <path class="cls-16" d="M17.5,14.7c0,0,.2,0,.3-.1.1,0,.3,0,.4,0-.2,0-.5.1-.7.2Z"/>
    <path class="cls-8" d="M35.1,11.2c0-.2,0-.4,0-.6,0,.2,0,.4,0,.6,0,0,0,0,0,0Z"/>
    <path class="cls-16" d="M26.9,14.5c.2,0,.4.1.6.2-.2,0-.4-.1-.6-.2Z"/>
    <path class="cls-30" d="M18.6,32.1c0,.1,0,.2,0,.3,0,0,0,0,0,0,0,0,0,0,0,0,0,0-.1-.2,0-.2Z"/>
    <path class="cls-11" d="M25.7,14.8c0,.2,0,.4,0,.6,0-.2,0-.4,0-.5,0,0,0,0,0,0Z"/>
    <path class="cls-14" d="M26,3.6c0,0-.2.1-.3.2,0,0,0,0,0,0,0,0,0,0,0,0,.1,0,.2-.2.3-.3h0c0,0,0,0,0,0Z"/>
    <path class="cls-29" d="M31,9.4c0,0,0-.2,0-.2,0,0,0,0,0,0v-.2c0,.2,0,.4,0,.5Z"/>
    <path class="cls-16" d="M19.3,14.2c0,0,.1,0,.2,0,.1,0,.3,0,.4,0-.2,0-.4.1-.6.2Z"/>
    <path class="cls-29" d="M32.3,7.9c-.2,0-.4,0-.6,0,.2,0,.4,0,.6,0Z"/>
    <path class="cls-8" d="M35.1,12.5c0-.2,0-.4,0-.5,0,.2,0,.4,0,.5,0,0,0,0,0,0Z"/>
    <path class="cls-31" d="M28.5,25.1s0,0,0,0c0,0,0,0,0,0,0,0,0,0,0,0,0,0,0,0,0,0,0,0,0,.2,0,.3,0,0,0,0,0,.1,0,0,0,0,0,0,0-.1,0-.2,0-.4h0c0-.1,0-.2,0-.2Z"/>
    <path class="cls-14" d="M22.8,1.8s0,0-.1,0c-.1,0-.2,0-.3,0,0,0,.1,0,.2,0,0,0,0,0,0,0,0,0,0,0,0,0,0,0,0,0,0,0,0,0,.1,0,.2,0Z"/>
    <path class="cls-28" d="M39.3,15.1s0,0,0,0c0,.1,0,.2.1.3,0,0,0,0,0,0,0,0,0-.2,0-.2Z"/>
    <path class="cls-15" d="M35,24.6s0,0,0,0c0,0,0,.1,0,.2,0,0,0,0,0,.1,0,0,0,0,0,0,0,0,0,0,0,0,0,0,0,0,0,0,0,0,0,0,0,0,0,0,0-.2,0-.3Z"/>
    <path class="cls-16" d="M20,14c.2,0,.4,0,.5-.1-.2,0-.4,0-.5.1Z"/>
    <path class="cls-9" d="M28.9,9c0,.2,0,.3,0,.5,0-.2,0-.3,0-.5Z"/>
    <path class="cls-8" d="M8.6,35.1c0,0-.1,0-.2,0-.1,0-.2,0-.3,0,.2,0,.3,0,.5,0Z"/>
    <path class="cls-28" d="M24.1,5.2s0,0,0,0c0,0,0,0,0,0,0,0,0,0,0,0,0,0,.1-.1.2-.2,0,0,0,0,0,0,0,0-.2.1-.2.2Z"/>
    <path class="cls-16" d="M24.2,13.9c.2,0,.3,0,.5.1-.2,0-.3,0-.5-.1Z"/>
    <path class="cls-1" d="M37,19.3c0,0,.2,0,.2.2,0,0-.2-.2-.3-.2h0s0,0,0,0c0,0,0,0,0,0Z"/>
    <path class="cls-8" d="M35.1,11.7c0,0,0-.2,0-.3,0,0,0,0,0,0h0c0,.2,0,.3,0,.5,0,0,0,0,0,0,0,0,0,0,0,0,0,0,0,0,0-.1Z"/>
    <path class="cls-17" d="M31,8.9c0,0,0,.1,0,.2,0,0,0,0,0,0,0,0,0-.1,0-.2,0-.1,0-.3,0-.4,0,0,0,0,0,0,0,0,0,.2,0,.3,0,0,0,0,0,0Z"/>
    <path class="cls-14" d="M25.7,3.9c0,0-.2.1-.3.2,0,0,0,0,0,0,0,0,.2-.2.3-.2,0,0,0,0,0,0,0,0,0,0,0,0Z"/>
    <path class="cls-15" d="M28.4,40.3c0-.2.2-.2.3-.2,0,0,0,0,0,0,0,0,0,0,0,0,0,0,0,0,0,0,0,0,0,0,0,0,0,0-.1,0-.2,0Z"/>
    <path class="cls-1" d="M37,18.7c0,0,0,.1,0,.2,0,0,0,.1,0,.2,0,0,0,0,0-.1,0,0,0-.2,0-.3Z"/>
    <path class="cls-14" d="M26.3,3.4c0,0-.2.1-.2.2,0,0,0,0,0,0,0,0,0,0,0,0,0,0,.2-.2.3-.2,0,0,0,0,0,0Z"/>
    <path class="cls-8" d="M5.6,35.7s0,0,0,0c0,0,.1.2.2.2,0,0,0,0,0,0l-.2-.2Z"/>
    <path class="cls-8" d="M7.5,35.2c-.1,0-.3,0-.4,0,.1,0,.3,0,.4,0Z"/>
    <path class="cls-15" d="M4,26.6c0,.1-.1.3-.2.4,0-.1.1-.3.2-.4Z"/>
    <path class="cls-29" d="M33.1,11.3c0-.1,0-.3,0-.4,0,.1,0,.3,0,.4Z"/>
    <path class="cls-29" d="M33,8.6c0-.1,0-.3-.1-.4,0,.1,0,.3.1.4Z"/>
    <path class="cls-16" d="M20.9,13.8c.1,0,.3,0,.4,0-.1,0-.3,0-.4,0Z"/>
    <path class="cls-16" d="M18.5,14.5c.1,0,.3,0,.4,0-.1,0-.3,0-.4,0Z"/>
    <path class="cls-16" d="M15.5,14.9c.1,0,.2,0,.3,0-.1,0-.2,0-.3,0Z"/>
    <path class="cls-4" d="M28.3,36.3c.1,0,.2,0,.3,0-.1,0-.2,0-.3,0Z"/>
    <path class="cls-4" d="M6.8,37c0,0-.1-.2-.2-.2,0,0,0,0,0,0,0,0,.2.2.3.3,0,0,0,0-.1,0Z"/>
    <path class="cls-29" d="M33.6,9.8c0,.1,0,.2,0,.3,0-.1,0-.2,0-.3Z"/>
    <path class="cls-8" d="M34.4,9.1c-.1,0-.2,0-.3,0,.1,0,.2,0,.3,0Z"/>
    <path class="cls-12" d="M34.9,25.1s0,0,0,0c0,0,0,.2,0,.2,0,0,0,0,0-.1,0,0,0,0,0-.1Z"/>
    <path class="cls-14" d="M25.1,4.4c0,0-.1.1-.2.2,0,0,0,0,0,0,0,0,.1-.1.2-.2,0,0,0,0,0,0Z"/>
    <path class="cls-14" d="M25.4,4.1c0,0-.1.1-.2.2h0c0-.1.1-.2.2-.2,0,0,0,0,0,0Z"/>
    <path class="cls-28" d="M23.9,2s0,0,0,0c.1,0,.2,0,.3,0,0,0-.2,0-.3,0Z"/>
    <path class="cls-15" d="M4.3,28c.1,0,.2,0,.3,0-.1,0-.2,0-.3,0Z"/>
    <path class="cls-28" d="M10.3,22.6c.1,0,.2,0,.3,0-.1,0-.2,0-.3,0Z"/>
    <path class="cls-15" d="M3.5,26.6c0-.1,0-.2.1-.3,0,.1,0,.2-.1.3Z"/>
    <path class="cls-4" d="M28.8,36.2c0,0-.1,0-.2,0,0,0,.1,0,.2,0,0,0,0,0,0,0h0Z"/>
    <path class="cls-4" d="M26.4,36.4s0,0,0,0c0,0,0,0-.1,0,0,0,0,0,0-.1,0,0,0,0,.1,0Z"/>
    <path class="cls-4" d="M27.9,36.3c0,0,.2,0,.3,0,0,0-.2,0-.3,0Z"/>
    <path class="cls-15" d="M5.4,27.6c0,0,.1-.1.2-.2,0,0-.1.1-.2.2Z"/>
    <path class="cls-29" d="M31.4,10c0,0,0,.2,0,.3,0,0,0-.2,0-.3Z"/>
    <path class="cls-29" d="M33.6,11.8c0,.2-.2.2-.3,0,.1,0,.2,0,.3,0Z"/>
    <path class="cls-20" d="M37.4,16.8s0,0,.1-.1c0,0,0,.2,0,.3,0,0,0,0,0,0,0,0,0-.1,0-.2Z"/>
    <path class="cls-16" d="M17,14.8c.1,0,.2,0,.3,0-.1,0-.2,0-.3,0Z"/>
    <path class="cls-16" d="M35.1,11.5h0s0,0,0,0c0,0,0-.2,0-.3,0,0,0,0,0,0,0,0,0,.2,0,.2Z"/>
    <path class="cls-11" d="M28.6,25.6c0,0,0-.2,0-.3,0,0,0,.2,0,.3Z"/>
    <path class="cls-8" d="M9.3,35.5c0,0,0-.2-.1-.3,0,0,0,.2.1.3Z"/>
    <path class="cls-29" d="M31.3,8.4c0,0,0,.2,0,.3,0,0,0-.2,0-.3Z"/>
    <path class="cls-29" d="M31,8.8c0,0,0-.2,0-.3,0,0,0,.2,0,.3Z"/>
    <path class="cls-15" d="M3.8,27.1c0,0,0,.2,0,.3,0,0,0-.2,0-.3Z"/>
    <path class="cls-1" d="M37,19.1s0,0,0,0c0,0,0,0,0,0,0,0,0,0,0,0,0,0,0-.1,0-.2,0,0,0,0,0,.1Z"/>
    <path class="cls-3" d="M37.1,12.8c0,0,0-.2,0-.2,0,0,0,.2,0,.2Z"/>
    <path class="cls-16" d="M23.5,13.8c0,0,.2,0,.3,0,0,0-.2,0-.3,0Z"/>
    <path class="cls-8" d="M6.1,36.1s0,0,0,.1c0,0,0-.1-.1-.2,0,0,0,0,0,0,0,0,0,0,.1.1Z"/>
    <path class="cls-9" d="M28.4,14.2c0,0,0,.2,0,.2,0,0,0-.2,0-.2Z"/>
    <path class="cls-19" d="M34.7,32.7h.2c0,0-.2,0-.2,0Z"/>
    <path class="cls-11" d="M25.7,15.6s0,0,0,0c0,0,0,.2,0,.3,0,0,0-.2,0-.3Z"/>
    <path class="cls-11" d="M28.5,25.1s0,0-.1-.1c0,0,0,0,.1,0,0,0,0,.1,0,.2Z"/>
    <path class="cls-29" d="M30.9,8.4c0,0,0-.2,0-.2,0,0,0,.2,0,.2Z"/>
    <path class="cls-19" d="M35.4,32.4c0,0,.2,0,.2-.1,0,0-.2,0-.2.1Z"/>
    <path class="cls-16" d="M24.8,14c0,0,.1,0,.2,0,0,0-.1,0-.2,0Z"/>
    <path class="cls-4" d="M29.5,36.1c0,0,.2,0,.2,0,0,0-.2,0-.2,0Z"/>
    <path class="cls-8" d="M9.7,36.4c0,0,0-.2-.1-.2,0,0,0,.2.1.2Z"/>
    <path class="cls-4" d="M26.8,36.5c0,0,.1,0,.2,0,0,0-.1,0-.2,0Z"/>
    <path class="cls-28" d="M26.9,2.9s0,0,0-.1c0,0,0,0,0,0,0,0,0,0,0,0Z"/>
    <path class="cls-16" d="M23,13.7c0,0,.2,0,.2,0,0,0-.2,0-.2,0Z"/>
    <path class="cls-29" d="M33.6,9.5c0,0,0,.1,0,.2,0,0,0-.1,0-.2Z"/>
    <path class="cls-15" d="M4.3,16.3c0,.1,0,.2-.2.2,0,0,.1-.1.2-.2Z"/>
    <path class="cls-16" d="M26.3,14.4c0,0,.1,0,.2,0h-.2Z"/>
    <path class="cls-9" d="M28.7,12.3c0,0,0,.2,0,.2,0,0,0-.2,0-.2Z"/>
    <path class="cls-28" d="M25.1,2.1c0,0-.2,0-.2,0,0,0,.2,0,.2,0Z"/>
    <path class="cls-15" d="M5.7,24.1c0,0,0,.2-.1.2,0,0,0-.2.1-.2Z"/>
    <path class="cls-8" d="M9.1,35.2s0,0,0,0c0,0,0,0,0,.1,0,0,0,0,0,0,0,0,0,0,0,0h0Z"/>
    <path class="cls-15" d="M4.6,16.1c0,.1,0,.2-.1.1,0,0,0,0,.1-.1Z"/>
    <path class="cls-8" d="M30.4,27.1c0,0-.1,0-.2,0,0,0,.1,0,.2,0Z"/>
    <path class="cls-14" d="M25.2,4.3s0,0-.1.1c0,0,0,0,0,0,0,0,0,0,.1-.1,0,0,0,0,0,0Z"/>
    <path class="cls-29" d="M22,1.7c0,0-.1,0-.2,0,0,0,.1,0,.2,0Z"/>
    <path class="cls-29" d="M33.2,11.5c0,0,0-.1,0-.2,0,0,0,.1,0,.2Z"/>
    <path class="cls-7" d="M36.5,31.8c0,0,0-.1.1-.2,0,0,0,.1-.1.2Z"/>
    <path class="cls-14" d="M24.7,4.7s0,0-.1,0c0,0,0,0,0,0,0,0,0,0,0,0,0,0,0,0,.1-.1,0,0,0,0,0,0Z"/>
    <path class="cls-16" d="M23.9,13.9c0,0,.1,0,.2,0,0,0-.1,0-.2,0Z"/>
    <path class="cls-4" d="M27.2,36.4c0,0,.1,0,.2,0,0,0-.1,0-.2,0Z"/>
    <path class="cls-1" d="M26.6,15c0,0,.2,0,.2,0,0,0,0,0,.1,0,0,0,0,0,0,0,0,0,0,0,0,0,0,0-.2,0-.3,0,0,0,0,0,0,0Z"/>
    <path class="cls-16" d="M21.4,13.8c0,0,.1,0,.2,0,0,0-.1,0-.2,0Z"/>
    <path class="cls-28" d="M23.5,1.8c0,0-.1,0-.2,0,0,0,.1,0,.2,0Z"/>
    <path class="cls-8" d="M19.2,33.7c0,0,0,.1.1.2v-.2Z"/>
    <path class="cls-29" d="M31.4,10.8c0,0,0,.1,0,.2,0,0,0-.1,0-.2Z"/>
    <path class="cls-4" d="M5.8,35.9s0,0,0,0c0,0,0,0,0,0,0,0,0,0,0,0,0,0,0,0-.1-.1Z"/>
    <path class="cls-15" d="M5.4,15.3s0,0,0,.1c0,0,0,0-.1,0,0,0,0,0,0,0,0,0,0,0,.1,0Z"/>
    <path class="cls-8" d="M34.1,9c0,0-.1,0-.2,0,0,0,.1,0,.2,0Z"/>
    <path class="cls-15" d="M24.8,4.5s0,0,0,0c0,0,0,0,0,0,0,0,0,0,0,0,0,0,0,0,0,0,0,0,0,0,.1-.1Z"/>
    <path class="cls-4" d="M7,37.2c0,0-.1,0-.2-.1,0,0,0,0,0,0,0,0,0,0,.1.1,0,0,0,0,0,0Z"/>
    <path class="cls-4" d="M7.1,37.3s0,0-.1-.1c0,0,0,0,0,0,0,0,0,0,.1.1,0,0,0,0,0,0Z"/>
    <path class="cls-16" d="M15.9,14.9c0,0,.1,0,.2,0,0,0-.1,0-.2,0Z"/>
    <path class="cls-12" d="M9.8,11.2c0,.1,0,.1-.2.1,0,0,.1,0,.2-.1Z"/>
    <path class="cls-8" d="M35.1,9.9s0,0,0-.1c0,0,0,0,0,.1Z"/>
    <path class="cls-15" d="M5.6,15s0,0,0,0c0,0,0,0-.1,0,0,0,0,0,0-.1Z"/>
    <path class="cls-8" d="M19.4,34s0,0,0,.1c0,0,0,0,0-.1Z"/>
    <path class="cls-15" d="M4.1,26.4s0,0,0,.1c0,0,0,0,0-.1Z"/>
    <path class="cls-4" d="M31,35.9c0,0,.1,0,.2,0,0,0-.1,0-.2,0Z"/>
    <path class="cls-8" d="M9.6,36.1c0,0,0-.1,0-.2,0,0,0,.1,0,.2Z"/>
    <path class="cls-15" d="M5.3,15.4c0,0,0,.1-.1.1,0,0,0,0,.1-.1Z"/>
    <path class="cls-29" d="M31.3,11.3s0,0,0,.1c0,0,0,0,0-.1Z"/>
    <path class="cls-1" d="M37.2,17.5c0,0,0,.1,0,.2,0,0,0-.1,0-.2Z"/>
    <path class="cls-9" d="M31.1,26.7c0,0,.1,0,.2,0,0,0-.1,0-.2,0Z"/>
    <path class="cls-28" d="M24.5,2c0,0-.1,0-.2,0,0,0,.1,0,.2,0Z"/>
    <path class="cls-15" d="M3.9,25.7s0,0,0-.1c0,0,0,0,0,.1Z"/>
    <path class="cls-29" d="M21.5,1.6c0,0-.1,0-.2,0,0,0,.1,0,.2,0Z"/>
    <path class="cls-16" d="M20.7,13.9s0,0,.1,0c0,0,0,0-.1,0Z"/>
    <path class="cls-1" d="M37.3,17s0,0,0,0c0,0,0,0,0,0,0,0,0,0-.1,0,0,0,0,0,0,0Z"/>
    <path class="cls-16" d="M23.3,13.8s0,0,.1,0c0,0,0,0-.1,0Z"/>
    <path class="cls-29" d="M31.5,8s0,0-.1,0c0,0,0,0,.1,0Z"/>
    <path class="cls-29" d="M8,12.8s0,0-.1.1c0,0,0,0,.1-.1Z"/>
    <path class="cls-9" d="M28.7,11.8c0,0,0,.1,0,.2,0,0,0-.1,0-.2Z"/>
    <path class="cls-15" d="M3.7,26.1s0,0,0-.1c0,0,0,0,0,.1Z"/>
    <path class="cls-8" d="M30.6,27c0,0-.1,0-.2,0,0,0,.1,0,.2,0Z"/>
    <path class="cls-9" d="M28.6,13.2c0,0,0,.1,0,.2,0,0,0-.1,0-.2Z"/>
    <path class="cls-15" d="M6.6,26.1s0,0,0-.1c0,0,0,0,0,.1Z"/>
    <path class="cls-4" d="M28.5,25.7s0,0,0,0c0,0,0,0,0,0,0,0,0,0,0,0,0,0,0,0,0,0h0Z"/>
    <path class="cls-29" d="M7.9,12.9s0,0-.1.1c0,0,0,0,.1-.1Z"/>
    <path class="cls-29" d="M8.2,12.7s0,0-.1.1c0,0,0-.1.1-.1Z"/>
    <path class="cls-15" d="M6.2,26.7s0,0,0-.1c0,0,0,0,0,.1Z"/>
    <path class="cls-15" d="M4.6,24.9s0,0,0-.1c0,0,0,0,0,.1Z"/>
    <path class="cls-3" d="M36.6,10.6s0,0,0,0c0,0,0,0,0,0Z"/>
    <path class="cls-12" d="M35,25s0,0,0-.1c0,0,0,0,0,.1Z"/>
    <path class="cls-9" d="M27.8,15.6s0,0-.1,0c0,0,0,0,.1,0Z"/>
    <path class="cls-9" d="M28.8,11.1s0,0,0,.1c0,0,0,0,0-.1Z"/>
    <path class="cls-29" d="M21,1.6s0,0-.1,0c0,0,0,0,.1,0Z"/>
    <path class="cls-8" d="M7.8,35.2s0,0-.1,0c0,0,0,0,.1,0Z"/>
    <path class="cls-16" d="M26.5,14.4s0,0,.1,0c0,0,0,0-.1,0Z"/>
    <path class="cls-15" d="M2.8,26.7s0,0,.1,0c0,0,0,0-.1,0Z"/>
    <path class="cls-8" d="M6.9,35.3s0,0,0,0c0,0,0,0,0,0Z"/>
    <path class="cls-29" d="M8.3,12.5s0,0-.1.1c0,0,0,0,.1-.1Z"/>
    <path class="cls-4" d="M31.2,35.8s0,0,.1,0c0,0,0,0-.1,0Z"/>
    <path class="cls-4" d="M30.5,35.9s0,0,.1,0c0,0,0,0-.1,0Z"/>
    <path class="cls-15" d="M5.7,24s0,0,0,.1c0,0,0,0,0-.1Z"/>
    <path class="cls-28" d="M23.8,1.9s0,0-.1,0c0,0,0,0,.1,0Z"/>
    <path class="cls-4" d="M29.9,36s0,0,.1,0c0,0,0,0-.1,0Z"/>
    <path class="cls-9" d="M28.6,12.8s0,0,0,0c0,0,0,0,0,0Z"/>
    <path class="cls-1" d="M37.2,17.8s0,0,0,0c0,0,0,0,0,0Z"/>
    <path class="cls-29" d="M33.1,10.7s0,0,0-.1c0,0,0,0,0,.1Z"/>
    <path class="cls-28" d="M25.2,2.2s0,0-.1,0c0,0,0,0,.1,0Z"/>
    <path class="cls-1" d="M37.2,18s0,0,0,.1c0,0,0,0,0-.1Z"/>
    <path class="cls-28" d="M25.8,2.3s0,0-.1,0c0,0,0,0,.1,0Z"/>
    <path class="cls-29" d="M4.4,16.3s0,0,0,0c0,0,0,0,0,0,0,0,0,0,0,0,0,0,0,0,0,0Z"/>
    <path class="cls-1" d="M37.1,18.4s0,0,0,.1c0,0,0,0,0-.1Z"/>
    <path class="cls-4" d="M26.1,36.6s0,0,.1,0c0,0,0,0-.1,0Z"/>
    <path class="cls-29" d="M27.4,40.6s0,0,0,0c0,0,0,0,0,0,0,0,0,0,0-.1Z"/>
    <path class="cls-9" d="M29,8.2s0,0,0,.1c0,0,0,0,0-.1Z"/>
    <path class="cls-29" d="M31.3,8.9s0,0,0,0c0,0,0,0,0,0Z"/>
    <path class="cls-29" d="M31.4,9.1s0,0,0,.1c0,0,0,0,0-.1Z"/>
    <path class="cls-8" d="M7,37s0,0,0,0c0,0,0,0,0,0,0,0,0,0,.1,0,0,0,0,0,0,0Z"/>
    <path class="cls-7" d="M35.5,32.7s0,0,0,0c0,0,0,0,0,0Z"/>
    <path class="cls-8" d="M35,9.7s0,0,0-.1c0,0,0,0,0,.1Z"/>
    <path class="cls-9" d="M28.8,10.6s0,0,0,0c0,0,0,0,0,0Z"/>
    <path class="cls-19" d="M35.7,32.3s0,0,.1,0c0,0,0,0-.1,0Z"/>
    <path class="cls-29" d="M7.8,13c0,0,0,.1-.1,0,0,0,0,0,.1,0Z"/>
    <path class="cls-9" d="M28.2,15.2s0,0,0,.1c0,0,0,0,0-.1Z"/>
    <path class="cls-28" d="M26.5,3.2s0,0,.1,0c0,0,0,0-.1,0Z"/>
    <path class="cls-27" d="M37,19.1s0,0,0-.1c0,0,0,0,0,0,0,0,0,0,0,.1,0,0,0,0,0,0Z"/>
    <path class="cls-9" d="M27.5,15.6s0,0-.1,0c0,0,0,0,.1,0Z"/>
    <path class="cls-19" d="M34.2,32.9s0,0,.1,0c0,0,0,0-.1,0Z"/>
    <path class="cls-9" d="M27.2,15.4s0,0,0-.1c0,0,0,0,0,.1Z"/>
    <path class="cls-15" d="M4,25.6s0,0,0,0c0,0,0,0,0,0Z"/>
    <path class="cls-29" d="M31.3,8.1s0,0,0,0c0,0,0,0,0,0Z"/>
    <path class="cls-15" d="M4.6,25.7s0,0,0,0c0,0,0,0,0,0Z"/>
    <path class="cls-15" d="M6.8,25.9s0,0,0,0c0,0,0,0,0,0Z"/>
    <path class="cls-15" d="M4.4,25.9s0,0,0,0c0,0,0,0,0,0Z"/>
    <path class="cls-15" d="M3.7,26.2s0,0,0,0c0,0,0,0,0,0Z"/>
    <path class="cls-15" d="M6.5,26.2s0,0,0,0c0,0,0,0,0,0Z"/>
    <path class="cls-15" d="M6.4,26.4s0,0,0,0c0,0,0,0,0,0Z"/>
    <path class="cls-15" d="M2.5,26.4s0,0,0,0c0,0,0,0,0,0Z"/>
    <path class="cls-15" d="M2.6,26.6s0,0,0,0c0,0,0,0,0,0Z"/>
    <path class="cls-9" d="M31.4,26.6s0,0,0,0c0,0,0,0,0,0Z"/>
    <path class="cls-15" d="M5.6,15.2s0,0,0,0c0,0,0,0,0,0,0,0,0,0,0,0Z"/>
    <path class="cls-15" d="M3.4,26.7s0,0,0,0c0,0,0,0,0,0Z"/>
    <path class="cls-15" d="M6,26.9s0,0,0,0c0,0,0,0,0,0Z"/>
    <path class="cls-8" d="M30,27.1s0,0,0,0c0,0,0,0,0,0Z"/>
    <path class="cls-15" d="M5.7,27.2s0,0,0,0c0,0,0,0,0,0Z"/>
    <path class="cls-15" d="M3.8,27.5s0,0,0,0c0,0,0,0,0,0Z"/>
    <path class="cls-15" d="M3.9,27.7s0,0,0,0c0,0,0,0,0,0Z"/>
    <path class="cls-15" d="M5.3,27.7s0,0,0,0c0,0,0,0,0,0Z"/>
    <path class="cls-15" d="M4.1,27.9s0,0,0,0c0,0,0,0,0,0Z"/>
    <path class="cls-15" d="M4.8,28s0,0,0,0c0,0,0,0,0,0Z"/>
    <path class="cls-28" d="M23.1,1.8s0,0,0,0c0,0,0,0,0,0Z"/>
    <path class="cls-28" d="M24.7,2.1s0,0,0,0c0,0,0,0,0,0Z"/>
    <path class="cls-28" d="M25.5,2.2s0,0,0,0c0,0,0,0,0,0Z"/>
    <path class="cls-28" d="M25.6,2.3s0,0,0,0c0,0,0,0,0,0Z"/>
    <path class="cls-7" d="M36.8,31.3s0,0,0,0c0,0,0,0,0,0Z"/>
    <path class="cls-28" d="M26,2.4s0,0,0,0c0,0,0,0,0,0Z"/>
    <path class="cls-9" d="M26.9,15s0,0,0,0c0,0,0,0,0,0,0,0,0,0,0,0Z"/>
    <path class="cls-28" d="M26.3,2.5s0,0,0,0c0,0,0,0,0,0Z"/>
    <path class="cls-19" d="M36,32.1s0,0,0,0c0,0,0,0,0,0Z"/>
    <path class="cls-28" d="M26.5,2.6s0,0,0,0c0,0,0,0,0,0Z"/>
    <path class="cls-28" d="M26.8,2.7s0,0,0,0c0,0,0,0,0,0Z"/>
    <path class="cls-28" d="M26.8,3s0,0,0,0c0,0,0,0,0,0Z"/>
    <path class="cls-28" d="M26,3.6s0,0,0,0c0,0,0,0,0,0,0,0,0,0,0,0Z"/>
    <path class="cls-28" d="M25.7,3.9s0,0,0,0c0,0,0,0,0,0,0,0,0,0,0,0Z"/>
    <path class="cls-14" d="M24.7,4.6s0,0,0,0c0,0,0,0,0,0,0,0,0,0,0,0,0,0,0,0,0,0,0,0,0,0,0,0Z"/>
    <path class="cls-19" d="M35,32.6s0,0,0,0c0,0,0,0,0,0Z"/>
    <path class="cls-28" d="M24.7,4.7s0,0,0,0c0,0,0,0,0,0,0,0,0,0,0,0Z"/>
    <path class="cls-14" d="M24.5,4.9s0,0,0,0c0,0,0,0,0,0,0,0,0,0,0,0,0,0,0,0,0,0,0,0,0,0,0,0Z"/>
    <path class="cls-7" d="M35.8,32.7s0,0,0,0c0,0,0,0,0,0Z"/>
    <path class="cls-28" d="M24.5,4.9s0,0,0,0c0,0,0,0,0,0,0,0,0,0,0,0Z"/>
    <path class="cls-9" d="M29.1,7.8s0,0,0,0c0,0,0,0,0,0Z"/>
    <path class="cls-7" d="M35.3,32.8s0,0,0,0c0,0,0,0,0,0Z"/>
    <path class="cls-9" d="M29,8s0,0,0,0c0,0,0,0,0,0Z"/>
    <path class="cls-9" d="M28.9,8.5s0,0,0,0c0,0,0,0,0,0Z"/>
    <path class="cls-9" d="M28.3,14.8s0,0,0,0c0,0,0,0,0,0Z"/>
    <path class="cls-9" d="M28.9,8.9s0,0,0,0c0,0,0,0,0,0Z"/>
    <path class="cls-9" d="M28.4,14.6s0,0,0,0c0,0,0,0,0,0Z"/>
    <path class="cls-8" d="M34.6,9.1s0,0,0,0c0,0,0,0,0,0Z"/>
    <path class="cls-8" d="M19,33.4s0,0,0,0c0,0,0,0,0,0Z"/>
    <path class="cls-29" d="M33.8,9.1s0,0,0,0c0,0,0,0,0,0Z"/>
    <path class="cls-3" d="M36.1,10.4s0,0,0,0c0,0,0,0,0,0Z"/>
    <path class="cls-16" d="M26.8,14.5s0,0,0,0c0,0,0,0,0,0Z"/>
    <path class="cls-16" d="M18.3,14.5s0,0,0,0c0,0,0,0,0,0Z"/>
    <path class="cls-3" d="M36.4,10.5s0,0,0,0c0,0,0,0,0,0Z"/>
    <path class="cls-3" d="M36.8,10.8s0,0,0,0c0,0,0,0,0,0Z"/>
    <path class="cls-3" d="M36.8,11s0,0,0,0c0,0,0,0,0,0Z"/>
    <path class="cls-16" d="M26.1,14.3s0,0,0,0c0,0,0,0,0,0Z"/>
    <path class="cls-3" d="M36.9,11.2s0,0,0,0c0,0,0,0,0,0Z"/>
    <path class="cls-16" d="M19,14.3s0,0,0,0c0,0,0,0,0,0Z"/>
    <path class="cls-29" d="M31.3,11.1s0,0,0,0c0,0,0,0,0,0Z"/>
    <path class="cls-16" d="M25.9,14.3s0,0,0,0c0,0,0,0,0,0Z"/>
    <path class="cls-16" d="M19.2,14.3s0,0,0,0c0,0,0,0,0,0Z"/>
    <path class="cls-9" d="M28.5,14s0,0,0,0c0,0,0,0,0,0Z"/>
    <path class="cls-29" d="M31,11.5s0,0,0,0c0,0,0,0,0,0Z"/>
    <path class="cls-4" d="M30.8,35.9s0,0,0,0h0Z"/>
    <path class="cls-29" d="M31.1,11.6s0,0,0,0c0,0,0,0,0,0Z"/>
    <path class="cls-29" d="M33.2,11.8s0,0,0,0c0,0,0,0,0,0Z"/>
    <path class="cls-8" d="M35.2,12.8s0,0,0,0c0,0,0,0,0,0Z"/>
    <path class="cls-4" d="M30.2,36s0,0,0,0c0,0,0,0,0,0Z"/>
    <path class="cls-8" d="M35.2,13s0,0,0,0c0,0,0,0,0,0Z"/>
    <path class="cls-1" d="M37.3,17.3s0,0,0,0c0,0,0,0,0,0Z"/>
    <path class="cls-1" d="M37.1,18.2s0,0,0,0c0,0,0,0,0,0Z"/>
    <path class="cls-4" d="M29.7,36.1s0,0,0,0h0Z"/>
    <path class="cls-28" d="M10.2,22.6s0,0,0,0c0,0,0,0,0,0Z"/>
    <path class="cls-4" d="M29.2,36.1h0s0,0,0,0Z"/>
    <path class="cls-15" d="M7,25.7s0,0,0,0c0,0,0,0,0,0Z"/>
    <path class="cls-28" d="M9.8,22.8s0,0,0,0c0,0,0,0,0,0Z"/>
    <path class="cls-4" d="M27.7,36.4s0,0,0,0c0,0,0,0,0,0Z"/>
    <path class="cls-4" d="M27.4,36.4s0,0,0,0c0,0,0,0,0,0Z"/>
    <path class="cls-15" d="M5.5,24s0,0,0,0c0,0,0,0,0,0Z"/>
    <path class="cls-15" d="M5.4,24s0,0,0,0c0,0,0,0,0,0Z"/>
    <path class="cls-4" d="M26.7,36.5s0,0,0,0c0,0,0,0,0,0Z"/>
    <path class="cls-15" d="M5.4,24.6s0,0,0,0c0,0,0,0,0,0Z"/>
    <path class="cls-15" d="M5.3,24.7s0,0,0,0c0,0,0,0,0,0Z"/>
    <path class="cls-15" d="M4.4,25.1s0,0,0,0c0,0,0,0,0,0Z"/>
    <path class="cls-15" d="M5,25.1s0,0,0,0c0,0,0,0,0,0Z"/>
    <path class="cls-11" d="M28.6,25.3s0,0,0,0c0,0,0,0,0,0Z"/>
    <path class="cls-8" d="M7.1,37.2s0,0,0,0c0,0,0,0,0,0,0,0,0,0,0,0,0,0,0,0,0,0Z"/>
    <path class="cls-15" d="M4.9,25.2s0,0,0,0c0,0,0,0,0,0Z"/>
    <path class="cls-8" d="M7.5,37.7s0,0,0,0c0,0,0,0,0,0Z"/>
    <path class="cls-9" d="M28.5,13.6s0,0,0,0c0,0,0,0,0,0Z"/>
    <path class="cls-12" d="M28,37.8s0,0,0,0c0,0,0,0,0,0Z"/>
    <path class="cls-15" d="M4.2,25.3s0,0,0,0c0,0,0,0,0,0Z"/>
    <path class="cls-15" d="M4.1,25.5s0,0,0,0c0,0,0,0,0,0Z"/>
    <path class="cls-12" d="M28.7,40.2s0,0,0,0c0,0,0,0,0,0,0,0,0,0,0,0Z"/>
    <path class="cls-12" d="M27.5,40.1s0,0,0,0c0,0,0,0,0,0Z"/>
    <path class="cls-15" d="M4.8,25.4s0,0,0,0c0,0,0,0,0,0Z"/>
    <path class="cls-15" d="M28.3,40.3s0,0-.1,0c0,0,0,0,.1,0,0,0,0,0,0,0Z"/>
    <path class="cls-12" d="M27.4,40.4s0,0,0,0c0,0,0,0,0,0Z"/>
    <path class="cls-29" d="M8.4,12.4s0,0,0,0c0,0,0,0,0,0,0,0,0,0,0,0Z"/>
    <path class="cls-12" d="M9.9,11.2s0,0,0,0c0,0,0,0,0,0Z"/>
    <path class="cls-27" d="M36.9,19.2s0,0,0,0c0,0,0,0,0,.1h0s0,0,0,0c0,0,0,0,0-.1Z"/>
    <path class="cls-29" d="M8.4,12.5s0,0,0,0c0,0,0,0,0,0Z"/>
    <path class="cls-15" d="M5.3,15.5s0,0,0,0c0,0,0,0,0,0,0,0,0,0,0,0,0,0,0,0,0,0Z"/>
    <path class="cls-15" d="M5.5,15.2s0,0,0,0c0,0,0,0,0,0Z"/>
    <path class="cls-4" d="M18.8,33s0,0,0,0h0s0,0,0,0c0,0,0,0,0,0Z"/>
    <path class="cls-15" d="M5.1,15.6s0,0,0,0c0,0,0,0,0,0Z"/>
    <path class="cls-15" d="M5.1,15.6s0,0,0,0c0,0,0,0,0,0Z"/>
    <path class="cls-4" d="M6.6,36.8s0,0,0,0c0,0,0,0,0,0,0,0,0,0,0,0,0,0,0,0,0,0Z"/>
    <path class="cls-12" d="M9.9,11.1s0,0,0,0c0,0,0,0,0,0,0,0,0,0,0,0Z"/>
    <path class="cls-14" d="M24.4,5s0,0,0,0c0,0,0,0,0,0,0,0,0,0,0,0,0,0,0,0,0,0Z"/>
    <path class="cls-15" d="M4.3,16.3s0,0,0,0c0,0,0,0,0,0,0,0,0,0,0,0,0,0,0,0,0,0Z"/>
    <path class="cls-29" d="M8.2,12.6s0,0,0,0c0,0,0,0,0,0Z"/>
    <path class="cls-14" d="M24.5,4.9s0,0,0,0c0,0,0,0,0,0,0,0,0,0,0,0,0,0,0,0,0,0Z"/>
    <path class="cls-14" d="M25.2,4.3s0,0,0,0c0,0,0,0,0,0,0,0,0,0,0,0,0,0,0,0,0,0Z"/>
    <path class="cls-29" d="M8.4,12.4s0,0,0,0c0,0,0,0,0,0Z"/>
    <path class="cls-15" d="M4.4,16.3s0,0,0,0c0,0,0,0,0,0,0,0,0,0,0,0Z"/>
    <path class="cls-15" d="M4.6,16.1s0,0,0,0c0,0,0,0,0,0,0,0,0,0,0,0Z"/>
    <path class="cls-12" d="M9.6,11.4s0,0,0,0c0,0,0,0,0,0Z"/>
    <path class="cls-8" d="M18.5,32.4s0,0,0,0c0,0,0,0,0,0Z"/>
    <path class="cls-12" d="M28.6,40.2s0,0,0,0c0,0,0,0,0,0Z"/>
    <path class="cls-15" d="M3,26.7s0,0,0,0c0,0,0,0,0,0Z"/>
    <path class="cls-29" d="M5.3,15.5s0,0,0,0c0,0,0,0,.1,0,0,0,0,0-.1,0Z"/>
    <path class="cls-15" d="M5.7,15.1s0,0,0,0c0,0,0,0,0,0Z"/>
    <path class="cls-28" d="M11,22.9s0,0,0,0c0,0,0,0,0,0Z"/>
    <path class="cls-28" d="M39.2,14.8s0,0,0,.1c0,0,0,0,0-.1Z"/>
    <path class="cls-20" d="M36.9,19.3s0,0,0-.1c0,0,0,0,0,0,0,0,0,0,0,.1,0,0,0,0,0,0Z"/>
    <path class="cls-28" d="M39.4,15.5s0,0,0,0c0,0,0,0,0,0,0,0,0,0,0,0Z"/>
    <path class="cls-1" d="M37.2,18s0,0,0,0c0,0,0,0,0,0Z"/>
    <path class="cls-23" d="M6.7,28.1c0-.2-.1-.3-.2-.5,0,0,0-.2,0-.3.4-.5.9-1,1.3-1.5.4-.5.8-1,1.2-1.4.2-.3.5-.5.8-.8.1-.1.2-.1.3,0,0,0,0,0,0,0,0,.1,0,.2.2.3.4.5.8,1.1,1.2,1.6.6.8,1.1,1.6,1.9,2.2.5.4,1,.7,1.6,1,.4.2.9.3,1.3.4.7.2,1.4.4,2.1.7.5.3,1,.6,1.4,1,.1,0,0,.1,0,.2-.4.1-.8.3-1.2.4,0,0-.1,0-.2,0-.2-.2-.5-.2-.6,0,0,.2-.1.3,0,.5.2.9.6,1.8,1.1,2.6.5.8,1,1.5,1.6,2.2.3.3.6.6.8.9.2.2.3.4.4.7.2.5-.2.9-.7.9-.5,0-.8-.2-1.2-.5-.5-.4-.8-1-1.1-1.5-.1-.2-.2-.4-.4-.6,0,0-.1-.2-.2-.2-.1,0-.3,0-.4,0-.1.1-.2.3-.1.4.2.8.6,1.3,1.2,1.9.2.2.5.5.7.7,0,.1.2.2.2.4,0,0,0,.1,0,.1-.2.4-.5.5-.9.3-.4-.2-.8-.5-1.2-.8-.4-.4-.8-.8-1.2-1.2-.2-.2-.3-.3-.6-.3-.1,0-.2,0-.2.2,0,.2.1.4.2.5.1.2.3.4.5.5.2.2.5.5.7.7,0,.1.2.2.2.4,0,.2,0,.3-.2.3-.3.2-.5.2-.8,0-.3-.2-.6-.5-.8-.8-.4-.4-.7-.9-1.1-1.4-.1-.2-.3-.3-.5-.4,0,0-.3,0-.4,0-.1,0-.1.2,0,.3,0,.3.3.6.5.8.3.3.5.6.8,1,.2.2.1.3-.1.3-.2,0-.3,0-.5.1-.6,0-1.1-.3-1.5-.7-.4-.5-.8-.9-1.1-1.4-.2-.3-.4-.6-.6-1-.3-.6-.7-1.2-1-1.9-.4-.8-.8-1.6-1.1-2.4-.3-.7-.6-1.3-.9-2-.2-.4-.3-.8-.5-1.2-.2-.5-.4-1-.6-1.5,0-.1,0-.3-.1-.4Z"/>
    <path class="cls-5" d="M27.8,14.6c-.2,0-.4,0-.6-.1-.3,0-.7-.2-1-.3-.4,0-.7-.2-1.1-.3-.7-.1-1.3-.3-2-.3-.5,0-1,0-1.5,0-.4,0-.9.2-1.3.3-.4,0-.8.2-1.2.3-.5.1-1,.3-1.5.4-.8.2-1.5.3-2.3.2,0,0,0,0-.1,0,.2-.3.3-.5.5-.8,0,0,0,0,.1-.1,0-.2.2-.3.4-.3.2,0,.4-.3.3-.6-.1-.3-.3-.5-.6-.7-.7-.5-1.4-.9-2.2-1.2-.5-.2-1-.4-1.5-.6-.5-.2-1-.3-1.4-.5-.4-.1-.8-.3-1-.6-.2-.2-.3-.5-.2-.8.1-.2.3-.3.6-.4.4,0,.8,0,1.2.2.6.2,1.3.5,1.9.7.1,0,.3,0,.5,0,.1,0,.3,0,.3-.2,0-.1,0-.3-.1-.4-.3-.3-.8-.5-1.2-.6-.3-.1-.6-.2-.9-.3-.3,0-.6-.1-.9-.1-.2,0-.2,0-.3-.3,0-.1,0-.3,0-.4,0-.2.3-.5.5-.6.4,0,.7,0,1.1,0,.6.2,1.2.3,1.9.5.2,0,.3,0,.5,0,.1,0,.2,0,.3-.2,0-.2,0-.3-.2-.4-.3-.2-.7-.3-1-.3-.4,0-.8-.1-1.2-.2-.2,0-.3-.1-.2-.3,0-.2.1-.3.2-.5.2-.3.6-.3.9-.3.6,0,1.1.2,1.6.4.4.1.8.2,1.2.2.2,0,.3,0,.5-.2,0-.1,0-.2,0-.3-.1,0-.2-.1-.4-.1-.5-.1-1.1-.3-1.6-.4-.2,0-.4-.1-.6-.2.3-.5.7-.8,1.2-.9.3,0,.6,0,.9,0,.6.1,1.2.3,1.7.5.6.2,1.2.5,1.7.7.5.2.9.4,1.4.7.7.4,1.4.8,2.1,1.2.6.4,1.3.8,1.9,1.2.9.5,1.8,1.1,2.6,1.6.2.1.3.2.5.4.2.1.2.3.2.5,0,.6,0,1.2,0,1.8,0,.4,0,.8,0,1.2,0,.4-.1.8-.2,1.2,0,.2,0,.4,0,.5Z"/>
    <path class="cls-21" d="M28.5,25.7s0,0,0,.1c0,0,0,.1,0,.2,0,0,0,.2,0,.3,0,0,0,.1,0,.2-.2,0-.3.2-.3.4,0,.2.1.3.3.4.3.1.7.1,1,0,0,0,0,0,.1,0,0,0,.2,0,.3,0,0,0,.2,0,.3,0,0,0,0,0,0,0,0,0,.1,0,.2,0,0,0,0,0,0,0,0,0,0,0,.1,0,0,0,.1,0,.2,0,0,0,.1,0,.2,0,0,0,0,0,0,0,.1,0,.2,0,.4,0,0,0,0,0,0,0,0,0,.1,0,.2,0,0,0,0,0,0,0,0,0,0,0,0,0,0,0,0,0,0,0,.5-.1,1-.3,1.6-.4.7-.2,1.3-.5,2-.5.3,0,.6,0,.9.2.3.3.4.7.1,1-.2.3-.6.6-1,.7-.5.2-1.1.4-1.6.6-.2,0-.5.2-.7.3-.1,0-.3.2-.2.3,0,.2.2.2.4.1.4,0,.7-.2,1-.3.6-.2,1.1-.5,1.7-.7.3-.1.5,0,.7.3.2.5.2.7-.2,1-.4.3-.9.5-1.4.8-.4.2-.8.4-1.2.6,0,0-.2.1-.2.2-.1.2,0,.3.1.3.3,0,.6,0,.8-.2,0,0,.1,0,.2,0,0,0,0,0,0,0,0,0,0,0,0,0,0,0,0,0,0,0,0,0,.1,0,.2,0,0,0,0,0,0,0,0,0,0,0,0,0,.1,0,.2,0,.3-.1,0,0,.1,0,.2,0,0,0,0,0,0,0,0,0,0,0,0,0,0,0,0,0,0,0,0,0,0,0,0,0,0,0,0,0,.1.1,0,0,0,.1,0,.2,0,0,0,0,0,0,0,0,0,.1,0,.2,0,0,0,0,0,.1,0,0,0,.2,0,.3,0,0,0,0,0,0-.1,0-.2.2-.3.3,0,0,0,0,0,0,0,0,0,0,0,0,0,0,0,0-.1,0,0,0,0,0,0,0,0,0-.2,0-.2.1,0,0,0,0-.1,0,0,0-.2,0-.3.1,0,0-.2,0-.3.1,0,0-.1,0-.2,0,0,0-.2,0-.3.1,0,0-.1,0-.2,0,0,0,0,0,0,0,0,0,0,0,0,0,0,0-.1,0-.2,0,0,0,0,0,0,0,0,0,0,0,0,0-.2.1-.3.2-.5.3,0,0-.2.1-.2.2,0,0,0,.2,0,.3,0,0,.2,0,.3,0,.5-.1.9-.4,1.4-.7.2,0,.4-.2.6-.2.2,0,.3,0,.3.2.1.7-.2,1.2-.8,1.5-.5.3-1,.5-1.6.6-.6.2-1.3.3-1.9.4-.5.1-1,.2-1.5.3-.3,0-.5,0-.8.1,0,0-.2,0-.3,0,0,0,0,0,0,0,0,0,0,0-.1,0,0,0,0,0-.1,0,0,0-.1,0-.2,0-.1,0-.3,0-.4,0,0,0-.2,0-.2,0,0,0,0,0,0,0,0,0,0,0-.1,0,0,0,0,0-.1,0,0,0,0,0,0,0,0,0-.1,0-.2,0,0,0,0,0,0,0,0,0-.2,0-.3,0,0,0,0,0,0,0,0,0-.2,0-.3,0,0,0,0,0,0,0,0,0-.1,0-.2,0,0,0,0,0-.1,0,0,0-.1,0-.2,0,0,0-.1,0-.2,0-.1,0-.2,0-.3,0,0,0,0,0,0,0-.2,0-.5,0-.7,0,0,0-.2,0-.3,0-.2,0-.3,0-.5,0-.5,0-1.1,0-1.6.1-.2,0-.4,0-.6,0,0,0-.1,0-.2,0-.5-.6-.9-1.2-1.4-1.8-.3-.4-.5-.7-.7-1.1,0,0,0-.1-.1-.2,0,0,0,0,0,0,0-.1-.2-.3-.2-.4,0,0,0,0,0-.1,0,0,0,0,0,0,0-.2-.2-.4-.3-.6,0-.2,0-.3.2-.3.7-.3,1.5-.6,2.2-.9,0,0,0,0,0,0,.4-.2.8-.3,1.2-.5,1.5-.7,2.7-1.8,3.7-3.2.4-.6.9-1.2,1.4-1.8.3-.3.6-.5,1-.7,0,0,0,0,0,0,0,0,0,0,0,0,0,0,0,0,0,.1,0,0,0,0,0,.1,0,.1,0,.2,0,.4Z"/>
    <path class="cls-19" d="M36.6,31.5c0,0,0-.2,0-.3,0,0,.1.2,0,.3Z"/>
    <path class="cls-8" d="M30,27.3c0,0-.2,0-.3,0,0,0,.2,0,.3,0Z"/>
    <path class="cls-19" d="M35.4,30.9c0,0-.1,0-.2,0,0,0,.1,0,.2,0Z"/>
    <path class="cls-19" d="M36.1,30.7c0,0-.1,0-.2,0,0,0,.1,0,.2,0Z"/>
    <path class="cls-19" d="M36.6,30.9c0,0,0-.1,0-.2,0,0,0,.1,0,.2Z"/>
    <path class="cls-19" d="M35,31.1c0,0-.1,0-.2,0,0,0,.1,0,.2,0Z"/>
    <path class="cls-8" d="M30.9,27.1c0,0-.1,0-.2,0,0,0,.1,0,.2,0Z"/>
    <path class="cls-19" d="M36.6,31.1c0,0,0-.1,0-.2,0,0,0,.1,0,.2Z"/>
    <path class="cls-8" d="M32.1,26.8s0,0,0,0c0,0,0,0,0,0Z"/>
    <path class="cls-8" d="M32,26.8s0,0,0,0c0,0,0,0,0,0Z"/>
    <path class="cls-8" d="M31.7,26.9s0,0,0,0c0,0,0,0,0,0Z"/>
    <path class="cls-8" d="M31.2,27s0,0,0,0c0,0,0,0,0,0Z"/>
    <path class="cls-8" d="M30.6,27.1s0,0,0,0c0,0,0,0,0,0Z"/>
    <path class="cls-8" d="M30.3,27.2s0,0,0,0c0,0,0,0,0,0Z"/>
    <path class="cls-19" d="M36.4,30.6s0,0,0,0c0,0,0,0,0,0,0,0,0,0,0,0Z"/>
    <path class="cls-19" d="M36.2,30.6s0,0,0,0c0,0,0,0,0,0Z"/>
    <path class="cls-19" d="M35.6,30.9s0,0,0,0c0,0,0,0,0,0Z"/>
    <path class="cls-19" d="M35.2,31.1s0,0,0,0c0,0,0,0,0,0Z"/>
    <path class="cls-24" d="M3.7,10.4c0,.3.2.5.3.8.2.5.3.9.5,1.4.2.4.3.8.5,1.2,0,.1,0,.2.1.3,0,.1,0,.2,0,.4-.4.3-.7.7-1,1-.5.5-.9.9-1.3,1.4-.1.2-.3.3-.4.5-.1.1-.2.1-.3,0-.3-.4-.6-.9-.9-1.3,0,0,0-.2,0-.3.1-.3.2-.5.4-.8.3-.8.7-1.6,1-2.3.3-.6.6-1.1.9-1.7.1-.2.2-.4.4-.5,0,0,0,0,0,0Z"/>
    <path class="cls-18" d="M26.6,15s0,0,0,0c0,0,.2,0,.3,0,.1,0,.2.2.2.3,0,0,0,0,0,0,0,0,0,0,0,0,0,0,0,0,0,.1,0,0,0,0,0,0,.1.1.3.1.5,0,0,0,.2-.1.3-.2,0-.2.2-.4.3-.6,0-.2,0-.3.1-.5,0-.1,0-.2,0-.3,0,0,0,0,0,0,0,0,0,0,0,0,0,0,0,0,0,0,0,0,0-.1,0-.2,0,0,0-.2,0-.3,0,0,0,0,0-.1,0,0,0,0,0-.1,0,0,0-.2,0-.3,0,0,0,0,0-.1,0-.3,0-.6,0-1,0-.3,0-.7,0-1,0-.6,0-1.1,0-1.7,0-.4,0-.9.3-1.3.1-.3.4-.4.7-.4.3,0,.5.1.7.4.2.3.2.6.2.9,0,0,0,.2,0,.2,0,0,0,.1,0,.2,0,0,0,0,0,0,0,0,0,.1,0,.2,0,.2,0,.5,0,.7,0,.1,0,.3,0,.4,0,.4,0,.8,0,1.1,0,0,0,.1.1.1,0,0,.2,0,.2,0,.1-.3.3-.5.3-.8,0-.6,0-1.3,0-1.9,0-.2,0-.4,0-.6,0,0,0-.2.1-.2.3-.2.6-.2.9,0,.3.1.4.4.4.7,0,.5,0,1,0,1.6,0,.5.1,1,.2,1.4,0,.1,0,.3.3.3.2,0,.3-.1.3-.3,0,0,0,0,0-.1,0,0,0,0,0,0,0,0,0,0,0,0,0,0,0,0,0-.1,0,0,0,0,0,0,0-.1,0-.2,0-.3,0,0,0-.2,0-.2,0-.1,0-.3,0-.4,0-.3,0-.6,0-.9,0-.2,0-.3.2-.3.5-.1,1,.2,1,.6,0,.3,0,.7,0,1,0,0,0,.1,0,.2,0,.2,0,.5,0,.7,0,0,0,0,0,.1,0,.3,0,.6,0,.9,0,0,0,0,0,.1,0,0,0,0,0,0,0,0,0,0,0,0,0,0,0,.2.1.3,0,0,.1.1.2.1,0,0,.2,0,.2-.1,0-.2,0-.4,0-.6,0-.2,0-.4,0-.6,0-.5,0-1,0-1.5,0,0,0-.1,0-.2,0,0,.1,0,.2,0,0,0,0,0,0,0,.6,0,.8.5,1,1,0,0,0,.2,0,.3,0,0,0,.1,0,.2,0,.7,0,1.3,0,2,0,.1,0,.2,0,.4,0,0,0,.1,0,.2,0,.2,0,.5,0,.7,0,.7-.1,1.4-.2,2.1,0,.5-.2,1.1-.3,1.6,0,.4-.2.8-.3,1.2,0,.4-.2.8-.3,1.2-.1.5-.2,1-.3,1.5,0,0,0,0,0,0,0,0,0,0,0,0,0,0,0,0,0,0,0,0,0,0,0,0,0,0,0,0,0,0,0,0,0,0,0,.1,0,0,0,0,0,0,0,0,0,0,0,.1,0,0,0,0,0,.1,0,0,0,0,0,0,0,0,0,0,0,0,0,0,0,0,0,.1,0,.2,0,.3-.1.5,0,0,0,0,0,.1,0,0,0,0,0,0,0,0,0,0,0,.1,0,0,0,.2,0,.3,0,0,0,0,0,0,0,0,0,0,0,0,0,0,0,0,0,.1,0,.2-.2.3-.4.3-.7.2-1.5.5-2.2.7-.4.1-.8.2-1.2.3,0,0,0,0-.1,0,0,0-.1,0-.2,0-.1,0-.3,0-.4,0-.3,0-.6,0-.9.1,0,0,0,0-.1,0,0,0,0,0-.1,0,0,0-.1,0-.2,0-.1,0,0-.2,0-.3,0,0,0,0,0,0,0,0,0,0,0,0,0-.1,0-.2,0-.4,0,0,0-.1,0-.2,0,0,0,0,0-.1,0-.3,0-.6,0-.8,0-.2,0-.4,0-.6,0,0,0-.1,0-.2,0-.4,0-.7,0-1.1,0,0,0,0,0-.1,0-.1,0-.2,0-.3,0-.2,0-.3,0-.5,0,0,0,0,0,0,0-.1,0-.2,0-.3,0,0,0,0,0-.1,0,0,0,0,0,0,0-.4-.2-.8-.4-1.2-.3-.7-.8-1.4-1.3-2-.4-.6-.8-1.2-1.1-1.7-.1-.2-.2-.5-.3-.7,0,0,0,0,0,0,0,0,0,0,0,0,0-.2,0-.4,0-.6,0-.1,0-.1.1-.1.2,0,.4,0,.7.1Z"/>
    <path class="cls-9" d="M29.1,24.9c0,.3,0,.6,0,.8,0,0,0,0,0,.1,0-.3,0-.6,0-.8,0,0,0,0,0-.1Z"/>
    <path class="cls-9" d="M29.1,22.1c0,.2,0,.3,0,.5,0-.2,0-.3,0-.5Z"/>
    <path class="cls-9" d="M29.1,26c0,.1,0,.2,0,.4,0-.1,0-.2,0-.4Z"/>
    <path class="cls-9" d="M29,21.7c0,.1,0,.2,0,.3,0-.1,0-.2,0-.3Z"/>
    <path class="cls-9" d="M29.1,26.8c0,0,.1,0,.2,0,0,0-.1,0-.2,0Z"/>
    <path class="cls-9" d="M29.1,24.1c0,0,0,.1,0,.2,0,0,0-.1,0-.2Z"/>
    <path class="cls-9" d="M29.1,22.9s0,0,0,.1c0,0,0,0,0-.1Z"/>
    <path class="cls-9" d="M29,26.4s0,0,0,0c0,0,0,0,0,0Z"/>
    <path class="cls-9" d="M29,21.5s0,0,0,0c0,0,0,0,0,0Z"/>
    <path class="cls-15" d="M25.8,15.7s0,0,0,0c0,0,0,0,0,0Z"/>
    <path class="cls-15" d="M35,24.3c0-.2,0-.3.1-.5,0,.2,0,.4-.1.5Z"/>
    <path class="cls-15" d="M35.2,23.5s0,0,0-.1c0,0,0,0,0,.1Z"/>
    <path class="cls-15" d="M35.4,22.8s0,0,0,0c0,0,0,0,0,0Z"/>
    <path class="cls-15" d="M35.3,22.9s0,0,0,0c0,0,0,0,0,0Z"/>
    <path class="cls-15" d="M35.3,23.1s0,0,0,0c0,0,0,0,0,0Z"/>
    <path class="cls-15" d="M35.3,23.3s0,0,0,0c0,0,0,0,0,0Z"/>
    <path class="cls-15" d="M35.1,23.7s0,0,0,0c0,0,0,0,0,0Z"/>
    <path class="cls-15" d="M35,24.5s0,0,0,0c0,0,0,0,0,0Z"/>
    <path class="cls-11" d="M28.4,25.1s0,0,0,0c0,0,0,0,0,0Z"/>
    <path class="cls-7" d="M6.6,36.7s0,0,0,0c-.2-.2-.4-.4-.5-.5,0,0,0,0-.1-.1,0,0,0,0,0,0,0,0-.1-.2-.2-.2,0,0,0,0,0-.2.2,0,.3,0,.5,0,.2,0,.4,0,.7,0,0,0,.2,0,.3,0,0,0,0,0,0,0,0,0,0,0,0,0,.6,0,1.2-.1,1.9-.2,0,0,0,0,0,0,0,0,0,0,0,0,.1.4.3.7.4,1.1.5,1.1,1.1,2,1.9,2.9,0,0,0,.1.1.2,0,0,0,.1,0,.2-.1,0-.3.2-.4.3,0,0-.2,0-.3,0-.6-.3-1.2-.7-1.8-1.1-.6-.5-1.1-.9-1.7-1.4,0,0,0,0-.1-.1,0,0,0,0,0,0,0,0,0,0-.1-.1,0,0,0,0,0,0,0,0-.2-.2-.3-.3Z"/>
    <path class="cls-16" d="M33.8,10.7c0,0,0,.2,0,.2,0,0,0-.2,0-.2Z"/>
    <path class="cls-16" d="M33.8,11.6s0,0,0,.1c0,0,0,0,0-.1Z"/>
    <path class="cls-16" d="M33.8,11.3s0,0,0,0c0,0,0,0,0,0Z"/>
    <path class="cls-16" d="M33.8,11.5s0,0,0,0c0,0,0,0,0,0Z"/>
    <path class="cls-4" d="M29.1,36.1c0,0,.2,0,.3,0,0,0-.2,0-.3,0Z"/>
    <path class="cls-4" d="M28.9,36.1s0,0,.1,0c0,0,0,0-.1,0Z"/>
    <path class="cls-9" d="M28.5,14.4c0,.2,0,.3-.1.5,0-.2,0-.3.1-.5Z"/>
    <path class="cls-9" d="M28.7,13.5c0,0,0,.2,0,.3,0,0,0-.2,0-.3Z"/>
    <path class="cls-9" d="M28.7,12.9s0,0,0,.1c0,0,0,0,0-.1Z"/>
    <path class="cls-9" d="M28.7,13.2s0,0,0,.1c0,0,0,0,0-.1Z"/>
    <path class="cls-9" d="M28.6,14s0,0,0,0c0,0,0,0,0,0Z"/>
    <path class="cls-9" d="M28.6,13.9s0,0,0,0c0,0,0,0,0,0Z"/>
    <path class="cls-10" d="M25.2,4.2s0,0,0,0c0,0,0,0-.1.1,0,0-.1.1-.2.2,0,0,0,0-.1.1,0,0,0,0,0,0,0,0,0,0-.1.1,0,0,0,0,0,0,0,0,0,0,0,0,0,0,0,0,0,0,0,0-.1.1-.2.2,0,0,0,0,0,0,0,0,0,0,0,0-.1.1-.3.3-.4.4,0,0-.2.1-.3,0-.8-.6-1.7-1.1-2.6-1.4-.6-.2-1.1-.4-1.7-.6-.2,0-.3-.1-.5-.2.2-.2.3-.4.5-.6.3-.4.6-.7.9-1,0,0,.1,0,.2,0,.2,0,.4,0,.6,0,.2,0,.4,0,.7,0,0,0,0,0,.1,0,0,0,.2,0,.3,0,0,0,0,0,.1,0,0,0,0,0,0,0,.1,0,.2,0,.3,0,0,0,0,0,.1,0,.1,0,.2,0,.3,0,0,0,.1,0,.2,0,0,0,0,0,.1,0,0,0,.2,0,.3,0,0,0,.2,0,.2,0,0,0,0,0,.1,0,0,0,0,0,.1,0,0,0,0,0,0,0,.3,0,.6.1.9.2.7.2,1.3.3,2,.6,0,0,0,0,0,0-.2.1-.3.3-.5.4,0,0-.2.2-.3.2-.1,0-.2.2-.3.3,0,0-.2.2-.3.2,0,0-.1.1-.2.2Z"/>
    <path class="cls-19" d="M34.6,32.6c0,0,.2,0,.3-.1,0,0-.2,0-.3.1Z"/>
    <path class="cls-19" d="M35.1,32.4c0,0,.2,0,.3-.1,0,0-.2,0-.3.1Z"/>
    <path class="cls-19" d="M34.2,32.8c0,0,.1,0,.2,0,0,0-.1,0-.2,0Z"/>
    <path class="cls-19" d="M35.6,32.2s0,0,.1,0c0,0,0,0-.1,0Z"/>
    <path class="cls-19" d="M36.2,31.9s0,0,0,0c0,0,0,0,0,0Z"/>
    <path class="cls-19" d="M36,32s0,0,0,0c0,0,0,0,0,0Z"/>
    <path class="cls-19" d="M34.4,32.7s0,0,0,0c0,0,0,0,0,0Z"/>
    <path class="cls-19" d="M34,32.9s0,0,0,0c0,0,0,0,0,0Z"/>
    <path class="cls-8" d="M19,33.1s0,0,0,.1c0,0,0,0,0-.1Z"/>
    <path class="cls-8" d="M19.3,33.6s0,0,0,0c0,0,0,0,0,0Z"/>
    <path class="cls-9" d="M30.9,26.6s0,0,.1,0c0,0,0,0-.1,0Z"/>
    <path class="cls-16" d="M35.1,13s0,0,0,0c0,0,0,0,0,0Z"/>
    <path class="cls-3" d="M37,14.2c0-.1,0-.2,0-.4,0,.1,0,.2,0,.4Z"/>
    <path class="cls-3" d="M37,11.9c0,0,0-.1,0-.2,0,0,0,.1,0,.2Z"/>
    <path class="cls-8" d="M24.5,36.7c0,0,.2,0,.3,0,0,0-.2,0-.3,0Z"/>
    <path class="cls-4" d="M25.9,36.5c0,0,.1,0,.2,0,0,0-.1,0-.2,0Z"/>
    <path class="cls-8" d="M25.5,36.6s0,0,0,0c0,0,0,0,0,0Z"/>
    <path class="cls-9" d="M35.9,10.4s0,0,0,0c0,0,0,0,0,0Z"/>
    <path class="cls-8" d="M7.2,35.3s0,0,0,0h0Z"/>
    <path class="cls-4" d="M28,36.2c0,0,.2,0,.2,0,0,0-.2,0-.2,0Z"/>
    <path class="cls-4" d="M27.8,36.2s0,0,.1,0c0,0,0,0-.1,0Z"/>
    <path class="cls-4" d="M27.6,36.3s0,0,0,0c0,0,0,0,0,0Z"/>
    <path class="cls-4" d="M27.3,36.3s0,0,0,0c0,0,0,0,0,0Z"/>
    <path class="cls-4" d="M26.9,36.4s0,0,0,0c0,0,0,0,0,0Z"/>
    <path class="cls-4" d="M26.6,36.4s0,0,0,0c0,0,0,0,0,0Z"/>
    <path class="cls-14" d="M22.3,1.8c-.1,0-.2,0-.3,0,.1,0,.2,0,.3,0Z"/>
    <path class="cls-14" d="M21.5,1.7s0,0-.1,0c0,0,0,0,.1,0Z"/>
    <path class="cls-14" d="M21.9,1.7s0,0-.1,0c0,0,0,0,.1,0Z"/>
    <path class="cls-9" d="M27.8,15.7c-.2.1-.3,0-.5,0,.2,0,.3,0,.5,0Z"/>
    <path class="cls-9" d="M26.9,15.1c0,0-.2,0-.3,0,0,0,.2,0,.3,0,0,0,0,0,0,0Z"/>
    <path class="cls-9" d="M27.2,15.6s0,0,0-.1c0,0,0,0,0,.1Z"/>
    <path class="cls-9" d="M27.2,15.5s0,0,0,0c0,0,0,0,0,0Z"/>
    <path class="cls-14" d="M23.6,1.9c0,0-.2,0-.2,0,0,0,.2,0,.2,0Z"/>
    <path class="cls-14" d="M23.1,1.9s0,0-.1,0c0,0,0,0,.1,0Z"/>
    <path class="cls-14" d="M23.8,2s0,0-.1,0c0,0,0,0,.1,0Z"/>
    <path class="cls-31" d="M35.1,11.9s0,0,0,0c0,0,0,0,0,0,0,0,0,0,0,0Z"/>
    <path class="cls-1" d="M30.8,10.1c0-.2,0-.5,0-.7,0,.2,0,.5,0,.7Z"/>
    <path class="cls-1" d="M30.9,9.2s0,0,0,0c0,0,0,0,0,0,0,0,0,0,0,0,0,0,0,0,0,0Z"/>
    <path class="cls-31" d="M28.5,26c0,0,0-.1,0-.2,0,0,0,0,0,0,0,0,0,.1,0,.2Z"/>
    <path class="cls-11" d="M28.5,25.4s0,0,0-.1c0,0,0,0,0,.1Z"/>
    <path class="cls-20" d="M22.6,1.8s0,0,0,0c0,0,0,0,0,0,0,0,0,0,0,0Z"/>
    <path class="cls-12" d="M34.9,25s0,0,0,0c0,0,0,0,0,0Z"/>
    <path class="cls-15" d="M24.1,5.1s0,0,0,0c0,0,0,0,0,0Z"/>
  </g>
</svg>