<svg id="Group_118" data-name="Group 118" xmlns="http://www.w3.org/2000/svg" xmlns:xlink="http://www.w3.org/1999/xlink" width="175.757" height="41.272" viewBox="0 0 175.757 41.272">
  <defs>
    <clipPath id="clip-path">
      <rect id="Rectangle_105" data-name="Rectangle 105" width="175.757" height="41.272" fill="none"/>
    </clipPath>
  </defs>
  <g id="Group_89" data-name="Group 89" clip-path="url(#clip-path)">
    <path id="Path_40" data-name="Path 40" d="M171.166,22.487a3.986,3.986,0,0,0-1.013-2.282,2.86,2.86,0,0,0-2.054-.785,3.1,3.1,0,0,0-1.661.438,3.661,3.661,0,0,0-1.178,1.168,5.5,5.5,0,0,0-.694,1.661,8.584,8.584,0,0,0,.219,4.7,4.289,4.289,0,0,0,1.305,1.908,3.2,3.2,0,0,0,2.081.694,4.872,4.872,0,0,0,2.282-.593,5.435,5.435,0,0,0,1.9-1.652l.876.8a7.193,7.193,0,0,1-1.88,1.853,6.226,6.226,0,0,1-1.926.849,7.517,7.517,0,0,1-1.689.219,6.323,6.323,0,0,1-2.556-.5A5.934,5.934,0,0,1,163.2,29.58a6.189,6.189,0,0,1-1.278-2.063,7.113,7.113,0,0,1-.448-2.547,7.854,7.854,0,0,1,.4-2.465,7.052,7.052,0,0,1,1.2-2.218,5.791,5.791,0,0,1,2-1.588,6.248,6.248,0,0,1,2.793-.594,6.049,6.049,0,0,1,1.561.228,6.476,6.476,0,0,1,1.6.666l-.073-.767h1.406v4.254Z" transform="translate(-103.939 -11.655)" fill="#360c25"/>
    <path id="Path_41" data-name="Path 41" d="M201.711,28.7a1.105,1.105,0,0,0,.739-.2.948.948,0,0,0,.292-.575,5.093,5.093,0,0,0,.064-.849l-.018-2.592a3.609,3.609,0,0,0-.365-1.762,1.2,1.2,0,0,0-1.113-.575,2.185,2.185,0,0,0-.9.2,2.984,2.984,0,0,0-.758.475v4.126q0,.256-.018.721t-.055.885q.31-.036.657-.046t.529-.009v1.388h-4.783V28.7a1.105,1.105,0,0,0,.739-.2.908.908,0,0,0,.283-.575,5.868,5.868,0,0,0,.055-.849v-7.5q0-.329.018-.758t.055-.831q-.292.019-.685.027c-.262.006-.459.015-.593.027V16.656a9.371,9.371,0,0,0,1.433-.091,4.773,4.773,0,0,0,.913-.219,1.68,1.68,0,0,0,.466-.237h.986v5.386a4.395,4.395,0,0,1,.84-.521,5.861,5.861,0,0,1,.968-.365,3.271,3.271,0,0,1,.858-.137,2.76,2.76,0,0,1,2.382.958,5.277,5.277,0,0,1,.7,3.076v2.446q0,.256-.018.721t-.055.885q.292-.036.639-.046t.548-.009v1.388h-4.8Z" transform="translate(-126.068 -10.369)" fill="#360c25"/>
    <path id="Path_42" data-name="Path 42" d="M233.559,37.774q-.037-.255-.046-.429c-.006-.115-.015-.252-.027-.41a3.664,3.664,0,0,1-1.315.876,4.038,4.038,0,0,1-1.406.255,2.393,2.393,0,0,1-1.825-.694,2.422,2.422,0,0,1-.657-1.734,2.49,2.49,0,0,1,.447-1.5,3.393,3.393,0,0,1,1.187-1.013,6.746,6.746,0,0,1,1.643-.6,9.774,9.774,0,0,1,1.816-.247V31.33a2.9,2.9,0,0,0-.119-.858,1.181,1.181,0,0,0-.4-.6,1.2,1.2,0,0,0-.794-.2,2.176,2.176,0,0,0-.676.146,1.629,1.629,0,0,0-.566.365.742.742,0,0,1,.182.356,1.816,1.816,0,0,1,.037.338,1.28,1.28,0,0,1-.292.758,1.044,1.044,0,0,1-.931.374,1.061,1.061,0,0,1-.84-.383,1.331,1.331,0,0,1-.292-.858,1.767,1.767,0,0,1,.52-1.269,3.474,3.474,0,0,1,1.4-.84,5.918,5.918,0,0,1,1.935-.3,3.5,3.5,0,0,1,2.492.831,3.5,3.5,0,0,1,.885,2.656V32.9q0,.438-.009.877c-.006.292-.009.645-.009,1.059q0,.256-.018.721t-.055.885q.31-.036.657-.046t.529-.009v1.387Zm-.2-4.2a5.91,5.91,0,0,0-.968.183,2.866,2.866,0,0,0-.794.347,1.683,1.683,0,0,0-.529.529,1.293,1.293,0,0,0-.192.694.871.871,0,0,0,.329.73,1.2,1.2,0,0,0,.712.219,1.728,1.728,0,0,0,.785-.182,2.519,2.519,0,0,0,.657-.475V33.575Z" transform="translate(-146.945 -18.251)" fill="#360c25"/>
    <path id="Path_43" data-name="Path 43" d="M255.463,37.774V36.587a1.07,1.07,0,0,0,.73-.2.976.976,0,0,0,.283-.575,5.1,5.1,0,0,0,.064-.849V31.9q0-.329.018-.739t.055-.813q-.292.019-.685.028c-.262.006-.459.015-.593.027V29.011a9.363,9.363,0,0,0,1.424-.092,4.774,4.774,0,0,0,.922-.219,1.655,1.655,0,0,0,.466-.238h.894a2.539,2.539,0,0,1,.037.347c0,.073,0,.143.009.21a3.391,3.391,0,0,0,.064.356,4.363,4.363,0,0,1,.84-.52,6.045,6.045,0,0,1,.949-.365,3.078,3.078,0,0,1,.84-.137,2.76,2.76,0,0,1,2.382.958,5.274,5.274,0,0,1,.7,3.076v2.446q0,.256-.019.721t-.054.885q.31-.036.657-.046t.529-.009v1.387H261.2V36.587a1.109,1.109,0,0,0,.74-.2.951.951,0,0,0,.292-.575,5.054,5.054,0,0,0,.064-.849l-.019-2.592a3.581,3.581,0,0,0-.337-1.762,1.216,1.216,0,0,0-1.141-.575,2.192,2.192,0,0,0-.9.2,2.972,2.972,0,0,0-.757.475v4.126q0,.256-.019.721t-.055.885q.292-.036.648-.046t.538-.009v1.387Z" transform="translate(-164.358 -18.251)" fill="#360c25"/>
    <path id="Path_44" data-name="Path 44" d="M291.776,39.752a7.362,7.362,0,0,1-2.483-.338,2.644,2.644,0,0,1-1.3-.885,2,2,0,0,1-.383-1.168,1.928,1.928,0,0,1,.164-.766,2.265,2.265,0,0,1,.538-.74,2.914,2.914,0,0,1,1.031-.593,1.75,1.75,0,0,1-1.05-.648,1.683,1.683,0,0,1-.3-.958,2.025,2.025,0,0,1,.384-1.068,2.426,2.426,0,0,1,1.387-.9,2.911,2.911,0,0,1-1.26-.968,2.758,2.758,0,0,1-.529-1.588,3.152,3.152,0,0,1,.548-1.944,4,4,0,0,1,1.534-1.324,4.4,4.4,0,0,1,1.99-.475,5.517,5.517,0,0,1,1.1.128,2.956,2.956,0,0,1,1.077.438,5.272,5.272,0,0,1,.52-1.068,2.87,2.87,0,0,1,.776-.821,1.74,1.74,0,0,1,1.022-.32,1.275,1.275,0,0,1,.94.32,1.148,1.148,0,0,1,.319.849,1.382,1.382,0,0,1-.1.484.985.985,0,0,1-.347.447,1.128,1.128,0,0,1-.684.183.9.9,0,0,1-.548-.21.813.813,0,0,1-.329-.5.971.971,0,0,0-.475.475,1.877,1.877,0,0,0-.274.712,3.06,3.06,0,0,1,.8,1.059,3.229,3.229,0,0,1-.319,3.167A4.144,4.144,0,0,1,293.994,32a4.482,4.482,0,0,1-2.017.466q-.237,0-.529-.027t-.566-.027a1.422,1.422,0,0,0-.676.146.445.445,0,0,0-.274.4q0,.347.529.474a11.511,11.511,0,0,0,1.808.2,11.892,11.892,0,0,1,2.455.356,3.487,3.487,0,0,1,1.634.885,2.286,2.286,0,0,1,.584,1.661,2.2,2.2,0,0,1-.456,1.378,3.772,3.772,0,0,1-1.214,1,6.573,6.573,0,0,1-1.67.621,8.118,8.118,0,0,1-1.826.21m.529-1.26a3.372,3.372,0,0,0,1.962-.475,1.286,1.286,0,0,0,.666-.986.787.787,0,0,0-.292-.63,2.171,2.171,0,0,0-.867-.393,7.32,7.32,0,0,0-1.47-.182q-.4-.037-.931-.055a6.588,6.588,0,0,1-.931-.091,1.437,1.437,0,0,0-.42.548,1.821,1.821,0,0,0-.164.639,1.277,1.277,0,0,0,.63,1.178,3.224,3.224,0,0,0,1.816.447m-.255-7.248a1.181,1.181,0,0,0,.831-.31,1.955,1.955,0,0,0,.511-.785,2.8,2.8,0,0,0,.173-.968,4.588,4.588,0,0,0-.165-1.232,2.361,2.361,0,0,0-.5-.968,1.118,1.118,0,0,0-.867-.374,1.259,1.259,0,0,0-1.132.657,2.81,2.81,0,0,0-.4,1.5,3.983,3.983,0,0,0,.182,1.214,2.231,2.231,0,0,0,.529.922,1.144,1.144,0,0,0,.84.347" transform="translate(-185.136 -15.283)" fill="#360c25"/>
    <path id="Path_45" data-name="Path 45" d="M320.457,38.066a4.605,4.605,0,0,1-2.355-.594,4.063,4.063,0,0,1-1.588-1.679,5.479,5.479,0,0,1-.566-2.565,5.2,5.2,0,0,1,.566-2.392,4.651,4.651,0,0,1,1.6-1.8,4.24,4.24,0,0,1,2.4-.684,5.4,5.4,0,0,1,1.5.21,3.488,3.488,0,0,1,1.323.721,3.554,3.554,0,0,1,.949,1.387,5.636,5.636,0,0,1,.338,2.191l-5.988.11a5.9,5.9,0,0,0,.246,1.771,2.513,2.513,0,0,0,.813,1.241,2.342,2.342,0,0,0,1.515.456,3.179,3.179,0,0,0,.831-.128,3.613,3.613,0,0,0,.95-.429,3.741,3.741,0,0,0,.9-.812l.821.767a5.258,5.258,0,0,1-1.406,1.415,4.578,4.578,0,0,1-1.488.648,6.294,6.294,0,0,1-1.36.165m-1.716-6.371H322.1a3.364,3.364,0,0,0-.21-1.214,1.352,1.352,0,0,0-.521-.648,1.443,1.443,0,0,0-.767-.2,1.519,1.519,0,0,0-1.26.575,3.15,3.15,0,0,0-.6,1.488" transform="translate(-203.374 -18.251)" fill="#360c25"/>
    <path id="Path_46" data-name="Path 46" d="M343.794,37.774V36.587a1.07,1.07,0,0,0,.73-.2.977.977,0,0,0,.283-.575,5.1,5.1,0,0,0,.064-.849V31.9q0-.329.018-.739t.055-.813q-.292.019-.685.028c-.262.006-.459.015-.593.027V29.011a9.362,9.362,0,0,0,1.424-.092,4.772,4.772,0,0,0,.922-.219,1.655,1.655,0,0,0,.466-.238h.894a2.9,2.9,0,0,1,.046.457q.009.274.027.456a5.292,5.292,0,0,1,1.342-.749,3.839,3.839,0,0,1,1.36-.274,2.858,2.858,0,0,1,1.387.3,2.2,2.2,0,0,1,.877.9,5.59,5.59,0,0,1,1.451-.877,3.974,3.974,0,0,1,1.524-.329,2.843,2.843,0,0,1,2.237.849,4.448,4.448,0,0,1,.758,2.948v2.684q0,.256-.018.721t-.055.885q.292-.036.648-.046t.538-.009v1.387h-4.618V36.587a.813.813,0,0,0,.611-.2,1.025,1.025,0,0,0,.247-.575,5.925,5.925,0,0,0,.055-.849V32.169a2.741,2.741,0,0,0-.393-1.643,1.277,1.277,0,0,0-1-.475,1.974,1.974,0,0,0-.885.165,3.556,3.556,0,0,0-.739.438,5.055,5.055,0,0,1,.128.8q.036.438.037.931v2.446q0,.256-.019.721t-.055.885q.291-.036.639-.046t.548-.009v1.387h-4.71V36.587a.813.813,0,0,0,.949-.776,5.872,5.872,0,0,0,.055-.849l-.018-2.848a2.741,2.741,0,0,0-.347-1.625,1.213,1.213,0,0,0-.967-.456,1.84,1.84,0,0,0-.849.2,3.372,3.372,0,0,0-.7.475v4.126q0,.256-.019.721t-.055.885q.292-.036.6-.046t.493-.009v1.387Z" transform="translate(-221.216 -18.251)" fill="#360c25"/>
    <path id="Path_47" data-name="Path 47" d="M395.159,38.066a4.605,4.605,0,0,1-2.355-.594,4.063,4.063,0,0,1-1.588-1.679,5.479,5.479,0,0,1-.566-2.565,5.2,5.2,0,0,1,.566-2.392,4.65,4.65,0,0,1,1.6-1.8,4.24,4.24,0,0,1,2.4-.684,5.4,5.4,0,0,1,1.5.21,3.488,3.488,0,0,1,1.323.721,3.555,3.555,0,0,1,.949,1.387,5.634,5.634,0,0,1,.338,2.191l-5.988.11a5.906,5.906,0,0,0,.246,1.771,2.513,2.513,0,0,0,.813,1.241,2.342,2.342,0,0,0,1.515.456,3.179,3.179,0,0,0,.831-.128,3.612,3.612,0,0,0,.95-.429,3.741,3.741,0,0,0,.9-.812l.821.767a5.259,5.259,0,0,1-1.406,1.415,4.578,4.578,0,0,1-1.488.648,6.294,6.294,0,0,1-1.36.165m-1.716-6.371H396.8a3.365,3.365,0,0,0-.21-1.214,1.352,1.352,0,0,0-.521-.648,1.444,1.444,0,0,0-.767-.2,1.519,1.519,0,0,0-1.26.575,3.15,3.15,0,0,0-.6,1.488" transform="translate(-251.459 -18.251)" fill="#360c25"/>
    <path id="Path_48" data-name="Path 48" d="M418.5,37.774V36.587a1.07,1.07,0,0,0,.73-.2.977.977,0,0,0,.283-.575,5.1,5.1,0,0,0,.064-.849V31.9q0-.329.018-.739t.055-.813q-.292.019-.685.028c-.262.006-.459.015-.593.027V29.011a9.361,9.361,0,0,0,1.424-.092,4.773,4.773,0,0,0,.922-.219,1.655,1.655,0,0,0,.466-.238h.894a2.543,2.543,0,0,1,.037.347c0,.073,0,.143.009.21a3.4,3.4,0,0,0,.064.356,4.368,4.368,0,0,1,.84-.52,6.059,6.059,0,0,1,.949-.365,3.077,3.077,0,0,1,.84-.137,2.76,2.76,0,0,1,2.382.958,5.275,5.275,0,0,1,.7,3.076v2.446q0,.256-.018.721t-.055.885q.31-.036.657-.046t.53-.009v1.387h-4.783V36.587a1.109,1.109,0,0,0,.74-.2.951.951,0,0,0,.292-.575,5.051,5.051,0,0,0,.064-.849l-.019-2.592a3.581,3.581,0,0,0-.337-1.762,1.216,1.216,0,0,0-1.141-.575,2.192,2.192,0,0,0-.9.2,2.972,2.972,0,0,0-.757.475v4.126q0,.256-.019.721t-.055.885q.292-.036.648-.046t.538-.009v1.387Z" transform="translate(-269.302 -18.251)" fill="#360c25"/>
    <path id="Path_49" data-name="Path 49" d="M453.829,33.976a4.351,4.351,0,0,1-1.059-.128,2.139,2.139,0,0,1-.913-.484,2.415,2.415,0,0,1-.639-1.05,5.85,5.85,0,0,1-.237-1.844l.036-4.4h-1.241V24.556a2.021,2.021,0,0,0,1.1-.383,3.293,3.293,0,0,0,.9-.949,3.55,3.55,0,0,0,.5-1.223h1.351l-.018,2.556h2.318v1.406l-2.318.055-.018,4.491a4.242,4.242,0,0,0,.082.831,1.4,1.4,0,0,0,.32.676.883.883,0,0,0,.694.265,2.024,2.024,0,0,0,.7-.182,2.47,2.47,0,0,0,.958-.913l.876.821a4.7,4.7,0,0,1-1.022,1.132,4.106,4.106,0,0,1-1.013.584,3.449,3.449,0,0,1-.849.219q-.365.036-.511.036" transform="translate(-289.518 -14.161)" fill="#360c25"/>
    <path id="Path_50" data-name="Path 50" d="M476.3,38.065a5.887,5.887,0,0,1-1.534-.2,3.487,3.487,0,0,1-1.168-.511l.037.548h-1.388l-.073-3.14h1.186a1.817,1.817,0,0,0,.438,1,2.624,2.624,0,0,0,1,.721,3.5,3.5,0,0,0,1.387.265,1.916,1.916,0,0,0,.593-.091,1.076,1.076,0,0,0,.475-.3.742.742,0,0,0,.192-.521.722.722,0,0,0-.247-.566,2.685,2.685,0,0,0-.712-.42q-.466-.2-1.159-.456-.566-.219-1.141-.456a5.518,5.518,0,0,1-1.059-.575,2.618,2.618,0,0,1-.776-.84,2.412,2.412,0,0,1-.292-1.232,2.887,2.887,0,0,1,.2-1.05,2.781,2.781,0,0,1,.621-.949,3.023,3.023,0,0,1,1.068-.685,4.209,4.209,0,0,1,1.543-.255,4.763,4.763,0,0,1,1.123.155,3.125,3.125,0,0,1,1.068.465v-.529h1.387v3.231h-1.187a2.525,2.525,0,0,0-.447-1.1,2.232,2.232,0,0,0-.867-.7,2.773,2.773,0,0,0-1.186-.247,1.613,1.613,0,0,0-.831.219.8.8,0,0,0-.374.748.826.826,0,0,0,.292.666,2.347,2.347,0,0,0,.8.411q.511.165,1.132.383a8.82,8.82,0,0,1,1.652.73A3.571,3.571,0,0,1,479.2,33.8a2.448,2.448,0,0,1,.42,1.452,2.51,2.51,0,0,1-.475,1.57,2.9,2.9,0,0,1-1.232.931,4.224,4.224,0,0,1-1.616.31" transform="translate(-303.865 -18.251)" fill="#360c25"/>
    <path id="Path_51" data-name="Path 51" d="M165.8,81.655a2.138,2.138,0,0,1-1.184-.289,1.585,1.585,0,0,1-.632-.827,3.794,3.794,0,0,1-.19-1.26V76.506a3.547,3.547,0,0,1,.194-1.242,1.548,1.548,0,0,1,.632-.795,2.2,2.2,0,0,1,1.179-.275,2.144,2.144,0,0,1,1.174.28,1.575,1.575,0,0,1,.628.795,3.507,3.507,0,0,1,.194,1.238v2.782a3.631,3.631,0,0,1-.194,1.247,1.643,1.643,0,0,1-.628.827,2.065,2.065,0,0,1-1.174.294m0-.8a.963.963,0,0,0,.614-.167.826.826,0,0,0,.28-.47,3.08,3.08,0,0,0,.072-.709V76.3a2.967,2.967,0,0,0-.072-.7.777.777,0,0,0-.28-.451,1,1,0,0,0-.614-.158,1.025,1.025,0,0,0-.619.158.767.767,0,0,0-.285.451,2.967,2.967,0,0,0-.072.7v3.207a3.08,3.08,0,0,0,.072.709.815.815,0,0,0,.285.47.983.983,0,0,0,.619.167" transform="translate(-105.432 -47.758)"/>
    <path id="Path_52" data-name="Path 52" d="M180.146,85.344V80.122h.967v.515a2.815,2.815,0,0,1,.578-.415,1.434,1.434,0,0,1,.7-.172.666.666,0,0,1,.483.162.89.89,0,0,1,.235.407,1.847,1.847,0,0,1,.068.5v4.228h-.966V81.4a.944.944,0,0,0-.082-.434.343.343,0,0,0-.334-.154.717.717,0,0,0-.339.095,2.034,2.034,0,0,0-.339.231v4.21Z" transform="translate(-115.959 -51.528)"/>
    <path id="Path_53" data-name="Path 53" d="M195.079,85.417a1.612,1.612,0,0,1-.949-.239,1.245,1.245,0,0,1-.465-.7,4.279,4.279,0,0,1-.131-1.143V82.137a4.164,4.164,0,0,1,.135-1.156,1.235,1.235,0,0,1,.474-.7,1.62,1.62,0,0,1,.935-.235,1.457,1.457,0,0,1,.971.271,1.335,1.335,0,0,1,.411.781,6.507,6.507,0,0,1,.1,1.224v.425H194.5V83.8a1.865,1.865,0,0,0,.058.515.535.535,0,0,0,.19.293.563.563,0,0,0,.339.1.472.472,0,0,0,.33-.1.543.543,0,0,0,.154-.3,2.25,2.25,0,0,0,.041-.456v-.316h.94v.2a2.041,2.041,0,0,1-.335,1.238,1.324,1.324,0,0,1-1.138.452m-.578-3.189h1.111v-.47a3.456,3.456,0,0,0-.036-.547.6.6,0,0,0-.149-.334.489.489,0,0,0-.357-.113.522.522,0,0,0-.357.108.62.62,0,0,0-.167.366,4.3,4.3,0,0,0-.045.709Z" transform="translate(-124.577 -51.528)"/>
    <path id="Path_54" data-name="Path 54" d="M216.613,85.417a1.557,1.557,0,0,1-.971-.257,1.261,1.261,0,0,1-.443-.728,4.717,4.717,0,0,1-.113-1.093v-1.2a4.672,4.672,0,0,1,.117-1.125,1.236,1.236,0,0,1,.448-.714,1.58,1.58,0,0,1,.962-.249,1.737,1.737,0,0,1,.881.185.956.956,0,0,1,.429.551,3.017,3.017,0,0,1,.117.908V82h-.876v-.316a2.548,2.548,0,0,0-.045-.542.487.487,0,0,0-.163-.289.661.661,0,0,0-.7.018.588.588,0,0,0-.167.366,4.721,4.721,0,0,0-.041.7v1.644a2.085,2.085,0,0,0,.126.895.473.473,0,0,0,.452.226.489.489,0,0,0,.357-.113.558.558,0,0,0,.144-.321,3.152,3.152,0,0,0,.032-.47v-.425h.876v.362a2.967,2.967,0,0,1-.122.9,1.035,1.035,0,0,1-.434.578,1.617,1.617,0,0,1-.872.2" transform="translate(-138.45 -51.528)"/>
    <path id="Path_55" data-name="Path 55" d="M229.006,85.548a.669.669,0,0,1-.479-.162.87.87,0,0,1-.239-.407,1.861,1.861,0,0,1-.068-.5V80.254h.967v3.939a.967.967,0,0,0,.082.438.338.338,0,0,0,.334.158.715.715,0,0,0,.339-.095,2.033,2.033,0,0,0,.339-.231v-4.21h.967v5.222h-.967v-.515a2.566,2.566,0,0,1-.574.415,1.461,1.461,0,0,1-.7.172" transform="translate(-146.904 -51.659)"/>
    <path id="Path_56" data-name="Path 56" d="M242.014,87.061V80.122h.967v.415a1.664,1.664,0,0,1,.416-.343,1.115,1.115,0,0,1,.578-.145.938.938,0,0,1,.646.212,1.293,1.293,0,0,1,.357.533,2.764,2.764,0,0,1,.154.651,5.364,5.364,0,0,1,.036.564v1.265a4.841,4.841,0,0,1-.109,1.044,1.648,1.648,0,0,1-.393.795,1.043,1.043,0,0,1-.8.3.894.894,0,0,1-.5-.14,2.116,2.116,0,0,1-.389-.321v2.1Zm1.663-2.4a.385.385,0,0,0,.361-.185,1.194,1.194,0,0,0,.135-.5q.027-.316.027-.7V82.01a4.606,4.606,0,0,0-.036-.6.956.956,0,0,0-.154-.438.426.426,0,0,0-.371-.163.834.834,0,0,0-.361.081,1.345,1.345,0,0,0-.3.19v3.342a1.351,1.351,0,0,0,.307.167,1.047,1.047,0,0,0,.388.068" transform="translate(-155.783 -51.528)"/>
    <path id="Path_57" data-name="Path 57" d="M264.944,85.417a.878.878,0,0,1-.542-.176,1.23,1.23,0,0,1-.371-.451,1.3,1.3,0,0,1-.135-.583,1.871,1.871,0,0,1,.163-.822,1.639,1.639,0,0,1,.447-.565,3.087,3.087,0,0,1,.66-.4q.375-.172.791-.334v-.371a3.131,3.131,0,0,0-.036-.524.531.531,0,0,0-.149-.311.484.484,0,0,0-.339-.1.528.528,0,0,0-.321.09.5.5,0,0,0-.176.258,1.273,1.273,0,0,0-.054.393v.262l-.958-.036a1.9,1.9,0,0,1,.4-1.278,1.526,1.526,0,0,1,1.175-.411,1.3,1.3,0,0,1,1.1.425,1.991,1.991,0,0,1,.325,1.229v2.385q0,.244.014.47t.036.42c.015.13.029.252.041.366h-.885c-.018-.1-.041-.218-.068-.366s-.047-.281-.058-.4a1.391,1.391,0,0,1-.348.574.94.94,0,0,1-.709.267m.379-.831a.494.494,0,0,0,.271-.081,1.235,1.235,0,0,0,.226-.185.962.962,0,0,0,.135-.167V82.67q-.226.127-.425.253a2.379,2.379,0,0,0-.348.267,1.08,1.08,0,0,0-.235.316,1.051,1.051,0,0,0,.031.9.384.384,0,0,0,.344.181" transform="translate(-169.868 -51.528)"/>
    <path id="Path_58" data-name="Path 58" d="M278.2,82.789a1.233,1.233,0,0,1-.655-.154.881.881,0,0,1-.362-.434,1.752,1.752,0,0,1-.113-.66V78.136h-.551V77.5h.551V75.968h.967V77.5h.84v.641h-.84v3.342a.74.74,0,0,0,.1.438.453.453,0,0,0,.38.131c.048,0,.1,0,.167-.009l.185-.018v.714c-.12.018-.232.032-.334.041s-.214.014-.334.014" transform="translate(-177.997 -48.9)"/>
    <path id="Path_59" data-name="Path 59" d="M296.766,85.417a.879.879,0,0,1-.542-.176,1.233,1.233,0,0,1-.37-.451,1.3,1.3,0,0,1-.135-.583,1.867,1.867,0,0,1,.162-.822,1.635,1.635,0,0,1,.447-.565,3.069,3.069,0,0,1,.66-.4q.375-.172.79-.334v-.371a3.172,3.172,0,0,0-.036-.524.533.533,0,0,0-.149-.311.485.485,0,0,0-.339-.1.528.528,0,0,0-.321.09.5.5,0,0,0-.176.258,1.271,1.271,0,0,0-.055.393v.262l-.958-.036a1.9,1.9,0,0,1,.4-1.278,1.526,1.526,0,0,1,1.174-.411,1.305,1.305,0,0,1,1.1.425,1.992,1.992,0,0,1,.325,1.229v2.385q0,.244.014.47t.036.42q.022.195.041.366h-.885q-.027-.144-.068-.366t-.059-.4a1.387,1.387,0,0,1-.348.574.939.939,0,0,1-.709.267m.379-.831a.492.492,0,0,0,.271-.081,1.221,1.221,0,0,0,.226-.185.946.946,0,0,0,.135-.167V82.67q-.225.127-.424.253a2.4,2.4,0,0,0-.348.267,1.092,1.092,0,0,0-.235.316,1.05,1.05,0,0,0,.032.9.384.384,0,0,0,.343.181" transform="translate(-190.352 -51.528)"/>
    <path id="Path_60" data-name="Path 60" d="M318.569,82.789a1.235,1.235,0,0,1-.655-.154.882.882,0,0,1-.361-.434,1.752,1.752,0,0,1-.113-.66V78.136h-.551V77.5h.551V75.968h.967V77.5h.84v.641h-.84v3.342a.737.737,0,0,0,.1.438.452.452,0,0,0,.379.131c.048,0,.1,0,.167-.009l.185-.018v.714c-.121.018-.232.032-.335.041s-.213.014-.334.014" transform="translate(-203.98 -48.9)"/>
    <path id="Path_61" data-name="Path 61" d="M328.223,75.232h.967v1.012h-.967Zm0,1.789h.967v5.222h-.967Z" transform="translate(-211.275 -48.426)"/>
    <path id="Path_62" data-name="Path 62" d="M336.388,85.312V80.09h.895v.5a1.732,1.732,0,0,1,.578-.443,1.553,1.553,0,0,1,.651-.144.958.958,0,0,1,.519.144.829.829,0,0,1,.33.515,1.8,1.8,0,0,1,.61-.5,1.578,1.578,0,0,1,.691-.158.891.891,0,0,1,.461.122.862.862,0,0,1,.334.388,1.649,1.649,0,0,1,.126.7v4.1H340.7V81.273a.772.772,0,0,0-.122-.51.429.429,0,0,0-.33-.131.9.9,0,0,0-.415.113,1.44,1.44,0,0,0-.4.312v4.255h-.885V81.273a.772.772,0,0,0-.122-.51.429.429,0,0,0-.33-.131.874.874,0,0,0-.411.113,1.6,1.6,0,0,0-.4.312v4.255Z" transform="translate(-216.531 -51.496)"/>
    <path id="Path_63" data-name="Path 63" d="M357.431,85.417a1.61,1.61,0,0,1-.948-.239,1.245,1.245,0,0,1-.465-.7,4.278,4.278,0,0,1-.131-1.143V82.137a4.162,4.162,0,0,1,.136-1.156,1.233,1.233,0,0,1,.474-.7,1.619,1.619,0,0,1,.935-.235,1.456,1.456,0,0,1,.971.271,1.337,1.337,0,0,1,.411.781,6.539,6.539,0,0,1,.1,1.224v.425h-2.06V83.8a1.862,1.862,0,0,0,.059.515.533.533,0,0,0,.19.293.564.564,0,0,0,.339.1.472.472,0,0,0,.33-.1.542.542,0,0,0,.154-.3,2.251,2.251,0,0,0,.041-.456v-.316h.94v.2a2.041,2.041,0,0,1-.334,1.238,1.326,1.326,0,0,1-1.138.452m-.578-3.189h1.111v-.47a3.506,3.506,0,0,0-.036-.547.6.6,0,0,0-.149-.334.489.489,0,0,0-.357-.113.522.522,0,0,0-.357.108.624.624,0,0,0-.167.366,4.3,4.3,0,0,0-.045.709Z" transform="translate(-229.082 -51.528)"/>
    <path id="Path_64" data-name="Path 64" d="M20.306,61.864A20.329,20.329,0,0,1,0,41.558H3.206a17.1,17.1,0,0,0,34.2,0h3.206A20.329,20.329,0,0,1,20.306,61.864" transform="translate(0 -26.751)" fill="#360c25"/>
    <rect id="Rectangle_104" data-name="Rectangle 104" width="28.458" height="3.206" transform="translate(6.077 38.066)" fill="#e36414"/>
    <path id="Path_65" data-name="Path 65" d="M104.466,57.791a6.823,6.823,0,0,1-1.189-.106l2.543-3.121c2.424-.165,5.413-.575,6.859-2.614C114,50.095,114.4,47.9,113.688,46.5c-.692-1.364-2.323-1.674-3.571-1.694l.051-3.206c4.062.064,5.741,2.189,6.38,3.45,1.255,2.477.764,5.915-1.253,8.758-2.173,3.065-7.145,3.986-10.828,3.986" transform="translate(-66.479 -26.776)" fill="#360c25"/>
    <path id="Path_66" data-name="Path 66" d="M19.835,51.993a13.751,13.751,0,0,0,26.477,0Z" transform="translate(-12.768 -33.468)" fill="#360c25"/>
    <path id="Path_67" data-name="Path 67" d="M21.235,21.32v-.488c.007-.045.017-.09.022-.136a3.321,3.321,0,0,1,1.3-2.412,2.925,2.925,0,0,1,2.617-.5,3.034,3.034,0,0,1,1.643,1.172c.132.174.248.361.367.536.162-.227.311-.464.488-.677a2.923,2.923,0,0,1,2.117-1.136,3.093,3.093,0,0,1,3.121,2.1,3.879,3.879,0,0,1-.485,3.554A8.561,8.561,0,0,1,30.958,25c-1.151,1.026-2.319,2.032-3.481,3.045a.379.379,0,0,1-.578,0q-1.387-1.2-2.771-2.392a13.532,13.532,0,0,1-1.944-1.994,4.436,4.436,0,0,1-.826-1.636c-.056-.232-.083-.47-.123-.706" transform="translate(-13.669 -11.372)" fill="#e36414"/>
    <path id="Path_68" data-name="Path 68" d="M59.338,3.654V3.166c.007-.045.017-.091.022-.136a3.321,3.321,0,0,1,1.3-2.412,2.925,2.925,0,0,1,2.617-.5,3.034,3.034,0,0,1,1.643,1.172c.132.174.248.361.367.536.162-.227.311-.464.488-.677A2.923,2.923,0,0,1,67.891.011a3.093,3.093,0,0,1,3.121,2.1,3.879,3.879,0,0,1-.485,3.554,8.561,8.561,0,0,1-1.467,1.674c-1.151,1.026-2.319,2.032-3.481,3.045a.379.379,0,0,1-.578,0q-1.387-1.2-2.771-2.392A13.532,13.532,0,0,1,60.287,6a4.436,4.436,0,0,1-.826-1.636c-.056-.232-.083-.47-.123-.706" transform="translate(-38.196 -0.001)" fill="#9a031e"/>
  </g>
</svg>
