<?xml version="1.0" encoding="UTF-8"?>
<svg data-bbox="0 0 599.9 434" viewBox="0 0 599.9 443.5" xmlns="http://www.w3.org/2000/svg" data-type="color">
    <g>
        <g>
            <g>
                <g>
                    <path d="M386.8 260.83c107.7 10.8 185.4 41 185.4 76.6 0 44.7-121.9 80.9-272.2 80.9s-272.2-36.2-272.2-80.9c0-34.6 73.4-64.1 176.5-75.6 3-.4 3-.4.1-.2q-21 2.1-40.5 5.1C66.6 281.33 0 311.13 0 345.53 0 394.43 134.3 434 300 434s299.9-39.6 299.9-88.5c0-39.87-89.8-73.67-213.1-84.67z" fill="#ed8305" data-color="1"/>
                    <path d="M80.69 340.37a15.48 15.48 0 0 0-2-7.29 17.69 17.69 0 0 0-5-5.74 19.79 19.79 0 0 0-7.83-3.65 19.55 19.55 0 0 0-8.06 0 22 22 0 0 0-7.61 3.24 25.62 25.62 0 0 0-6.43 6.15 24.25 24.25 0 0 0-3.76 7.45 20.91 20.91 0 0 0-.85 7.93 19.06 19.06 0 0 0 2.4 7.62 20.9 20.9 0 0 0 5.92 6.54 17.14 17.14 0 0 0 7.88 3.38 17.88 17.88 0 0 0 8.14-.74l2.23 7.59a25.11 25.11 0 0 1-3.22.66 21.57 21.57 0 0 1-5.22.1 29.31 29.31 0 0 1-6.66-1.45 26.36 26.36 0 0 1-7.44-4 27.16 27.16 0 0 1-8-9.05 28.52 28.52 0 0 1-2.35-21.35 28.88 28.88 0 0 1 4.61-9.45 32.3 32.3 0 0 1 8.74-8.22 28 28 0 0 1 10.32-4 26.37 26.37 0 0 1 10.94.51 30.3 30.3 0 0 1 10.69 5.24 28.67 28.67 0 0 1 7.35 8.09 20 20 0 0 1 3 10.34z" fill="#000000" data-color="2"/>
                    <path d="M92.58 333.56l6.94 2.82-8.65 21.24 26.52 10.79 8.61-21.24 7 2.83-20.81 51.15-6.94-2.82 9.52-23.41-26.54-10.8-9.53 23.41-6.93-2.82z" fill="#000000" data-color="2"/>
                    <path d="M154.68 354.81l6.63 1.48 11.06 59-8.53-1.9-2.43-14.53-25.66-5.71-8.3 12.13-8.53-1.9zm5.48 37.1l-4.54-27h-.15l-15.71 22.47z" fill="#000000" data-color="2"/>
                    <path d="M183.47 360.85l9.77 1.06 25.36 48.4h.15l4.89-45.13 7.44.8-5.94 54.91-9.46-1L190 371.44h-.15L185 416.56l-7.44-.81z" fill="#000000" data-color="2"/>
                    <path d="M284 392.4l-1 27.21a25.15 25.15 0 0 1-4.68 2 48.5 48.5 0 0 1-5.4 1.4 44.57 44.57 0 0 1-5.65.75 46.58 46.58 0 0 1-5.35.11 31.68 31.68 0 0 1-12.42-2.82 26.84 26.84 0 0 1-14.5-16.12 31.22 31.22 0 0 1-1.56-11.19 30.43 30.43 0 0 1 2.58-11.37 28.36 28.36 0 0 1 6.28-9 27 27 0 0 1 9.31-5.77 29.72 29.72 0 0 1 11.7-1.78 34.44 34.44 0 0 1 12.4 2.39 23 23 0 0 1 7.9 5.57l-5.51 5.49a19.8 19.8 0 0 0-7.08-4.84 24.9 24.9 0 0 0-8-1.59 20 20 0 0 0-15.37 5.89 20.77 20.77 0 0 0-4.47 6.81 24.39 24.39 0 0 0-1.81 8.48 22.76 22.76 0 0 0 1.3 8.75A21.54 21.54 0 0 0 247 410a20.76 20.76 0 0 0 6.6 4.9 21.23 21.23 0 0 0 8.43 2 37.09 37.09 0 0 0 7.55-.45 21.09 21.09 0 0 0 6.12-1.91l.59-15.36-12.29-.52.26-7z" fill="#000000" data-color="2"/>
                    <path d="M290.66 368.48l35.64-.73.15 7-28.15.57.33 16.46 26.21-.54.14 7-26.2.54.36 17.7 29.56-.61.14 7-37 .76z" fill="#000000" data-color="2"/>
                    <path d="M330.49 367.93l11.15-.51 19.46 40.95h.31l15.44-42.57 11.15-.52 2.55 55.17-7.48.34-2.07-45.36h-.15l-16.53 46.21-5 .23-20.74-44.47h-.15l2.1 45.34-7.48.35z" fill="#000000" data-color="2"/>
                    <path d="M394.21 364.53l35.39-4.28.85 7-28 3.38 2 16.34 26-3.15.84 7-26 3.15 2.12 17.58 29.35-3.55.84 7-36.78 4.44z" fill="#000000" data-color="2"/>
                    <path d="M433.39 360.06l9.56-2.29 40.16 37.06h.15l-10.58-44.15 7.29-1.74 12.86 53.7-9.25 2.22-40.46-37h-.16L453.54 412l-7.28 1.75z" fill="#000000" data-color="2"/>
                    <path d="M498 348.93l-16.43 6.79-2.68-6.48 39.78-16.46 2.69 6.49-16.44 6.79 18.43 44.55-6.92 2.86z" fill="#000000" data-color="2"/>
                    <path d="M541.56 369.33a12.22 12.22 0 0 0 6.76 1.15 15.55 15.55 0 0 0 6.32-2.13 13.69 13.69 0 0 0 3-2.48 11.7 11.7 0 0 0 2.13-3.34 9.43 9.43 0 0 0 .74-3.82 7.64 7.64 0 0 0-1.19-3.93 5.92 5.92 0 0 0-4.26-3.12 17.46 17.46 0 0 0-5.76.2c-2.1.39-4.35.9-6.73 1.52a26.13 26.13 0 0 1-7.12.89 16 16 0 0 1-6.91-1.69 15.73 15.73 0 0 1-6.16-6.26 14.7 14.7 0 0 1-1.52-10.94 18.28 18.28 0 0 1 3-6.24 21.61 21.61 0 0 1 6.52-5.73 29.63 29.63 0 0 1 8-3.41 14.85 14.85 0 0 1 8.83.58l-2.34 7.89a10.11 10.11 0 0 0-5.22-1 12.73 12.73 0 0 0-5.69 1.9 14 14 0 0 0-4 3.39 9.32 9.32 0 0 0-1.75 3.51 7.45 7.45 0 0 0-.06 3.28 8.44 8.44 0 0 0 1 2.6 6.91 6.91 0 0 0 4.52 3.55 15.69 15.69 0 0 0 5.88 0 61.59 61.59 0 0 0 6.69-1.59 28.14 28.14 0 0 1 7-1.16 15.17 15.17 0 0 1 6.65 1.27c2.14.92 4.07 2.81 5.79 5.65a16.62 16.62 0 0 1 2.42 6.93 16.13 16.13 0 0 1-.72 6.73 18 18 0 0 1-3.47 6 23.46 23.46 0 0 1-5.8 4.88 27.14 27.14 0 0 1-9.58 3.61 16.46 16.46 0 0 1-9.46-1z" fill="#000000" data-color="2"/>
                    <path d="M387.26 196.1c-65.7 36.2-80.1 45.3-110.9 46.3-23.8.8-59.1-5.4-71.4-8a113.55 113.55 0 0 1-13.3-3.6 116.25 116.25 0 0 1-29.1-14.6c.5 55.4 26.8 104.1 68.9 125.8 68 35.1 142.5-19.8 162-36 42.9-35.6 66.3-88.4 69.4-144a528.89 528.89 0 0 0-75.6 34.1z" fill-rule="evenodd" fill="#421e14" data-color="3"/>
                    <g>
                        <path d="M292.36 357.7a110.18 110.18 0 0 1-23.8-2.6c-28-6.2-53-23.8-74.4-52.1-6.9-9.2-19.4-33.7-27.6-62.1 19.1 51.7 51.3 79.7 58.3 85.3a110.68 110.68 0 0 0 18.7 12.1 100.23 100.23 0 0 0 36.9 9.5c3.1.3 6.4.4 9.8.4 15.3 0 44.6-2.6 70-20.1 34.6-23.7 55.4-69.7 72-106.6 11.4-25.2 21.3-47 32.2-55.6 4.5-3.4 9.7-5.8 14.4-6.4l3.3-.2a24 24 0 0 1 8.7 1.6c14 5.8 21.3 28.2 18.6 44.4-3.6 20.9-17.7 40.4-36.8 51.3 17-16.3 35.4-41 27.7-60.5-2.5-6.2-8.3-13.8-16.5-14.4h-1c-12.4 0-19.6 15.3-30.5 38.4-5.1 10.7-10.8 22.8-18 35.5-31.1 54.6-71.5 84.6-96.6 93.7a132.85 132.85 0 0 1-45.4 8.4zm37.3-190.5a425.88 425.88 0 0 1-78.2-7.6 629.17 629.17 0 0 0 80.2 5.7c20.8 0 38.8-1.4 53.4-4.1 62.3-11.7 61.9-21.1 61.6-25.6-.3-6.5-6.7-13.1-50.8-18.3a865 865 0 0 0-90.6-4.7h-3.9c11.4-.7 23.2-1.1 35.1-1.1 36.7 0 68.3 3.8 93.9 11.2 23.5 6.9 26.9 11.3 27.4 12.2-.9 2.8-4.3 4.8-7.9 6.9l-2.9 1.7c-13.5 8.5-30.2 12.5-50.6 17a319.35 319.35 0 0 1-66.7 6.7z" fill-rule="evenodd" fill="#000000" data-color="2"/>
                        <path d="M482.16 164.3a18.17 18.17 0 0 1 6.8 1.2c8.9 3.7 14.7 16.3 15.8 28.3-3.1-7.5-10.3-16.3-20.6-17.1h-1.3c-10.4 0-17 8.2-21.1 14.4s-8.9 16.1-13.9 26.8-10.8 22.7-17.9 35.2a262.14 262.14 0 0 1-38 51.5c19.3-24.4 33.1-54.9 44.9-81 10.6-23.6 20.7-46 30.7-53.7a25.37 25.37 0 0 1 11.9-5.4l2.7-.2m-145.7-57.8c-64.9 0-124.7 11.7-134.1 13.6l-20.7 4.3c-9.3 2.1-18.6 4.4-28 6.9-.5 3.4-.9 6.8-1.3 10.3-.6 6.5-1 13.4-1.1 20.4-.1 16.4 1.5 45.6 8.2 72 8 31.7 22.2 60.7 30.7 72 23.2 30.8 50 47.9 77.3 54a117.14 117.14 0 0 0 24.9 2.7 136.81 136.81 0 0 0 47.1-8.7c24-8.7 66.2-38 99.2-96 21.6-37.8 30.3-71.3 44.2-71.3h.6c6.1.5 10.5 7 12.2 11.3 7.6 19-16.2 47.5-36.1 63.4-1.8 1.4-15.1 10.4-14.5 11.5a.79.79 0 0 0 .6.2c1.9 0 8.4-2.3 22.9-8.9 21.7-9.7 41.2-31.1 45.8-58.1 3.1-18-4.9-42.9-21.6-49.8a28.27 28.27 0 0 0-10.6-2 26.73 26.73 0 0 0-4 .3c-6.4.8-12.5 4.1-16.8 7.4-29 22.6-47.3 123.1-103.9 162-23.5 16.1-50.5 19.2-67.2 19.2-3.7 0-6.9-.2-9.4-.4-14.2-1.1-25.7-4.4-35.1-9A105.12 105.12 0 0 1 228 322.4c-10.6-8.6-47.6-43.1-63.6-105.1a230.69 230.69 0 0 1-5.9-81c43.1 19.8 107.4 35.9 171.2 35.9a322.13 322.13 0 0 0 67.7-6.8c19.5-4.3 37.7-8.6 52.2-17.7 4.8-3 11.6-5.7 13.1-11.9s-12.6-12.5-30.9-17.9c-29.3-8.5-62.9-11.4-95.3-11.4zm-4.8 53.8c-33.8 0-74.7-3.8-117.7-11.6-13.1-2.4-25.5-4.9-38.2-8.4l-17.3-4.7v-.3c10.2-2.6 20.4-4.8 30.8-6.9a590.41 590.41 0 0 1 109.2-10.8h6.8c58.7 0 135.9 6.5 136.4 18.2.5 8.7-40.6 17.3-57.6 20.4-14.2 2.7-32 4.1-52.4 4.1z" fill="#000000" data-color="2"/>
                    </g>
                    <path d="M295.76 76.3a108.54 108.54 0 0 0-28.3-40.3 94 94 0 0 1 18 36c4.8 19 4.2 34.1 0 46.3-3 8.7-3.9 16.4-4.6 25.7a138.34 138.34 0 0 0-.2 14.4l9.1.7 5.7.4a109.92 109.92 0 0 0 .3-83.2z" fill-rule="evenodd" fill="#421e14" data-color="3"/>
                    <path d="M328.16 97.9c.7-9.6 3.4-16.2 3.9-25.9 2-39.6-28.5-72-28.6-72s.4.5.4.7c15.9 25 21.8 47.5 17.6 67.7-1.9 9.1-7.7 19.6-6.7 33.1s7.6 26 18 37.2a115.35 115.35 0 0 1-4.6-40.8z" fill-rule="evenodd" fill="#421e14" data-color="3"/>
                    <path d="M196.46 261.2a12 12 0 0 1-4.2-2.2 10.44 10.44 0 0 1-2.9-3.4 12 12 0 0 1-1.3-4.3 13 13 0 0 1 .4-4.8 14.69 14.69 0 0 1 2.1-4.3 15.7 15.7 0 0 1 3.3-3 12.33 12.33 0 0 1 4.2-1.4 11 11 0 0 1 4.7.4 11.9 11.9 0 0 1 7.2 5.6 11.71 11.71 0 0 1 1.2 4.3 11.14 11.14 0 0 1-.4 4.8 12.26 12.26 0 0 1-2 4.3 15.7 15.7 0 0 1-3.3 3 12.25 12.25 0 0 1-4.2 1.4 11.3 11.3 0 0 1-4.8-.4zm.8-2.8a7.17 7.17 0 0 0 3.5.3 9.09 9.09 0 0 0 3.1-1.2 6.26 6.26 0 0 0 2.3-2.3 9.39 9.39 0 0 0 1.9-6.7 8.82 8.82 0 0 0-.9-3.3 7.79 7.79 0 0 0-5.1-4.2 7.17 7.17 0 0 0-3.5-.3 7.69 7.69 0 0 0-3.1 1.2 8.91 8.91 0 0 0-2.4 2.3 8.63 8.63 0 0 0-1.5 3.2 10.84 10.84 0 0 0-.3 3.5 9 9 0 0 0 .8 3.3 8.54 8.54 0 0 0 2.1 2.6 7.66 7.66 0 0 0 3.1 1.6z" fill="#ed8305" data-color="1"/>
                    <path d="M215.26 249.7l2.8.4-.3 2.3a5.12 5.12 0 0 1 2.1-1.7 8.26 8.26 0 0 1 3.2-.3 7.79 7.79 0 0 1 2 .7 3.7 3.7 0 0 1 1.5 1.3 5.63 5.63 0 0 1 .9 1.9 7.9 7.9 0 0 1 .1 2.7l-1.5 9.7-2.7-.4 1.3-8.9a4 4 0 0 0-.1-1.9 4.79 4.79 0 0 0-.5-1.3 3.87 3.87 0 0 0-1-.8l-1.2-.4h-1.7a3.69 3.69 0 0 0-1.4.7 4.2 4.2 0 0 0-1.1 1.5 9.4 9.4 0 0 0-.7 2.2l-1.1 7.7-2.8-.4z" fill="#ed8305" data-color="1"/>
                    <path d="M234.16 260.8a2.75 2.75 0 0 0 .3 1.8 4.12 4.12 0 0 0 1 1.5l1.6 1a5.87 5.87 0 0 0 1.8.4 4.64 4.64 0 0 0 2.4-.5 8.57 8.57 0 0 0 1.8-1.6l2.1 1.8a8.09 8.09 0 0 1-6.8 2.8 7.78 7.78 0 0 1-3.1-.8 7.08 7.08 0 0 1-2.3-1.8 6.65 6.65 0 0 1-1.4-2.6 8.47 8.47 0 0 1-.4-3.2 10.34 10.34 0 0 1 .7-3.1 9.48 9.48 0 0 1 1.8-2.5 5.83 5.83 0 0 1 2.5-1.5 7.82 7.82 0 0 1 6.4.4 5.84 5.84 0 0 1 2.1 2 6.13 6.13 0 0 1 1.2 2.6 9.42 9.42 0 0 1 .2 2.9v1zm9-1.8a8.34 8.34 0 0 0-.2-1.8 3.84 3.84 0 0 0-.8-1.4 2.27 2.27 0 0 0-1.2-1 5.93 5.93 0 0 0-1.9-.5 4.35 4.35 0 0 0-3.4 1.3 4.49 4.49 0 0 0-1 1.4 2.81 2.81 0 0 0-.4 1.5z" fill="#ed8305" data-color="1"/>
                    <path d="M269.36 255.8a6.23 6.23 0 0 0-1.8-1.2 6.14 6.14 0 0 0-2-.3 5.21 5.21 0 0 0-2 .6 5.77 5.77 0 0 0-1.4 1.3 4.9 4.9 0 0 0-.7 1.8 7.8 7.8 0 0 0-.2 2.1 5.93 5.93 0 0 0 .5 1.9 3.78 3.78 0 0 0 1.1 1.6 3.41 3.41 0 0 0 1.6 1 6.18 6.18 0 0 0 2 .3 5.79 5.79 0 0 0 2-.6 6.2 6.2 0 0 0 1.4-1.4l2.2 1.9a7.47 7.47 0 0 1-2.4 2 10.73 10.73 0 0 1-3.1.8 11.15 11.15 0 0 1-3.2-.4 7.81 7.81 0 0 1-2.5-1.4 6.09 6.09 0 0 1-1.8-2.4 10.17 10.17 0 0 1-.8-3.2 8.64 8.64 0 0 1 .3-3.2 7.74 7.74 0 0 1 1.4-2.7 7.19 7.19 0 0 1 2.4-1.8 7.5 7.5 0 0 1 3.1-.9 11.51 11.51 0 0 1 3.2.4 7.26 7.26 0 0 1 2.7 1.6z" fill="#ed8305" data-color="1"/>
                    <path d="M288.76 264.2l-2.8.4-.3-2.3h-.1a4.25 4.25 0 0 1-1.5 2.3 6.81 6.81 0 0 1-2.9 1.2h-2.1a4.63 4.63 0 0 1-1.9-.8 4.41 4.41 0 0 1-1.4-1.6 5.71 5.71 0 0 1-.8-2.5l-1.5-9.6 2.7-.5 1.4 8.9a3.82 3.82 0 0 0 .6 1.7 2 2 0 0 0 .9 1.1 3.1 3.1 0 0 0 1.2.5 2.85 2.85 0 0 0 1.3 0l1.5-.5a3.29 3.29 0 0 0 1.2-1.2 3.82 3.82 0 0 0 .6-1.7 8.85 8.85 0 0 0 0-2.3l-1.2-7.7 2.8-.5z" fill="#ed8305" data-color="1"/>
                    <path d="M290.56 248.3l2.7-.7.5 2.1h.1a5.13 5.13 0 0 1 1.7-2.4 5.89 5.89 0 0 1 2.7-1.4 8.56 8.56 0 0 1 3.1-.3 6.94 6.94 0 0 1 2.8 1.1 7.84 7.84 0 0 1 2.1 2 10.65 10.65 0 0 1 1.3 2.9 11.84 11.84 0 0 1 .2 3.2 8.82 8.82 0 0 1-.8 2.9 7.84 7.84 0 0 1-1.9 2.2 7.18 7.18 0 0 1-2.9 1.4 6.5 6.5 0 0 1-3.1.1 4.92 4.92 0 0 1-2.5-1.2h-.1l2.8 10.9-2.8.7zm8 .3a4.13 4.13 0 0 0-1.9.9 5.37 5.37 0 0 0-1.2 1.4 4.08 4.08 0 0 0-.5 1.9 5.14 5.14 0 0 0 .2 2.1 5.29 5.29 0 0 0 .8 2 6.2 6.2 0 0 0 1.4 1.4 5.14 5.14 0 0 0 3.8.5 5.54 5.54 0 0 0 1.9-.9 4.36 4.36 0 0 0 1.2-1.5 3.47 3.47 0 0 0 .5-1.8 5.63 5.63 0 0 0-.2-2.2 5 5 0 0 0-.8-2 5.59 5.59 0 0 0-1.4-1.3 3.55 3.55 0 0 0-1.7-.7 5 5 0 0 0-2.1.2z" fill="#ed8305" data-color="1"/>
                    <path d="M317.86 241.8a8 8 0 0 1 1.8-2.7 8.84 8.84 0 0 1 2.6-1.8 6.28 6.28 0 0 1 2.8-.8 4 4 0 0 1 2.2.2 4.3 4.3 0 0 1 1.6.9 5.89 5.89 0 0 1 1.2 1.6l3.1 7.1a5.44 5.44 0 0 0 .7 1.3l.6 1.1-2.3 1.1-1.1-2a5.9 5.9 0 0 1-1.2 2.8 6.44 6.44 0 0 1-2.4 1.9 7.25 7.25 0 0 1-2 .5h-1.8a5.27 5.27 0 0 1-1.6-.9 4 4 0 0 1-1.2-1.6 4.5 4.5 0 0 1-.4-2.5 4.75 4.75 0 0 1 .9-2.2 9.48 9.48 0 0 1 2-2l2.8-1.6 1.9-.9-.3-.5a2.11 2.11 0 0 0-.6-1 4.11 4.11 0 0 0-1.1-.7l-1.3-.2a6.61 6.61 0 0 0-1.5.5 3.54 3.54 0 0 0-1.2.7 8.5 8.5 0 0 0-.9.9 3.63 3.63 0 0 0-.6.9l-.4.8zm9.7 2.1l-1.8 1-1.6 1.2a4.15 4.15 0 0 0-.9 1.4 2.41 2.41 0 0 0 1.63 3h.07a4.38 4.38 0 0 0 2.3-.5 4.31 4.31 0 0 0 1.6-1.2 3.7 3.7 0 0 0 .8-1.5 4.52 4.52 0 0 0 .1-1.6 7.35 7.35 0 0 0-.4-1.6l-.4-.8z" fill="#ed8305" data-color="1"/>
                    <path d="M339.76 231l-3.6 2.1 3.4 6 .6 1.1.7.8a1.84 1.84 0 0 0 1 .4 2.35 2.35 0 0 0 1.2-.4l.9-.6a2.25 2.25 0 0 0 .6-.8l1.3 2.3a2.78 2.78 0 0 1-.9 1l-1.1.8a5.27 5.27 0 0 1-2.4.8 2.44 2.44 0 0 1-1.7-.4 3.38 3.38 0 0 1-1.3-1.1l-.9-1.6-3.8-6.9-2.9 1.6-1.2-2.1 2.9-1.7-2.1-3.7 2.5-1.4 2 3.7 3.6-2z" fill="#ed8305" data-color="1"/>
                    <path d="M350.36 224.1a7.33 7.33 0 0 1 1.7-2.8 8 8 0 0 1 2.5-2 9 9 0 0 1 2.7-1 5.44 5.44 0 0 1 2.2.1 2.79 2.79 0 0 1 1.7.9 4.36 4.36 0 0 1 1.2 1.5l3.6 6.8a5.44 5.44 0 0 0 .7 1.3l.6 1.1-2.2 1.2a13.37 13.37 0 0 1-1.1-2h-.1a5.59 5.59 0 0 1-1 2.9 7.41 7.41 0 0 1-2.3 1.9 5.58 5.58 0 0 1-1.9.7 4.08 4.08 0 0 1-1.9.1 4.81 4.81 0 0 1-1.6-.8 5.05 5.05 0 0 1-1.3-1.5 4.71 4.71 0 0 1-.5-2.5 4 4 0 0 1 .8-2.3 7.24 7.24 0 0 1 1.9-2 12.83 12.83 0 0 1 2.7-1.8l1.8-1-.3-.6-.7-.9a3.79 3.79 0 0 0-1.1-.6 2.73 2.73 0 0 0-1.3-.1 3 3 0 0 0-1.5.5l-1.2.8-.8.9a4.4 4.4 0 0 0-.5.9l-.5 1zm9.8 1.5l-1.7 1.1A6.41 6.41 0 0 0 357 228a3.84 3.84 0 0 0-.9 1.5 2 2 0 0 0 .2 1.5 2.22 2.22 0 0 0 1.6 1.3 6.07 6.07 0 0 0 2.4-.6 3.85 3.85 0 0 0 1.5-1.3 3.26 3.26 0 0 0 .7-1.6 4.3 4.3 0 0 0 0-1.6 8.8 8.8 0 0 0-.5-1.5l-.4-.8z" fill="#ed8305" data-color="1"/>
                    <path d="M380.06 209.6l-3.7 1.7 2.9 6.3.6 1.1a2.14 2.14 0 0 0 .7.9 1.35 1.35 0 0 0 .9.5l1.2-.3.9-.5a6 6 0 0 0 .8-.8l1.1 2.4a5 5 0 0 1-1.1.9l-1 .7a7.23 7.23 0 0 1-2.5.7 3.18 3.18 0 0 1-1.7-.6 4.57 4.57 0 0 1-1.2-1.2l-.8-1.7-3.3-7.1-3 1.4-1-2.3 2.9-1.4-1.7-3.8 2.5-1.3 1.8 3.9 3.7-1.8z" fill="#ed8305" data-color="1"/>
                    <path d="M379.86 200.9a1.8 1.8 0 0 1-.1-1.6 1.9 1.9 0 0 1 1.1-1.2 2.21 2.21 0 0 1 1.6 0 1.72 1.72 0 0 1 1.1 1.1 1.8 1.8 0 0 1 .1 1.6 2.51 2.51 0 0 1-1.1 1.2 2.21 2.21 0 0 1-1.6 0 2 2 0 0 1-1.1-1.1zm2.8 4.7l2.6-1.2 6.1 13.8-2.6 1.2z" fill="#ed8305" data-color="1"/>
                    <path d="M389.56 202.3l2.4-1 .9 2.2a5.34 5.34 0 0 1 .2-.9 3.39 3.39 0 0 1 .6-1.2 4 4 0 0 1 1-1.3 4.32 4.32 0 0 1 1.6-1 4.77 4.77 0 0 1 2.8-.5 4.52 4.52 0 0 1 2.5 1.2 5.74 5.74 0 0 1 1.1-2.8 7.3 7.3 0 0 1 2.2-1.7 7.94 7.94 0 0 1 2.8-.6 5.17 5.17 0 0 1 2.2.7 6.64 6.64 0 0 1 1.6 1.7 22.25 22.25 0 0 1 1.2 2.2l3.4 8.1-2.6 1.1-3.3-7.8c-.2-.5-.5-1-.7-1.4a4 4 0 0 0-1-1.2l-1.3-.5a3.71 3.71 0 0 0-1.6.4 3.2 3.2 0 0 0-2.2 2.3 5.92 5.92 0 0 0 .4 3.4l3.2 7.6-2.6 1.2-3-7.3a15.11 15.11 0 0 0-.9-1.8 4.52 4.52 0 0 0-1-1.3 3.1 3.1 0 0 0-1.3-.6 3.71 3.71 0 0 0-1.6.4 3.61 3.61 0 0 0-1.2.8 2.94 2.94 0 0 0-.8 1.4 3.19 3.19 0 0 0-.2 1.7 5 5 0 0 0 .6 2.2l3 7.3-2.6 1.1z" fill="#ed8305" data-color="1"/>
                    <path d="M419.56 198.9a3.14 3.14 0 0 0 1 1.5 4.69 4.69 0 0 0 1.5.9l1.8.3 1.9-.4a4.13 4.13 0 0 0 1.9-1.5 6.5 6.5 0 0 0 1.1-2.2l2.6.8a7.69 7.69 0 0 1-5.1 5.3 7.24 7.24 0 0 1-3.1.7 8.8 8.8 0 0 1-2.9-.7 6.63 6.63 0 0 1-2.3-1.8 9.84 9.84 0 0 1-2.2-5.9 7.38 7.38 0 0 1 .6-3 8 8 0 0 1 1.7-2.5 7.86 7.86 0 0 1 2.6-1.7 7.23 7.23 0 0 1 3.4-.6 6.59 6.59 0 0 1 4.8 2.9 8.92 8.92 0 0 1 1.4 2.5l.4 1zm7.5-5.5a7.54 7.54 0 0 0-1-1.5 2.85 2.85 0 0 0-1.2-1 3.77 3.77 0 0 0-3.4 0 5.13 5.13 0 0 0-1.7 1.1 4.69 4.69 0 0 0-.9 1.5 3.36 3.36 0 0 0-.4 1.7 6.86 6.86 0 0 0 .2 1.5z" fill="#ed8305" data-color="1"/>
                </g>
            </g>
        </g>
    </g>
</svg>
