<?xml version="1.0" encoding="UTF-8"?>
<svg xmlns="http://www.w3.org/2000/svg" version="1.1" viewBox="0 0 543 120.3">
  <defs>
    <style>
      .cls-1 {
        fill: #4d4136;
      }

      .cls-1, .cls-2, .cls-3, .cls-4, .cls-5, .cls-6, .cls-7, .cls-8, .cls-9, .cls-10, .cls-11, .cls-12, .cls-13, .cls-14, .cls-15, .cls-16, .cls-17, .cls-18, .cls-19, .cls-20, .cls-21, .cls-22, .cls-23, .cls-24, .cls-25, .cls-26, .cls-27, .cls-28, .cls-29, .cls-30, .cls-31 {
        stroke-width: 0px;
      }

      .cls-2 {
        fill: #bf844f;
      }

      .cls-3 {
        fill: #51463b;
      }

      .cls-4 {
        fill: #56514c;
      }

      .cls-5 {
        fill: #794c1e;
      }

      .cls-6 {
        fill: #000;
      }

      .cls-7 {
        fill: #f9dfc1;
      }

      .cls-8 {
        fill: #67615a;
      }

      .cls-9 {
        fill: #524438;
      }

      .cls-10 {
        fill: #eda15b;
      }

      .cls-11 {
        fill: #857f78;
      }

      .cls-12 {
        fill: #7a6552;
      }

      .cls-13 {
        fill: none;
      }

      .cls-14 {
        fill: #4a3f35;
      }

      .cls-15 {
        fill: #5a4b3e;
      }

      .cls-16 {
        fill: #543;
      }

      .cls-17 {
        fill: #302924;
      }

      .cls-18 {
        fill: #bf844e;
      }

      .cls-19 {
        fill: #514d48;
      }

      .cls-20 {
        fill: #463a30;
      }

      .cls-21 {
        fill: #fbe0c2;
      }

      .cls-22 {
        fill: #eea25b;
      }

      .cls-23 {
        fill: #44280f;
      }

      .cls-24 {
        fill: #442810;
      }

      .cls-25 {
        fill: #534231;
      }

      .cls-26 {
        fill: #794b1e;
      }

      .cls-27 {
        fill: #493d31;
      }

      .cls-28 {
        fill: #57483a;
      }

      .cls-29 {
        fill: #655343;
      }

      .cls-30 {
        fill: #4e4a45;
      }

      .cls-31 {
        fill: #312a23;
      }
    </style>
  </defs>
  <g id="Layer_1" data-name="Layer 1">
    <path class="cls-6" d="M9.8,81.4c-2.2,0-3.8-.4-4.8-1.3s-1.4-2.1-1.4-3.8,0-2.2.2-4.1c.1-2,.3-4.2.5-6.7.2-2.5.4-5.1.6-7.9.2-2.8.4-5.4.6-7.8.2-2.4.4-4.6.5-6.4.1-1.8.2-3.1.2-3.8s.3-.9,1-.9h3.3c2.4,0,4.1.5,4.9,1.6s1.3,2.6,1.3,4.6,0,.8-.1,1.9c0,1.1-.1,2.4-.2,4.1-.1,1.6-.3,3.5-.4,5.5-.1,2-.3,4.1-.4,6.2-.1,2.1-.3,4.2-.4,6.2-.1,2-.2,3.8-.4,5.5-.1,1.6-.2,3-.3,4.1,0,1.1-.1,1.7-.2,2,0,.3-.1.6-.2.7-.1.1-.4.2-.7.2h-3.3ZM32.2,70.6c-.1,1.8-.3,3.6-.4,5.3-.2,1.6-.3,3.1-.4,4.3,0,.5-.1.8-.3,1-.2.2-.5.2-1,.2h-2.2c-1.2,0-2.3-.1-3.1-.4-.8-.3-1.4-.7-1.9-1.1-.4-.5-.8-1.1-1-1.7-.2-.7-.2-1.5-.2-2.5s0-1.4,0-2.5c0-1.1.2-2.6.4-4.6.2-2,.3-4.4.5-7.4.2-3,.5-6.7.8-11.1,0-.9.1-1.4.3-1.6.1-.1.4-.2,1-.2h2.3c1.2,0,2.2.1,2.9.4s1.4.6,1.9,1.1.8,1,1,1.6c.2.6.3,1.2.4,1.9,1.2-2.2,2.5-3.6,4-4.4s3.2-1.1,5.2-1.1,2.1,0,3.1.3c1,.2,1.9.5,2.7,1,.8.5,1.5,1.1,2,1.9.6.8,1,1.7,1.2,2.9,1.2-2.3,2.6-3.9,4.1-4.8,1.5-.9,3.3-1.4,5.6-1.4s2.4.1,3.5.4c1.2.2,2.2.7,3,1.3.8.6,1.5,1.5,2,2.6.5,1.1.8,2.4.8,4.1s0,2.8-.2,4.6c-.1,1.8-.3,3.8-.4,5.9-.2,2.1-.3,4.2-.5,6.5-.2,2.2-.4,4.3-.5,6.4,0,.4,0,.8-.1,1,0,.2-.1.4-.2.5,0,.1-.2.2-.4.2-.2,0-.5,0-.8,0h-1.9c-1.3,0-2.3-.1-3.1-.4-.8-.2-1.4-.6-1.9-1-.4-.4-.8-1-1-1.6-.2-.7-.2-1.4-.2-2.3s0-1.3,0-2.2c0-1,.2-2,.2-3.1.1-1.1.2-2.3.3-3.5.1-1.2.2-2.3.3-3.3.1-1,.2-1.9.2-2.7,0-.8.1-1.3.1-1.5,0-1-.2-2-.7-2.8-.4-.8-1.2-1.2-2.4-1.2s-1.9.3-2.7,1c-.8.7-1.4,1.6-1.9,2.8-.5,1.2-.9,2.6-1.3,4.3s-.5,3.4-.7,5.3c0,1.2-.2,2.7-.3,4.3-.1,1.6-.3,3.6-.4,6,0,.4,0,.8-.1,1,0,.2-.1.4-.2.5,0,.1-.2.2-.4.2s-.5,0-.8,0h-1.9c-1.3,0-2.3-.1-3.1-.4s-1.4-.6-1.9-1c-.4-.4-.8-1-1-1.6-.2-.7-.2-1.4-.2-2.3s0-2,.2-3.5c.2-1.6.3-3.2.4-4.8.2-1.7.3-3.3.4-4.7.2-1.5.2-2.6.2-3.3,0-1-.2-2-.7-2.8-.4-.8-1.2-1.2-2.4-1.2s-2,.4-2.8,1.2c-.8.8-1.4,1.9-1.9,3.2-.5,1.3-.9,2.9-1.2,4.7-.3,1.8-.5,3.7-.6,5.6ZM96.7,47.8c3.8,0,6.6,1.2,8.5,3.5,1.9,2.3,2.9,6,2.9,11s-.4,5.9-1.1,8.3c-.7,2.4-1.7,4.5-3,6.2-1.3,1.7-2.8,3-4.5,3.8-1.7.9-3.6,1.3-5.6,1.3s-3.8-.5-5-1.4c-1.2-.9-2.1-2.2-2.8-3.9-.1,1.4-.2,2.5-.3,3.3,0,.8-.1,1.4-.2,1.8,0,.5,0,.9-.1,1.3,0,.4,0,.8-.1,1.4,0,.6,0,1.4-.2,2.5s-.2,2.5-.4,4.3c0,.5-.1.8-.3,1s-.5.2-1,.2h-2.2c-1.2,0-2.3-.1-3.1-.4-.8-.2-1.4-.6-1.9-1.1-.4-.5-.8-1.1-1-1.8-.2-.7-.2-1.5-.2-2.4s0-1.5.2-3.2c.1-1.8.3-3.9.4-6.3.2-2.5.4-5.1.6-8,.2-2.8.5-5.5.7-8.1.2-2.6.4-4.9.5-6.9.2-2,.3-3.4.4-4.1,0-.9.1-1.4.3-1.6.1-.1.4-.2,1-.2h2.3c2.2,0,3.7.5,4.7,1.4,1,.9,1.5,1.9,1.5,3.2.9-1.8,2.1-3.2,3.5-4,1.5-.8,3.3-1.2,5.5-1.2ZM92.3,55.8c-2,0-3.5.9-4.5,2.6-1,1.8-1.4,4.2-1.4,7.2s0,2.1.2,3.1c.2,1,.4,1.9.8,2.7.4.8.8,1.4,1.4,1.9.6.5,1.4.7,2.4.7,1.7,0,3.2-.8,4.3-2.5,1.2-1.7,1.7-4.3,1.7-7.9s0-2-.2-2.9c-.1-1-.4-1.8-.7-2.5s-.9-1.3-1.5-1.7-1.5-.7-2.5-.7ZM110.9,74c0-3.6,1.6-6.4,4.9-8.5,3.2-2,8-3.1,14.3-3.3,0-.4,0-.8,0-1.1,0-.3,0-.7,0-1.1,0-1.3-.2-2.3-.7-3.1-.5-.8-1.5-1.1-3-1.1s-1.5.1-2,.4c-.5.2-.9.6-1.3,1-.3.4-.6.9-.8,1.5-.2.6-.4,1.3-.5,2,0,.4-.3.6-.5.7-.3,0-.7.1-1.3.1-4.1,0-6.1-1.5-6.1-4.6s.3-2.4.8-3.5c.6-1.1,1.5-2.1,2.6-2.9,1.2-.8,2.6-1.5,4.3-2,1.7-.5,3.7-.7,6-.7,4.4,0,7.7.9,9.7,2.8,2,1.8,3,4.4,3,7.8s0,1.2-.2,2.4c0,1.1-.2,2.3-.4,3.6-.1,1.2-.2,2.4-.4,3.5,0,1.1-.1,1.9-.1,2.3,0,1,.2,1.7.5,2.2.4.4.8.7,1.2.8.5.2.9.3,1.3.4.4,0,.5.3.5.6,0,.9-.1,1.8-.4,2.7-.2.9-.6,1.8-1.2,2.5-.5.8-1.3,1.4-2.2,1.9-.9.5-2.1.7-3.4.7s-3.4-.5-4.3-1.4-1.6-2.2-1.9-3.8c-1,1.4-2.2,2.6-3.8,3.7-1.5,1-3.5,1.6-6,1.6s-2.3-.1-3.4-.4c-1-.3-2-.7-2.8-1.4-.8-.6-1.4-1.5-1.9-2.5-.4-1-.7-2.3-.7-3.7ZM129.6,67.2c-1,0-2.1,0-3.1.2-1,.2-1.9.4-2.7.8-.8.3-1.4.8-1.9,1.3-.5.6-.7,1.2-.7,2s.3,1.6.8,1.9c.6.4,1.2.5,1.9.5s1.3-.1,1.9-.4c.6-.3,1.2-.7,1.7-1.3.5-.6,1-1.3,1.3-2.2.4-.8.6-1.8.7-3ZM161.6,74c1.2,0,2.2-.2,3-.5.9-.3,1.6-.7,2.3-1.1.6-.4,1.2-.8,1.6-1.1s.8-.5,1.2-.5c.9,0,1.4.6,1.4,1.8s0,.7-.2,1.2c-.1.5-.3,1-.5,1.6-.2.5-.4,1-.7,1.5-.2.5-.4.8-.6,1.1-.2.2-.6.5-1.1,1-.5.4-1.1.9-2,1.3-.8.4-1.8.8-2.9,1.1-1.1.4-2.4.5-3.7.5s-3.1-.2-4.7-.7c-1.6-.5-3.1-1.3-4.4-2.4-1.3-1.2-2.4-2.7-3.3-4.6-.8-2-1.3-4.4-1.3-7.3s0-2.2.2-3.5c.2-1.4.5-2.7.9-4.1.4-1.4,1-2.8,1.7-4.2.8-1.4,1.8-2.6,3-3.7,1.2-1.1,2.7-1.9,4.4-2.6,1.8-.7,3.8-1,6.2-1s3.6.2,5,.7c1.4.4,2.6,1.1,3.5,1.9.9.8,1.6,1.7,2,2.7.5,1,.7,2.2.7,3.4,0,2.2-.7,3.8-2,4.8-1.4,1-3.3,1.5-5.8,1.5s-1,0-1.3-.1c-.2-.1-.3-.4-.3-.7,0-1,0-1.8,0-2.6,0-.8-.2-1.4-.4-1.9-.2-.5-.4-.9-.8-1.2-.4-.3-.9-.4-1.6-.4-1.2,0-2.2.4-3,1.2-.7.8-1.3,1.8-1.7,2.9-.4,1.1-.6,2.3-.7,3.5,0,1.2-.1,2.2-.1,3,0,2.8.4,4.8,1.3,5.9.9,1.1,2.4,1.7,4.3,1.7ZM189.9,56.5c-.1,1.5-.3,3-.4,4.5-.1,1.5-.2,2.9-.4,4.2-.1,1.3-.2,2.5-.3,3.5,0,1,0,1.8,0,2.4,0,1,.1,1.7.4,2.1.2.3.6.5,1.2.5s.8,0,1.1-.2.6-.3.9-.5c.3-.2.5-.4.7-.5.2-.2.5-.2.8-.2s.5.2.8.5.4,1.1.4,2.2c0,2.2-.6,3.9-1.8,5.2s-3.3,1.9-6.2,1.9-5-.7-6.4-2c-1.4-1.4-2-3.4-2-6.2s0-1.3,0-2.1c0-.8.2-1.9.3-3.2s.3-2.9.4-4.9c.2-1.9.4-4.3.6-7.1h-3.2c-.3,0-.5,0-.6-.2,0-.2,0-.4,0-.7l.2-3.1c0-.5.1-1,.2-1.5.1-.5.3-1,.6-1.4.3-.4.8-.7,1.3-1,.6-.2,1.3-.4,2.2-.4.3-.7.6-1.6,1-2.6s.7-2,1.1-2.9c.4-1,.7-1.8,1-2.4.4-.6.7-1,1-1h1.7c1.7,0,2.8.5,3.5,1.6.6,1,1,2.3,1,3.7s0,2-.2,3.5h6.3c.6,0,1,.3,1,.8l-.2,3.2c0,1.2-.4,2.2-1,2.9-.6.7-1.7,1.1-3.5,1.1h-3.2ZM207.8,81.4c-2.3,0-3.9-.4-4.9-1.3-.9-.9-1.4-2.3-1.4-4s0-1.3,0-2.5c0-1.2.2-2.5.3-4.1.1-1.6.2-3.3.4-5.1.2-1.8.3-3.7.5-5.6.2-2.4.4-4.4.5-6.1.2-1.7.3-3.2.4-4.4,0-1.2.1-2.3.2-3.1,0-.8.1-1.6.1-2.2,0-.6,0-1.2,0-1.7,0-.5,0-1.1,0-1.7s.1-.5.3-.7c.2-.2.4-.2.6-.2,1,0,2.2,0,3.4,0,1.2,0,2.5-.2,3.7-.2,1.2,0,2.4-.1,3.6-.2,1.2,0,2.2-.1,3.1-.1,2.6,0,4.8.3,6.6,1,1.8.6,3.3,1.5,4.4,2.7,1.2,1.2,2,2.6,2.5,4.3.6,1.7.8,3.6.8,5.8s-.3,4.6-1,6.8c-.6,2.2-1.6,4.1-2.9,5.8-1.3,1.7-3,3-5.1,4s-4.6,1.5-7.4,1.5-3.2-.2-4.4-.5l-.8,11c0,.3-.1.6-.2.7-.1.1-.4.2-.7.2h-2.8ZM217.5,47.2c-.5,0-1.1,0-1.7.1-.6,0-1.3,0-2,.2,0,1.7-.2,3.7-.3,6.1-.1,2.4-.3,4.9-.5,7.6.6.2,1.2.3,1.7.4.6,0,1.1,0,1.6,0,1.4,0,2.5-.3,3.4-1,.9-.7,1.6-1.5,2-2.5.5-1,.8-2,1-3s.2-1.9.2-2.7c0-1.7-.4-3-1.2-3.9-.8-.9-2.2-1.4-4.2-1.4ZM243.2,81.9c-2.5,0-4.3-.7-5.3-2s-1.6-3.5-1.6-6.5,0-1.1,0-1.8c0-.7.2-1.6.2-2.8.1-1.2.3-2.6.4-4.3s.3-3.7.5-6.1c.2-2.4.4-5.2.6-8.5.2-3.2.5-7,.7-11.3,0-.9.1-1.4.3-1.6.1-.1.4-.2,1-.2h2.3c1.2,0,2.2.1,3,.4.8.3,1.4.7,1.9,1.1.5.5.8,1,1,1.7.2.6.3,1.2.3,1.9s0,2-.2,3.5c0,1.5-.2,3.2-.4,5-.2,1.9-.3,3.8-.5,5.9-.2,2-.3,4-.5,5.9-.2,1.8-.3,3.5-.4,5,0,1.5-.1,2.6-.1,3.4s.2,1.8.5,2.2c.4.4.8.8,1.3,1,.4.2.8.3,1.2.4.4,0,.6.2.6.4,0,.9,0,1.8-.3,2.6-.2.8-.6,1.6-1.1,2.3-.5.7-1.2,1.2-2.2,1.7-.9.4-2,.6-3.4.6ZM268.2,82c-1.8,0-3.5-.2-5.3-.7-1.7-.4-3.3-1.2-4.7-2.3-1.4-1.1-2.5-2.5-3.4-4.3-.9-1.8-1.3-4.1-1.3-6.8s0-2.2.2-3.6.5-2.8.9-4.3c.5-1.5,1.1-2.9,1.9-4.4.8-1.5,1.9-2.8,3.2-4,1.3-1.2,2.9-2.1,4.8-2.8,1.9-.7,4.1-1.1,6.7-1.1s3.8.2,5.3.7c1.4.5,2.6,1.1,3.5,2,.9.8,1.5,1.7,1.9,2.8s.6,2.2.6,3.5c0,1.8-.4,3.4-1.1,4.7-.7,1.3-1.7,2.4-2.9,3.2-1.2.8-2.5,1.5-3.9,2-1.4.5-2.9.9-4.3,1.1-1.4.2-2.7.4-3.9.5-1.2,0-2.1,0-2.7,0,0,.8.1,1.5.3,2.3.2.7.6,1.4,1,1.9s1,1,1.7,1.4,1.6.5,2.6.5,1.8-.2,2.4-.5c.6-.4,1.1-.7,1.4-1.1.4-.4.7-.8.9-1.1.3-.4.6-.5,1.1-.5s.5,0,1,.2c.5,0,1,.3,1.6.6.5.3,1,.8,1.4,1.3.4.6.6,1.3.6,2.2s-.4,2.2-1.1,3c-.7.8-1.7,1.5-2.8,2-1.1.5-2.4.9-3.8,1.1-1.4.2-2.8.4-4.1.4ZM269.3,55.8c-.9,0-1.6.3-2.3.8-.6.5-1.1,1.1-1.6,1.9-.4.8-.7,1.6-1,2.5-.2.9-.4,1.8-.5,2.6,2.5,0,4.5-.5,6-1.3,1.6-.8,2.3-1.9,2.3-3.4s-.3-1.5-.8-2.2c-.5-.6-1.2-1-2.3-1ZM284.5,74c0-3.6,1.6-6.4,4.9-8.5,3.2-2,8-3.1,14.3-3.3,0-.4,0-.8,0-1.1,0-.3,0-.7,0-1.1,0-1.3-.2-2.3-.7-3.1-.5-.8-1.5-1.1-3-1.1s-1.5.1-2,.4c-.5.2-.9.6-1.3,1-.3.4-.6.9-.8,1.5-.2.6-.4,1.3-.5,2,0,.4-.3.6-.5.7-.3,0-.7.1-1.3.1-4.1,0-6.1-1.5-6.1-4.6s.3-2.4.8-3.5c.6-1.1,1.5-2.1,2.6-2.9,1.2-.8,2.6-1.5,4.3-2,1.7-.5,3.7-.7,6-.7,4.4,0,7.7.9,9.7,2.8,2,1.8,3,4.4,3,7.8s0,1.2-.2,2.4c0,1.1-.2,2.3-.4,3.6-.1,1.2-.2,2.4-.4,3.5,0,1.1-.1,1.9-.1,2.3,0,1,.2,1.7.5,2.2.4.4.8.7,1.2.8.5.2.9.3,1.3.4.4,0,.5.3.5.6,0,.9-.1,1.8-.4,2.7s-.6,1.8-1.2,2.5c-.5.8-1.3,1.4-2.2,1.9-.9.5-2.1.7-3.4.7s-3.4-.5-4.3-1.4c-1-.9-1.6-2.2-1.9-3.8-1,1.4-2.2,2.6-3.8,3.7-1.5,1-3.5,1.6-6,1.6s-2.3-.1-3.4-.4c-1-.3-2-.7-2.8-1.4-.8-.6-1.4-1.5-1.9-2.5-.4-1-.7-2.3-.7-3.7ZM303.1,67.2c-1,0-2.1,0-3.1.2-1,.2-1.9.4-2.7.8-.8.3-1.4.8-1.9,1.3-.5.6-.7,1.2-.7,2s.3,1.6.8,1.9c.6.4,1.2.5,1.9.5s1.3-.1,1.9-.4c.6-.3,1.2-.7,1.7-1.3.5-.6,1-1.3,1.3-2.2.4-.8.6-1.8.7-3ZM334,47.8c3.4,0,5.9.7,7.5,2,1.6,1.3,2.4,3,2.4,5.1s-.6,3.1-1.7,4c-1.1.9-2.7,1.4-4.7,1.4s-.9,0-1.1-.2c-.2-.1-.3-.3-.3-.7s0-.8-.1-1.2c0-.5-.2-.9-.4-1.3-.2-.4-.5-.8-1-1.1-.4-.3-1.1-.4-1.9-.4s-2,.3-2.7.8c-.7.5-1,1.2-1,2s.3,1.5,1,2c.7.5,1.6.9,2.6,1.4,1.1.4,2.2.9,3.5,1.4,1.2.4,2.4,1,3.4,1.8,1.1.8,2,1.7,2.6,2.9.7,1.1,1.1,2.6,1.1,4.4,0,2.9-1,5.2-3.1,7.1-2,1.8-5.1,2.8-9.2,2.8s-2.4,0-3.9-.3c-1.4-.2-2.8-.4-4.1-.8-1.3-.4-2.4-.9-3.4-1.6-.9-.6-1.3-1.4-1.3-2.4s0-.8.2-1.3c.2-.5.4-1,.7-1.5.3-.5.7-.9,1.1-1.2.4-.4,1-.5,1.6-.5s.9.1,1.3.4.9.5,1.4.8c.6.2,1.2.5,2,.7.8.2,1.9.4,3.2.4s1.9-.1,2.6-.4c.8-.2,1.2-.8,1.2-1.6s-.3-1.4-1-1.8c-.6-.5-1.5-.9-2.5-1.3-1-.4-2-.8-3.2-1.3-1.1-.5-2.2-1.1-3.2-1.9-1-.8-1.8-1.7-2.4-2.9-.6-1.2-1-2.7-1-4.6s.4-3.8,1.2-5.2c.8-1.4,1.9-2.6,3.2-3.5,1.3-.9,2.8-1.5,4.4-1.9,1.6-.4,3.3-.6,4.9-.6ZM362.1,82c-1.8,0-3.5-.2-5.3-.7-1.7-.4-3.3-1.2-4.7-2.3-1.4-1.1-2.5-2.5-3.4-4.3-.9-1.8-1.3-4.1-1.3-6.8s0-2.2.2-3.6c.2-1.4.5-2.8.9-4.3.5-1.5,1.1-2.9,1.9-4.4.8-1.5,1.9-2.8,3.2-4,1.3-1.2,2.9-2.1,4.8-2.8,1.9-.7,4.1-1.1,6.7-1.1s3.8.2,5.3.7c1.4.5,2.6,1.1,3.5,2,.9.8,1.5,1.7,1.9,2.8s.6,2.2.6,3.5c0,1.8-.4,3.4-1.1,4.7-.7,1.3-1.7,2.4-2.9,3.2-1.2.8-2.5,1.5-3.9,2-1.4.5-2.9.9-4.3,1.1-1.4.2-2.7.4-3.9.5-1.2,0-2.1,0-2.7,0,0,.8.1,1.5.3,2.3.2.7.6,1.4,1,1.9s1,1,1.7,1.4,1.6.5,2.6.5,1.8-.2,2.4-.5c.6-.4,1.1-.7,1.4-1.1.4-.4.7-.8.9-1.1.3-.4.6-.5,1.1-.5s.5,0,1,.2c.5,0,1,.3,1.6.6.5.3,1,.8,1.4,1.3.4.6.6,1.3.6,2.2s-.4,2.2-1.1,3c-.7.8-1.7,1.5-2.8,2-1.1.5-2.4.9-3.8,1.1-1.4.2-2.8.4-4.1.4ZM363.3,55.8c-.9,0-1.6.3-2.3.8-.6.5-1.1,1.1-1.6,1.9-.4.8-.7,1.6-1,2.5-.2.9-.4,1.8-.5,2.6,2.5,0,4.5-.5,6-1.3,1.6-.8,2.3-1.9,2.3-3.4s-.3-1.5-.8-2.2c-.5-.6-1.2-1-2.3-1Z"/>
    <rect class="cls-13" x="378.5" y="-19.1" width="164" height="153"/>
  </g>
  <g id="Layer_3" data-name="Layer 3">
    <g>
      <path class="cls-22" d="M431.3,31.9h0s0,0,0,0c.3,0,.5,0,.4-.3,0,0,0,0,0,0,0,0,.1-.1.2-.2,0,0,0,0,0,0,0,0,.2,0,.2,0l1.5-1c.3,0,.6.2.9.3,1.7.5,3.4,1.1,5,1.7,1.2.4,2.5.9,3.7,1.5,1.7.8,3.4,1.6,5.1,2.4.5.2.5.5.2.9-2.2,2.7-4.3,5.5-6.2,8.5-1.2,2-2.1,4.2-2.4,6.5-.2,1.2-.2,2.5-.2,3.7-.1,2.3-.2,4.7-.3,7,0,2.5-.8,4.8-1.7,7.1,0,.1-.2.2-.3.4-.3-.5-.6-.9-.9-1.3-.6-1-1.5-1.9-1.2-3.3,0,0,0,0,0-.1,0,0,0-.1,0-.2,0,0,0-.2-.1-.2-.2-.7-1-1.1-1.8-.9-1.5.3-2.6,1.2-3.7,2.2-2,1.7-3.7,3.7-5.3,5.8-1.6,2-3.2,4.1-4.9,6.1-.6.7-1.2,1.4-2,1.7-.7.3-1.3.3-1.9-.1-.6-.5-.7-1.1-.7-1.8,0,0,0,0,0-.1.4-1.6,1.3-2.9,2.3-4.3.8-1.1,1.7-2.2,2.6-3.4.3-.4.5-.8.6-1.2.1-.6-.2-.9-.8-.7-.3.1-.7.3-.9.5-1.1,1.2-2.3,2.3-3.2,3.6-.7,1-1.2,2.2-1.8,3.3-.1.3-.4.6-.6.6-.5.1-1.1,0-1.6-.3-.3-.3-.6-.8-.9-1.2,0-.6,0-1.3,0-1.9.4-1.5,1.1-2.7,1.9-4,.6-1,1.2-2,1.8-3.1.2-.4.3-1,.4-1.5,0-.2-.2-.6-.4-.7-.1,0-.5,0-.7.1-.3.2-.6.4-.8.7-.7,1.1-1.4,2.3-2.1,3.4-.4.6-.7,1.3-1,2-.1.3-.3.3-.6.1-.9-.7-1.6-1.5-1.4-2.7,0-.8.4-1.6.7-2.3.6-1.1,1.3-2.1,2-3.2.5-.9,1-1.7,1.5-2.6.2-.4.3-.9,0-1.4-.1-.2-.3-.4-.6-.5-.2,0-.5.1-.6.3-.2.2-.3.5-.5.8-1.1,1.8-2.3,3.7-3.4,5.5,0,.2-.2.3-.4.4,0,0-.1,0-.2,0-.3-.8-.6-1.6-.8-2.4-.4-1.7.3-3.2,1.2-4.6,1.3-2.1,3-3.9,4.7-5.7,1.3-1.4,2.6-2.7,3.9-4,.1-.1.1-.3.2-.5,0,0,0,0,0,0,.4,0,.5-.2.5-.5,0,0,0,0,0,0,0,0,.2,0,.2,0,0,0,.1-.1.2-.2h0c0-.1,0-.1,0-.1.3,0,.4,0,.4-.4,0,0,0,0,0,0,0,0,0,0,.1,0,0,0,0,0,0,0,0,0,0,0,0,0,.1,0,.2,0,.3,0,.3-.3.6-.6.9-.9,0,0,0-.2,0-.3,0,0,0,0,0,0,0,0,.1,0,.2-.1,0,0,0,0,0,0,0,0,0-.1.1-.2,0,0,0,0,0,0,.3.1.4,0,.4-.3,0,0,0,0,0,0,0,0,0,0,.1,0,.1,0,.2-.1.3-.2,0-.1,0-.2,0-.3,0,0,0,0,0,0,0,0,.1,0,.2-.1,0,0,0,0,0,0,0,0,.1-.1.2-.2,0,0,0,0,0,0,.1,0,.2-.1.3-.2,0,0,0,0,0,0,0,0,.2-.2.2-.2,0,0,.1,0,.1,0,1.8-1.7,3.6-3.5,5.3-5.2,0,0,0-.2,0-.3,0,0,0,0,0,0,.2.1.3,0,.3-.2,0,0,0,0,0,0,.1-.1.2-.2.3-.3,0,0,0,0,0,0,.1-.1.2-.2.3-.3,0,0,0,0,0,0,.1-.1.3-.2.4-.3,0,0,0,0,0,0,0,0,0-.1.1-.2,0,0,0,0,0,0,.1,0,.2-.2.3-.3,0,0,0,0,0,0,0,0,.1-.1.2-.2,0,0,0,0,0,0,0,0,.1,0,.2-.1,0,0,0,0,0,0,0,0,.1,0,.2-.1.8-.7,1.7-1.4,2.5-2.1.3-.2.5-.5.7-.8,0,0,0,0,0,0,0,0,0,0,0-.1Z"/>
      <path class="cls-26" d="M511.6,55.7c0,0-.1,0-.2,0,0-.4-.4-.4-.6-.7,0,0,0-.2,0-.3,0,0,0-.1,0-.2,0,0,0-.1,0-.2,0-.2.1-.3.2-.5.1-.8.3-1.6.4-2.4,0,0,0,0,0-.1,0-.4.2-.8.2-1.2,0-.5.2-1.1.3-1.6,0,0,0-.1,0-.2,0-.3,0-.5,0-.8.1-.7.3-1.4.3-2.1,0-1.6,0-3.1.1-4.7,0-.1,0-.3,0-.5.8.3,1.5.6,2.3.9.8.3,1.6.6,2.4.9,0,0,.1.2.2.3,0,.2,0,.3.1.5,0,.2.1.5.2.7v.3s0,0,0,0c0,.2,0,.3,0,.5.3,1,.7,2,.9,3.1.5,2.4,1.1,4.7,1.4,7.1.2,1.7.5,3.5.5,5.2,0,.3,0,.6.1,1.1-.3-.2-.4-.3-.5-.4-.4-.3-.8-.7-1.3-.9-2.3-1.3-4.5-2.6-6.8-3.9-.1,0-.4,0-.6,0Z"/>
      <path class="cls-2" d="M488.9,105.3c.2,0,.3-.1.5-.2.4.3.8,0,1.2,0,1.2-.2,2.4-.4,3.6-.7,1.8-.5,3.6-1.1,5.5-1.6,0,0,.2,0,.2,0,0,1.5,0,3-.3,4.5,0,.2-.2.4-.4.6-1,.8-2,1.6-3.1,2.3-2.8,1.8-5.7,3.4-8.7,4.8-.3.1-.5.4-.7.5-.4,0-.8,0-1,.6,0,0,0,0,0,0-.1,0-.3,0-.4,0-.5.3-1.1.5-1.6.8-.2,0-.4,0-.5,0,.2-1.1.5-2.1.7-3.2.3-1.7.7-3.5,1-5.2,0,0,.1,0,.1,0,.1-.6.3-1.3.3-1.9,0-.3.2-.5.5-.5.6,0,1.2-.1,1.8-.2.4,0,.9-.3,1.3-.4Z"/>
      <path class="cls-17" d="M433.5,67.8c.7.9,1.4,1.7,2.1,2.6,1.8,2.3,3.5,4.6,5.3,6.9,2.3,3,5.3,4.9,9,5.8,2.5.6,5.1,1.2,7.4,2.3,1.7.8,3.2,1.8,4.4,3.3.4.5.4.7-.2.9-1.2.4-2.4.8-3.7,1.2-.2,0-.5,0-.7,0-.4-.2-.8-.5-1.1-.2-.3.3-.3.8-.3,1.2.1,1.7.8,3.2,1.5,4.8,1.4,2.9,3.1,5.6,5.1,8.1.8,1,1.7,1.9,2.5,2.8.9,1,1.5,2,1.9,3.3.3.9-.3,2.2-1.2,2.6-1.2.5-2.3.3-3.4-.2-1.6-.7-2.6-2-3.5-3.5-.6-1-1.2-2.1-1.8-3.1-.2-.4-.5-.8-.8-1.1-.3-.4-.8-.2-.8.2,0,.6,0,1.3.3,1.9.6,1.6,1.8,2.9,2.9,4.1.8.8,1.6,1.7,2.3,2.6.6.7.5,1.3,0,2-.5.7-1.1,1-1.9.8-1.1-.2-2-.8-2.8-1.5-1.3-1.2-2.6-2.5-3.9-3.7-.6-.6-1.2-1.1-1.8-1.6,0,0,0,0-.1,0-.3,0-.6-.1-.8-.2,0,.3,0,.6.2.8.9,1.2,1.9,2.3,2.9,3.5.4.5.8.9,1.2,1.4.5.7.4,1.3-.2,1.9-.8.7-1.7.8-2.6.3-1.2-.6-2-1.7-2.8-2.7-1-1.2-1.9-2.5-3-3.6-.5-.5-1.1-.9-1.7-1.3-.4-.2-.6,0-.5.4,0,.3.2.7.4.9.9,1.2,1.9,2.3,2.9,3.5.3.3.6.7.8,1,.3.5.2.9-.4,1.2-2,.8-3.8.6-5.6-1.1-1.9-1.8-3.4-3.8-4.8-6-2.3-3.6-4.1-7.4-5.9-11.2-1.6-3.5-3.2-6.9-4.7-10.5-1-2.4-1.9-4.9-2.8-7.4,0-.1,0-.3-.1-.5.1,0,.3.2.4.3.1.4.3.7.4,1.1.6,1.4,1.1,2.9,1.7,4.3.5,1.2.9,2.4,1.5,3.6.9,1.9,1.7,3.9,2.7,5.8,1.1,2.3,2.2,4.6,3.3,6.9.9,1.8,1.9,3.6,2.8,5.4.5,1,1.1,1.9,1.8,2.8,1,1.4,2.1,2.8,3.3,4.2,1.1,1.3,2.4,2.3,4.2,2.2.5,0,.9-.2,1.4-.3.7-.2.8-.5.3-1-.8-.9-1.6-1.8-2.4-2.8-.6-.7-1.2-1.4-1.5-2.3-.1-.4-.1-.8.3-1,.3-.1.8-.1,1,0,.5.3,1.1.7,1.5,1.1,1.1,1.3,2.2,2.7,3.3,4,.7.8,1.5,1.6,2.3,2.3.8.6,1.6.6,2.3,0,.3-.2.7-.5.5-1-.1-.4-.4-.7-.6-1-.6-.7-1.3-1.4-2-2.1-.5-.5-1-1-1.4-1.6-.3-.4-.6-.9-.6-1.5,0-.4.2-.6.6-.5.7,0,1.2.4,1.7.9,1.2,1.2,2.3,2.4,3.6,3.5,1,.9,2.2,1.7,3.3,2.4,1.1.7,2,.3,2.5-.8,0-.1.1-.3,0-.4-.2-.4-.4-.8-.6-1.1-.6-.7-1.4-1.4-2-2.2-1.5-1.6-2.9-3.3-3.4-5.5-.1-.5,0-.9.3-1.3.3-.3.7-.2,1,0,.2.1.4.4.6.6.4.6.7,1.2,1,1.8.9,1.6,1.9,3.2,3.3,4.5,1,.9,2.1,1.4,3.4,1.4,1.3,0,2.4-1.1,1.9-2.5-.3-.7-.6-1.4-1-2-.7-1-1.5-1.9-2.3-2.7-1.8-2-3.3-4.1-4.6-6.4-1.4-2.4-2.6-4.8-3.1-7.6-.1-.6,0-1,.3-1.5.3-.6,1.1-.6,1.7-.1.1,0,.3.2.5.2,1.2-.4,2.4-.8,3.6-1.1.4-.1.4-.3.1-.5-1.2-1.2-2.6-2.2-4.1-2.9-1.9-1-4-1.4-6-2-1.3-.4-2.6-.7-3.9-1.1-1.7-.6-3.3-1.5-4.6-2.8-2.1-1.9-3.7-4.3-5.4-6.5-1.2-1.6-2.4-3.1-3.6-4.7-.2-.3-.3-.6-.4-.9,0,0,0,0,.1,0Z"/>
      <path class="cls-16" d="M448.6,39.6c.2-.4.4-.9.6-1.3,0-.1.3-.2.5-.1.7.1,1.3-.4,1.2-1.1-.1-.4-.3-.9-.6-1.2-.5-.5-1.1-1.1-1.7-1.4-2-1.1-4.1-2.2-6.2-3.2-2.1-1-4.4-1.6-6.6-2.3-1.2-.4-2.3-.9-3.4-1.5-.7-.4-1.2-1-1.6-1.7-.9-1.5,0-3.2,1.9-3.4,1.5-.2,2.9.4,4.3.9,1.6.6,3.2,1.2,4.8,1.8.3,0,.6.2.8.2.2,0,.5-.1.7-.2,0-.2-.1-.6-.3-.7-.5-.4-1.1-.9-1.7-1.1-1.6-.6-3.3-1.2-4.9-1.7-.6-.2-1.2-.2-1.8-.2-.7,0-1.1-.4-1.1-1.1,0-.3,0-.6,0-.9,0-1.8,1.4-2.5,2.8-2.7,1.7-.1,3.3.2,4.9.7,1.2.4,2.4.7,3.6,1,.2,0,.4,0,.5,0,.2,0,.4-.2.4-.3,0-.2,0-.5-.2-.6-.5-.3-1-.6-1.5-.8-1.6-.4-3.3-.6-5-.9-.8-.2-1.1-.4-.9-1.3.4-1.9,1.6-2.8,3.7-2.5,2,.3,3.9,1,5.9,1.5.6.2,1.2.3,1.9.3.4,0,.8,0,1.2-.2.2,0,.3-.3.4-.4-.1-.1-.2-.3-.4-.3-.8-.2-1.6-.3-2.4-.5-1.3-.4-2.6-.7-3.9-1.2-1.2-.4-1.2-.6-.4-1.6,1.3-1.7,3-2.1,5-1.9,3.1.3,6,1.3,8.8,2.6,3,1.4,6,2.8,8.9,4.5,3.1,1.8,6.2,3.6,9.3,5.5,2.4,1.4,4.7,2.9,7,4.4.6.4,1.2.9,1.8,1.3.2.1.4.2.6.3.3.3.2.6.1.9,0,.7,0,1.5,0,2.2,0,2.2-.1,4.4-.3,6.6-.2,2-.5,3.9-.8,5.9-.3-.1-.5-.2-.7-.2.2,0,.3-.2.5-.2,0-.5,0-1,.1-1.5.1-1.2.3-2.4.5-3.5.1-1.1.2-2.3.2-3.4,0-1.7.2-3.5.2-5.2,0-.5,0-1.1-.5-1.5-.5-.3-1-.7-1.5-1.1-2.5-1.6-5.1-3.1-7.6-4.7-1.8-1.1-3.7-2.3-5.5-3.4-2-1.2-4.1-2.3-6.1-3.4-1.3-.7-2.7-1.4-4.1-2-1.6-.8-3.3-1.6-5-2.2-1.6-.6-3.3-.9-5-1.3-.9-.2-1.8-.3-2.7-.1-1.6.2-2.6,1.2-3.5,2.5.6.2,1.2.5,1.8.7,1.6.4,3.2.8,4.7,1.2.4,0,.7.2,1.1.4.4.2.3.5,0,.8-.3.4-.8.6-1.3.5-1.2-.2-2.4-.3-3.6-.7-1.6-.5-3.1-1-4.7-1.2-1-.1-2-.1-2.6.8-.3.4-.4.9-.6,1.4-.2.6,0,.8.6.9,1.2.2,2.4.4,3.6.6,1,.2,2.1.4,2.9,1,.4.3.6.7.5,1.1,0,.4-.4.6-.8.6-.5,0-.9,0-1.4-.1-1.8-.5-3.6-1-5.4-1.4-1-.3-2.1-.3-3.2,0-.7.2-1.5,1-1.6,1.7,0,.4,0,.8,0,1.2,0,.5.2.7.7.7.9.1,1.9.2,2.8.4.8.2,1.7.6,2.5.9,1.3.5,2.5.9,3.5,1.9.3.3.5.6.4,1.1-.2.4-.5.5-1,.5-.4,0-.9,0-1.3-.2-1.9-.7-3.7-1.4-5.5-2.1-1.1-.4-2.2-.7-3.4-.5-.7.1-1.3.4-1.6,1.1-.5.9,0,1.7.5,2.4.8,1,1.9,1.4,3,1.8,1.4.5,2.8.9,4.1,1.4,1.5.5,3,1.1,4.5,1.8,2.2,1,4.4,2.1,6.4,3.5.7.5,1.4,1.2,1.7,2.1.3.8-.2,1.8-.8,1.7-.6,0-.9.3-1.2.8,0,.1-.2.3-.3.4,0,0-.1,0-.2,0Z"/>
      <path class="cls-30" d="M510.2,89.7c0,.3-.1.6-.2.9,0,0-.2,0-.3,0,0,0,0-.1,0-.2.3-.3.2-.5,0-.8,0-.1,0-.2,0-.3,0-.2,0-.3-.1-.5v-.2c0-.2-.1-.3-.2-.5-.1-.1-.3-.2-.4-.4,0,0,0,0-.1-.1,0,0,0,0,0,.1,0,0-.2,0-.3,0,0,0-.2,0-.2.1,0,0-.1,0-.2,0-.2,0-.3.2-.5.2-.3.1-.6.3-.9.4,0,0-.2,0-.3.1,0,0-.1,0-.2,0-.2,0-.4.2-.6.3,0,0,0,0-.1,0h-.3c0,.2-.1.2-.2.2-.2,0-.4.2-.5.3-.7.5-1.5.7-2.4.6-.6,0-.8-.4-.4-.9.2-.3.4-.5.7-.7,1.1-.6,2.3-1.2,3.4-1.7,1.4-.7,2.9-1.2,4.1-2.2,1.2-.9,1.3-1.6.7-2.9-.4-1-1-1.3-2-.9-1.7.6-3.3,1.3-4.9,1.9-1,.4-2,.6-3,.8-.4,0-.9,0-1.1-.4-.2-.5.3-.8.6-1,.7-.3,1.4-.6,2.1-.9,1.6-.5,3.1-1,4.7-1.6,1.1-.4,2.1-1.2,2.8-2.2.7-1,.6-2.2-.3-3-.7-.6-1.6-.6-2.5-.5-2,.2-3.9,1-5.8,1.5-1.5.4-3,.8-4.5,1.3,0,0-.2,0-.2,0,0,0-.2,0-.2,0,0,0-.2,0-.3,0-.2,0-.4,0-.6.1,0,0-.2,0-.3,0-.3,0-.7.1-1,.2,0,0-.2,0-.3,0-.2,0-.4,0-.6.1-.2,0-.3,0-.5,0-.1,0-.3,0-.4,0,0,0-.1,0-.2,0-.2,0-.4,0-.5.1,0,0-.2,0-.3,0-.2,0-.5,0-.7.1h-.8c-.1.1-.3.1-.4.1,0-.1,0-.2,0-.3.3,0,.6,0,1,0,0,0,.2,0,.3,0,.2,0,.3,0,.5,0,.2,0,.4,0,.6-.1,0,0,.2,0,.2,0,.2,0,.3,0,.5,0,1-.2,2-.4,3-.7,2.7-.7,5.3-1.5,8-2.3,1.2-.3,2.5-.7,3.7-.9,1.6-.2,3,.3,3.5,1.9.3,1,0,1.8-.6,2.5-.9,1.1-2.1,1.9-3.4,2.3-1.5.5-3.1,1-4.6,1.5-.7.2-1.4.4-2,1.1.6.4,1.2.2,1.7,0,1.5-.5,2.9-1.1,4.4-1.7,1-.4,2-.7,3-1,.8-.2,1.4.1,1.7.9.2.4.4.9.5,1.4.2.8-.1,1.6-.8,2-.9.7-1.9,1.3-2.9,1.8-1.3.7-2.6,1.2-3.9,1.8-.5.3-1,.6-1.5,1-.1,0-.2.3-.4.5.6.2,1.1,0,1.5-.1,1.6-.7,3.3-1.4,4.9-2.1.8-.3,1.2-.2,1.5.7.1.4.2.8.3,1.3,0,0,0,.1,0,.2Z"/>
      <path class="cls-15" d="M415.3,46.9c0,.2,0,.4-.2.5-1.3,1.3-2.6,2.6-3.9,4-1.7,1.8-3.4,3.6-4.7,5.7-.9,1.4-1.5,2.9-1.2,4.6.2.8.5,1.6.8,2.4,0,0,.1,0,.2,0,.1-.1.3-.3.4-.4,1.1-1.8,2.3-3.7,3.4-5.5.2-.3.3-.5.5-.8.2-.2.4-.3.6-.3.2,0,.4.3.6.5.2.5.1,1,0,1.4-.5.9-1,1.8-1.5,2.6-.6,1.1-1.4,2.1-2,3.2-.4.7-.6,1.5-.7,2.3-.1,1.2.5,2,1.4,2.7.3.2.4.1.6-.1.3-.7.7-1.3,1-2,.7-1.1,1.4-2.3,2.1-3.4.2-.3.5-.5.8-.7.2-.1.5-.2.7-.1.2.1.4.5.4.7,0,.5-.1,1-.4,1.5-.5,1.1-1.2,2.1-1.8,3.1-.7,1.3-1.5,2.6-1.9,4-.1.6,0,1.3,0,1.9,0,.2,0,.3-.1.5-.5-1-.4-2.1,0-3.1.7-1.6,1.6-3.1,2.4-4.6.5-.9.9-1.8,1.3-2.7.1-.2,0-.6,0-.9-.3.1-.6.2-.8.4-1.3,1.4-2.1,3.2-3,4.9-.8,1.6-1,1.6-2.2.4-1.1-1-1.3-2.7-.6-4,.9-1.6,1.9-3.2,2.9-4.8.4-.7.7-1.4,1-2.1,0-.1,0-.2,0-.3,0-.3-.1-.5-.2-.8-.2.2-.4.3-.5.5-1.1,1.8-2.3,3.7-3.4,5.5-.1.2-.3.5-.5.7-.4.5-.7.4-1,0-1.4-2.5-1.1-5,.5-7.3,1.7-2.6,3.8-4.8,6-7,.9-.9,1.8-1.8,2.7-2.7,0,0,.3-.1.4-.2Z"/>
      <path class="cls-28" d="M435.3,65.5s0,0,0,.1c-.3,1.3.6,2.3,1.2,3.3.3.4.6.9.9,1.3.1-.2.2-.3.3-.4.9-2.3,1.6-4.7,1.7-7.1,0-2.3.2-4.7.3-7,0-1.2,0-2.5.2-3.7.4-2.3,1.2-4.5,2.4-6.5,1.9-3,4-5.8,6.2-8.5.3-.4.3-.6-.2-.9-1.7-.8-3.4-1.6-5.1-2.4-1.2-.5-2.4-1-3.7-1.5-1.7-.6-3.4-1.1-5-1.7-.3,0-.6-.2-.9-.3,0,0,.1-.1.2-.2,2.8.6,5.4,1.5,8,2.6,1.5.6,3,1.2,4.5,1.9,1,.5,2,1.1,3.1,1.7-.6.7-1,1.3-1.5,2-1.8,2.5-3.7,5-5.4,7.6-1.3,1.9-2,4.1-2.2,6.4-.2,1.7-.2,3.4-.3,5.1,0,2,0,4-.3,6-.2,1.9-.6,3.8-1.3,5.6-.2.4-.3.9-.5,1.3-.2.4-.6.5-.8.1-.7-1.1-1.4-2.2-1.9-3.4-.3-.5-.2-1.2-.2-1.8.1,0,.3.2.4.3Z"/>
      <path class="cls-31" d="M418.9,40.7c-.3.1-.5.2-.7.4-2.6,2.7-5.1,5.4-7.7,8.1-.2.2-.4.5-.7.7-.3.3-.7.2-.9-.1-.8-1.2-1.6-2.5-2.5-3.7-.6-.7-.4-1.3,0-2,.9-2.1,1.7-4.2,2.6-6.3,1.2-2.9,2.7-5.7,4.4-8.3.2-.3.5-.6.8-.8.2.3.3.6.5.9,1.4,3.6,2.8,7.3,4.2,10.9,0,.1,0,.3,0,.3ZM414,29.1c0,0-.2.1-.2.2-.3.5-.7,1-1,1.5-.9,1.6-1.8,3.2-2.5,4.9-1,2.2-1.9,4.5-2.9,6.7-.3.8-.7,1.5-1,2.2,0,.2,0,.6,0,.8.9,1.3,1.8,2.6,2.8,3.9.3.4.4.4.8,0,.4-.5.8-.9,1.2-1.4,1.3-1.4,2.6-2.7,3.9-4.1,1-1,2-2,3-3,.4-.4.4-.6.1-1.1-.2-.3-.2-.6-.4-.9-.5-1.2-1-2.3-1.4-3.5-.5-1.3-1-2.7-1.5-4-.3-.8-.5-1.5-.8-2.3Z"/>
      <path class="cls-9" d="M435.3,65.5c-.1,0-.3-.2-.4-.3-.2-.2-.4-.4-.6-.6-.3,0-.6,0-.9,0,0,0,0,0-.1,0,0,0-.2,0-.3,0-.3.1-.6.3-.9.4,0,0-.1,0-.2.1-2.5,1.7-4.5,3.8-6.4,6.2-.6.7-1.2,1.4-1.8,2.2,0,0-.1.1-.2.2-.1.1-.2.3-.3.4,0,0-.1.1-.2.2,0,0,0,.1-.1.2,0,.1-.2.2-.3.3,0,0,0,.1-.1.2,0,0-.1.1-.2.2,0,.1-.2.2-.3.3,0,0,0,.1-.1.2-.2.2-.3.4-.5.6,0,.1-.2.2-.2.3,0,0-.2.2-.2.3,0,0-.1.1-.2.2-.2.3-.4.5-.7.8,0,0-.1.1-.2.2-.1.2-.3.3-.4.5-.2.2-.4.4-.6.6,0,0-.1.1-.2.2,0,0-.1.1-.2.2-.3.2-.7.4-1,.7,0,0-.2,0-.3.1-.1,0-.3,0-.4,0-.3,0-.6,0-1,0-.2,0-.3-.1-.5-.2,0,0-.1-.1-.2-.2-.1-.2-.3-.3-.4-.5,0,0,0-.2-.1-.2,0,0,0-.1,0-.2,0,0,0-.2-.1-.2,0,0,0-.2,0-.2,0-.3,0-.6,0-.8,0-.1,0-.2,0-.3.2-.4.3-.8.5-1.3,0,0,0-.1,0-.2,0-.1.2-.3.2-.4.3-.4.5-.9.8-1.3,0,0,0-.1.1-.2,0-.1.2-.3.3-.4,0,0,0-.1.1-.2.2-.2.4-.5.5-.7,0,0,.1-.1.2-.2,0,0,0-.1.1-.2,0,0,.1-.1.2-.2,0-.1.2-.2.2-.3,0,0,.1-.1.2-.2.2-.3.4-.5.6-.8,0,0,.1-.1.2-.2,0,0,0-.1.1-.2,0,0,.1-.1.2-.2.2-.2.3-.5.5-.7.1-.2.2-.4.3-.7,0,0,0-.1,0-.2,0-.1,0-.2,0-.3,0,0-.2,0-.3,0,0,0-.1,0-.2,0,0,0-.1,0-.2,0,0,0-.1,0-.2.1-.7.7-1.4,1.4-2.1,2.1,0,.1-.2.2-.3.3-.1.1-.2.3-.3.4,0,0-.1.1-.2.2-.2.2-.3.4-.5.6,0,0,0,.1-.1.2,0,0,0,0,0,0,0,0-.1.1-.2.2,0,0,0,0,0,0,0,0,0,.1-.1.2,0,0,0,0,0,0,0,.1-.2.3-.3.4-.1.2-.3.5-.4.7,0,.1-.1.3-.2.4,0,0,0,.1,0,.2,0,0,0,.1-.1.2,0,0,0,.1,0,.2-.1.3-.3.6-.4.9,0,0,0,0-.1.1,0,0-.2,0-.3.1-.3,0-.5,0-.8,0,0,0,0,0,0,0,0,0-.1,0-.2,0-.1,0-.2,0-.4-.1-.1,0-.3-.1-.4-.2,0,0-.1,0-.2-.1-.1,0-.2-.2-.3-.3,0,0-.1-.1-.2-.2,0-.1-.2-.3-.3-.4,0-.2,0-.3.1-.5.3.4.6.8.9,1.2.4.4,1,.5,1.6.3.2,0,.5-.4.6-.6.6-1.1,1.1-2.3,1.8-3.3,1-1.3,2.1-2.4,3.2-3.6.2-.2.6-.4.9-.5.6-.2,1,.1.8.7-.1.4-.3.9-.6,1.2-.8,1.1-1.7,2.2-2.6,3.4-1,1.3-1.9,2.6-2.3,4.3,0,0,0,0,0,.1,0,.7,0,1.4.7,1.8.6.5,1.3.4,1.9.1.9-.3,1.5-1,2-1.7,1.6-2,3.2-4.1,4.9-6.1,1.7-2,3.3-4.1,5.3-5.8,1.1-.9,2.2-1.8,3.7-2.2.8-.2,1.6.2,1.8.9,0,0,0,.2.1.2,0,0,0,.1,0,.2Z"/>
      <path class="cls-14" d="M488.9,77.1c-.5.1-1,.2-1.6.3,0-.5,0-.9,0-1.4.4-4.1.5-8.2.2-12.3-.2-3.2-1.3-6.1-3.1-8.6-1.6-2.2-3.1-4.4-4.6-6.7-.7-1-1.1-2.2-1.5-3.4,0-.2,0-.5,0-.7,0,0,.1.1.2.2,0,0,0,.2,0,.3,0,0,0,0,0,.1.3.7.5,1.4.9,2,1,1.7,2.1,3.4,3.3,5.1,1.3,1.9,2.8,3.7,3.8,5.9.5,1.1,1,2.3,1,3.5,0,0,0,.2.1.2,0,.1,0,.3,0,.4,0,.3,0,.7.1,1h0c0,.6,0,1,.1,1.5,0,.3,0,.6,0,.9,0,.1,0,.2,0,.3,0,1.1,0,2.1,0,3.2,0,.2,0,.4,0,.6,0,.6,0,1.1,0,1.7,0,.1-.2.2-.2.3,0,.8,0,1.6,0,2.4,0,.2,0,.4,0,.5,0,.4,0,.7,0,1.1,0,0,0,0,0,.1,0,0,0,.1,0,.2.1.3-.2.7.2.9h.5c.1,0,.3,0,.4,0,0,0,0,.1,0,.2Z"/>
      <path class="cls-3" d="M511.2,38.3c0,.9,0,1.7-.2,2.6,0,1.3-.2,2.6-.3,3.9-.3,2.1-.5,4.2-.9,6.2-.4,2.3-1,4.5-1.5,6.8-.8,3.4-1.7,6.9-2.5,10.3-.2.7-.3,1.5-.5,2.2,0,.1-.1.2-.2.3,0,0-.1,0-.2-.1,0-.1,0-.2,0-.3,0,0,0-.2.1-.2,0-.1,0-.2,0-.4.4-.4.3-1,.3-1.5,0-.1,0-.2,0-.3,0,0,0-.2.1-.2,0,0,0-.2,0-.2,0-.1,0-.3.1-.4,0,0,0-.2,0-.3,0,0,.1-.2.2-.2,0-.1,0-.2,0-.3,0,0,0-.2,0-.3v-.2c0,0,0-.2,0-.3,0,0,0-.2,0-.2,0,0,0-.2.1-.3.3-1.4.6-2.9,1-4.3.3-1.1.6-2.3.9-3.4.3-1.2.6-2.4.8-3.6.3-1.5.7-3.1.9-4.6.3-2,.4-4,.7-6,0-.7.2-1.3.2-2,0-.2.2-.5.3-.7.1-.6.2-1.2.2-1.8Z"/>
      <path class="cls-4" d="M486.3,71.8c0,0,0,.1,0,.2,0,0-.2,0-.2,0,0,0,0,0,0,0,0,0-.1-.1-.2-.2-1.1.3-2.1,1-2.8,1.9-1.4,1.7-2.7,3.4-4,5.1-2.8,4-6.3,7.2-10.8,9.2-1.1.5-2.2.9-3.4,1.4-.1,0-.3,0-.4,0,0-.1,0-.2,0-.2,1.1-.5,2.3-1,3.4-1.5,3.3-1.5,6.2-3.5,8.5-6.3,1.7-2,3.2-4.2,4.8-6.3.9-1.1,1.8-2.2,3.1-3,.5-.3,1.1-.4,1.7-.6.1.1.2.2.4.3Z"/>
      <path class="cls-4" d="M430.1,101.2s0,0,0,.1c.1.3.2.6.3.9.2.4.3.7.5,1.1,0,.2.1.3.2.5,0,.1.1.2.2.4.1.2.2.4.3.7,1,1.7,2,3.3,3,5,.7,1.1,1.6,2.1,2.3,3.1.5.7.4.9-.2,1.5-1.1.9-2.1,1-3.4.2-2.9-1.7-5.6-3.7-8.1-6,0,0-.1-.1-.2-.2-.3-.3-.6-.6-.9-.9,0,0,.1-.1.2-.2,1.7,1.4,3.3,2.8,5,4.1,1.6,1.3,3.3,2.4,5.2,3.2.3.1.7.2,1,0,.4-.2.8-.5,1.2-.8.2-.2.3-.4.1-.6,0-.2-.2-.3-.3-.5-2.2-2.6-4-5.5-5.5-8.5-.5-1-.8-2-1.2-3.1,0,0,.2,0,.3,0Z"/>
      <path class="cls-15" d="M486.7,115.4c.2-.2.5-.4.7-.5,3-1.5,5.9-3,8.7-4.8,1.1-.7,2.1-1.5,3.1-2.3.2-.1.3-.4.4-.6.3-1.5.4-2.9.3-4.5,0,0-.2,0-.2,0-1.8.5-3.6,1.1-5.5,1.6-1.2.3-2.4.5-3.6.7,0,0-.1-.1-.2-.2,1.1-.3,2.3-.5,3.4-.8,1.6-.4,3.1-.8,4.7-1.3.4-.1.8-.2,1.2-.3.3,0,.5,0,.5.3,0,1.1,0,2.2,0,3.3,0,.3-.1.5-.1.8,0,1.1-1,1.5-1.7,2.1-2.9,2.2-6,3.9-9.3,5.5-.7.3-1.3.7-2,1,0,0-.2,0-.2,0,0,0,0,0,0,0Z"/>
      <path class="cls-27" d="M511.6,55.7c.2,0,.4,0,.6,0,2.3,1.3,4.5,2.6,6.8,3.9.5.3.9.6,1.3.9.1,0,.3.2.5.4,0-.5-.1-.8-.1-1.1,0-1.8-.3-3.5-.5-5.2-.2-2.4-.9-4.7-1.4-7.1-.2-1-.6-2.1-.9-3.1,0-.2,0-.3,0-.5,0,0,0,0,0,0,0,0,0,0,0,0,0-.1,0-.2,0-.3,0,0,.1,0,.2.1.4,1.6.9,3.1,1.3,4.7.5,2.2,1,4.5,1.3,6.8.3,2,.3,4,.4,6,0,.2,0,.3,0,.4-.8-.6-1.5-1.1-2.3-1.6-2.2-1.3-4.4-2.5-6.5-3.8-.2-.1-.4-.2-.5-.4Z"/>
      <path class="cls-20" d="M499.4,30c0,.2,0,.4,0,.6,0,.4,0,.7.1,1.1,0,0,0,0,0,0,0,0,0,0,0,0,0,.2,0,.4,0,.6,0,.1,0,.3.1.4,0,0,0,.2,0,.3,0,.1.1.3.2.4.3.3.6.3.8-.2,0-.2.2-.5.3-.7,0-.2.1-.3.1-.5,0-1,0-2,0-3,0,0,.1,0,.2,0,0,.4,0,.7,0,1.1,0,.2,0,.5.1.7,0,.3,0,.6,0,.9,0,0,0,.2,0,.2,0,.1,0,.2,0,.4,0,0,0,.1,0,.2,0,0,0,.1,0,.2,0,.1,0,.2-.1.3-.2.5-.4.9-1,.9-.5,0-.8-.4-.8-.9-.2-1.4-.5-2.8-.6-4.2-.1-1.5,0-3-.1-4.5,0-.8-.4-1.6-1.2-1.9-.9-.4-1.8-.3-2.7.2-.2,0-.3.4-.3.6,0,.5.1,1.1.2,1.6,0,1.9.1,3.7,0,5.6,0,.8-.5,1.6-.8,2.4,0,.1-.4.2-.6.2-.1,0-.3-.2-.4-.4-.3-1.1-.3-2.2-.1-3.3,0,0,.2,0,.3,0,0,.9,0,1.8,0,2.6,0,0,0,.2,0,.3,0,.1.1.2.2.4,0,0,.1,0,.2,0,.1-.2.3-.4.4-.7,0-.1,0-.3.1-.4,0,0,0-.1,0-.2,0,0,0-.2,0-.3,0-.1,0-.2,0-.4,0-.2,0-.4.1-.6,0-.5,0-1,0-1.5,0-.3,0-.5,0-.8,0-.7,0-1.5,0-2.2,0-.1,0-.3,0-.4,0,0,0-.1,0-.2,0,0,0-.2,0-.3,0-.3,0-.5,0-.8,0-.2,0-.5,0-.7,0-.2,0-.3,0-.5,0,0,0-.1,0-.2,0,0,.1-.1.2-.2.1,0,.3-.2.4-.2.2,0,.4-.1.6-.2.6,0,1.1,0,1.7,0,.6,0,1.1.4,1.4,1,.1.4.3.7.4,1.1,0,.1,0,.2,0,.3,0,0,0,.2,0,.2,0,1,0,2,0,3,0,.2,0,.3,0,.5,0,.5,0,1,0,1.5,0,.1,0,.2,0,.4Z"/>
      <path class="cls-25" d="M448.6,39.6c0,0,.1,0,.2,0-.5.8-.9,1.5-1.4,2.3.1,0,.2,0,.3,0,2.2.1,4.5-.2,6.6-.7,1.5-.3,3-.7,4.5-1.1,1.2-.3,2.3-.6,3.5-.9,1.3-.3,2.6-.6,3.9-.7,1.4-.1,2.9,0,4.4,0,2,.2,3.9.6,5.9.9,1,.2,2.1.5,3.1.7.9.2,1.9.5,2.8.7.6.1,1.2.2,1.8.4-.2,0-.3.2-.5.2,0,0-.1,0-.2,0-.6-.1-1.2-.3-1.8-.4,0,0-.1,0-.2,0,0,0-.2,0-.2-.1-.1,0-.2,0-.4,0-.1,0-.2,0-.4-.1h-.1c-.2,0-.4-.1-.6-.2,0,0-.1,0-.2,0,0,0-.2,0-.3-.1-.1,0-.3,0-.4,0,0,0-.2,0-.3-.1-.1,0-.2,0-.3,0,0,0-.1-.2-.2-.2-.6-.1-1.2-.2-1.8-.3-.1,0-.2,0-.3,0-.2,0-.4,0-.6-.1,0,0-.1,0-.2,0-.5-.1-1-.2-1.5-.3-.1,0-.2,0-.3,0-.2,0-.3,0-.5-.1-.1,0-.3,0-.4,0-.3,0-.5,0-.8-.1,0,0,0,0-.1,0-.1,0-.3,0-.4,0-.1,0-.2,0-.3,0-.2,0-.4,0-.7-.1-.4,0-.8,0-1.1,0-.7,0-1.3,0-2,0-.3,0-.7,0-1,0-.2,0-.3,0-.5,0,0,0-.1,0-.2,0-.4,0-.7.1-1.1.2-.1,0-.2,0-.3,0-.1,0-.3,0-.4.1-.1,0-.2,0-.3,0-.5.1-1.1.3-1.6.4-.1,0-.2,0-.3,0-.4,0-.8.2-1.2.3-.2,0-.3.1-.5.2,0,0-.2,0-.2,0,0,0-.2,0-.3.1-.1,0-.2,0-.3,0,0,0-.2,0-.3.1-.1,0-.2,0-.3,0-.4,0-.7.2-1.1.3,0,0-.1,0-.2,0,0,0-.1,0-.2,0-.2,0-.3,0-.5.1-.4,0-.8,0-1.1.2-.3,0-.6.2-.9.3-.1,0-.2,0-.3,0-.3,0-.6.1-.9.2,0,0,0,0-.1,0-.2,0-.3,0-.5,0-.5,0-.9.2-1.4.3-.2,0-.5,0-.7,0-.2,0-.3,0-.5.1,0,0-.1,0-.2,0-.3,0-.7,0-1,0-.4,0-.9,0-1.3,0-.3,0-.5-.2-.3-.5.5-.8,1.1-1.5,1.7-2.3Z"/>
      <path class="cls-19" d="M492.1,103.4c-.2,0-.4,0-.7,0,0,0-.2,0-.3,0-.1,0-.3,0-.4,0-.1,0-.3,0-.4,0-.1,0-.3,0-.4,0,0,0-.1,0-.2,0,0,0,0,0-.1,0-.2,0-.4,0-.7,0-.2,0-.4,0-.6,0h-.2c-.3,0-.6.1-.9.2,0,0-.1-.2-.2-.3.1,0,.2,0,.3,0,.1,0,.3,0,.4,0,0,0,.1,0,.2,0,.3,0,.5,0,.8-.1.7-.1,1.5-.3,2.2-.4,1.4-.3,2.9-.5,4.3-.8,1.8-.4,3.7-.8,5.5-1.2,1.6-.4,3.2-.9,4.7-1.8,1.7-1,2.6-2.4,2.3-4.5,0,0,.2,0,.3,0,.4,1.4-.1,3-1.3,4.1-1.2,1-2.6,1.6-4.1,2-2.3.6-4.6,1.1-6.9,1.7-.3,0-.7.1-1,.2-.1,0-.2,0-.4,0-.1,0-.2,0-.3,0-.2,0-.3,0-.5,0-.1,0-.2,0-.3,0,0,0-.1,0-.2,0-.1,0-.2,0-.3,0-.1,0-.2,0-.4.1Z"/>
      <path class="cls-1" d="M486,40.3c0-.2,0-.3,0-.5,0,0,0-.2,0-.3,0-.3,0-.6.1-.8,0,0,0-.1,0-.2,0-.3,0-.5,0-.8,0-.2,0-.3,0-.5,0-.2,0-.5,0-.7,0,0,0-.2,0-.3,0-.3,0-.5,0-.8,0-.2,0-.4,0-.7,0-.3,0-.7,0-1,0-.2,0-.3,0-.5,0-.5,0-1,.1-1.5,0-.1,0-.2,0-.4,0-.4,0-.8,0-1.1,0,0,0-.2,0-.3,0-.1,0-.3,0-.4,0,0,.1-.2.1-.2,0-.7,0-1.4,0-2.1,0-.2,0-.4,0-.5,0-.5,0-1,0-1.5,0,0,0,0,0-.1,0,0,0-.1,0-.2,0-.2,0-.5,0-.7,0,0,0-.2,0-.3,0-.2,0-.4.1-.6,0-.1,0-.3,0-.4,0,0,0-.2,0-.2,0,0,0-.2,0-.3,0-.1,0-.2.1-.3,0,0,0-.2.1-.2.6-1.2,1.7-1.7,3-1.4,1,.2,1.9,1.3,2,2.4,0,.2.1.5.2.7,0,0,0,.2,0,.3,0,.4-.1.8-.2,1.3,0-.2-.1-.4-.1-.7,0-.9-.2-1.8-.7-2.6-.4-.8-1.1-1.1-1.9-1.1-.8,0-1.6.3-2,1.1-.6,1.2-.6,2.5-.8,3.8-.1,1.6-.1,3.3-.2,4.9,0,1-.2,2-.3,3,0,.9-.2,1.9-.3,2.8,0,.1,0,.2-.1.4,0,.3,0,.5,0,.8,0,.1,0,.2,0,.3,0,.1,0,.3,0,.4,0,.2,0,.5-.1.7,0,.2,0,.3,0,.5,0,0,0,.1,0,.2,0,0,0,.1,0,.2,0,0,0,.1,0,.2,0,.3-.1.7-.2,1-.1.5-.3.9-.4,1.4-.3.5-.6,1.1-.9,1.6,0,0-.1,0-.2-.1,0-.1.2-.2.2-.3,0-.1.1-.2.2-.3.1-.3.3-.7.4-1,0,0,0-.2.1-.3,0-.1,0-.2,0-.3,0,0,0-.2,0-.3,0,0,0-.1,0-.2,0-.2,0-.5.1-.7Z"/>
      <path class="cls-15" d="M473.5,14c-.5.5-1,1-1.6,1.5,0,0-.4,0-.5,0-1.5-.9-3-1.9-4.5-2.7-1.6-.8-3.3-1.5-5-2.2-1.5-.6-3.1-1.1-4.7-1.7-.2,0-.3-.2-.5-.4.2,0,.3,0,.5,0,.5.2.9.4,1.4.6,1.7.6,3.3,1.2,5,1.8,2.7,1,5.3,2.4,7.7,4.1.3.3.6.2.9,0,.4-.4.8-.8,1.2-1.1,0,0,0,.1.1.2Z"/>
      <path class="cls-30" d="M507.9,95c0,0-.2,0-.3,0-.2-.6-.4-.8-.9-.6-.6.2-1.1.4-1.7.7-1.3.7-2.5,1.6-4,1.9-.3,0-.7,0-.9-.2-.1-.1,0-.6,0-.9.1-.3.3-.5.6-.7.5-.3,1-.6,1.4-.9,0,0,.2,0,.2-.1,0,0,.1,0,.2,0,.2,0,.3-.1.5-.2,0,0,.1,0,.2,0,0,0,.2,0,.2-.1.2,0,.4-.1.5-.2.3,0,.5-.2.8-.3.2,0,.4-.1.5-.2.3-.1.5-.2.8-.3.3-.1.6-.3.8-.4l.4-.2c.2-.1.4-.2.7-.3h.2c.1-.2.2-.2.4-.3,0,0,.2-.1.2-.2,0,0,0,0,0,0l.2.2c-.3.2-.6.3-.9.5,0,0-.1,0-.2.1-.1,0-.3.1-.4.2-.1,0-.2.1-.4.2,0,0-.2,0-.2.1-.2,0-.4.2-.7.3-.3.1-.6.3-1,.4,0,0-.2,0-.2,0,0,0-.1,0-.2,0-.2,0-.5.2-.7.3-.3.1-.6.2-1,.4-.1,0-.2.1-.4.2-.5.3-1.1.6-1.6,1-.3.2-.5.5-.8.8,0,0,0,.2,0,.4.1,0,.3.1.4,0,.7-.3,1.5-.5,2.2-.9,1-.5,1.9-1,2.8-1.6,0,0,.1,0,.2,0,.1,0,.3,0,.4-.1,0,0,.2,0,.3,0,.2,0,.4,0,.6,0,0,0,.1,0,.2,0,.3.2.5.5.4.9Z"/>
      <path class="cls-31" d="M423,80.7c-.1,0-.3-.2-.4-.3-.1-.3-.2-.5-.3-.8-.2-.5-.1-.8.2-1.2,2.7-3.1,5.3-6.3,8-9.4.5-.6,1.2-1.1,1.8-1.7.5-.4.8-.4,1.1.3,0,0,0,.2,0,.2,0,0,0,0-.1,0,0,0-.2,0-.2,0-.3-.4-.5-.3-.9,0-.8.8-1.5,1.5-2.3,2.3-1.2,1.4-2.3,2.8-3.5,4.1-1.3,1.5-2.6,3-3.8,4.5-.2.2-.3.5-.3.8,0,.5.3.9.5,1.4Z"/>
      <path class="cls-4" d="M466,106c-1.2-1.5-2.5-2.9-3.6-4.5-.8-1.1-1.5-2.3-2.3-3.4,0-.1-.2-.3-.3-.4,0-.1-.2-.3-.2-.4-.1-.2-.2-.3-.3-.5-.1-.2-.3-.4-.4-.7,0,0,0-.2-.1-.2-.2-.3-.4-.7-.6-1,0,0,.2,0,.3,0,0,0,.1.2.2.2,0,.1.1.2.2.4.2.4.5.8.7,1.2v.2c.3.2.4.4.5.6.7,1.1,1.4,2.2,2.2,3.2,1.3,1.8,2.7,3.5,4,5.3,0,0-.1,0-.2,0Z"/>
      <path class="cls-1" d="M517.6,42.8c0-.2,0-.3-.1-.5,0,0-.1-.2-.2-.3-.8-.3-1.6-.6-2.4-.9-.8-.3-1.5-.6-2.3-.9,0,.2,0,.3,0,.5,0,1.6,0,3.1-.1,4.7,0,.7-.2,1.4-.3,2.1,0,.1-.2.2-.3.3,0-1,.2-1.9.2-2.9,0-.3,0-.6,0-.9,0-1.4.1-2.7.2-4.2,1.7.7,3.4,1.4,5,2.1.2,0,.2.5.3.8,0,0,0,.1,0,.2Z"/>
      <path class="cls-20" d="M504.8,72.5c-.2.2-.3.5-.6.7-.5.3-1.1.5-1.7.7-2.4.7-4.9,1.4-7.3,2.2-.1,0-.3,0-.4,0,0,0-.1,0-.2,0-.2,0-.4,0-.5,0-.2,0-.3,0-.5,0,0,0,0,0-.1,0-.2,0-.4,0-.7-.1.1,0,.3,0,.4,0,.1,0,.2-.1.3-.2,1.2-.3,2.3-.6,3.5-.9,2.2-.7,4.3-1.4,6.5-2.1.6-.2.9-.5,1.1-1v.4Z"/>
      <path class="cls-9" d="M505.7,36c0,.1,0,.2,0,.4,0,0,0,.2,0,.3,0,.2.2.5.3.7,0,0,.2.2.3.2,0,0,.2-.1.2-.2,0-.3.1-.6.1-.9,0-1.9-.1-3.7-.2-5.6,0-.4,0-.9,0-1.4,0,.2.1.5.2.7,0-.2,0-.5,0-.7,0-.1.1-.2.2-.3,0,.2,0,.4,0,.6,0,1.5,0,2.9.1,4.4,0,.6,0,1.1,0,1.7,0,.5,0,1.1-.2,1.6,0,.2-.3.4-.5.4-.2,0-.4-.2-.5-.3-.2-.2-.2-.6-.3-.8,0,0,0-.1,0-.2,0,0,0,0,0-.1,0-.3,0-.6,0-1,0,0,0,0,.1,0,0,.1,0,.3,0,.4,0,0,0,.1,0,.2Z"/>
      <path class="cls-8" d="M458.4,94.8c0,0-.2,0-.3,0,0,0,0,0,0,0,0,0,0-.1,0-.2h0s0,0,0,.2c-.2-.5-.5-1-.7-1.6,0-.3,0-.7,0-1,1.3-.6,2.5-1.2,3.8-1.8,1.1-.5,2.3-.9,3.4-1.3,0,0,0,.1,0,.2.2,0,.3,0,.4,0,0,0-.2.1-.2.2-2.2.9-4.3,1.7-6.5,2.6-.6.2-.7.4-.5,1,.2.6.5,1.1.7,1.7Z"/>
      <path class="cls-29" d="M457.2,8.5c-.2,0-.3,0-.5,0,.9-1.1,1.9-2.2,2.8-3.3.5-.6,1-1.2,1.5-1.9,0-.1.2-.2.3-.2.9,0,1.7.2,2.6.3-.3,0-.6,0-1,0,.2,0,.4.1.6.2-.6,0-1.2-.1-1.8-.1-.2,0-.4,0-.5.2-.9,1-1.8,2-2.7,3-.5.6-.9,1.2-1.4,1.7Z"/>
      <path class="cls-14" d="M480.5,8.3c-.2.1-.4.3-.5.4,0,0,0-.2-.1-.2.5-.4,1-.8,1.5-1.2-.1,0-.2-.1-.3-.2-1.8-.9-3.8-1.4-5.7-1.9-.8-.2-1.7-.4-2.5-.6,0,0,.1,0,.2,0,.3,0,.6,0,.9,0,0,0,.2,0,.2,0,.1,0,.3,0,.4,0,.2,0,.4,0,.6,0,0,0,.2,0,.3.1,0,0,.2,0,.2,0,.2,0,.5.1.7.2,0,0,0,0,.1,0,.1,0,.2,0,.4,0,.1,0,.3,0,.4.1,0,0,.2,0,.3,0,0,0,.2,0,.2,0,0,0,.1,0,.2,0,0,0,.1,0,.2,0,.1,0,.2,0,.3.1.1,0,.2,0,.4,0,0,0,.2,0,.3,0,.2,0,.4.1.6.2,0,0,.2,0,.2.1,0,0,.2,0,.3,0,0,0,.2,0,.3.1.2.1.4.2.6.4,0,0,.2,0,.3.1.1,0,.2.1.4.2,0,.1,0,.2-.1.3,0,0-.1,0-.2.1,0,0-.1.1-.2.2-.1.1-.3.2-.4.3-.1,0-.2.1-.3.2Z"/>
      <path class="cls-29" d="M484.9,108.5c-.3,1.7-.6,3.5-1,5.2-.2,1.1-.5,2.1-.7,3.2,0,0-.2,0-.3,0,0-.1,0-.2,0-.3,0,0,0-.1,0-.2,0-.2,0-.3,0-.5,0,0,0-.2,0-.2.2-1,.5-2.1.7-3.1.2-.7.3-1.5.5-2.2,0-.4.2-.7.2-1.1,0,0,0-.2,0-.3,0-.1,0-.2,0-.4,0,0,.1,0,.2,0Z"/>
      <path class="cls-16" d="M501.5,29.1c0,0-.1,0-.2,0,0,0-.1,0-.2-.1,0-.2,0-.4,0-.6,0-.3,0-.6-.1-.9,0-.1,0-.3,0-.4,0-.2,0-.4,0-.6,0-.2,0-.5,0-.7,0-.1.2-.2.3-.3,0,0,.1,0,.2,0,0,0,.2,0,.3,0,.2,0,.3-.1.5-.2,0,0,0,0,.1,0,.3,0,.7,0,1,0,0,0,.1,0,.2,0,0,0,.2,0,.2.1.6.3.9.7,1.1,1.3,0,.1,0,.2.1.4,0,0,0,.2,0,.3,0,.1,0,.3.1.4,0,0,0,.1,0,.2,0,.2-.1.4-.1.5,0,.8,0,1.7,0,2.5,0-.2-.1-.4-.1-.6,0-1-.1-2-.2-3,0-1.3-1.4-2.3-2.9-1.9-.7.2-.7.2-.6,1,.1.9.1,1.7.2,2.6Z"/>
      <path class="cls-29" d="M420,42.8s0,0,0,0c0,0,0-.2-.1-.2,1.4-1.4,2.9-2.7,4.3-4.1.4-.4.8-.8,1.2-1.2.1-.1.3-.2.5-.3,0,0,0,.2,0,.3-1.8,1.7-3.6,3.5-5.3,5.2,0,0,0,0-.1,0,0,0-.2.2-.2.2Z"/>
      <path class="cls-8" d="M466,106c0,0,.1,0,.2,0,.2,0,.4.1.6.1.5,0,1.1,0,1.6,0,1.6-.1,3.1-.2,4.7-.4,0,.1,0,.2,0,.3-.6,0-1.2.2-1.8.2-1.6,0-3.3.1-5,.2-.2,0-.5,0-.4-.3Z"/>
      <path class="cls-8" d="M489.4,78c0,.1,0,.2,0,.3-1,.2-2,.2-3-.1-.7-.2-1-.6-1-1.2,0-.6.4-1,.9-1.2,0,0,.2,0,.2.1,0,0,0,0,0,.1-.4.3-.8.6-.6,1.1.1.6.6.7,1.1.7.8,0,1.7,0,2.5.1Z"/>
      <path class="cls-31" d="M511.2,38.3c0,.6-.1,1.2-.2,1.8,0,.2-.2.5-.3.7,0-.2,0-.4,0-.6,0-.3,0-.7,0-1,0-1.9,0-3.8,0-5.7,0-.2,0-.4,0-.5,0-.3,0-.5-.1-.8,0,0,.2,0,.2.1.1.5.2,1.1.3,1.6,0,.5,0,1.1,0,1.6,0,.2,0,.5,0,.7,0,.7,0,1.4,0,2.1Z"/>
      <path class="cls-12" d="M484.9,108.5c0,0-.1,0-.2,0,.1-.6.2-1.3.4-1.9,0,0,0-.2,0-.2-.1-.7.3-.7.8-.7.7,0,1.4-.3,2.1-.4.3,0,.6,0,.8,0-.4.1-.9.3-1.3.4-.6.1-1.2.1-1.8.2-.3,0-.4.2-.5.5,0,.6-.2,1.3-.3,1.9,0,0,0,0-.1,0Z"/>
      <path class="cls-30" d="M473.1,105.9c0-.1,0-.2,0-.3.4,0,.9,0,1.3,0,.3,0,.6,0,.9,0,.7,0,1.4-.2,2.1-.2,0,0,.2,0,.3,0,.3,0,.6,0,.9,0,.2,0,.3,0,.5,0,.2,0,.4,0,.6,0,0,.1,0,.2,0,.3,0,0-.2,0-.3,0-.1,0-.2,0-.3,0-.9.1-1.7.2-2.6.3-1.1.1-2.3.2-3.4.3Z"/>
      <path class="cls-20" d="M510.9,32.3c0,0-.2,0-.2-.1-.5-1.5-1.3-2.7-3-2.9h-.3c-.2-.1-.3-.1-.5-.1,0,.1-.2.2-.2.3,0,.2,0,.5,0,.7,0-.2-.1-.5-.2-.7,0-.2,0-.4-.1-.7.6,0,1.2.1,1.8.2,0,0,.2,0,.3,0,.2,0,.4.2.6.3,0,0,.2.1.3.2,0,0,.2.1.2.2,0,0,.2.2.3.3.1.1.2.2.3.4,0,0,.1.2.2.2,0,0,0,0,0,0,0,0,0,.1.1.2,0,.1.1.2.2.4,0,0,0,.2.1.2,0,0,0,.1,0,.2,0,.2,0,.5.1.7Z"/>
      <path class="cls-9" d="M492.8,76.3c.2,0,.4,0,.7.1-1.1.2-2.1.4-3.2.6-.5,0-.9,0-1.4,0,0,0,0-.1,0-.2.1,0,.2-.1.3-.1.8-.1,1.7-.2,2.6-.3.4,0,.8,0,1.2-.1Z"/>
      <path class="cls-4" d="M425.3,101.3c.2,0,.4,0,.6,0,0,0,.2,0,.3,0,.2,0,.5,0,.7,0,.3,0,.6,0,.9,0,.2,0,.4-.1.5-.2.5,0,.9,0,1.4,0,0,0,0,.2,0,.3-1.8.2-3.6.3-5.4.5h-.3c0,0-.1,0-.2,0,0,0,0-.2,0-.3,0,0,.2,0,.2,0,.4,0,.8,0,1.2-.1Z"/>
      <path class="cls-12" d="M431.3,32.1c-.2.3-.5.5-.7.8-.8.7-1.6,1.4-2.5,2.1,0,0-.1,0-.2,0,1-.9,2-1.9,3.1-2.8,0,0,.2,0,.3,0Z"/>
      <path class="cls-19" d="M487.1,104.2c-.2,0-.3,0-.5,0-.3,0-.7,0-1,.1,0,0-.1,0-.2,0-.3,0-.5,0-.8.1-.2,0-.4,0-.5,0,0,0-.2,0-.3,0h-.5c0,0-.1,0-.2,0,0,0,0,0-.1,0-.2,0-.4,0-.6.1-.1,0-.3,0-.4,0-.2,0-.4,0-.6,0,0,0-.1,0-.2,0,0,0-.2,0-.3,0-.2,0-.5,0-.7,0,0,0,0-.2,0-.3.2,0,.4,0,.5,0h.3c.2,0,.5,0,.7-.1,0,0,.2,0,.3-.1.3,0,.6,0,.8,0,0,0,.2,0,.3,0,.2,0,.4,0,.6,0h.3c.1,0,.3-.1.4-.1,0,0,.2,0,.3,0,0,0,0,0,.1,0,.2,0,.4,0,.7-.1.4,0,.7-.1,1.1-.2.2,0,.4.2.6.2Z"/>
      <path class="cls-20" d="M463.6,3.6c-.2,0-.3,0-.6-.2.4,0,.7,0,1,0,0,0,.1,0,.2,0,0,0,.2,0,.3,0,.3,0,.6,0,.9,0,.2,0,.3,0,.5,0,.3,0,.6,0,.9,0,.2,0,.3,0,.5.1.6,0,1.2.1,1.8.2,0,0,0,0,0,0,0,0,0,0,0,0-.2,0-.4,0-.6,0-.1,0-.3,0-.4,0-.3,0-.6,0-1-.1,0,0-.2,0-.2,0-.1,0-.2,0-.3,0-.3,0-.5,0-.8,0-.1,0-.2,0-.3,0-.6,0-1.3-.1-1.9-.2Z"/>
      <path class="cls-20" d="M512.1,48.5c0,.5-.2,1.1-.3,1.6,0,.4-.1.8-.2,1.2,0,0,0,0,0,.1-.1.8-.3,1.6-.4,2.4,0-.2-.1-.4-.2-.6,0-.1,0-.2,0-.3,0-.1,0-.2.1-.4,0-.1,0-.3,0-.4,0,0,0-.1,0-.2v-.4c0-.1.1-.2.1-.4,0,0,0-.2,0-.2,0,0,0-.2,0-.3,0,0,0-.1,0-.2,0-.2,0-.3,0-.5,0-.1,0-.3,0-.4,0,0,0-.2,0-.3,0-.2,0-.5.1-.7.1,0,.2,0,.3,0Z"/>
      <path class="cls-12" d="M482.9,116.8c0,0,.2,0,.3,0,.2,0,.4,0,.5,0,.6-.2,1.1-.5,1.6-.8.1,0,.2,0,.3.1-.8.4-1.7.8-2.5,1.2,0,0-.2,0-.3,0,0,0,.1,0,.2-.1,0,0-.1-.1-.2-.2,0,0,0-.1,0-.2Z"/>
      <path class="cls-1" d="M483.3,44.3c.2,0,.3,0,.5,0,.1,0,.2,0,.4-.1.2-.1.4-.3.6-.4,0,0,.1,0,.2.1-.3.2-.5.4-.8.6-.5,0-.9,0-1.4-.1,0,0-.1-.1-.2-.2,0-.1-.1-.2-.2-.3,0,0,0,0,0,0l-.2-.2c-.1-.4-.2-.7-.6-.8v-.2s0,0,0,0c0,0,.2,0,.2,0,.2.2.4.4.6.7,0,.1.1.2.2.4.1.2.3.3.4.5.1,0,.2.1.4.2Z"/>
      <path class="cls-9" d="M478.6,42.1c.9.1,1.7.2,2.6.4-.2,0-.5.1-.7.2-.6-.1-1.3-.2-1.9-.3,0,0,0-.1,0-.2Z"/>
      <path class="cls-20" d="M472.9,4.7c0,0-.1,0-.2,0,0,0-.2,0-.2,0-.1,0-.2,0-.3,0-.1,0-.2,0-.3,0-.2,0-.4,0-.7-.1-.3,0-.6,0-.8,0-.1,0-.2,0-.4-.1-.2,0-.4,0-.6,0,.1,0,.2-.1.3-.2.2,0,.4,0,.6,0,0,0,.2,0,.3,0,.2,0,.4,0,.5,0,.2,0,.3,0,.5.1.2,0,.4,0,.6,0,.1,0,.2,0,.4,0,.1,0,.2,0,.3,0,0,0,0,.1,0,.2Z"/>
      <path class="cls-11" d="M419.6,102.6c-.2-.2-.4-.3-.6-.5,0,0,0-.1,0-.2.4,0,.7,0,1.1-.1.3,0,.6.1.9.2-.5,0-1,.1-1.5.2,0,.2.2.3.3.4,0,0-.2,0-.3,0Z"/>
      <path class="cls-29" d="M499.3,28.1c0-.2,0-.3,0-.5,0-1,0-2,0-3,0,0,0-.2,0-.2,0,1.2,0,2.5.1,3.7Z"/>
      <path class="cls-16" d="M505.5,35.4c0,.3,0,.6,0,1,0-.1-.1-.2-.1-.3,0-.9-.1-1.7-.2-2.6,0-.1,0-.3,0-.4,0,0,.1,0,.2,0,0,.1,0,.2,0,.3,0,0,0,.1,0,.2,0,0,0,0,0,0,0,0,0,0,.1,0,0,0,0,.2,0,.2,0,.5,0,1,0,1.6Z"/>
      <path class="cls-29" d="M501.2,29c0,0,.1,0,.2.1,0,1,0,2,0,3,0,.2,0,.3-.1.5,0-1.2,0-2.4,0-3.6Z"/>
      <path class="cls-8" d="M421.1,102c-.3,0-.6-.1-.9-.2.6,0,1.1-.1,1.7-.2.1,0,.3.1.4.1.2,0,.5,0,.7,0-.6,0-1.3.1-1.9.2Z"/>
      <path class="cls-2" d="M433.9,30.2c0,0-.1.1-.2.2-.5.3-1,.7-1.5,1,0,0,0,0-.1-.1.4-.4.8-.8,1.3-1.1.1,0,.3,0,.5,0Z"/>
      <path class="cls-17" d="M493.2,29.5c0,0-.2,0-.3,0,0-.4,0-.8,0-1.2,0-.7,0-1.4,0-2,0-.2,0-.4,0-.6,0,0,.2,0,.2,0,0,.2,0,.5,0,.7,0,.3,0,.5,0,.8,0,.6,0,1.2,0,1.9,0,.1,0,.3,0,.4Z"/>
      <path class="cls-11" d="M486.6,75.9c0,0-.2,0-.2-.1,0-.2,0-.3,0-.5,0-.3,0-.6,0-.8,0-.2,0-.3.1-.5,0,0,0,0,0-.1.2.7.4,1.3,0,2Z"/>
      <path class="cls-15" d="M478.6,42.1c0,0,0,.1,0,.2-.3,0-.4,0-.4.4,0,.6.1,1.1.2,1.7,0,0-.1-.1-.2-.2,0,0,0,0-.1,0,0-.2,0-.3,0-.5,0-.6,0-1.1,0-1.7.2,0,.3,0,.5.1Z"/>
      <path class="cls-17" d="M505.4,33.1c0,0-.1,0-.2,0,0-.7,0-1.4,0-2.1,0-.8,0-1.7,0-2.5,0-.2,0-.4.1-.5,0,.6,0,1.2,0,1.8,0,.6,0,1.2,0,1.8,0,.3,0,.5,0,.8,0,.3,0,.5,0,.8Z"/>
      <path class="cls-4" d="M422.4,105.7c-.5-.5-1-1-1.4-1.4,0-.1,0-.2,0-.3.5.5,1,1.1,1.5,1.6,0,0-.1.1-.2.2Z"/>
      <path class="cls-9" d="M487.1,27.1c0,.7,0,1.4,0,2.1,0,0,0,.2-.1.2,0-.8,0-1.6,0-2.4Z"/>
      <path class="cls-3" d="M510.9,32.3c0-.2,0-.5-.1-.7.2.8.3,1.5.5,2.3-.1-.5-.2-1.1-.3-1.6Z"/>
      <path class="cls-15" d="M417.9,44.4c0,0,0,.2,0,.3-.3.3-.6.6-.9.9,0,0-.2,0-.3,0,0,0,0-.2,0-.3.4-.3.7-.6,1.1-.9Z"/>
      <path class="cls-16" d="M467,38.8c.7,0,1.3,0,2,0-.7,0-1.3,0-2,0Z"/>
      <path class="cls-12" d="M490.4,104.8c0,0,.1.1.2.2-.4.1-.8.3-1.2,0,.3-.1.6-.2,1-.3Z"/>
      <path class="cls-17" d="M423,101.8c-.2,0-.5,0-.7,0-.1,0-.3,0-.4-.1.4,0,.8,0,1.2-.1,0,0,.2,0,.3,0,.2,0,.3,0,.5,0,0,0,0,.2,0,.3-.3,0-.6,0-.9,0Z"/>
      <path class="cls-19" d="M509.1,91.7c0,0-.1-.1-.2-.2.3-.3.6-.5.9-.8,0,0,.2,0,.3,0,0,.1-.2.2-.2.4-.1.1-.2.3-.4.4-.1,0-.2.1-.3.2Z"/>
      <path class="cls-16" d="M476.2,39.9c.6,0,1.2.2,1.8.3,0,0,.1.1.2.2-.7-.2-1.3-.3-2-.5Z"/>
      <path class="cls-29" d="M493.3,29c0-.6,0-1.2,0-1.9,0,.6,0,1.2,0,1.9Z"/>
      <path class="cls-16" d="M450.9,42.1c.5-.1.9-.2,1.4-.3.2,0,.3,0,.5,0-.6,0-1.2.2-1.9.3Z"/>
      <path class="cls-16" d="M454.1,41.7c.3-.1.6-.2.9-.3.4,0,.7-.1,1.1-.2-.7.2-1.3.3-2,.5Z"/>
      <path class="cls-8" d="M505.3,31.5c0-.6,0-1.2,0-1.8,0,.6,0,1.2,0,1.9,0,0,0,0-.1-.1Z"/>
      <path class="cls-16" d="M481.7,41.2c.6.1,1.2.3,1.8.4-.6-.1-1.2-.3-1.8-.4Z"/>
      <path class="cls-30" d="M457.3,92.3c0,.3,0,.7,0,1,0,0-.1-.1-.2-.2,0,0,0,0,0,0-.2-.3-.3-.6.2-.7Z"/>
      <path class="cls-11" d="M478.1,42c0,.6,0,1.1,0,1.7,0-.5,0-1,0-1.5,0,0,.1-.1.2-.2Z"/>
      <path class="cls-14" d="M479,9.4c-.3.2-.5.4-.8.6,0,0-.1,0-.2,0,0,0,0,0-.1-.1.3-.3.7-.5,1-.8h.1c0,.2,0,.2,0,.3Z"/>
      <path class="cls-29" d="M493.4,26.4c0-.2,0-.5,0-.7,0,0,0-.1,0-.2v-.6c0,.5,0,1,0,1.5Z"/>
      <path class="cls-16" d="M459.5,40.3c.2,0,.3-.2.5-.2.4-.1.8-.2,1.2-.3-.6.2-1.1.3-1.7.5Z"/>
      <path class="cls-29" d="M497.3,22c-.6,0-1.1,0-1.7,0,.6-.2,1.1-.3,1.7,0Z"/>
      <path class="cls-8" d="M505.5,35.4c0-.5,0-1,0-1.6,0,.5,0,1.1,0,1.6,0,0,0,0-.1,0Z"/>
      <path class="cls-31" d="M486.1,72c0,0,.2,0,.2,0,0,0,0,0,0,0,0,0,0,.2,0,.3,0,0,0,.1,0,.2,0,.2,0,.5.1.7,0,.1,0,.3,0,.4,0,0-.2,0-.3,0,0-.4,0-.7,0-1.1v-.3c0-.1,0-.2,0-.3Z"/>
      <path class="cls-14" d="M469.7,4.1c-.1,0-.2.1-.3.2-.3,0-.6,0-.9-.1.2,0,.4,0,.6,0,0,0,0,0,0,0,0,0,0,0,0,0,0,0,0,0,0,0,.2,0,.4,0,.6,0Z"/>
      <path class="cls-28" d="M517.6,42.8c0,0,0-.1,0-.2.1.3.2.7.3,1,0,0-.1,0-.2-.1,0-.2-.1-.5-.2-.7Z"/>
      <path class="cls-15" d="M505,70.6c0,0,.1,0,.2.1,0,.2,0,.4,0,.6,0,.1,0,.2,0,.4,0,0,0,.2,0,.2,0,0-.1,0-.2,0,0,0,0-.1,0-.2,0,0,0-.1,0-.2,0-.3.1-.5.2-.8Z"/>
      <path class="cls-16" d="M461.6,39.8c.5-.1,1.1-.3,1.6-.4-.5.1-1.1.3-1.6.4Z"/>
      <path class="cls-9" d="M487.3,25.1c0,.5,0,1,0,1.5,0-.5,0-1,0-1.5Z"/>
      <path class="cls-8" d="M428.4,101c-.2,0-.4.2-.5.2-.3,0-.6,0-.9,0,.5,0,1-.1,1.5-.2Z"/>
      <path class="cls-28" d="M473.5,14c0,0,0-.1-.1-.2,0,0,0,0,0,0,0,0,0,0,.1-.1.2-.2.4-.3.6-.5,0,0,0,.2.1.2-.2.2-.5.4-.7.6Z"/>
      <path class="cls-16" d="M473.6,39.4c.5.1,1,.2,1.5.3-.5-.1-1-.2-1.5-.3Z"/>
      <path class="cls-1" d="M510.8,55c.2.2.6.2.6.7-.3-.2-.5-.4-.8-.7h0s0,0,0,0c0,0,0,0,.1,0Z"/>
      <path class="cls-8" d="M505.4,33.1c0-.3,0-.5,0-.8,0,0,0,0,0,0h0c0,.4,0,.9,0,1.3,0,0,0,0-.1,0,0,0,0-.1,0-.2,0-.1,0-.2,0-.3Z"/>
      <path class="cls-17" d="M493.3,24.8c0,.2,0,.4,0,.6,0,0-.2,0-.2,0,0-.2,0-.3,0-.5,0-.4.1-.8.2-1.3,0,0,0,.1,0,.2,0,.3,0,.5,0,.8,0,0,0,.1,0,.2Z"/>
      <path class="cls-14" d="M478,10.3c-.2.2-.5.4-.7.6,0,0-.1-.1-.2-.2.3-.2.5-.5.8-.7,0,0,0,0,.1.1,0,0,0,.1,0,.2Z"/>
      <path class="cls-15" d="M485.8,116c.2-.5.6-.5,1-.6,0,0,0,0,0,0,0,0,0,0,0,.1,0,0-.2,0-.2.1,0,0,0,0-.1,0-.2,0-.4.1-.6.2Z"/>
      <path class="cls-1" d="M510.9,53.2c0,.2.1.4.2.6,0,.2-.1.3-.2.5,0-.1,0-.2-.1-.3,0-.3.1-.5.2-.8Z"/>
      <path class="cls-14" d="M479.9,8.7c-.2.2-.4.4-.7.5,0,0-.1,0-.2,0,0,0,0,0-.1-.1.3-.2.6-.5.8-.7,0,0,0,.2.1.2Z"/>
      <path class="cls-8" d="M419.6,102.6c0,0,.2,0,.3,0,.2.2.4.5.6.7,0,0-.2,0-.3,0l-.6-.7Z"/>
      <path class="cls-8" d="M425.3,101.3c-.4,0-.8,0-1.2.1.4,0,.8,0,1.2-.1Z"/>
      <path class="cls-15" d="M415,76.2c-.2.4-.3.8-.5,1.3.2-.4.3-.8.5-1.3Z"/>
      <path class="cls-29" d="M499.6,31.7c0-.4,0-.7-.1-1.1,0,.4,0,.7.1,1.1Z"/>
      <path class="cls-29" d="M499.2,24.1c-.1-.4-.3-.7-.4-1.1.1.4.3.7.4,1.1Z"/>
      <path class="cls-16" d="M464.2,39.2c.4,0,.7-.1,1.1-.2-.4,0-.7.1-1.1.2Z"/>
      <path class="cls-16" d="M457,41c.4,0,.7-.2,1.1-.3-.4,0-.7.2-1.1.3Z"/>
      <path class="cls-16" d="M448.5,42.3c.3,0,.7,0,1,0-.3,0-.7,0-1,0Z"/>
      <path class="cls-4" d="M485.6,104.4c.3,0,.7,0,1-.1-.3,0-.7,0-1,.1Z"/>
      <path class="cls-4" d="M423.1,106.5c-.2-.2-.4-.4-.6-.7,0,0,.1-.1.2-.2.3.3.5.5.8.8-.1,0-.2,0-.3,0Z"/>
      <path class="cls-29" d="M501,27.5c0,.3,0,.6.1.9,0-.3,0-.6-.1-.9Z"/>
      <path class="cls-8" d="M503.4,25.3c-.3,0-.7,0-1,0,.3,0,.7,0,1,0Z"/>
      <path class="cls-12" d="M504.8,71.8c0,0,.1,0,.2,0,0,.2-.1.4-.2.7,0-.1,0-.2-.1-.4,0-.1,0-.3,0-.4Z"/>
      <path class="cls-14" d="M476.2,11.8c-.2.2-.4.3-.6.5,0,0-.1-.1-.2-.2.2-.1.4-.3.6-.4,0,0,.1.1.2.2Z"/>
      <path class="cls-14" d="M477.3,10.9c-.2.2-.4.3-.6.5l-.2-.2c.2-.2.4-.3.6-.5,0,0,.1.1.2.2Z"/>
      <path class="cls-28" d="M472.9,4.7c0,0,0-.1,0-.2.3,0,.6.1.9.2-.3,0-.6,0-.9,0Z"/>
      <path class="cls-15" d="M415.9,80.4c.3,0,.6,0,1,0-.3,0-.6,0-1,0Z"/>
      <path class="cls-28" d="M433.4,64.6c.3,0,.6,0,.9,0-.3,0-.6,0-.9,0Z"/>
      <path class="cls-15" d="M413.5,76.3c.1-.3.3-.6.4-.9-.1.3-.3.6-.4.9Z"/>
      <path class="cls-4" d="M487.1,104.2c-.2,0-.4-.2-.6-.2.2,0,.4,0,.6,0,0,0,.1.2.2.3h-.2Z"/>
      <path class="cls-4" d="M480,104.8c0,0,0,.2,0,.3-.1,0-.3,0-.4.1,0-.1,0-.2,0-.3.1,0,.2,0,.3,0Z"/>
      <path class="cls-4" d="M484.6,104.5c.3,0,.5,0,.8-.1-.3,0-.5,0-.8.1Z"/>
      <path class="cls-15" d="M419.1,79.2c.2-.2.4-.4.6-.6-.2.2-.4.4-.6.6Z"/>
      <path class="cls-29" d="M494.6,28c0,.3,0,.5,0,.8,0-.3,0-.5,0-.8Z"/>
      <path class="cls-29" d="M500.9,33.3c-.2.5-.5.5-.8.2.3.2.6,0,.8-.2Z"/>
      <path class="cls-20" d="M511.9,47.8c0-.1.2-.2.3-.3,0,.3,0,.5,0,.8,0,0-.2,0-.2,0,0-.2,0-.3,0-.5Z"/>
      <path class="cls-16" d="M452.9,41.8c.3,0,.6-.1.9-.2-.3,0-.6.1-.9.2Z"/>
      <path class="cls-16" d="M505.4,32.3h0s0,0,0,0c0-.3,0-.5,0-.8,0,0,0,0,.1.1,0,.2,0,.5,0,.7Z"/>
      <path class="cls-11" d="M486.5,73.3c0-.2,0-.5-.1-.7,0,.2,0,.5.1.7Z"/>
      <path class="cls-8" d="M430.4,102.2c-.1-.3-.2-.6-.3-.9.1.3.2.6.3.9Z"/>
      <path class="cls-29" d="M494.3,23.3c0,.2,0,.5,0,.7,0-.2,0-.5,0-.7Z"/>
      <path class="cls-29" d="M493.3,24.7c0-.3,0-.5,0-.8,0,.3,0,.5,0,.8Z"/>
      <path class="cls-15" d="M414.5,77.8c0,.3,0,.6,0,.8,0-.3,0-.6,0-.8Z"/>
      <path class="cls-1" d="M510.9,54.5c0,0,0,.1,0,.2,0,0,0,0-.1,0,0,0,0,0,0,0,0-.2,0-.4.1-.6,0,.1.1.3.2.4Z"/>
      <path class="cls-3" d="M511.3,36.2c0-.2,0-.5,0-.7,0,.2,0,.5,0,.7Z"/>
      <path class="cls-16" d="M471.6,39c.3,0,.5,0,.8.1-.3,0-.5,0-.8-.1Z"/>
      <path class="cls-8" d="M421,103.9c0,.1,0,.2,0,.3-.1-.2-.3-.3-.4-.5,0,0,.1,0,.2-.1,0,.1.2.2.3.3Z"/>
      <path class="cls-9" d="M486,40.3c0,.2,0,.5-.1.7,0-.2,0-.5.1-.7Z"/>
      <path class="cls-19" d="M504.2,93.9l.7-.3-.7.3Z"/>
      <path class="cls-11" d="M478.1,44.2s0,0,.1,0c0,.2,0,.5,0,.7,0-.3-.1-.5-.2-.8Z"/>
      <path class="cls-11" d="M486.3,71.8c-.1-.1-.2-.2-.4-.3.1,0,.2,0,.3,0,0,.1,0,.3,0,.4Z"/>
      <path class="cls-29" d="M493.2,23.4c0-.2-.1-.5-.2-.7,0,.2.1.5.2.7Z"/>
      <path class="cls-19" d="M506.3,93.1c.2,0,.4-.2.7-.3-.2,0-.4.2-.7.3Z"/>
      <path class="cls-16" d="M475.3,39.7c.2,0,.4,0,.6.1-.2,0-.4,0-.6-.1Z"/>
      <path class="cls-4" d="M489,103.8c.2,0,.4,0,.7,0-.2,0-.4,0-.7,0Z"/>
      <path class="cls-8" d="M431.6,104.7c-.1-.2-.2-.4-.3-.7.1.2.2.4.3.7Z"/>
      <path class="cls-4" d="M481.3,105c.2,0,.4,0,.6,0-.2,0-.4,0-.6,0Z"/>
      <path class="cls-28" d="M481.5,7.4c0-.1,0-.2.1-.3,0,0,.1,0,.2,0,0,0-.2.2-.3.2Z"/>
      <path class="cls-16" d="M470.1,38.8c.2,0,.4,0,.7.1-.2,0-.4,0-.7-.1Z"/>
      <path class="cls-29" d="M501,26.5c0,.2,0,.4,0,.6,0-.2,0-.4,0-.6Z"/>
      <path class="cls-15" d="M415.8,46.5c0,.3-.1.5-.5.5.2-.2.3-.3.5-.5Z"/>
      <path class="cls-16" d="M479.8,40.7c.2,0,.4,0,.6.1h-.6Z"/>
      <path class="cls-9" d="M486.6,34.7c0,.2,0,.4,0,.7,0-.2,0-.4,0-.7Z"/>
      <path class="cls-28" d="M476.2,5.1c-.2,0-.5-.1-.7-.2.2,0,.5.1.7.2Z"/>
      <path class="cls-15" d="M419.9,69c-.1.2-.2.4-.3.7.1-.2.2-.4.3-.7Z"/>
      <path class="cls-8" d="M429.8,101.2c0,0,0-.2,0-.3,0,.1.2.2.3.3,0,0-.2,0-.3,0,0,0,0,0,0,0h0Z"/>
      <path class="cls-15" d="M416.6,45.7c0,.3,0,.5-.4.4.1-.1.3-.3.4-.4Z"/>
      <path class="cls-8" d="M491.7,77.6c-.2,0-.4,0-.6.1.2,0,.4,0,.6-.1Z"/>
      <path class="cls-14" d="M476.6,11.5c-.1.1-.3.2-.4.3,0,0-.1-.1-.2-.2.1-.1.3-.2.4-.3,0,0,.1.1.2.2Z"/>
      <path class="cls-29" d="M467.3,3.8c-.2,0-.3,0-.5-.1.2,0,.3,0,.5.1Z"/>
      <path class="cls-29" d="M499.8,32.4c0-.2,0-.4,0-.6,0,.2,0,.4,0,.6Z"/>
      <path class="cls-7" d="M509.4,91.5c.1-.1.2-.3.4-.4-.1.1-.2.3-.4.4Z"/>
      <path class="cls-14" d="M475.1,12.7c0,0-.2.2-.3.2,0,0-.1,0-.2,0,0,0,0,0,0,0,.1-.1.3-.2.4-.3,0,0,.1.1.2.2Z"/>
      <path class="cls-16" d="M472.8,39.2c.2,0,.3,0,.5.1-.2,0-.3,0-.5-.1Z"/>
      <path class="cls-4" d="M482.3,104.9c.2,0,.4,0,.6-.1-.2,0-.4,0-.6.1Z"/>
      <path class="cls-1" d="M480.5,42.7c.2,0,.5-.1.7-.2.1,0,.2,0,.3,0,0,0,0,0,0,0,0,0,0,0,0,0-.3,0-.5,0-.8,0,0,0-.2,0-.2,0Z"/>
      <path class="cls-16" d="M465.5,39c.2,0,.3,0,.5,0-.2,0-.3,0-.5,0Z"/>
      <path class="cls-28" d="M471.6,4.3c-.2,0-.3,0-.5-.1.2,0,.3,0,.5.1Z"/>
      <path class="cls-8" d="M459.2,96.8c.1.2.2.3.3.5l-.3-.5Z"/>
      <path class="cls-29" d="M494.6,30.3c0,.2,0,.4-.1.6,0-.2,0-.4.1-.6Z"/>
      <path class="cls-4" d="M420.2,103.3c0,0,.2,0,.3,0,0,0,.2.2.3.3,0,0-.1,0-.2.1-.1-.1-.2-.3-.3-.4Z"/>
      <path class="cls-15" d="M419.1,43.3c0,.1,0,.2,0,.3-.1,0-.2,0-.3,0,0,0,0,0,0,0,.1,0,.3-.2.4-.3Z"/>
      <path class="cls-8" d="M502.3,25.2c-.2,0-.3.1-.5.2.2,0,.3-.1.5-.2Z"/>
      <path class="cls-15" d="M475.4,12.1c0,0,.1.1.2.2,0,0-.1,0-.2.1,0,0-.1,0-.2,0,0,0-.1,0-.2,0,.1,0,.2-.2.3-.3Z"/>
      <path class="cls-4" d="M423.8,107c-.1-.1-.3-.3-.4-.4,0,0,.2,0,.3-.1.1,0,.2.2.3.3,0,0-.1.1-.2.2Z"/>
      <path class="cls-4" d="M424.1,107.4c-.1-.1-.2-.3-.4-.4,0,0,.1-.1.2-.2.1.1.2.2.4.4,0,0-.1.1-.2.2Z"/>
      <path class="cls-16" d="M449.7,42.3c.2,0,.3,0,.5-.1-.2,0-.3,0-.5.1Z"/>
      <path class="cls-12" d="M431.8,31.6c0,.3-.2.4-.4.3.1-.1.3-.2.4-.3Z"/>
      <path class="cls-8" d="M505.3,27.8c0-.1,0-.3-.1-.4,0,.1,0,.3.1.4Z"/>
      <path class="cls-15" d="M419.8,42.6c0,0,0,.2.1.2-.1,0-.2.1-.3.2,0-.1.1-.3.2-.4Z"/>
      <path class="cls-8" d="M459.8,97.7c0,.1.2.3.3.4,0-.1-.2-.3-.3-.4Z"/>
      <path class="cls-15" d="M415.3,75.7c0,.1-.2.3-.2.4,0-.1.2-.3.2-.4Z"/>
      <path class="cls-4" d="M493.3,103.1c.2,0,.3,0,.5,0-.2,0-.3,0-.5,0Z"/>
      <path class="cls-8" d="M431.2,103.7c0-.2-.1-.3-.2-.5,0,.2.1.3.2.5Z"/>
      <path class="cls-15" d="M418.6,43.8c0,.3,0,.4-.4.3.1-.1.3-.2.4-.3Z"/>
      <path class="cls-29" d="M494.3,31.7c0,.1,0,.3-.1.4,0-.1,0-.3.1-.4Z"/>
      <path class="cls-1" d="M511.6,49.9c0,.2,0,.3,0,.5,0-.2,0-.3,0-.5Z"/>
      <path class="cls-9" d="M493.6,76.4c.2,0,.3,0,.5,0-.2,0-.3,0-.5,0Z"/>
      <path class="cls-28" d="M474.5,4.7c-.1,0-.3,0-.4,0,.1,0,.3,0,.4,0Z"/>
      <path class="cls-15" d="M414.8,73.7c0-.1.2-.3.3-.4,0,.1-.2.3-.3.4Z"/>
      <path class="cls-29" d="M465.8,3.6c-.2,0-.3,0-.5,0,.2,0,.3,0,.5,0Z"/>
      <path class="cls-16" d="M463.5,39.3c.1,0,.3,0,.4-.1-.1,0-.3,0-.4.1Z"/>
      <path class="cls-1" d="M511.9,48.3c0,0,.2,0,.2,0,0,0,0,.1,0,.2-.1,0-.2,0-.3,0,0,0,0-.1,0-.2Z"/>
      <path class="cls-16" d="M471.1,39c.1,0,.3,0,.4,0-.1,0-.3,0-.4,0Z"/>
      <path class="cls-29" d="M495,22.2c-.1,0-.3.2-.4.2.1,0,.3-.2.4-.2Z"/>
      <path class="cls-29" d="M426.7,36.2c-.1.1-.2.2-.3.3.1-.1.2-.2.3-.3Z"/>
      <path class="cls-9" d="M486.7,33.2c0,.2,0,.3,0,.5,0-.2,0-.3,0-.5Z"/>
      <path class="cls-15" d="M414.2,74.8c0-.1.1-.3.2-.4,0,.1-.1.3-.2.4Z"/>
      <path class="cls-8" d="M492.4,77.5c-.2,0-.3,0-.5,0,.2,0,.3,0,.5,0Z"/>
      <path class="cls-9" d="M486.5,37.3c0,.2,0,.3,0,.5,0-.2,0-.3,0-.5Z"/>
      <path class="cls-15" d="M422.7,74.8c0-.1.2-.2.3-.3,0,.1-.2.2-.3.3Z"/>
      <path class="cls-4" d="M486.2,73.7c0,0,.2,0,.3,0,0,0,0,.1,0,.2,0,0,0,0,0,.1,0,0-.1,0-.2,0v-.3Z"/>
      <path class="cls-29" d="M426.4,36.5c-.1.1-.2.2-.3.3.1-.1.2-.2.3-.3Z"/>
      <path class="cls-29" d="M427.1,35.9c-.1.1-.3.2-.4.3,0-.2.1-.4.4-.3Z"/>
      <path class="cls-15" d="M421.3,76.6c0-.1.2-.2.2-.3,0,.1-.2.2-.2.3Z"/>
      <path class="cls-15" d="M416.6,71.2c0-.1.2-.2.3-.3,0,.1-.2.2-.3.3Z"/>
      <path class="cls-3" d="M509.8,29.9c0,0-.2-.2-.3-.3,0,0,.2.2.3.3Z"/>
      <path class="cls-12" d="M505,71.6c0-.1,0-.2,0-.4,0,.1,0,.2,0,.4Z"/>
      <path class="cls-9" d="M484.2,44.2c-.1,0-.2,0-.4.1.1,0,.2,0,.4-.1Z"/>
      <path class="cls-9" d="M487,31.3c0,.1,0,.2,0,.4,0-.1,0-.2,0-.4Z"/>
      <path class="cls-29" d="M464.5,3.5c0,0-.2,0-.3,0,0,0,.2,0,.3,0Z"/>
      <path class="cls-8" d="M426.2,101.2c0,0-.2,0-.3,0,0,0,.2,0,.3,0Z"/>
      <path class="cls-16" d="M480.5,40.9c.1,0,.2,0,.4.1-.1,0-.2,0-.4-.1Z"/>
      <path class="cls-15" d="M411.6,76.4c.1,0,.2,0,.4.1-.1,0-.2,0-.4-.1Z"/>
      <path class="cls-8" d="M423.4,101.4c0,0-.2,0-.3,0,0,0,.2,0,.3,0Z"/>
      <path class="cls-29" d="M427.5,35.4c-.1,0-.2.2-.3.3.1,0,.2-.2.3-.3Z"/>
      <path class="cls-4" d="M494.1,103c.1,0,.2,0,.4,0-.1,0-.2,0-.4,0Z"/>
      <path class="cls-4" d="M492.1,103.4c.1,0,.2,0,.4-.1-.1,0-.2,0-.4.1Z"/>
      <path class="cls-15" d="M419.9,68.6c0,.1,0,.2,0,.3,0-.1,0-.2,0-.3Z"/>
      <path class="cls-28" d="M472.6,4.4c-.1,0-.2,0-.4,0,.1,0,.2,0,.4,0Z"/>
      <path class="cls-4" d="M490.4,103.7c.1,0,.3,0,.4,0-.1,0-.3,0-.4,0Z"/>
      <path class="cls-9" d="M486.5,36.2c0,0,0,.2,0,.3,0,0,0-.2,0-.3Z"/>
      <path class="cls-1" d="M511.4,50.6c0,0,0,.2,0,.3,0,0,0-.2,0-.3Z"/>
      <path class="cls-29" d="M499.4,30c0-.1,0-.2,0-.4,0,.1,0,.2,0,.4Z"/>
      <path class="cls-28" d="M476.7,5.2c-.1,0-.2,0-.4,0,.1,0,.2,0,.4,0Z"/>
      <path class="cls-1" d="M511.4,51.1c0,.1,0,.2,0,.4,0-.1,0-.2,0-.4Z"/>
      <path class="cls-28" d="M478.4,5.7c-.1,0-.2,0-.3-.1.1,0,.2,0,.3.1Z"/>
      <path class="cls-29" d="M416.3,46.3c0,0-.1.1-.2.2,0,0-.1-.1-.2-.2,0,0,.2-.2.3-.2,0,0,0,.1.1.2Z"/>
      <path class="cls-1" d="M511.1,52.5c0,.1,0,.2-.1.4,0-.1,0-.2.1-.4Z"/>
      <path class="cls-4" d="M479.1,105.3c.1,0,.2,0,.3,0-.1,0-.2,0-.3,0Z"/>
      <path class="cls-29" d="M482.9,117c0,0,.1.1.2.2,0,0-.1,0-.2.1,0,0,0-.2,0-.3Z"/>
      <path class="cls-9" d="M487.6,22.8c0,.1,0,.3,0,.4,0-.1,0-.3,0-.4Z"/>
      <path class="cls-29" d="M494.4,24.9c0,0,0,.2,0,.3,0,0,0-.2,0-.3Z"/>
      <path class="cls-29" d="M494.5,25.4c0,.1,0,.3,0,.4,0-.1,0-.3,0-.4Z"/>
      <path class="cls-8" d="M423.6,106.5c0,0-.2,0-.3.1,0,0-.1-.1-.2-.2.1,0,.2,0,.3,0,0,0,0,0,.1.1Z"/>
      <path class="cls-7" d="M506.7,94c0,0-.2,0-.3,0,0,0,.2,0,.3,0Z"/>
      <path class="cls-8" d="M505.1,27.1c0-.1,0-.2-.1-.4,0,.1,0,.2.1.4Z"/>
      <path class="cls-9" d="M487,29.9c0,0,0,.2,0,.3,0,0,0-.2,0-.3Z"/>
      <path class="cls-19" d="M507.2,92.7c.1,0,.2-.1.4-.2-.1,0-.2.1-.4.2Z"/>
      <path class="cls-29" d="M426.1,36.8c0,.2,0,.3-.3.2,0,0,.2-.1.3-.2Z"/>
      <path class="cls-9" d="M485.2,43.1c0,.1-.1.2-.2.3,0-.1.1-.2.2-.3Z"/>
      <path class="cls-28" d="M480.5,8.3c.1,0,.2-.1.3-.2-.1,0-.2.1-.3.2Z"/>
      <path class="cls-27" d="M510.9,54.5c0-.1-.1-.2-.2-.4,0,0,0,0,0-.1,0,.1,0,.2.1.3,0,0,0,.1,0,.2Z"/>
      <path class="cls-9" d="M483.3,44.3c-.1,0-.2-.1-.4-.2.1,0,.2.1.4.2Z"/>
      <path class="cls-19" d="M502.8,94.5c.1,0,.2-.1.4-.2-.1,0-.2.1-.4.2Z"/>
      <path class="cls-9" d="M482.5,43.6c0-.1-.1-.2-.2-.4,0,.1.1.2.2.4Z"/>
      <path class="cls-15" d="M415.1,73.2c0,0,0-.1.1-.2,0,0,0,.1-.1.2Z"/>
      <path class="cls-29" d="M494.4,22.6c0,0,0,.1,0,.2,0,0,0-.1,0-.2Z"/>
      <path class="cls-15" d="M416.6,73.6c0,0,0,.1-.1.2,0,0,0-.1.1-.2Z"/>
      <path class="cls-15" d="M423.1,74.3c0,0,.1-.1.2-.2,0,0-.1.1-.2.2Z"/>
      <path class="cls-15" d="M416.2,74.2c0,0,0,.1-.1.2,0,0,0-.1.1-.2Z"/>
      <path class="cls-15" d="M414,75.2c0,0,0-.1.1-.2,0,0,0,.1-.1.2Z"/>
      <path class="cls-15" d="M422.4,75.2c0,0,.1-.1.2-.2,0,0-.1.1-.2.2Z"/>
      <path class="cls-15" d="M422,75.7c0,0,0-.1.1-.2,0,0,0,.1-.1.2Z"/>
      <path class="cls-15" d="M410.5,75.6c0,0,.1.1.2.2,0,0-.1-.1-.2-.2Z"/>
      <path class="cls-15" d="M411,76.1c0,0,.1,0,.2.1,0,0-.1,0-.2-.1Z"/>
      <path class="cls-9" d="M494.6,76.2c0,0,.1,0,.2,0,0,0-.1,0-.2,0Z"/>
      <path class="cls-15" d="M419.5,43c0,0-.1.1-.2.2,0,0,0-.1,0-.2,0,0,.2,0,.2,0Z"/>
      <path class="cls-15" d="M413.1,76.6c0,0,.2,0,.3-.1,0,0-.2,0-.3.1Z"/>
      <path class="cls-15" d="M420.9,77.1c0,0,.1-.1.2-.2,0,0-.1.1-.2.2Z"/>
      <path class="cls-8" d="M490.6,77.8c0,0-.2,0-.3,0,0,0,.2,0,.3,0Z"/>
      <path class="cls-15" d="M420.1,78.1c0,0,.1-.1.2-.2,0,0-.1.1-.2.2Z"/>
      <path class="cls-15" d="M414.5,78.9c0,0,0,.2.1.2,0,0,0-.2-.1-.2Z"/>
      <path class="cls-15" d="M414.7,79.3c0,0,0,.2.1.2,0,0,0-.2-.1-.2Z"/>
      <path class="cls-15" d="M418.7,79.6c0,0,.1-.1.2-.2,0,0-.1.1-.2.2Z"/>
      <path class="cls-15" d="M415.2,80c0,0,.1.1.2.2,0,0-.1-.1-.2-.2Z"/>
      <path class="cls-15" d="M417.3,80.4c0,0,.2,0,.3-.1,0,0-.2,0-.3.1Z"/>
      <path class="cls-28" d="M470.6,4.1c0,0-.2,0-.3,0,0,0,.2,0,.3,0Z"/>
      <path class="cls-28" d="M475.3,4.9c0,0-.2,0-.3-.1,0,0,.2,0,.3.1Z"/>
      <path class="cls-28" d="M477.4,5.4c0,0-.2,0-.3,0,0,0,.2,0,.3,0Z"/>
      <path class="cls-28" d="M477.8,5.6c0,0-.1,0-.2,0,0,0,.1,0,.2,0Z"/>
      <path class="cls-7" d="M510.2,89.7c0,0,0-.1,0-.2,0,0,0,.1,0,.2Z"/>
      <path class="cls-28" d="M479,5.9c0,0-.2,0-.3,0,0,0,.2,0,.3,0Z"/>
      <path class="cls-9" d="M481.5,42.6s0,0,0,0c0,0,.2,0,.2,0,0,0-.2,0-.2,0Z"/>
      <path class="cls-28" d="M479.9,6.3c0,0-.2,0-.2-.1,0,0,.2,0,.2.1Z"/>
      <path class="cls-19" d="M508,92.3c0,0,.1,0,.2-.1,0,0-.1,0-.2.1Z"/>
      <path class="cls-28" d="M480.4,6.5c0,0-.2,0-.3-.1,0,0,.2,0,.3.1Z"/>
      <path class="cls-28" d="M481.3,7c0,0-.2,0-.3-.1,0,0,.2,0,.3.1Z"/>
      <path class="cls-28" d="M481.1,7.8c0,0,.1-.1.2-.2,0,0-.1.1-.2.2Z"/>
      <path class="cls-28" d="M479,9.3c0,0,.1,0,.2,0,0,0-.1.1-.2.2,0,0,0,0,0-.1Z"/>
      <path class="cls-28" d="M478,10.3c0,0,0-.1,0-.2,0,0,.1,0,.2,0,0,0-.1.1-.2.2Z"/>
      <path class="cls-14" d="M475.1,12.4c0,0,.1,0,.2,0,0,0,0,.1,0,.2,0,0,0,0-.1,0,0,0-.1-.1-.2-.2,0,0,0,0,.1-.1Z"/>
      <path class="cls-19" d="M505.1,93.6c0,0,.2,0,.2,0,0,0-.2,0-.2,0Z"/>
      <path class="cls-28" d="M475.2,12.6c0,0,0-.1,0-.2,0,0,.1,0,.2,0,0,0-.1.1-.2.2Z"/>
      <path class="cls-14" d="M474.6,13.1s0,0-.1.1c0,0-.1-.1-.2-.2,0,0,.1-.1.2-.2,0,0,0,0,0,0,0,0,0,.1,0,.2Z"/>
      <path class="cls-7" d="M507.5,94.1c0,0-.1,0-.2,0,0,0,.1,0,.2,0Z"/>
      <path class="cls-28" d="M474.6,13.1c0,0,0-.1,0-.2,0,0,.1,0,.2,0,0,0-.1.1-.2.2Z"/>
      <path class="cls-9" d="M488,21.7c0,0,0,.2-.1.2,0,0,0-.2.1-.2Z"/>
      <path class="cls-7" d="M505.9,94.2c0,0-.1,0-.2,0,0,0,.1,0,.2,0Z"/>
      <path class="cls-9" d="M487.8,22.3c0,0,0,.2,0,.3,0,0,0-.2,0-.3Z"/>
      <path class="cls-9" d="M487.5,23.8c0,0,0,.2,0,.3,0,0,0-.2,0-.3Z"/>
      <path class="cls-9" d="M485.6,41.9c0,0,0,.2-.1.3,0,0,0-.2.1-.3Z"/>
      <path class="cls-9" d="M487.3,24.8c0,0,0,.1,0,.2,0,0,0-.1,0-.2Z"/>
      <path class="cls-9" d="M485.8,41.3c0,0,0,.2,0,.3,0,0,0-.2,0-.3Z"/>
      <path class="cls-8" d="M503.9,25.4c0,0-.2,0-.2-.1,0,0,.2,0,.2.1Z"/>
      <path class="cls-8" d="M458.7,95.9c0,0,0,.2.1.2,0,0,0-.2-.1-.2Z"/>
      <path class="cls-29" d="M501.5,25.4c0,0-.1,0-.2,0,0,0,.1,0,.2,0Z"/>
      <path class="cls-3" d="M508.3,29.1c0,0-.2,0-.3,0,0,0,.2,0,.3,0Z"/>
      <path class="cls-16" d="M481.2,41c0,0,.2,0,.2.1,0,0-.2,0-.2-.1Z"/>
      <path class="cls-16" d="M456.6,41c0,0,.1,0,.2,0,0,0-.1,0-.2,0Z"/>
      <path class="cls-3" d="M509.2,29.5c0,0-.2-.1-.3-.2,0,0,.2.1.3.2Z"/>
      <path class="cls-3" d="M510.2,30.5c0,0-.1-.2-.2-.2,0,0,.1.2.2.2Z"/>
      <path class="cls-3" d="M510.4,30.8c0,0,0-.1-.1-.2,0,0,0,.1.1.2Z"/>
      <path class="cls-16" d="M479.3,40.6c0,0,.2,0,.3.1,0,0-.2,0-.3-.1Z"/>
      <path class="cls-3" d="M510.7,31.4c0,0,0-.2-.1-.2,0,0,0,.2.1.2Z"/>
      <path class="cls-16" d="M458.4,40.6c0,0,.2,0,.3-.1,0,0-.2,0-.3.1Z"/>
      <path class="cls-29" d="M494.4,31.2c0,0,0,.2,0,.3,0,0,0-.2,0-.3Z"/>
      <path class="cls-16" d="M478.6,40.4c0,0,.2,0,.3.1,0,0-.2,0-.3-.1Z"/>
      <path class="cls-16" d="M459,40.5c0,0,.2,0,.3-.1,0,0-.2,0-.3.1Z"/>
      <path class="cls-9" d="M486.1,39.6c0,0,0,.2,0,.3,0,0,0-.2,0-.3Z"/>
      <path class="cls-29" d="M493.3,32.4c0,0,0-.2,0-.3,0,0,0,.2,0,.3Z"/>
      <path class="cls-4" d="M492.8,103.2c0,0,.1,0,.2,0h-.2Z"/>
      <path class="cls-29" d="M493.7,32.8c0,0-.1,0-.2,0,0,0,.1,0,.2,0Z"/>
      <path class="cls-29" d="M500,33.1c0,0,0-.2,0-.3,0,0,0,.2,0,.3Z"/>
      <path class="cls-8" d="M505.7,36c0,0,0-.1,0-.2,0,0,0,.1,0,.2Z"/>
      <path class="cls-4" d="M491.2,103.5c0,0,.2,0,.3,0,0,0-.2,0-.3,0Z"/>
      <path class="cls-8" d="M505.8,36.6c0,0,0-.2,0-.3,0,0,0,.2,0,.3Z"/>
      <path class="cls-1" d="M511.7,49.2c0,0,0,.2,0,.3,0,0,0-.2,0-.3Z"/>
      <path class="cls-1" d="M511.2,51.9c0,0,0,.1,0,.2,0,0,0-.1,0-.2Z"/>
      <path class="cls-4" d="M489.8,103.7c0,0,.1,0,.2,0h-.2Z"/>
      <path class="cls-28" d="M433,64.6c0,0,.2,0,.3,0,0,0-.2,0-.3,0Z"/>
      <path class="cls-4" d="M488.2,103.9h.2c0,0-.1,0-.2,0Z"/>
      <path class="cls-15" d="M423.6,73.7c0,0,.1-.1.2-.2,0,0-.1.1-.2.2Z"/>
      <path class="cls-28" d="M431.9,65.2c0,0,.1,0,.2-.1,0,0-.1,0-.2.1Z"/>
      <path class="cls-4" d="M483.8,104.6c0,0,.2,0,.3,0,0,0-.2,0-.3,0Z"/>
      <path class="cls-4" d="M483.1,104.7c0,0,.1,0,.2,0,0,0-.1,0-.2,0Z"/>
      <path class="cls-15" d="M419.5,68.6c0,0,.1,0,.2,0,0,0-.1,0-.2,0Z"/>
      <path class="cls-15" d="M419.1,68.8c0,0,.1,0,.2-.1,0,0-.1,0-.2.1Z"/>
      <path class="cls-4" d="M480.8,105c0,0,.2,0,.3,0,0,0-.2,0-.3,0Z"/>
      <path class="cls-15" d="M419.1,70.4c0,0-.1.1-.2.2,0,0,.1-.1.2-.2Z"/>
      <path class="cls-15" d="M418.9,70.8c0,0-.1.1-.2.2,0,0,.1-.1.2-.2Z"/>
      <path class="cls-15" d="M416.1,71.8c0,0,.1-.1.2-.2,0,0-.1.1-.2.2Z"/>
      <path class="cls-15" d="M418,71.8c0,0-.1.1-.2.2,0,0,.1-.1.2-.2Z"/>
      <path class="cls-11" d="M486.3,72.3c0,0,0-.2,0-.3,0,0,0,.2,0,.3Z"/>
      <path class="cls-8" d="M424,106.9c0,0-.1.1-.2.2,0,0,0,0,0,0,0,0,.1-.1.2-.2,0,0,0,0,0,0Z"/>
      <path class="cls-15" d="M417.6,72.3c0,0-.1.1-.2.2,0,0,.1-.1.2-.2Z"/>
      <path class="cls-8" d="M425.1,108.3c0,0,.1.1.2.2,0,0-.1-.1-.2-.2Z"/>
      <path class="cls-9" d="M486.3,38.5c0,0,0,.1,0,.2,0,0,0-.1,0-.2Z"/>
      <path class="cls-12" d="M484.6,108.9c0,0,0,.2,0,.3,0,0,0-.2,0-.3Z"/>
      <path class="cls-15" d="M415.5,72.6c0,0,0-.1.1-.2,0,0,0,.1-.1.2Z"/>
      <path class="cls-15" d="M415.3,72.9c0,0,.1-.1.2-.2,0,0-.1.1-.2.2Z"/>
      <path class="cls-12" d="M486.8,115.6s0,0,0-.1c0,0,.2,0,.2,0,0,0-.2,0-.2.1Z"/>
      <path class="cls-12" d="M483.1,115.5c0,0,0,.2,0,.2,0,0,0-.2,0-.2Z"/>
      <path class="cls-15" d="M417.3,72.7c0,0-.1.1-.2.2,0,0,.1-.1.2-.2Z"/>
      <path class="cls-15" d="M485.7,116.1c-.1,0-.2,0-.3-.1.1,0,.3,0,.4,0,0,0,0,0,0,.1Z"/>
      <path class="cls-12" d="M483,116.3c0,0,0,.1,0,.2,0,0,0-.1,0-.2Z"/>
      <path class="cls-29" d="M427.9,34.9c0,0,.1,0,.2,0,0,0-.1,0-.2.1,0,0,0-.1,0-.2Z"/>
      <path class="cls-12" d="M432,31.4c0,0-.1.1-.2.2,0,0,.1-.1.2-.2Z"/>
      <path class="cls-27" d="M510.6,54.7s0,0,0,0c0,0,0,.2,0,.3h0s0,0,0,0c0-.1,0-.2,0-.3Z"/>
      <path class="cls-29" d="M427.7,35.2c0,0-.1.1-.2.2,0,0,.1-.1.2-.2Z"/>
      <path class="cls-15" d="M418.8,43.9s0,0-.1,0c0,0,0-.1,0-.2,0,0,0,0,0,0,0,0,0,.2,0,.2Z"/>
      <path class="cls-15" d="M419.3,43.2c0,0-.1,0-.2.1,0,0,.1,0,.2-.1Z"/>
      <path class="cls-4" d="M458.1,94.8c0,0,0-.1,0-.2h0c0,0,0,.1,0,.2,0,0,0,0,0,0Z"/>
      <path class="cls-15" d="M418.2,44.1c0,0,0,.1-.1.2,0,0,0-.1.1-.2Z"/>
      <path class="cls-15" d="M418.1,44.3c0,0-.1,0-.2.1,0,0,.1,0,.2-.1Z"/>
      <path class="cls-4" d="M422.5,105.8s0,0-.1-.1c0,0,.1-.1.2-.2,0,0,0,.1.1.2,0,0-.1.1-.2.2Z"/>
      <path class="cls-12" d="M432.1,31.3s0,0,.1.1c0,0-.2,0-.2,0,0,0,0,0,0-.1Z"/>
      <path class="cls-14" d="M474.2,13.4c0,0,0-.2-.1-.2,0,0,0,0,0,0,0,0,.1,0,.2.1,0,0,0,0-.1.1Z"/>
      <path class="cls-15" d="M415.8,46.3c0,0,.1.1.2.2,0,0-.2,0-.2,0,0,0,0,0,0,0,0,0,0,0,0,0Z"/>
      <path class="cls-29" d="M427.2,35.7c0,0,0,.1-.1.2,0,0,0-.1.1-.2Z"/>
      <path class="cls-14" d="M474.5,13.2s0,0-.1,0c0,0-.1,0-.2-.1,0,0,.1,0,.2-.1,0,0,.1.1.2.2Z"/>
      <path class="cls-14" d="M476.7,11.4s0,0-.1,0c0,0-.1-.1-.2-.2,0,0,.1,0,.2-.1,0,0,.1.1.2.2Z"/>
      <path class="cls-29" d="M427.9,35.1c0,0-.1,0-.2.1,0,0,.1,0,.2-.1Z"/>
      <path class="cls-15" d="M416.3,46.3c0,0,0-.1-.1-.2,0,0,0,0,.1,0,0,0,0,0,0,.1Z"/>
      <path class="cls-15" d="M416.7,45.6s0,0,0,0c0,0,0,0-.1,0,0,0,0,0,0,0Z"/>
      <path class="cls-12" d="M431.3,31.9s0,0,0,.1c0,0,0,0,0-.1Z"/>
      <path class="cls-8" d="M457.2,93s0,0,0,0c0,0,0,0,0,0Z"/>
      <path class="cls-12" d="M486.4,115.8s0,0,.1,0c0,0,0,0-.1,0Z"/>
      <path class="cls-15" d="M412.2,76.6s0,0,0,0c0,0,0,0,0,0Z"/>
      <path class="cls-29" d="M418.8,43.9c0,0,0-.2,0-.2.1,0,.2,0,.3,0-.1,0-.2.1-.3.2Z"/>
      <path class="cls-15" d="M420,42.8c0,0,.2-.2.2-.2,0,0-.2.2-.2.2Z"/>
      <path class="cls-28" d="M435.3,65.3c0,0,0-.2-.1-.2,0,0,0,.2.1.2Z"/>
      <path class="cls-28" d="M517.3,42c0,0,.1.2.2.3,0,0-.1-.2-.2-.3Z"/>
      <path class="cls-20" d="M510.7,55c0,0,0-.2,0-.3,0,0,0,0,.1,0,0,0,0,.2,0,.3,0,0,0,0-.1,0Z"/>
      <path class="cls-28" d="M517.8,43.9s0,0,0,0c0,0,0,0,0,0,0,0,0,0,0,0Z"/>
      <path class="cls-1" d="M511.5,51.4s0,0,0-.1c0,0,0,0,0,.1Z"/>
      <path class="cls-23" d="M423,80.7c-.2-.5-.4-.9-.5-1.4,0-.2.1-.6.3-.8,1.3-1.5,2.6-3,3.8-4.5,1.2-1.4,2.3-2.8,3.5-4.1.7-.8,1.5-1.6,2.3-2.3.3-.3.6-.3.9,0,0,0,.1,0,.2,0,.1.3.3.6.4.9,1.2,1.6,2.4,3.1,3.6,4.7,1.7,2.3,3.3,4.6,5.4,6.5,1.4,1.2,2.9,2.2,4.6,2.8,1.3.4,2.6.7,3.9,1.1,2,.6,4.1,1.1,6,2,1.5.8,2.9,1.8,4.1,2.9.3.3.2.4-.1.5-1.2.4-2.4.8-3.6,1.1-.1,0-.3,0-.5-.2-.7-.5-1.4-.5-1.7.1-.2.4-.4.9-.3,1.5.5,2.8,1.7,5.2,3.1,7.6,1.3,2.3,2.8,4.5,4.6,6.4.8.9,1.6,1.8,2.3,2.7.4.6.8,1.3,1,2,.5,1.4-.6,2.5-1.9,2.5-1.3,0-2.4-.5-3.4-1.4-1.4-1.3-2.4-2.8-3.3-4.5-.3-.6-.7-1.2-1-1.8-.1-.2-.4-.5-.6-.6-.3-.2-.7-.3-1,0-.3.4-.5.8-.3,1.3.5,2.2,1.9,3.9,3.4,5.5.7.7,1.4,1.4,2,2.2.3.3.4.7.6,1.1,0,.1,0,.3,0,.4-.5,1.2-1.4,1.5-2.5.8-1.2-.7-2.3-1.5-3.3-2.4-1.3-1.1-2.4-2.4-3.6-3.5-.5-.5-1-.9-1.7-.9-.4,0-.6,0-.6.5,0,.6.3,1.1.6,1.5.4.6.9,1.1,1.4,1.6.6.7,1.3,1.4,2,2.1.3.3.5.7.6,1,.2.5-.2.8-.5,1-.8.6-1.6.7-2.3,0-.8-.7-1.6-1.5-2.3-2.3-1.1-1.3-2.2-2.7-3.3-4-.4-.5-.9-.8-1.5-1.1-.3-.2-.7-.2-1,0-.4.2-.4.6-.3,1,.3.9.9,1.6,1.5,2.3.8.9,1.6,1.8,2.4,2.8.5.5.4.8-.3,1-.4.1-.9.3-1.4.3-1.8,0-3.1-.9-4.2-2.2-1.1-1.3-2.2-2.7-3.3-4.2-.7-.9-1.2-1.9-1.8-2.8-1-1.8-1.9-3.6-2.8-5.4-1.1-2.3-2.2-4.6-3.3-6.9-.9-1.9-1.8-3.9-2.7-5.8-.5-1.2-1-2.4-1.5-3.6-.6-1.4-1.1-2.9-1.7-4.3-.1-.4-.3-.7-.4-1.1Z"/>
      <path class="cls-5" d="M484.2,41.4c-.6-.1-1.2-.2-1.8-.4-.9-.2-1.9-.5-2.8-.7-1-.3-2-.5-3.1-.7-2-.4-3.9-.7-5.9-.9-1.4-.2-2.9-.2-4.4,0-1.3,0-2.6.5-3.9.7-1.2.3-2.3.6-3.5.9-1.5.4-3,.8-4.5,1.1-2.2.5-4.4.8-6.6.7,0,0-.2,0-.3,0,.5-.8.9-1.5,1.4-2.3.1-.1.2-.2.3-.4.3-.5.5-.8,1.2-.8.7,0,1.1-1,.8-1.7-.3-.9-.9-1.5-1.7-2.1-2-1.4-4.2-2.5-6.4-3.5-1.5-.7-3-1.2-4.5-1.8-1.4-.5-2.8-.9-4.1-1.4-1.1-.4-2.2-.9-3-1.8-.6-.7-1-1.4-.5-2.4.3-.7.9-1,1.6-1.1,1.2-.2,2.3.1,3.4.5,1.9.6,3.7,1.4,5.5,2.1.4.2.9.2,1.3.2.4,0,.8,0,1-.5.2-.4,0-.8-.4-1.1-1-1-2.3-1.4-3.5-1.9-.8-.3-1.6-.7-2.5-.9-.9-.2-1.8-.3-2.8-.4-.5,0-.7-.2-.7-.7,0-.4,0-.8,0-1.2,0-.7.8-1.5,1.6-1.7,1.1-.3,2.1-.3,3.2,0,1.8.5,3.6,1,5.4,1.4.4.1.9.1,1.4.1.4,0,.7-.2.8-.6.1-.5,0-.8-.5-1.1-.9-.6-1.9-.8-2.9-1-1.2-.2-2.4-.4-3.6-.6-.6-.1-.7-.3-.6-.9.2-.5.3-1,.6-1.4.6-.9,1.6-.9,2.6-.8,1.6.2,3.2.7,4.7,1.2,1.1.4,2.4.5,3.6.7.5,0,1,0,1.3-.5.2-.3.3-.6,0-.8-.3-.2-.7-.3-1.1-.4-1.6-.4-3.2-.8-4.7-1.2-.6-.2-1.1-.4-1.8-.7.9-1.3,1.9-2.3,3.5-2.5.9-.1,1.8,0,2.7.1,1.7.4,3.4.7,5,1.3,1.7.6,3.3,1.4,5,2.2,1.4.6,2.7,1.3,4.1,2,2.1,1.1,4.1,2.2,6.1,3.4,1.9,1.1,3.7,2.2,5.5,3.4,2.5,1.6,5.1,3.1,7.6,4.7.5.3,1,.7,1.5,1.1.6.4.5,1,.5,1.5,0,1.7,0,3.5-.2,5.2,0,1.1,0,2.3-.2,3.4-.1,1.2-.3,2.4-.5,3.5,0,.5,0,1-.1,1.5Z"/>
      <path class="cls-21" d="M486.2,73.7c0,.1,0,.2.1.3,0,.2,0,.3,0,.5,0,.3,0,.6,0,.8,0,.2,0,.3,0,.5-.6.2-.9.6-.9,1.2,0,.5.3.9,1,1.2,1,.3,2,.3,3,.1.1,0,.3,0,.4,0,.3,0,.5,0,.8,0,.2,0,.5,0,.7-.1,0,0,.2,0,.3,0,.2,0,.4,0,.5-.1,0,0,.1,0,.2,0,.1,0,.3,0,.4,0,.2,0,.3,0,.5,0,.2,0,.4,0,.6-.1,0,0,.2,0,.3,0,.3,0,.7-.1,1-.2,0,0,.2,0,.3,0,.2,0,.4,0,.6-.1,0,0,.2,0,.3,0,0,0,.2,0,.2,0,0,0,.2,0,.2,0,1.5-.4,3-.8,4.5-1.3,1.9-.5,3.8-1.3,5.8-1.5.9,0,1.8-.1,2.5.5.9.8,1,1.9.3,3-.7,1-1.6,1.7-2.8,2.2-1.5.6-3.1,1.1-4.7,1.6-.7.3-1.4.5-2.1.9-.4.2-.8.5-.6,1,.2.5.7.5,1.1.4,1-.2,2-.5,3-.8,1.7-.6,3.3-1.3,4.9-1.9,1-.4,1.5,0,2,.9.6,1.4.4,2-.7,2.9-1.2,1-2.7,1.6-4.1,2.2-1.2.6-2.3,1.1-3.4,1.7-.3.2-.5.4-.7.7-.4.5-.2.9.4.9.9,0,1.7-.2,2.4-.6.2,0,.4-.2.5-.3,0,0,.1,0,.2,0,0,0,.2,0,.3-.1,0,0,0,0,.1,0,.2,0,.4-.2.6-.3,0,0,.1,0,.2,0,0,0,.2,0,.3-.1.3-.1.6-.3.9-.4.2,0,.3-.2.5-.2,0,0,.1,0,.2,0,0,0,.2,0,.2-.1,0,0,.2,0,.3,0,0,0,.1,0,.2,0,.1.1.3.2.4.4,0,.2,0,.3.1.5,0,0,0,.1,0,.2,0,.2,0,.3.1.5,0,.1,0,.2,0,.3,0,.3,0,.5,0,.8,0,0,0,.1,0,.2-.3.3-.6.5-.9.8,0,0,0,0,0,0,0,0-.2.1-.2.2-.1,0-.2.1-.4.2,0,0-.2,0-.2.1-.2.1-.4.2-.7.3-.1,0-.2.1-.4.2-.3.1-.6.3-.8.4-.3.1-.5.2-.8.3-.2,0-.4.1-.5.2-.3,0-.5.2-.8.3-.2,0-.4.1-.5.2,0,0-.2,0-.2.1,0,0-.1,0-.2,0-.2,0-.3.1-.5.2,0,0-.1,0-.2,0,0,0-.2,0-.2.1-.5.3-1,.6-1.4.9-.2.2-.5.4-.6.7-.1.3-.2.7,0,.9.2.2.6.2.9.2,1.5-.3,2.7-1.3,4-1.9.5-.3,1.1-.5,1.7-.7.5-.2.8,0,.9.6.3,2-.6,3.4-2.3,4.5-1.4.9-3,1.4-4.7,1.8-1.8.5-3.7.9-5.5,1.2-1.4.3-2.9.5-4.3.8-.7.1-1.5.3-2.2.4-.3,0-.5,0-.8.1,0,0-.1,0-.2,0-.1,0-.3,0-.4,0-.1,0-.2,0-.3,0-.2,0-.4,0-.6,0-.4,0-.7.1-1.1.2-.2,0-.4,0-.7.1,0,0,0,0-.1,0,0,0-.2,0-.3,0-.1,0-.3,0-.4,0,0,0-.2,0-.3,0-.2,0-.4,0-.6,0,0,0-.2,0-.3,0-.3,0-.6,0-.8,0,0,0-.2,0-.3.1-.2,0-.5,0-.7,0,0,0-.2,0-.3,0-.2,0-.4,0-.5,0-.1,0-.2,0-.3,0-.2,0-.4,0-.6,0-.2,0-.3,0-.5,0-.3,0-.6,0-.9,0,0,0-.2,0-.3,0-.7,0-1.4.2-2.1.2-.3,0-.6,0-.9,0-.4,0-.9,0-1.3,0-1.6.1-3.1.3-4.7.4-.5,0-1.1,0-1.6,0-.2,0-.4,0-.6-.1-1.3-1.8-2.7-3.5-4-5.3-.8-1.1-1.4-2.2-2.2-3.2-.1-.2-.3-.4-.4-.6,0,0,0-.1-.1-.2-.2-.4-.5-.8-.7-1.2,0-.1-.1-.2-.2-.4,0,0-.1-.2-.2-.2-.2-.6-.5-1.1-.7-1.7-.2-.6-.1-.7.5-1,2.2-.9,4.3-1.7,6.5-2.6,0,0,.2-.1.2-.2,1.1-.5,2.3-.9,3.4-1.4,4.5-2,7.9-5.2,10.8-9.2,1.3-1.8,2.6-3.5,4-5.1.7-.9,1.7-1.6,2.8-1.9,0,0,.1.1.2.2,0,0,0,0,0,0,0,.1,0,.2,0,.3,0,.1,0,.2,0,.3,0,.4,0,.7,0,1.1Z"/>
      <path class="cls-19" d="M509.8,90.5c0-.3,0-.5,0-.8.2.3.3.5,0,.8Z"/>
      <path class="cls-8" d="M490.5,78.1c-.3,0-.5,0-.8,0,.3,0,.5,0,.8,0Z"/>
      <path class="cls-19" d="M506.3,88.9c-.2,0-.4.2-.6.3.2,0,.4-.2.6-.3Z"/>
      <path class="cls-19" d="M508.2,88.1c-.2,0-.3.2-.5.2.2,0,.3-.2.5-.2Z"/>
      <path class="cls-19" d="M509.6,88.6c0-.2,0-.3-.1-.5,0,.2,0,.3.1.5Z"/>
      <path class="cls-19" d="M505.1,89.4c-.2,0-.4.2-.5.3.2,0,.4-.2.5-.3Z"/>
      <path class="cls-8" d="M493.2,77.6c-.2,0-.3,0-.5,0,.2,0,.3,0,.5,0Z"/>
      <path class="cls-19" d="M509.8,89.3c0-.2,0-.3-.1-.5,0,.2,0,.3.1.5Z"/>
      <path class="cls-8" d="M496.7,76.8c0,0-.2,0-.2,0,0,0,.2,0,.2,0Z"/>
      <path class="cls-8" d="M496.3,76.9c0,0-.2,0-.3,0,0,0,.2,0,.3,0Z"/>
      <path class="cls-8" d="M495.4,77.1c0,0-.2,0-.3,0,0,0,.2,0,.3,0Z"/>
      <path class="cls-8" d="M494.1,77.4c0,0-.2,0-.3,0,0,0,.2,0,.3,0Z"/>
      <path class="cls-8" d="M492.3,77.8c0,0-.1,0-.2,0,0,0,.1,0,.2,0Z"/>
      <path class="cls-8" d="M491.5,77.9c0,0-.2,0-.3,0,0,0,.2,0,.3,0Z"/>
      <path class="cls-19" d="M509.1,87.8c0,0-.1,0-.2,0,0,0,0,0,0-.1,0,0,0,0,.1.1Z"/>
      <path class="cls-19" d="M508.6,87.9c0,0-.2,0-.2.1,0,0,.2,0,.2-.1Z"/>
      <path class="cls-19" d="M506.7,88.7c0,0-.2,0-.3.1,0,0,.2,0,.3-.1Z"/>
      <path class="cls-19" d="M505.5,89.2c0,0-.2,0-.3.1,0,0,.2,0,.3-.1Z"/>
      <path class="cls-24" d="M414,29.1c.3.8.5,1.6.8,2.3.5,1.3,1,2.7,1.5,4,.5,1.2.9,2.3,1.4,3.5.1.3.2.6.4.9.3.4.2.7-.1,1.1-1,1-2,2-3,3-1.3,1.4-2.6,2.7-3.9,4.1-.4.4-.8.9-1.2,1.4-.4.4-.5.4-.8,0-.9-1.3-1.9-2.6-2.8-3.9-.1-.2-.1-.5,0-.8.3-.8.7-1.5,1-2.2,1-2.2,1.9-4.5,2.9-6.7.8-1.7,1.7-3.3,2.5-4.9.3-.5.7-1,1-1.5,0,0,.1-.1.2-.2Z"/>
      <path class="cls-18" d="M480.5,42.7c0,0,.2,0,.2,0,.3,0,.5.1.8.2.4,0,.5.4.6.8,0,0,.1.1.2.2,0,0,0,0,0,0,0,.1.1.2.2.3,0,0,.1.1.2.2.4.4.9.4,1.4.1.3-.2.5-.4.8-.6.3-.5.6-1.1.9-1.6.1-.5.3-.9.4-1.4,0-.3.1-.7.2-1,0,0,0-.1,0-.2,0,0,0-.1,0-.2,0,0,0-.1,0-.2,0-.2,0-.3,0-.5,0-.2,0-.5.1-.7,0-.1,0-.3,0-.4,0-.1,0-.2,0-.3,0-.3,0-.5,0-.8,0-.1,0-.2.1-.4,0-.9.2-1.9.3-2.8,0-1,.2-2,.3-3,0-1.6,0-3.3.2-4.9.1-1.3.2-2.6.8-3.8.4-.8,1.1-1.1,2-1.1.8,0,1.5.3,1.9,1.1.4.8.7,1.7.7,2.6,0,.2,0,.4.1.7,0,.2,0,.3,0,.5,0,0,0,.1,0,.2,0,.2,0,.4,0,.6,0,.7,0,1.4,0,2,0,.4,0,.8,0,1.2-.2,1.1-.2,2.2.1,3.3,0,.2.3.4.4.4.2,0,.5,0,.6-.2.3-.8.7-1.6.8-2.4,0-1.9,0-3.7,0-5.6,0-.5-.1-1.1-.2-1.6,0-.2.1-.5.3-.6.8-.5,1.7-.6,2.7-.2.8.4,1.2,1.1,1.2,1.9,0,1.5,0,3,.1,4.5.1,1.4.4,2.8.6,4.2,0,.4.3.8.8.9.6,0,.8-.4,1-.9,0-.1,0-.2.1-.3,0,0,0-.1,0-.2,0,0,0-.1,0-.2,0-.1,0-.2,0-.4,0,0,0-.2,0-.2,0-.3,0-.6,0-.9,0-.2,0-.5-.1-.7,0-.4,0-.7,0-1.1,0-.9-.1-1.7-.2-2.6,0-.7,0-.8.6-1,1.5-.4,2.8.6,2.9,1.9,0,1,.1,2,.2,3,0,.2,0,.4.1.6,0,.7,0,1.4,0,2.1,0,.1,0,.3,0,.4,0,.9.1,1.7.2,2.6,0,.1,0,.2.1.3,0,0,0,0,0,.1,0,0,0,.1,0,.2,0,.3.2.6.3.8.1.2.4.4.5.3.2,0,.5-.2.5-.4.1-.5.2-1.1.2-1.6,0-.6,0-1.1,0-1.7,0-1.5,0-2.9-.1-4.4,0-.2,0-.4,0-.6.2,0,.3,0,.5,0,0,0,.2,0,.3.1,1.7.3,2.5,1.5,3,2.9,0,.3,0,.5.1.8,0,.2,0,.4,0,.5,0,1.9,0,3.8,0,5.7,0,.3,0,.7,0,1,0,.2,0,.4,0,.6,0,.7-.2,1.3-.2,2-.2,2-.4,4-.7,6-.2,1.6-.6,3.1-.9,4.6-.3,1.2-.5,2.4-.8,3.6-.3,1.1-.6,2.3-.9,3.4-.3,1.4-.6,2.9-1,4.3,0,0,0,.2-.1.3,0,0,0,.2,0,.2,0,0,0,.2,0,.3,0,0,0,.2,0,.2,0,0,0,.2,0,.3,0,.1,0,.2,0,.3,0,0-.1.2-.2.2,0,0,0,.2,0,.3,0,.1,0,.3-.1.4,0,0,0,.2,0,.2,0,0,0,.2-.1.2,0,.1,0,.2,0,.3-.1.5-.2,1-.3,1.5,0,.1,0,.2,0,.4,0,0,0,.2-.1.2,0,.1,0,.2,0,.3,0,.3-.1.5-.2.8,0,0,0,.1,0,.2,0,0,0,.1,0,.2,0,.1,0,.3,0,.4-.2.5-.5.8-1.1,1-2.2.7-4.3,1.4-6.5,2.1-1.1.3-2.3.6-3.5.9-.1,0-.2.1-.3.2-.1,0-.3,0-.4,0-.4,0-.8,0-1.2.1-.9.1-1.7.2-2.6.3-.1,0-.2,0-.3.1-.1,0-.3,0-.4,0-.2,0-.3,0-.5,0-.4-.2,0-.6-.2-.9,0,0,0-.1,0-.2,0,0,0,0,0-.1,0-.4,0-.7,0-1.1,0-.2,0-.4,0-.5,0-.1.1-.2.1-.3,0-.8,0-1.6,0-2.4,0-.6,0-1.1,0-1.7,0-.2,0-.4,0-.6,0-1.1,0-2.1,0-3.2,0-.1,0-.2,0-.3,0-.3,0-.6,0-.9,0-.5,0-.9-.1-1.4,0,0,0,0,0-.1,0-.3,0-.7-.1-1,0-.1,0-.3,0-.4,0,0,0-.2-.1-.2,0-1.3-.5-2.4-1-3.5-1-2.1-2.4-4-3.8-5.9-1.2-1.6-2.2-3.4-3.3-5.1-.4-.6-.6-1.4-.9-2,0,0,0,0,0-.1,0,0,0-.2,0-.3,0-.6-.1-1.1-.2-1.7,0-.3,0-.4.4-.4.6.1,1.3.2,1.9.3Z"/>
      <path class="cls-9" d="M487.9,71.3c0,.8,0,1.6,0,2.4,0,.1,0,.2-.1.3,0-.8,0-1.6,0-2.4,0-.1.1-.2.2-.3Z"/>
      <path class="cls-9" d="M487.8,63.2c0,.5,0,.9.1,1.4,0-.5,0-.9-.1-1.4Z"/>
      <path class="cls-9" d="M487.8,74.6c0,.4,0,.7,0,1.1,0-.4,0-.7,0-1.1Z"/>
      <path class="cls-9" d="M487.7,62c0,.3,0,.7.1,1,0-.3,0-.7-.1-1Z"/>
      <path class="cls-9" d="M487.9,76.9c.2,0,.3,0,.5,0-.2,0-.3,0-.5,0Z"/>
      <path class="cls-9" d="M488,69c0,.2,0,.4,0,.6,0-.2,0-.4,0-.6Z"/>
      <path class="cls-9" d="M488,65.4c0,.1,0,.2,0,.3,0-.1,0-.2,0-.3Z"/>
      <path class="cls-9" d="M487.7,75.8c0,0,0,.1,0,.2,0,0,0-.1,0-.2Z"/>
      <path class="cls-9" d="M487.5,61.4c0,0,0,.2.1.2,0,0,0-.2-.1-.2Z"/>
      <path class="cls-15" d="M478.5,44.7s0,0,0,.1c0,0,0,0,0-.1Z"/>
      <path class="cls-15" d="M505.1,69.7c.1-.5.2-1,.3-1.5,0,.5,0,1.1-.3,1.5Z"/>
      <path class="cls-15" d="M505.6,67.4c0-.1,0-.3.1-.4,0,.1,0,.3-.1.4Z"/>
      <path class="cls-15" d="M506.1,65.1c0,0,0-.2.1-.3,0,0,0,.2-.1.3Z"/>
      <path class="cls-15" d="M506,65.6c0,0,0-.2,0-.3,0,0,0,.2,0,.3Z"/>
      <path class="cls-15" d="M505.9,66.1c0,0,0-.2,0-.3,0,0,0,.2,0,.3Z"/>
      <path class="cls-15" d="M505.8,66.7c0,0,.1-.2.2-.2,0,0-.1.2-.2.2Z"/>
      <path class="cls-15" d="M505.5,67.9c0,0,0-.2.1-.2,0,0,0,.2-.1.2Z"/>
      <path class="cls-15" d="M505,70.3c0,0,0-.2.1-.2,0,0,0,.2-.1.2Z"/>
      <path class="cls-11" d="M486,71.9c0,0-.1-.1-.2-.2,0,0,.1.1.2.2Z"/>
      <path class="cls-7" d="M422.7,105.6c0,0,0-.1-.1-.2-.5-.5-1-1.1-1.5-1.6,0-.1-.2-.2-.3-.3,0,0-.2-.2-.3-.3-.2-.2-.4-.5-.6-.7,0-.1-.2-.3-.3-.4.5,0,1-.1,1.5-.2.6,0,1.3-.1,1.9-.2.3,0,.6,0,.9,0,0,0,.1,0,.2,0,0,0,.2,0,.3,0,1.8-.2,3.6-.3,5.4-.5,0,0,0,0,0,0,0,0,0,0,0,0,.4,1,.8,2.1,1.2,3.1,1.5,3.1,3.3,5.9,5.5,8.5.1.1.2.3.3.5.2.2.1.4-.1.6-.4.3-.8.6-1.2.8-.3.1-.7,0-1,0-1.8-.9-3.6-2-5.2-3.2-1.7-1.3-3.3-2.7-5-4.1-.1-.1-.2-.2-.4-.4,0,0,0,0,0,0-.1,0-.2-.2-.3-.3,0,0,0,0-.1-.1-.3-.3-.5-.5-.8-.8Z"/>
      <path class="cls-16" d="M501.5,30.2c0,.2,0,.5.1.7,0-.2,0-.5-.1-.7Z"/>
      <path class="cls-16" d="M501.5,32.8c0,.1,0,.2-.1.3,0-.1,0-.2.1-.3Z"/>
      <path class="cls-16" d="M501.7,31.8c0,0,0,.2,0,.2,0,0,0-.2,0-.2Z"/>
      <path class="cls-16" d="M501.5,32.4c0,0,0,.1,0,.2,0,0,0-.1,0-.2Z"/>
      <path class="cls-4" d="M487.9,103.7c.3,0,.5,0,.8-.1-.3,0-.5,0-.8.1Z"/>
      <path class="cls-4" d="M487.4,103.8c.1,0,.3,0,.4,0-.1,0-.3,0-.4,0Z"/>
      <path class="cls-9" d="M486.2,40.9c-.1.5-.3.9-.4,1.4.1-.5.3-.9.4-1.4Z"/>
      <path class="cls-9" d="M486.6,38.1c0,.2,0,.5-.1.7,0-.2,0-.5.1-.7Z"/>
      <path class="cls-9" d="M486.8,36.3c0,.1,0,.2-.1.4,0-.1,0-.2.1-.4Z"/>
      <path class="cls-9" d="M486.7,37.4c0,.1,0,.2,0,.3,0-.1,0-.2,0-.3Z"/>
      <path class="cls-9" d="M486.4,39.7c0,0,0,.1,0,.2,0,0,0-.1,0-.2Z"/>
      <path class="cls-9" d="M486.5,39.3c0,0,0,.1,0,.2,0,0,0-.1,0-.2Z"/>
      <path class="cls-10" d="M476.5,11.2c0,0-.1,0-.2.1-.1.1-.3.2-.4.3-.2.1-.4.3-.6.4-.1,0-.2.2-.3.3,0,0,0,0-.1.1-.1.1-.3.2-.4.3,0,0-.1.1-.2.2,0,0-.1,0-.2.1,0,0,0,0,0,0-.2.2-.4.3-.6.5,0,0,0,0-.1.1,0,0,0,0,0,0-.4.4-.8.7-1.2,1.1-.3.3-.5.3-.9,0-2.4-1.8-5-3.1-7.7-4.1-1.6-.6-3.3-1.2-5-1.8-.5-.2-1-.4-1.4-.6.5-.6.9-1.2,1.4-1.7.9-1,1.8-2,2.7-3,.1-.1.3-.2.5-.2.6,0,1.2,0,1.8.1.6,0,1.3.1,1.9.2.1,0,.2,0,.3,0,.3,0,.5,0,.8,0,.1,0,.2,0,.3,0,0,0,.2,0,.2,0,.3,0,.6,0,1,.1.1,0,.3,0,.4,0,.3,0,.6,0,.9.1.2,0,.4,0,.6,0,.1,0,.2,0,.4.1.3,0,.6,0,.8,0,.2,0,.4,0,.7.1.1,0,.2,0,.3,0,.1,0,.2,0,.3,0,0,0,.2,0,.2,0,.8.2,1.7.4,2.5.6,2,.5,3.9.9,5.7,1.9,0,0,.1,0,.3.2-.5.4-1,.8-1.5,1.2-.3.2-.6.5-.8.7-.3.3-.7.5-1,.8-.3.2-.5.5-.8.7-.2.2-.4.3-.6.5Z"/>
      <path class="cls-19" d="M504,93.7c.3,0,.5-.2.8-.3-.3,0-.5.2-.8.3Z"/>
      <path class="cls-19" d="M505.3,93.2c.3-.1.5-.2.8-.3-.3.1-.5.2-.8.3Z"/>
      <path class="cls-19" d="M502.6,94.3c.2,0,.3-.1.5-.2-.2,0-.3.1-.5.2Z"/>
      <path class="cls-19" d="M506.9,92.5c.1,0,.2-.1.4-.2-.1,0-.2.1-.4.2Z"/>
      <path class="cls-19" d="M508.5,91.7c0,0,.2-.1.2-.2,0,0-.2.1-.2.2Z"/>
      <path class="cls-19" d="M507.9,92c0,0,.2,0,.2-.1,0,0-.2,0-.2.1Z"/>
      <path class="cls-19" d="M503.2,94c0,0,.2,0,.2-.1,0,0-.2,0-.2.1Z"/>
      <path class="cls-19" d="M502.2,94.5c0,0,.2,0,.2-.1,0,0-.2,0-.2.1Z"/>
      <path class="cls-8" d="M458.6,95c0,.1.1.2.2.4,0-.1-.1-.2-.2-.4Z"/>
      <path class="cls-8" d="M459.5,96.6c0,0,0,.1.1.2,0,0,0-.1-.1-.2Z"/>
      <path class="cls-9" d="M493.2,76.3c.1,0,.2-.1.3-.2-.1,0-.2.1-.3.2Z"/>
      <path class="cls-16" d="M505.5,36.7c0,0,0-.1,0-.2,0,0,0,.1,0,.2Z"/>
      <path class="cls-3" d="M510.8,40.2c0-.3,0-.7,0-1,0,.3,0,.7,0,1Z"/>
      <path class="cls-3" d="M510.9,33.5c0-.2,0-.4,0-.5,0,.2,0,.4,0,.5Z"/>
      <path class="cls-8" d="M474.5,105.5c.3,0,.6,0,.9,0-.3,0-.6,0-.9,0Z"/>
      <path class="cls-4" d="M478.7,105c.2,0,.3,0,.5,0-.2,0-.3,0-.5,0Z"/>
      <path class="cls-8" d="M477.5,105.2c0,0,.2,0,.3,0,0,0-.2,0-.3,0Z"/>
      <path class="cls-9" d="M507.7,29.2c0,0-.2,0-.3-.1,0,0,.2,0,.3.1Z"/>
      <path class="cls-8" d="M424.3,101.6c0,0-.2,0-.3,0h.3Z"/>
      <path class="cls-4" d="M484.7,104.2c.2,0,.4,0,.7-.1-.2,0-.4,0-.7.1Z"/>
      <path class="cls-4" d="M484.3,104.3c0,0,.2,0,.3,0,0,0-.2,0-.3,0Z"/>
      <path class="cls-4" d="M483.6,104.4c0,0,.2,0,.3,0,0,0-.2,0-.3,0Z"/>
      <path class="cls-4" d="M482.7,104.5c0,0,.2,0,.3,0,0,0-.2,0-.3,0Z"/>
      <path class="cls-4" d="M481.6,104.7c0,0,.2,0,.3-.1,0,0-.2,0-.3.1Z"/>
      <path class="cls-4" d="M480.6,104.8c0,0,.2,0,.3,0,0,0-.2,0-.3,0Z"/>
      <path class="cls-14" d="M468.1,4.1c-.3,0-.6,0-1-.1.3,0,.6,0,1,.1Z"/>
      <path class="cls-14" d="M465.8,3.9c-.1,0-.2,0-.3,0,.1,0,.2,0,.3,0Z"/>
      <path class="cls-14" d="M466.9,4c-.1,0-.2,0-.3,0,.1,0,.2,0,.3,0Z"/>
      <path class="cls-9" d="M484.1,44.5c-.4.3-1,.3-1.4-.1.5,0,.9,0,1.4.1Z"/>
      <path class="cls-9" d="M481.5,42.8c-.3,0-.5-.1-.8-.2.3,0,.5,0,.8,0,0,0,0,.1,0,.2Z"/>
      <path class="cls-9" d="M482.5,44.2c0-.1-.1-.2-.2-.3,0,.1.1.2.2.3Z"/>
      <path class="cls-9" d="M482.3,43.9c0,0-.1-.1-.2-.2,0,0,.1.1.2.2Z"/>
      <path class="cls-14" d="M471.9,4.6c-.2,0-.4,0-.7-.1.2,0,.4,0,.7.1Z"/>
      <path class="cls-14" d="M470.4,4.4c-.1,0-.2,0-.4-.1.1,0,.2,0,.4.1Z"/>
      <path class="cls-14" d="M472.5,4.7c-.1,0-.2,0-.3,0,.1,0,.2,0,.3,0Z"/>
      <path class="cls-31" d="M505.4,33.4c0,0,0,.1,0,.2,0,0,0,0,0,0,0,0,0-.1,0-.2Z"/>
      <path class="cls-1" d="M493,28.3c0-.7,0-1.4,0-2,0,.7,0,1.4,0,2Z"/>
      <path class="cls-1" d="M493.1,25.7c0,0,0-.1,0-.2,0,0,.2,0,.2,0,0,0,0,.1,0,.2,0,0-.2,0-.2,0Z"/>
      <path class="cls-31" d="M486.3,74.5c0-.2,0-.3,0-.5,0,0,.1,0,.2,0,0,.2,0,.3-.1.5Z"/>
      <path class="cls-11" d="M486.1,72.6c0-.1,0-.2,0-.3,0,.1,0,.2,0,.3Z"/>
      <path class="cls-20" d="M469.1,4.1s0,0,0,0c0,0,0,0,0,0,0,0,0,0,0,0Z"/>
      <path class="cls-12" d="M504.8,71.6c0,0,0-.1,0-.2,0,0,0,.1,0,.2Z"/>
      <path class="cls-15" d="M473.4,13.8s0,0,.1-.1c0,0,0,0-.1.1Z"/>
    </g>
  </g>
</svg>