<svg xmlns="http://www.w3.org/2000/svg" width="66" height="66" viewBox="0 0 66 66">
  <g id="Group_120" data-name="Group 120" transform="translate(422 -50)">
    <rect id="Rectangle_115" data-name="Rectangle 115" width="66" height="66" transform="translate(-422 50)" fill="#fff"/>
    <g id="Group_119" data-name="Group 119" transform="translate(67 14.636)">
      <path id="Path_64" data-name="Path 64" d="M20.306,61.864A20.329,20.329,0,0,1,0,41.558H3.206a17.1,17.1,0,0,0,34.2,0h3.206A20.329,20.329,0,0,1,20.306,61.864" transform="translate(-482 21.613)" fill="#360c25"/>
      <rect id="Rectangle_104" data-name="Rectangle 104" width="28.458" height="3.206" transform="translate(-475.923 86.43)" fill="#e36414"/>
      <path id="Path_65" data-name="Path 65" d="M104.466,57.791a6.823,6.823,0,0,1-1.189-.106l2.543-3.121c2.424-.165,5.413-.575,6.859-2.614C114,50.095,114.4,47.9,113.688,46.5c-.692-1.364-2.323-1.674-3.571-1.694l.051-3.206c4.062.064,5.741,2.189,6.38,3.45,1.255,2.477.764,5.915-1.253,8.758-2.173,3.065-7.145,3.986-10.828,3.986" transform="translate(-548.479 21.588)" fill="#360c25"/>
      <path id="Path_66" data-name="Path 66" d="M19.835,51.993a13.751,13.751,0,0,0,26.477,0Z" transform="translate(-494.768 14.896)" fill="#360c25"/>
      <path id="Path_67" data-name="Path 67" d="M21.235,21.32v-.488c.007-.045.017-.09.022-.136a3.321,3.321,0,0,1,1.3-2.412,2.925,2.925,0,0,1,2.617-.5,3.034,3.034,0,0,1,1.643,1.172c.132.174.248.361.367.536.162-.227.311-.464.488-.677a2.923,2.923,0,0,1,2.117-1.136,3.093,3.093,0,0,1,3.121,2.1,3.879,3.879,0,0,1-.485,3.554A8.561,8.561,0,0,1,30.958,25c-1.151,1.026-2.319,2.032-3.481,3.045a.379.379,0,0,1-.578,0q-1.387-1.2-2.771-2.392a13.532,13.532,0,0,1-1.944-1.994,4.436,4.436,0,0,1-.826-1.636c-.056-.232-.083-.47-.123-.706" transform="translate(-495.669 36.992)" fill="#e36414"/>
      <path id="Path_68" data-name="Path 68" d="M59.338,3.654V3.166c.007-.045.017-.091.022-.136a3.321,3.321,0,0,1,1.3-2.412,2.925,2.925,0,0,1,2.617-.5,3.034,3.034,0,0,1,1.643,1.172c.132.174.248.361.367.536.162-.227.311-.464.488-.677A2.923,2.923,0,0,1,67.891.011a3.093,3.093,0,0,1,3.121,2.1,3.879,3.879,0,0,1-.485,3.554,8.561,8.561,0,0,1-1.467,1.674c-1.151,1.026-2.319,2.032-3.481,3.045a.379.379,0,0,1-.578,0q-1.387-1.2-2.771-2.392A13.532,13.532,0,0,1,60.287,6a4.436,4.436,0,0,1-.826-1.636c-.056-.232-.083-.47-.123-.706" transform="translate(-520.196 48.363)" fill="#9a031e"/>
    </g>
  </g>
</svg>
